<?xml version="1.0" encoding="UTF-8" standalone="no"?>
<!DOCTYPE svg PUBLIC "-//W3C//DTD SVG 1.1//EN"
 "http://www.w3.org/Graphics/SVG/1.1/DTD/svg11.dtd">
<!-- Generated by graphviz version 2.38.0 (20140413.2041)
 -->
<!-- Title: %3 Pages: 1 -->
<svg width="309pt" height="98pt"
 viewBox="0.00 0.00 308.53 98.00" xmlns="http://www.w3.org/2000/svg" xmlns:xlink="http://www.w3.org/1999/xlink">
<g id="graph0" class="graph" transform="scale(1 1) rotate(0) translate(4 94)">
<title>%3</title>
<polygon fill="white" stroke="none" points="-4,4 -4,-94 304.526,-94 304.526,4 -4,4"/>
<!-- output -->
<g id="node1" class="node"><title>output</title>
<polygon fill="#2980b9" stroke="#2980b9" points="76,-63 0,-63 0,-27 76,-27 76,-63"/>
<text text-anchor="middle" x="38" y="-42.5" font-family="Arial" font-size="10.00" fill="#ffffff">Output device</text>
</g>
<!-- input_1 -->
<g id="node2" class="node"><title>input_1</title>
<polygon fill="#2980b9" stroke="#2980b9" points="300.526,-90 224.526,-90 224.526,-54 300.526,-54 300.526,-90"/>
<text text-anchor="middle" x="262.526" y="-69.5" font-family="Arial" font-size="10.00" fill="#ffffff">Input device 1</text>
</g>
<!-- tool -->
<g id="node4" class="node"><title>tool</title>
<ellipse fill="#9ec6e0" stroke="#9ec6e0" cx="150.263" cy="-45" rx="38.0276" ry="18"/>
<text text-anchor="middle" x="150.263" y="-42.5" font-family="Arial" font-size="10.00" fill="#ffffff">source tool</text>
</g>
<!-- input_1&#45;&gt;tool -->
<g id="edge1" class="edge"><title>input_1&#45;&gt;tool</title>
<path fill="none" stroke="black" d="M224.503,-62.9343C214.837,-60.5674 204.336,-57.9959 194.383,-55.5588"/>
<polygon fill="black" stroke="black" points="195.21,-52.158 184.665,-53.179 193.545,-58.9571 195.21,-52.158"/>
</g>
<!-- input_2 -->
<g id="node3" class="node"><title>input_2</title>
<polygon fill="#2980b9" stroke="#2980b9" points="300.526,-36 224.526,-36 224.526,-0 300.526,-0 300.526,-36"/>
<text text-anchor="middle" x="262.526" y="-15.5" font-family="Arial" font-size="10.00" fill="#ffffff">Input device 2</text>
</g>
<!-- input_2&#45;&gt;tool -->
<g id="edge2" class="edge"><title>input_2&#45;&gt;tool</title>
<path fill="none" stroke="black" d="M224.503,-27.0657C214.837,-29.4326 204.336,-32.0041 194.383,-34.4412"/>
<polygon fill="black" stroke="black" points="193.545,-31.0429 184.665,-36.821 195.21,-37.842 193.545,-31.0429"/>
</g>
<!-- tool&#45;&gt;output -->
<g id="edge3" class="edge"><title>tool&#45;&gt;output</title>
<path fill="none" stroke="black" d="M111.933,-45C103.76,-45 95.0029,-45 86.493,-45"/>
<polygon fill="black" stroke="black" points="86.2916,-41.5001 76.2916,-45 86.2916,-48.5001 86.2916,-41.5001"/>
</g>
</g>
</svg>
