<?xml version="1.0" encoding="UTF-8" standalone="no"?>
<!DOCTYPE svg PUBLIC "-//W3C//DTD SVG 1.1//EN"
 "http://www.w3.org/Graphics/SVG/1.1/DTD/svg11.dtd">
<!-- Generated by graphviz version 2.40.1 (20161225.0304)
 -->
<!-- Title: %3 Pages: 1 -->
<svg width="337pt" height="98pt"
 viewBox="0.00 0.00 336.59 98.00" xmlns="http://www.w3.org/2000/svg" xmlns:xlink="http://www.w3.org/1999/xlink">
<g id="graph0" class="graph" transform="scale(1 1) rotate(0) translate(4 94)">
<title>%3</title>
<polygon fill="#ffffff" stroke="transparent" points="-4,4 -4,-94 332.5901,-94 332.5901,4 -4,4"/>
<!-- output -->
<g id="node1" class="node">
<title>output</title>
<polygon fill="#2980b9" stroke="#2980b9" points="86,-63 0,-63 0,-27 86,-27 86,-63"/>
<text text-anchor="middle" x="43" y="-42.5" font-family="Sans" font-size="10.00" fill="#ffffff">Output Device</text>
</g>
<!-- input_1 -->
<g id="node2" class="node">
<title>input_1</title>
<polygon fill="#2980b9" stroke="#2980b9" points="328.5901,-90 241.5901,-90 241.5901,-54 328.5901,-54 328.5901,-90"/>
<text text-anchor="middle" x="285.0901" y="-69.5" font-family="Sans" font-size="10.00" fill="#ffffff">Input Device 1</text>
</g>
<!-- tool -->
<g id="node4" class="node">
<title>tool</title>
<ellipse fill="#9ec6e0" stroke="#9ec6e0" cx="163.7951" cy="-45" rx="41.5911" ry="18"/>
<text text-anchor="middle" x="163.7951" y="-42.5" font-family="Sans" font-size="10.00" fill="#ffffff">source tool</text>
</g>
<!-- input_1&#45;&gt;tool -->
<g id="edge1" class="edge">
<title>input_1&#45;&gt;tool</title>
<path fill="none" stroke="#000000" d="M241.2998,-62.2524C231.4264,-60.0546 220.9055,-57.7127 210.9025,-55.486"/>
<polygon fill="#000000" stroke="#000000" points="211.6369,-52.0639 201.1153,-53.3074 210.1159,-58.8966 211.6369,-52.0639"/>
</g>
<!-- input_2 -->
<g id="node3" class="node">
<title>input_2</title>
<polygon fill="#2980b9" stroke="#2980b9" points="328.5901,-36 241.5901,-36 241.5901,0 328.5901,0 328.5901,-36"/>
<text text-anchor="middle" x="285.0901" y="-15.5" font-family="Sans" font-size="10.00" fill="#ffffff">Input Device 2</text>
</g>
<!-- input_2&#45;&gt;tool -->
<g id="edge2" class="edge">
<title>input_2&#45;&gt;tool</title>
<path fill="none" stroke="#000000" d="M241.2998,-27.7476C231.4264,-29.9454 220.9055,-32.2873 210.9025,-34.514"/>
<polygon fill="#000000" stroke="#000000" points="210.1159,-31.1034 201.1153,-36.6926 211.6369,-37.9361 210.1159,-31.1034"/>
</g>
<!-- tool&#45;&gt;output -->
<g id="edge3" class="edge">
<title>tool&#45;&gt;output</title>
<path fill="none" stroke="#000000" d="M121.8858,-45C113.5598,-45 104.7149,-45 96.0732,-45"/>
<polygon fill="#000000" stroke="#000000" points="96.065,-41.5001 86.0649,-45 96.0649,-48.5001 96.065,-41.5001"/>
</g>
</g>
</svg>
