<?xml version="1.0" encoding="UTF-8" standalone="no"?>
<!DOCTYPE svg PUBLIC "-//W3C//DTD SVG 1.1//EN"
 "http://www.w3.org/Graphics/SVG/1.1/DTD/svg11.dtd">
<!-- Generated by graphviz version 2.38.0 (20140413.2041)
 -->
<!-- Title: %3 Pages: 1 -->
<svg width="258pt" height="98pt"
 viewBox="0.00 0.00 258.46 98.00" xmlns="http://www.w3.org/2000/svg" xmlns:xlink="http://www.w3.org/1999/xlink">
<g id="graph0" class="graph" transform="scale(1 1) rotate(0) translate(4 94)">
<title>%3</title>
<polygon fill="white" stroke="none" points="-4,4 -4,-94 254.462,-94 254.462,4 -4,4"/>
<!-- LED -->
<g id="node1" class="node"><title>LED</title>
<polygon fill="#2980b9" stroke="#2980b9" points="54,-63 0,-63 0,-27 54,-27 54,-63"/>
<text text-anchor="middle" x="27" y="-42.5" font-family="Arial" font-size="10.00" fill="#ffffff">LED</text>
</g>
<!-- button_a -->
<g id="node2" class="node"><title>button_a</title>
<polygon fill="#2980b9" stroke="#2980b9" points="250.462,-90 195.462,-90 195.462,-54 250.462,-54 250.462,-90"/>
<text text-anchor="middle" x="222.962" y="-69.5" font-family="Arial" font-size="10.00" fill="#ffffff">Button A</text>
</g>
<!-- all_values -->
<g id="node4" class="node"><title>all_values</title>
<ellipse fill="#9ec6e0" stroke="#9ec6e0" cx="124.731" cy="-45" rx="34.9638" ry="18"/>
<text text-anchor="middle" x="124.731" y="-42.5" font-family="Arial" font-size="10.00" fill="#ffffff">all_values</text>
</g>
<!-- button_a&#45;&gt;all_values -->
<g id="edge1" class="edge"><title>button_a&#45;&gt;all_values</title>
<path fill="none" stroke="black" d="M195.412,-64.5507C186.149,-61.9517 175.542,-58.9756 165.444,-56.1425"/>
<polygon fill="black" stroke="black" points="166.159,-52.7078 155.585,-53.3762 164.268,-59.4476 166.159,-52.7078"/>
</g>
<!-- button_b -->
<g id="node3" class="node"><title>button_b</title>
<polygon fill="#2980b9" stroke="#2980b9" points="250.462,-36 195.462,-36 195.462,-0 250.462,-0 250.462,-36"/>
<text text-anchor="middle" x="222.962" y="-15.5" font-family="Arial" font-size="10.00" fill="#ffffff">Button B</text>
</g>
<!-- button_b&#45;&gt;all_values -->
<g id="edge2" class="edge"><title>button_b&#45;&gt;all_values</title>
<path fill="none" stroke="black" d="M195.412,-25.4493C186.149,-28.0483 175.542,-31.0244 165.444,-33.8575"/>
<polygon fill="black" stroke="black" points="164.268,-30.5524 155.585,-36.6238 166.159,-37.2922 164.268,-30.5524"/>
</g>
<!-- all_values&#45;&gt;LED -->
<g id="edge3" class="edge"><title>all_values&#45;&gt;LED</title>
<path fill="none" stroke="black" d="M89.9799,-45C81.7286,-45 72.8627,-45 64.4898,-45"/>
<polygon fill="black" stroke="black" points="64.2312,-41.5001 54.2311,-45 64.2311,-48.5001 64.2312,-41.5001"/>
</g>
</g>
</svg>
