<?xml version="1.0" encoding="UTF-8" standalone="no"?>
<!DOCTYPE svg PUBLIC "-//W3C//DTD SVG 1.1//EN"
 "http://www.w3.org/Graphics/SVG/1.1/DTD/svg11.dtd">
<!-- Generated by graphviz version 2.40.1 (20161225.0304)
 -->
<!-- Title: %3 Pages: 1 -->
<svg width="271pt" height="98pt"
 viewBox="0.00 0.00 270.70 98.00" xmlns="http://www.w3.org/2000/svg" xmlns:xlink="http://www.w3.org/1999/xlink">
<g id="graph0" class="graph" transform="scale(1 1) rotate(0) translate(4 94)">
<title>%3</title>
<polygon fill="#ffffff" stroke="transparent" points="-4,4 -4,-94 266.7035,-94 266.7035,4 -4,4"/>
<!-- LED -->
<g id="node1" class="node">
<title>LED</title>
<polygon fill="#2980b9" stroke="#2980b9" points="54,-63 0,-63 0,-27 54,-27 54,-63"/>
<text text-anchor="middle" x="27" y="-42.5" font-family="Sans" font-size="10.00" fill="#ffffff">LED</text>
</g>
<!-- button_a -->
<g id="node2" class="node">
<title>button_a</title>
<polygon fill="#2980b9" stroke="#2980b9" points="262.7035,-90 203.7035,-90 203.7035,-54 262.7035,-54 262.7035,-90"/>
<text text-anchor="middle" x="233.2035" y="-69.5" font-family="Sans" font-size="10.00" fill="#ffffff">Button A</text>
</g>
<!-- all_values -->
<g id="node4" class="node">
<title>all_values</title>
<ellipse fill="#9ec6e0" stroke="#9ec6e0" cx="128.8518" cy="-45" rx="38.7041" ry="18"/>
<text text-anchor="middle" x="128.8518" y="-42.5" font-family="Sans" font-size="10.00" fill="#ffffff">all_values</text>
</g>
<!-- button_a&#45;&gt;all_values -->
<g id="edge1" class="edge">
<title>button_a&#45;&gt;all_values</title>
<path fill="none" stroke="#000000" d="M203.5796,-64.3351C193.9905,-61.854 183.1429,-59.0473 172.7456,-56.3571"/>
<polygon fill="#000000" stroke="#000000" points="173.5287,-52.9445 162.9708,-53.828 171.7752,-59.7214 173.5287,-52.9445"/>
</g>
<!-- button_b -->
<g id="node3" class="node">
<title>button_b</title>
<polygon fill="#2980b9" stroke="#2980b9" points="262.7035,-36 203.7035,-36 203.7035,0 262.7035,0 262.7035,-36"/>
<text text-anchor="middle" x="233.2035" y="-15.5" font-family="Sans" font-size="10.00" fill="#ffffff">Button B</text>
</g>
<!-- button_b&#45;&gt;all_values -->
<g id="edge2" class="edge">
<title>button_b&#45;&gt;all_values</title>
<path fill="none" stroke="#000000" d="M203.5796,-25.6649C193.9905,-28.146 183.1429,-30.9527 172.7456,-33.6429"/>
<polygon fill="#000000" stroke="#000000" points="171.7752,-30.2786 162.9708,-36.172 173.5287,-37.0555 171.7752,-30.2786"/>
</g>
<!-- all_values&#45;&gt;LED -->
<g id="edge3" class="edge">
<title>all_values&#45;&gt;LED</title>
<path fill="none" stroke="#000000" d="M89.7645,-45C81.4022,-45 72.5891,-45 64.2965,-45"/>
<polygon fill="#000000" stroke="#000000" points="64.1439,-41.5001 54.1439,-45 64.1439,-48.5001 64.1439,-41.5001"/>
</g>
</g>
</svg>
