<?xml version="1.0" encoding="UTF-8" standalone="no"?>
<!DOCTYPE svg PUBLIC "-//W3C//DTD SVG 1.1//EN"
 "http://www.w3.org/Graphics/SVG/1.1/DTD/svg11.dtd">
<!-- Generated by graphviz version 2.40.1 (20161225.0304)
 -->
<!-- Title: %3 Pages: 1 -->
<svg width="335pt" height="98pt"
 viewBox="0.00 0.00 334.59 98.00" xmlns="http://www.w3.org/2000/svg" xmlns:xlink="http://www.w3.org/1999/xlink">
<g id="graph0" class="graph" transform="scale(1 1) rotate(0) translate(4 94)">
<title>%3</title>
<polygon fill="#ffffff" stroke="transparent" points="-4,4 -4,-94 330.5901,-94 330.5901,4 -4,4"/>
<!-- output -->
<g id="node1" class="node">
<title>output</title>
<polygon fill="#2980b9" stroke="#2980b9" points="85,-63 0,-63 0,-27 85,-27 85,-63"/>
<text text-anchor="middle" x="42.5" y="-42.5" font-family="Sans" font-size="10.00" fill="#ffffff">Output device</text>
</g>
<!-- input_1 -->
<g id="node2" class="node">
<title>input_1</title>
<polygon fill="#2980b9" stroke="#2980b9" points="326.5901,-90 240.5901,-90 240.5901,-54 326.5901,-54 326.5901,-90"/>
<text text-anchor="middle" x="283.5901" y="-69.5" font-family="Sans" font-size="10.00" fill="#ffffff">Input device 1</text>
</g>
<!-- tool -->
<g id="node4" class="node">
<title>tool</title>
<ellipse fill="#9ec6e0" stroke="#9ec6e0" cx="162.7951" cy="-45" rx="41.5911" ry="18"/>
<text text-anchor="middle" x="162.7951" y="-42.5" font-family="Sans" font-size="10.00" fill="#ffffff">source tool</text>
</g>
<!-- input_1&#45;&gt;tool -->
<g id="edge1" class="edge">
<title>input_1&#45;&gt;tool</title>
<path fill="none" stroke="#000000" d="M240.3215,-62.3286C230.4716,-60.127 219.9591,-57.7773 209.9561,-55.5414"/>
<polygon fill="#000000" stroke="#000000" points="210.6889,-52.1189 200.1662,-53.3532 209.1619,-58.9503 210.6889,-52.1189"/>
</g>
<!-- input_2 -->
<g id="node3" class="node">
<title>input_2</title>
<polygon fill="#2980b9" stroke="#2980b9" points="326.5901,-36 240.5901,-36 240.5901,0 326.5901,0 326.5901,-36"/>
<text text-anchor="middle" x="283.5901" y="-15.5" font-family="Sans" font-size="10.00" fill="#ffffff">Input device 2</text>
</g>
<!-- input_2&#45;&gt;tool -->
<g id="edge2" class="edge">
<title>input_2&#45;&gt;tool</title>
<path fill="none" stroke="#000000" d="M240.3215,-27.6714C230.4716,-29.873 219.9591,-32.2227 209.9561,-34.4586"/>
<polygon fill="#000000" stroke="#000000" points="209.1619,-31.0497 200.1662,-36.6468 210.6889,-37.8811 209.1619,-31.0497"/>
</g>
<!-- tool&#45;&gt;output -->
<g id="edge3" class="edge">
<title>tool&#45;&gt;output</title>
<path fill="none" stroke="#000000" d="M120.7217,-45C112.5331,-45 103.8518,-45 95.3666,-45"/>
<polygon fill="#000000" stroke="#000000" points="95.1603,-41.5001 85.1602,-45 95.1602,-48.5001 95.1603,-41.5001"/>
</g>
</g>
</svg>
