<?xml version="1.0" encoding="UTF-8" standalone="no"?>
<!DOCTYPE svg PUBLIC "-//W3C//DTD SVG 1.1//EN"
 "http://www.w3.org/Graphics/SVG/1.1/DTD/svg11.dtd">
<!-- Generated by graphviz version 2.40.1 (20161225.0304)
 -->
<!-- Title: %3 Pages: 1 -->
<svg width="436pt" height="98pt"
 viewBox="0.00 0.00 436.18 98.00" xmlns="http://www.w3.org/2000/svg" xmlns:xlink="http://www.w3.org/1999/xlink">
<g id="graph0" class="graph" transform="scale(1 1) rotate(0) translate(4 94)">
<title>%3</title>
<polygon fill="#ffffff" stroke="transparent" points="-4,4 -4,-94 432.1803,-94 432.1803,4 -4,4"/>
<!-- led -->
<g id="node1" class="node">
<title>led</title>
<polygon fill="#2980b9" stroke="#2980b9" points="77,-63 0,-63 0,-27 77,-27 77,-63"/>
<text text-anchor="middle" x="38.5" y="-42.5" font-family="Sans" font-size="10.00" fill="#ffffff">Garden light</text>
</g>
<!-- light -->
<g id="node2" class="node">
<title>light</title>
<polygon fill="#2980b9" stroke="#2980b9" points="428.1803,-36 352.1803,-36 352.1803,0 428.1803,0 428.1803,-36"/>
<text text-anchor="middle" x="390.1803" y="-15.5" font-family="Sans" font-size="10.00" fill="#ffffff">Light sensor</text>
</g>
<!-- booleanized -->
<g id="node4" class="node">
<title>booleanized</title>
<ellipse fill="#9ec6e0" stroke="#9ec6e0" cx="271.4419" cy="-18" rx="44.978" ry="18"/>
<text text-anchor="middle" x="271.4419" y="-15.5" font-family="Sans" font-size="10.00" fill="#ffffff">booleanized</text>
</g>
<!-- light&#45;&gt;booleanized -->
<g id="edge4" class="edge">
<title>light&#45;&gt;booleanized</title>
<path fill="none" stroke="#000000" d="M351.9571,-18C343.7709,-18 334.9676,-18 326.2937,-18"/>
<polygon fill="#000000" stroke="#000000" points="326.2155,-14.5001 316.2155,-18 326.2154,-21.5001 326.2155,-14.5001"/>
</g>
<!-- motion -->
<g id="node3" class="node">
<title>motion</title>
<polygon fill="#2980b9" stroke="#2980b9" points="313.9419,-90 228.9419,-90 228.9419,-54 313.9419,-54 313.9419,-90"/>
<text text-anchor="middle" x="271.4419" y="-69.5" font-family="Sans" font-size="10.00" fill="#ffffff">Motion sensor</text>
</g>
<!-- all_values -->
<g id="node5" class="node">
<title>all_values</title>
<ellipse fill="#9ec6e0" stroke="#9ec6e0" cx="151.8518" cy="-45" rx="38.7041" ry="18"/>
<text text-anchor="middle" x="151.8518" y="-42.5" font-family="Sans" font-size="10.00" fill="#ffffff">all_values</text>
</g>
<!-- motion&#45;&gt;all_values -->
<g id="edge3" class="edge">
<title>motion&#45;&gt;all_values</title>
<path fill="none" stroke="#000000" d="M228.6049,-62.3286C218.2438,-59.9894 207.1421,-57.483 196.6916,-55.1236"/>
<polygon fill="#000000" stroke="#000000" points="197.4425,-51.705 186.9171,-52.9168 195.9008,-58.5332 197.4425,-51.705"/>
</g>
<!-- booleanized&#45;&gt;all_values -->
<g id="edge2" class="edge">
<title>booleanized&#45;&gt;all_values</title>
<path fill="none" stroke="#000000" d="M232.2836,-26.8408C221.0087,-29.3864 208.6179,-32.1838 197.0111,-34.8043"/>
<polygon fill="#000000" stroke="#000000" points="196.0444,-31.4344 187.0607,-37.0508 197.586,-38.2625 196.0444,-31.4344"/>
</g>
<!-- all_values&#45;&gt;led -->
<g id="edge1" class="edge">
<title>all_values&#45;&gt;led</title>
<path fill="none" stroke="#000000" d="M112.8425,-45C104.6474,-45 95.9046,-45 87.4,-45"/>
<polygon fill="#000000" stroke="#000000" points="87.1972,-41.5001 77.1972,-45 87.1971,-48.5001 87.1972,-41.5001"/>
</g>
</g>
</svg>
