<?xml version="1.0" encoding="UTF-8" standalone="no"?>
<!DOCTYPE svg PUBLIC "-//W3C//DTD SVG 1.1//EN"
 "http://www.w3.org/Graphics/SVG/1.1/DTD/svg11.dtd">
<!-- Generated by graphviz version 2.38.0 (20140413.2041)
 -->
<!-- Title: %3 Pages: 1 -->
<svg width="405pt" height="98pt"
 viewBox="0.00 0.00 404.52 98.00" xmlns="http://www.w3.org/2000/svg" xmlns:xlink="http://www.w3.org/1999/xlink">
<g id="graph0" class="graph" transform="scale(1 1) rotate(0) translate(4 94)">
<title>%3</title>
<polygon fill="white" stroke="none" points="-4,4 -4,-94 400.52,-94 400.52,4 -4,4"/>
<!-- led -->
<g id="node1" class="node"><title>led</title>
<polygon fill="#2980b9" stroke="#2980b9" points="69,-63 0,-63 0,-27 69,-27 69,-63"/>
<text text-anchor="middle" x="34.5" y="-42.5" font-family="Arial" font-size="10.00" fill="#ffffff">Garden light</text>
</g>
<!-- light -->
<g id="node2" class="node"><title>light</title>
<polygon fill="#2980b9" stroke="#2980b9" points="396.52,-36 326.52,-36 326.52,-0 396.52,-0 396.52,-36"/>
<text text-anchor="middle" x="361.52" y="-15.5" font-family="Arial" font-size="10.00" fill="#ffffff">Light sensor</text>
</g>
<!-- booleanized -->
<g id="node4" class="node"><title>booleanized</title>
<ellipse fill="#9ec6e0" stroke="#9ec6e0" cx="250.491" cy="-18" rx="40.0582" ry="18"/>
<text text-anchor="middle" x="250.491" y="-15.5" font-family="Arial" font-size="10.00" fill="#ffffff">booleanized</text>
</g>
<!-- light&#45;&gt;booleanized -->
<g id="edge4" class="edge"><title>light&#45;&gt;booleanized</title>
<path fill="none" stroke="black" d="M326.322,-18C318.33,-18 309.659,-18 301.147,-18"/>
<polygon fill="black" stroke="black" points="300.899,-14.5001 290.899,-18 300.899,-21.5001 300.899,-14.5001"/>
</g>
<!-- motion -->
<g id="node3" class="node"><title>motion</title>
<polygon fill="#2980b9" stroke="#2980b9" points="289.491,-90 211.491,-90 211.491,-54 289.491,-54 289.491,-90"/>
<text text-anchor="middle" x="250.491" y="-69.5" font-family="Arial" font-size="10.00" fill="#ffffff">Motion sensor</text>
</g>
<!-- all_values -->
<g id="node5" class="node"><title>all_values</title>
<ellipse fill="#9ec6e0" stroke="#9ec6e0" cx="139.731" cy="-45" rx="34.9638" ry="18"/>
<text text-anchor="middle" x="139.731" y="-42.5" font-family="Arial" font-size="10.00" fill="#ffffff">all_values</text>
</g>
<!-- motion&#45;&gt;all_values -->
<g id="edge3" class="edge"><title>motion&#45;&gt;all_values</title>
<path fill="none" stroke="black" d="M211.452,-62.5567C201.723,-60.1414 191.224,-57.5351 181.37,-55.0887"/>
<polygon fill="black" stroke="black" points="181.942,-51.6245 171.393,-52.612 180.255,-58.4183 181.942,-51.6245"/>
</g>
<!-- booleanized&#45;&gt;all_values -->
<g id="edge2" class="edge"><title>booleanized&#45;&gt;all_values</title>
<path fill="none" stroke="black" d="M215.079,-26.543C204.311,-29.2162 192.329,-32.1906 181.185,-34.9573"/>
<polygon fill="black" stroke="black" points="180.106,-31.6188 171.244,-37.4251 181.793,-38.4125 180.106,-31.6188"/>
</g>
<!-- all_values&#45;&gt;led -->
<g id="edge1" class="edge"><title>all_values&#45;&gt;led</title>
<path fill="none" stroke="black" d="M104.929,-45C96.7357,-45 87.8594,-45 79.2789,-45"/>
<polygon fill="black" stroke="black" points="79.0251,-41.5001 69.0251,-45 79.0251,-48.5001 79.0251,-41.5001"/>
</g>
</g>
</svg>
