<?xml version="1.0" encoding="UTF-8" standalone="no"?>
<!DOCTYPE svg PUBLIC "-//W3C//DTD SVG 1.1//EN"
 "http://www.w3.org/Graphics/SVG/1.1/DTD/svg11.dtd">
<!-- Generated by graphviz version 2.40.1 (20161225.0304)
 -->
<!-- Title: %3 Pages: 1 -->
<svg width="254pt" height="44pt"
 viewBox="0.00 0.00 253.93 44.00" xmlns="http://www.w3.org/2000/svg" xmlns:xlink="http://www.w3.org/1999/xlink">
<g id="graph0" class="graph" transform="scale(1 1) rotate(0) translate(4 40)">
<title>%3</title>
<polygon fill="#ffffff" stroke="transparent" points="-4,4 -4,-40 249.9302,-40 249.9302,4 -4,4"/>
<!-- LED -->
<g id="node1" class="node">
<title>LED</title>
<polygon fill="#2980b9" stroke="#2980b9" points="54,-36 0,-36 0,0 54,0 54,-36"/>
<text text-anchor="middle" x="27" y="-15.5" font-family="Sans" font-size="10.00" fill="#ffffff">LED</text>
</g>
<!-- Button -->
<g id="node2" class="node">
<title>Button</title>
<polygon fill="#2980b9" stroke="#2980b9" points="245.9302,-36 191.9302,-36 191.9302,0 245.9302,0 245.9302,-36"/>
<text text-anchor="middle" x="218.9302" y="-15.5" font-family="Sans" font-size="10.00" fill="#ffffff">Button</text>
</g>
<!-- negated -->
<g id="node3" class="node">
<title>negated</title>
<ellipse fill="#9ec6e0" stroke="#9ec6e0" cx="122.9651" cy="-18" rx="32.9303" ry="18"/>
<text text-anchor="middle" x="122.9651" y="-15.5" font-family="Sans" font-size="10.00" fill="#ffffff">negated</text>
</g>
<!-- Button&#45;&gt;negated -->
<g id="edge1" class="edge">
<title>Button&#45;&gt;negated</title>
<path fill="none" stroke="#000000" d="M191.6872,-18C183.7216,-18 174.8117,-18 166.1156,-18"/>
<polygon fill="#000000" stroke="#000000" points="166.0749,-14.5001 156.0748,-18 166.0748,-21.5001 166.0749,-14.5001"/>
</g>
<!-- negated&#45;&gt;LED -->
<g id="edge2" class="edge">
<title>negated&#45;&gt;LED</title>
<path fill="none" stroke="#000000" d="M89.9394,-18C81.6136,-18 72.6203,-18 64.1089,-18"/>
<polygon fill="#000000" stroke="#000000" points="64.043,-14.5001 54.043,-18 64.0429,-21.5001 64.043,-14.5001"/>
</g>
</g>
</svg>
