<?xml version="1.0" encoding="UTF-8" standalone="no"?>
<!DOCTYPE svg PUBLIC "-//W3C//DTD SVG 1.1//EN"
 "http://www.w3.org/Graphics/SVG/1.1/DTD/svg11.dtd">
<!-- Generated by graphviz version 2.40.1 (20161225.0304)
 -->
<!-- Title: %3 Pages: 1 -->
<svg width="257pt" height="44pt"
 viewBox="0.00 0.00 257.46 44.00" xmlns="http://www.w3.org/2000/svg" xmlns:xlink="http://www.w3.org/1999/xlink">
<g id="graph0" class="graph" transform="scale(1 1) rotate(0) translate(4 40)">
<title>%3</title>
<polygon fill="#ffffff" stroke="transparent" points="-4,4 -4,-40 253.4622,-40 253.4622,4 -4,4"/>
<!-- LED -->
<g id="node1" class="node">
<title>LED</title>
<polygon fill="#2980b9" stroke="#2980b9" points="54,-36 0,-36 0,0 54,0 54,-36"/>
<text text-anchor="middle" x="27" y="-15.5" font-family="Sans" font-size="10.00" fill="#ffffff">LED</text>
</g>
<!-- Button -->
<g id="node2" class="node">
<title>Button</title>
<polygon fill="#2980b9" stroke="#2980b9" points="249.4622,-36 195.4622,-36 195.4622,0 249.4622,0 249.4622,-36"/>
<text text-anchor="middle" x="222.4622" y="-15.5" font-family="Sans" font-size="10.00" fill="#ffffff">Button</text>
</g>
<!-- opposite -->
<g id="node3" class="node">
<title>opposite</title>
<ellipse fill="#9ec6e0" stroke="#9ec6e0" cx="124.7311" cy="-18" rx="34.9638" ry="18"/>
<text text-anchor="middle" x="124.7311" y="-15.5" font-family="Sans" font-size="10.00" fill="#ffffff">opposite</text>
</g>
<!-- Button&#45;&gt;opposite -->
<g id="edge1" class="edge">
<title>Button&#45;&gt;opposite</title>
<path fill="none" stroke="#000000" d="M195.2387,-18C187.282,-18 178.366,-18 169.621,-18"/>
<polygon fill="#000000" stroke="#000000" points="169.5014,-14.5001 159.5014,-18 169.5013,-21.5001 169.5014,-14.5001"/>
</g>
<!-- opposite&#45;&gt;LED -->
<g id="edge2" class="edge">
<title>opposite&#45;&gt;LED</title>
<path fill="none" stroke="#000000" d="M89.9996,-18C81.7442,-18 72.8999,-18 64.5258,-18"/>
<polygon fill="#000000" stroke="#000000" points="64.25,-14.5001 54.2499,-18 64.2499,-21.5001 64.25,-14.5001"/>
</g>
</g>
</svg>
