<?xml version="1.0" encoding="UTF-8" standalone="no"?>
<!DOCTYPE svg PUBLIC "-//W3C//DTD SVG 1.1//EN"
 "http://www.w3.org/Graphics/SVG/1.1/DTD/svg11.dtd">
<!-- Generated by graphviz version 2.38.0 (20140413.2041)
 -->
<!-- Title: %3 Pages: 1 -->
<svg width="255pt" height="44pt"
 viewBox="0.00 0.00 255.00 44.00" xmlns="http://www.w3.org/2000/svg" xmlns:xlink="http://www.w3.org/1999/xlink">
<g id="graph0" class="graph" transform="scale(1 1) rotate(0) translate(4 40)">
<title>%3</title>
<polygon fill="white" stroke="none" points="-4,4 -4,-40 251,-40 251,4 -4,4"/>
<!-- red -->
<g id="node1" class="node"><title>red</title>
<polygon fill="#2980b9" stroke="#2980b9" points="157,-36 101,-36 101,-0 157,-0 157,-36"/>
<text text-anchor="middle" x="129" y="-15.5" font-family="Arial" font-size="10.00" fill="#ffffff">Red LED</text>
</g>
<!-- green -->
<g id="node2" class="node"><title>green</title>
<polygon fill="#2980b9" stroke="#2980b9" points="65,-36 0,-36 0,-0 65,-0 65,-36"/>
<text text-anchor="middle" x="32.5" y="-15.5" font-family="Arial" font-size="10.00" fill="#ffffff">Green LED</text>
</g>
<!-- red&#45;&gt;green -->
<g id="edge2" class="edge"><title>red&#45;&gt;green</title>
<path fill="none" stroke="black" d="M100.92,-18C92.9231,-18 83.9772,-18 75.2817,-18"/>
<polygon fill="black" stroke="black" points="75.2609,-14.5001 65.2609,-18 75.2608,-21.5001 75.2609,-14.5001"/>
</g>
<!-- Button -->
<g id="node3" class="node"><title>Button</title>
<polygon fill="#2980b9" stroke="#2980b9" points="247,-36 193,-36 193,-0 247,-0 247,-36"/>
<text text-anchor="middle" x="220" y="-15.5" font-family="Arial" font-size="10.00" fill="#ffffff">Button</text>
</g>
<!-- Button&#45;&gt;red -->
<g id="edge1" class="edge"><title>Button&#45;&gt;red</title>
<path fill="none" stroke="black" d="M192.778,-18C184.832,-18 175.943,-18 167.412,-18"/>
<polygon fill="black" stroke="black" points="167.27,-14.5001 157.27,-18 167.27,-21.5001 167.27,-14.5001"/>
</g>
</g>
</svg>
