<?xml version="1.0" encoding="UTF-8" standalone="no"?>
<!DOCTYPE svg PUBLIC "-//W3C//DTD SVG 1.1//EN"
 "http://www.w3.org/Graphics/SVG/1.1/DTD/svg11.dtd">
<!-- Generated by graphviz version 2.40.1 (20161225.0304)
 -->
<!-- Title: %3 Pages: 1 -->
<svg width="258pt" height="44pt"
 viewBox="0.00 0.00 258.00 44.00" xmlns="http://www.w3.org/2000/svg" xmlns:xlink="http://www.w3.org/1999/xlink">
<g id="graph0" class="graph" transform="scale(1 1) rotate(0) translate(4 40)">
<title>%3</title>
<polygon fill="#ffffff" stroke="transparent" points="-4,4 -4,-40 254,-40 254,4 -4,4"/>
<!-- red -->
<g id="node1" class="node">
<title>red</title>
<polygon fill="#2980b9" stroke="#2980b9" points="160,-36 104,-36 104,0 160,0 160,-36"/>
<text text-anchor="middle" x="132" y="-15.5" font-family="Sans" font-size="10.00" fill="#ffffff">Red LED</text>
</g>
<!-- green -->
<g id="node2" class="node">
<title>green</title>
<polygon fill="#2980b9" stroke="#2980b9" points="68,-36 0,-36 0,0 68,0 68,-36"/>
<text text-anchor="middle" x="34" y="-15.5" font-family="Sans" font-size="10.00" fill="#ffffff">Green LED</text>
</g>
<!-- red&#45;&gt;green -->
<g id="edge2" class="edge">
<title>red&#45;&gt;green</title>
<path fill="none" stroke="#000000" d="M103.9171,-18C95.9492,-18 87.0729,-18 78.3912,-18"/>
<polygon fill="#000000" stroke="#000000" points="78.3553,-14.5001 68.3552,-18 78.3552,-21.5001 78.3553,-14.5001"/>
</g>
<!-- Button -->
<g id="node3" class="node">
<title>Button</title>
<polygon fill="#2980b9" stroke="#2980b9" points="250,-36 196,-36 196,0 250,0 250,-36"/>
<text text-anchor="middle" x="223" y="-15.5" font-family="Sans" font-size="10.00" fill="#ffffff">Button</text>
</g>
<!-- Button&#45;&gt;red -->
<g id="edge1" class="edge">
<title>Button&#45;&gt;red</title>
<path fill="none" stroke="#000000" d="M195.697,-18C187.732,-18 178.8763,-18 170.3625,-18"/>
<polygon fill="#000000" stroke="#000000" points="170.23,-14.5001 160.23,-18 170.23,-21.5001 170.23,-14.5001"/>
</g>
</g>
</svg>
