<?xml version="1.0" encoding="UTF-8" standalone="no"?>
<!DOCTYPE svg PUBLIC "-//W3C//DTD SVG 1.1//EN"
 "http://www.w3.org/Graphics/SVG/1.1/DTD/svg11.dtd">
<!-- Generated by graphviz version 2.38.0 (20140413.2041)
 -->
<!-- Title: %3 Pages: 1 -->
<svg width="308pt" height="98pt"
 viewBox="0.00 0.00 307.99 98.00" xmlns="http://www.w3.org/2000/svg" xmlns:xlink="http://www.w3.org/1999/xlink">
<g id="graph0" class="graph" transform="scale(1 1) rotate(0) translate(4 94)">
<title>%3</title>
<polygon fill="white" stroke="none" points="-4,4 -4,-94 303.994,-94 303.994,4 -4,4"/>
<!-- Robot -->
<g id="node1" class="node"><title>Robot</title>
<polygon fill="#2980b9" stroke="#2980b9" points="54,-63 0,-63 0,-27 54,-27 54,-63"/>
<text text-anchor="middle" x="27" y="-42.5" font-family="Arial" font-size="10.00" fill="#ffffff">Robot</text>
</g>
<!-- left -->
<g id="node2" class="node"><title>left</title>
<polygon fill="#2980b9" stroke="#2980b9" points="296.994,-90 201.994,-90 201.994,-54 296.994,-54 296.994,-90"/>
<text text-anchor="middle" x="249.494" y="-69.5" font-family="Arial" font-size="10.00" fill="#ffffff">Left potentiometer</text>
</g>
<!-- zip_values -->
<g id="node4" class="node"><title>zip_values</title>
<ellipse fill="#9ec6e0" stroke="#9ec6e0" cx="126.497" cy="-45" rx="36.4942" ry="18"/>
<text text-anchor="middle" x="126.497" y="-42.5" font-family="Arial" font-size="10.00" fill="#ffffff">zip_values</text>
</g>
<!-- left&#45;&gt;zip_values -->
<g id="edge1" class="edge"><title>left&#45;&gt;zip_values</title>
<path fill="none" stroke="black" d="M201.714,-61.5611C191.24,-59.2239 180.187,-56.7575 169.902,-54.4625"/>
<polygon fill="black" stroke="black" points="170.446,-50.9978 159.923,-52.2358 168.921,-57.8297 170.446,-50.9978"/>
</g>
<!-- right -->
<g id="node3" class="node"><title>right</title>
<polygon fill="#2980b9" stroke="#2980b9" points="299.994,-36 198.994,-36 198.994,-0 299.994,-0 299.994,-36"/>
<text text-anchor="middle" x="249.494" y="-15.5" font-family="Arial" font-size="10.00" fill="#ffffff">Right potentiometer</text>
</g>
<!-- right&#45;&gt;zip_values -->
<g id="edge2" class="edge"><title>right&#45;&gt;zip_values</title>
<path fill="none" stroke="black" d="M198.931,-29.0598C189.345,-31.1988 179.381,-33.4224 170.044,-35.5059"/>
<polygon fill="black" stroke="black" points="169.203,-32.1072 160.206,-37.7012 170.728,-38.9392 169.203,-32.1072"/>
</g>
<!-- zip_values&#45;&gt;Robot -->
<g id="edge3" class="edge"><title>zip_values&#45;&gt;Robot</title>
<path fill="none" stroke="black" d="M89.7464,-45C81.4925,-45 72.7022,-45 64.4201,-45"/>
<polygon fill="black" stroke="black" points="64.2798,-41.5001 54.2798,-45 64.2797,-48.5001 64.2798,-41.5001"/>
</g>
</g>
</svg>
