<?xml version="1.0" encoding="UTF-8" standalone="no"?>
<!DOCTYPE svg PUBLIC "-//W3C//DTD SVG 1.1//EN"
 "http://www.w3.org/Graphics/SVG/1.1/DTD/svg11.dtd">
<!-- Generated by graphviz version 2.40.1 (20161225.0304)
 -->
<!-- Title: %3 Pages: 1 -->
<svg width="329pt" height="98pt"
 viewBox="0.00 0.00 329.06 98.00" xmlns="http://www.w3.org/2000/svg" xmlns:xlink="http://www.w3.org/1999/xlink">
<g id="graph0" class="graph" transform="scale(1 1) rotate(0) translate(4 94)">
<title>%3</title>
<polygon fill="#ffffff" stroke="transparent" points="-4,4 -4,-94 325.0582,-94 325.0582,4 -4,4"/>
<!-- Robot -->
<g id="node1" class="node">
<title>Robot</title>
<polygon fill="#2980b9" stroke="#2980b9" points="54,-63 0,-63 0,-27 54,-27 54,-63"/>
<text text-anchor="middle" x="27" y="-42.5" font-family="Sans" font-size="10.00" fill="#ffffff">Robot</text>
</g>
<!-- left -->
<g id="node2" class="node">
<title>left</title>
<polygon fill="#2980b9" stroke="#2980b9" points="317.5582,-90 209.5582,-90 209.5582,-54 317.5582,-54 317.5582,-90"/>
<text text-anchor="middle" x="263.5582" y="-69.5" font-family="Sans" font-size="10.00" fill="#ffffff">Left potentiometer</text>
</g>
<!-- zip_values -->
<g id="node4" class="node">
<title>zip_values</title>
<ellipse fill="#9ec6e0" stroke="#9ec6e0" cx="130.0291" cy="-45" rx="40.0582" ry="18"/>
<text text-anchor="middle" x="130.0291" y="-42.5" font-family="Sans" font-size="10.00" fill="#ffffff">zip_values</text>
</g>
<!-- left&#45;&gt;zip_values -->
<g id="edge1" class="edge">
<title>left&#45;&gt;zip_values</title>
<path fill="none" stroke="#000000" d="M209.2468,-61.0181C198.4128,-58.8274 187.1253,-56.545 176.5806,-54.4129"/>
<polygon fill="#000000" stroke="#000000" points="177.2326,-50.9739 166.7373,-52.4225 175.8452,-57.8351 177.2326,-50.9739"/>
</g>
<!-- right -->
<g id="node3" class="node">
<title>right</title>
<polygon fill="#2980b9" stroke="#2980b9" points="321.0582,-36 206.0582,-36 206.0582,0 321.0582,0 321.0582,-36"/>
<text text-anchor="middle" x="263.5582" y="-15.5" font-family="Sans" font-size="10.00" fill="#ffffff">Right potentiometer</text>
</g>
<!-- right&#45;&gt;zip_values -->
<g id="edge2" class="edge">
<title>right&#45;&gt;zip_values</title>
<path fill="none" stroke="#000000" d="M205.767,-29.6856C196.0358,-31.6532 186.0456,-33.6733 176.6436,-35.5744"/>
<polygon fill="#000000" stroke="#000000" points="175.8204,-32.1699 166.7124,-37.5825 177.2078,-39.0311 175.8204,-32.1699"/>
</g>
<!-- zip_values&#45;&gt;Robot -->
<g id="edge3" class="edge">
<title>zip_values&#45;&gt;Robot</title>
<path fill="none" stroke="#000000" d="M89.9003,-45C81.4781,-45 72.6284,-45 64.314,-45"/>
<polygon fill="#000000" stroke="#000000" points="64.1413,-41.5001 54.1412,-45 64.1412,-48.5001 64.1413,-41.5001"/>
</g>
</g>
</svg>
