<?xml version="1.0" encoding="UTF-8" standalone="no"?>
<!DOCTYPE svg PUBLIC "-//W3C//DTD SVG 1.1//EN"
 "http://www.w3.org/Graphics/SVG/1.1/DTD/svg11.dtd">
<!-- Generated by graphviz version 2.40.1 (20161225.0304)
 -->
<!-- Title: %3 Pages: 1 -->
<svg width="396pt" height="98pt"
 viewBox="0.00 0.00 395.51 98.00" xmlns="http://www.w3.org/2000/svg" xmlns:xlink="http://www.w3.org/1999/xlink">
<g id="graph0" class="graph" transform="scale(1 1) rotate(0) translate(4 94)">
<title>%3</title>
<polygon fill="#ffffff" stroke="transparent" points="-4,4 -4,-94 391.5116,-94 391.5116,4 -4,4"/>
<!-- Robot -->
<g id="node1" class="node">
<title>Robot</title>
<polygon fill="#2980b9" stroke="#2980b9" points="54,-63 0,-63 0,-27 54,-27 54,-63"/>
<text text-anchor="middle" x="27" y="-42.5" font-family="Sans" font-size="10.00" fill="#ffffff">Robot</text>
</g>
<!-- left -->
<g id="node2" class="node">
<title>left</title>
<polygon fill="#2980b9" stroke="#2980b9" points="384.0116,-90 276.0116,-90 276.0116,-54 384.0116,-54 384.0116,-90"/>
<text text-anchor="middle" x="330.0116" y="-69.5" font-family="Sans" font-size="10.00" fill="#ffffff">Left potentiometer</text>
</g>
<!-- scaled_1 -->
<g id="node5" class="node">
<title>scaled_1</title>
<ellipse fill="#9ec6e0" stroke="#9ec6e0" cx="208.2558" cy="-72" rx="28.0137" ry="18"/>
<text text-anchor="middle" x="208.2558" y="-69.5" font-family="Sans" font-size="10.00" fill="#ffffff">scaled</text>
</g>
<!-- left&#45;&gt;scaled_1 -->
<g id="edge1" class="edge">
<title>left&#45;&gt;scaled_1</title>
<path fill="none" stroke="#000000" d="M275.8987,-72C266.0236,-72 255.9081,-72 246.609,-72"/>
<polygon fill="#000000" stroke="#000000" points="246.5131,-68.5001 236.5131,-72 246.513,-75.5001 246.5131,-68.5001"/>
</g>
<!-- right -->
<g id="node3" class="node">
<title>right</title>
<polygon fill="#2980b9" stroke="#2980b9" points="387.5116,-36 272.5116,-36 272.5116,0 387.5116,0 387.5116,-36"/>
<text text-anchor="middle" x="330.0116" y="-15.5" font-family="Sans" font-size="10.00" fill="#ffffff">Right potentiometer</text>
</g>
<!-- scaled_2 -->
<g id="node6" class="node">
<title>scaled_2</title>
<ellipse fill="#9ec6e0" stroke="#9ec6e0" cx="208.2558" cy="-18" rx="28.0137" ry="18"/>
<text text-anchor="middle" x="208.2558" y="-15.5" font-family="Sans" font-size="10.00" fill="#ffffff">scaled</text>
</g>
<!-- right&#45;&gt;scaled_2 -->
<g id="edge2" class="edge">
<title>right&#45;&gt;scaled_2</title>
<path fill="none" stroke="#000000" d="M272.3428,-18C263.7098,-18 254.9905,-18 246.882,-18"/>
<polygon fill="#000000" stroke="#000000" points="246.6329,-14.5001 236.6329,-18 246.6329,-21.5001 246.6329,-14.5001"/>
</g>
<!-- zip -->
<g id="node4" class="node">
<title>zip</title>
<ellipse fill="#9ec6e0" stroke="#9ec6e0" cx="117" cy="-45" rx="27" ry="18"/>
<text text-anchor="middle" x="117" y="-42.5" font-family="Sans" font-size="10.00" fill="#ffffff">zip</text>
</g>
<!-- zip&#45;&gt;Robot -->
<g id="edge5" class="edge">
<title>zip&#45;&gt;Robot</title>
<path fill="none" stroke="#000000" d="M89.997,-45C81.9723,-45 73.0335,-45 64.4691,-45"/>
<polygon fill="#000000" stroke="#000000" points="64.295,-41.5001 54.295,-45 64.2949,-48.5001 64.295,-41.5001"/>
</g>
<!-- scaled_1&#45;&gt;zip -->
<g id="edge3" class="edge">
<title>scaled_1&#45;&gt;zip</title>
<path fill="none" stroke="#000000" d="M182.3497,-64.3351C172.7857,-61.5054 161.7903,-58.2522 151.5802,-55.2313"/>
<polygon fill="#000000" stroke="#000000" points="152.2961,-51.7932 141.7139,-52.3122 150.31,-58.5055 152.2961,-51.7932"/>
</g>
<!-- scaled_2&#45;&gt;zip -->
<g id="edge4" class="edge">
<title>scaled_2&#45;&gt;zip</title>
<path fill="none" stroke="#000000" d="M182.3497,-25.6649C172.7857,-28.4946 161.7903,-31.7478 151.5802,-34.7687"/>
<polygon fill="#000000" stroke="#000000" points="150.31,-31.4945 141.7139,-37.6878 152.2961,-38.2068 150.31,-31.4945"/>
</g>
</g>
</svg>
