<?xml version="1.0" encoding="UTF-8" standalone="no"?>
<!DOCTYPE svg PUBLIC "-//W3C//DTD SVG 1.1//EN"
 "http://www.w3.org/Graphics/SVG/1.1/DTD/svg11.dtd">
<!-- Generated by graphviz version 2.38.0 (20140413.2041)
 -->
<!-- Title: %3 Pages: 1 -->
<svg width="379pt" height="98pt"
 viewBox="0.00 0.00 379.00 98.00" xmlns="http://www.w3.org/2000/svg" xmlns:xlink="http://www.w3.org/1999/xlink">
<g id="graph0" class="graph" transform="scale(1 1) rotate(0) translate(4 94)">
<title>%3</title>
<polygon fill="white" stroke="none" points="-4,4 -4,-94 375,-94 375,4 -4,4"/>
<!-- Robot -->
<g id="node1" class="node"><title>Robot</title>
<polygon fill="#2980b9" stroke="#2980b9" points="54,-63 0,-63 0,-27 54,-27 54,-63"/>
<text text-anchor="middle" x="27" y="-42.5" font-family="Arial" font-size="10.00" fill="#ffffff">Robot</text>
</g>
<!-- left -->
<g id="node2" class="node"><title>left</title>
<polygon fill="#2980b9" stroke="#2980b9" points="368,-90 273,-90 273,-54 368,-54 368,-90"/>
<text text-anchor="middle" x="320.5" y="-69.5" font-family="Arial" font-size="10.00" fill="#ffffff">Left potentiometer</text>
</g>
<!-- scaled_1 -->
<g id="node5" class="node"><title>scaled_1</title>
<ellipse fill="#9ec6e0" stroke="#9ec6e0" cx="207" cy="-72" rx="27" ry="18"/>
<text text-anchor="middle" x="207" y="-69.5" font-family="Arial" font-size="10.00" fill="#ffffff">scaled</text>
</g>
<!-- left&#45;&gt;scaled_1 -->
<g id="edge1" class="edge"><title>left&#45;&gt;scaled_1</title>
<path fill="none" stroke="black" d="M272.86,-72C263.338,-72 253.452,-72 244.353,-72"/>
<polygon fill="black" stroke="black" points="244.102,-68.5001 234.102,-72 244.102,-75.5001 244.102,-68.5001"/>
</g>
<!-- right -->
<g id="node3" class="node"><title>right</title>
<polygon fill="#2980b9" stroke="#2980b9" points="371,-36 270,-36 270,-0 371,-0 371,-36"/>
<text text-anchor="middle" x="320.5" y="-15.5" font-family="Arial" font-size="10.00" fill="#ffffff">Right potentiometer</text>
</g>
<!-- scaled_2 -->
<g id="node6" class="node"><title>scaled_2</title>
<ellipse fill="#9ec6e0" stroke="#9ec6e0" cx="207" cy="-18" rx="27" ry="18"/>
<text text-anchor="middle" x="207" y="-15.5" font-family="Arial" font-size="10.00" fill="#ffffff">scaled</text>
</g>
<!-- right&#45;&gt;scaled_2 -->
<g id="edge2" class="edge"><title>right&#45;&gt;scaled_2</title>
<path fill="none" stroke="black" d="M269.945,-18C261.275,-18 252.403,-18 244.181,-18"/>
<polygon fill="black" stroke="black" points="244.179,-14.5001 234.179,-18 244.179,-21.5001 244.179,-14.5001"/>
</g>
<!-- zip -->
<g id="node4" class="node"><title>zip</title>
<ellipse fill="#9ec6e0" stroke="#9ec6e0" cx="117" cy="-45" rx="27" ry="18"/>
<text text-anchor="middle" x="117" y="-42.5" font-family="Arial" font-size="10.00" fill="#ffffff">zip</text>
</g>
<!-- zip&#45;&gt;Robot -->
<g id="edge5" class="edge"><title>zip&#45;&gt;Robot</title>
<path fill="none" stroke="black" d="M89.5971,-45C81.6068,-45 72.6894,-45 64.1759,-45"/>
<polygon fill="black" stroke="black" points="64.081,-41.5001 54.081,-45 64.081,-48.5001 64.081,-41.5001"/>
</g>
<!-- scaled_1&#45;&gt;zip -->
<g id="edge3" class="edge"><title>scaled_1&#45;&gt;zip</title>
<path fill="none" stroke="black" d="M181.954,-64.6221C172.565,-61.7414 161.638,-58.3888 151.5,-55.2785"/>
<polygon fill="black" stroke="black" points="152.299,-51.8627 141.713,-52.2755 150.246,-58.5548 152.299,-51.8627"/>
</g>
<!-- scaled_2&#45;&gt;zip -->
<g id="edge4" class="edge"><title>scaled_2&#45;&gt;zip</title>
<path fill="none" stroke="black" d="M181.954,-25.3779C172.565,-28.2586 161.638,-31.6112 151.5,-34.7215"/>
<polygon fill="black" stroke="black" points="150.246,-31.4452 141.713,-37.7245 152.299,-38.1373 150.246,-31.4452"/>
</g>
</g>
</svg>
