<?xml version="1.0" encoding="UTF-8" standalone="no"?>
<!DOCTYPE svg PUBLIC "-//W3C//DTD SVG 1.1//EN"
 "http://www.w3.org/Graphics/SVG/1.1/DTD/svg11.dtd">
<!-- Generated by graphviz version 2.40.1 (20161225.0304)
 -->
<!-- Title: %3 Pages: 1 -->
<svg width="199pt" height="152pt"
 viewBox="0.00 0.00 199.06 152.00" xmlns="http://www.w3.org/2000/svg" xmlns:xlink="http://www.w3.org/1999/xlink">
<g id="graph0" class="graph" transform="scale(1 1) rotate(0) translate(4 148)">
<title>%3</title>
<polygon fill="#ffffff" stroke="transparent" points="-4,4 -4,-148 195.0582,-148 195.0582,4 -4,4"/>
<!-- Motor -->
<g id="node1" class="node">
<title>Motor</title>
<polygon fill="#2980b9" stroke="#2980b9" points="64.5,-36 10.5,-36 10.5,0 64.5,0 64.5,-36"/>
<text text-anchor="middle" x="37.5" y="-15.5" font-family="Sans" font-size="10.00" fill="#ffffff">Motor</text>
</g>
<!-- Servo -->
<g id="node2" class="node">
<title>Servo</title>
<polygon fill="#2980b9" stroke="#2980b9" points="64.5,-90 10.5,-90 10.5,-54 64.5,-54 64.5,-90"/>
<text text-anchor="middle" x="37.5" y="-69.5" font-family="Sans" font-size="10.00" fill="#ffffff">Servo</text>
</g>
<!-- TonalBuzzer -->
<g id="node3" class="node">
<title>TonalBuzzer</title>
<polygon fill="#2980b9" stroke="#2980b9" points="75,-144 0,-144 0,-108 75,-108 75,-144"/>
<text text-anchor="middle" x="37.5" y="-123.5" font-family="Sans" font-size="10.00" fill="#ffffff">TonalBuzzer</text>
</g>
<!-- sin_values_1 -->
<g id="node4" class="node">
<title>sin_values_1</title>
<ellipse fill="#9ec6e0" stroke="#9ec6e0" cx="151.0291" cy="-18" rx="40.0582" ry="18"/>
<text text-anchor="middle" x="151.0291" y="-15.5" font-family="Sans" font-size="10.00" fill="#ffffff">sin_values</text>
</g>
<!-- sin_values_1&#45;&gt;Motor -->
<g id="edge1" class="edge">
<title>sin_values_1&#45;&gt;Motor</title>
<path fill="none" stroke="#000000" d="M110.6833,-18C98.9723,-18 86.2411,-18 74.7305,-18"/>
<polygon fill="#000000" stroke="#000000" points="74.5669,-14.5001 64.5668,-18 74.5668,-21.5001 74.5669,-14.5001"/>
</g>
<!-- sin_values_2 -->
<g id="node5" class="node">
<title>sin_values_2</title>
<ellipse fill="#9ec6e0" stroke="#9ec6e0" cx="151.0291" cy="-72" rx="40.0582" ry="18"/>
<text text-anchor="middle" x="151.0291" y="-69.5" font-family="Sans" font-size="10.00" fill="#ffffff">sin_values</text>
</g>
<!-- sin_values_2&#45;&gt;Servo -->
<g id="edge2" class="edge">
<title>sin_values_2&#45;&gt;Servo</title>
<path fill="none" stroke="#000000" d="M110.6833,-72C98.9723,-72 86.2411,-72 74.7305,-72"/>
<polygon fill="#000000" stroke="#000000" points="74.5669,-68.5001 64.5668,-72 74.5668,-75.5001 74.5669,-68.5001"/>
</g>
<!-- sin_values_3 -->
<g id="node6" class="node">
<title>sin_values_3</title>
<ellipse fill="#9ec6e0" stroke="#9ec6e0" cx="151.0291" cy="-126" rx="40.0582" ry="18"/>
<text text-anchor="middle" x="151.0291" y="-123.5" font-family="Sans" font-size="10.00" fill="#ffffff">sin_values</text>
</g>
<!-- sin_values_3&#45;&gt;TonalBuzzer -->
<g id="edge3" class="edge">
<title>sin_values_3&#45;&gt;TonalBuzzer</title>
<path fill="none" stroke="#000000" d="M110.6833,-126C102.4368,-126 93.6845,-126 85.2086,-126"/>
<polygon fill="#000000" stroke="#000000" points="85.0597,-122.5001 75.0597,-126 85.0596,-129.5001 85.0597,-122.5001"/>
</g>
</g>
</svg>
