<?xml version="1.0" encoding="UTF-8" standalone="no"?>
<!DOCTYPE svg PUBLIC "-//W3C//DTD SVG 1.1//EN"
 "http://www.w3.org/Graphics/SVG/1.1/DTD/svg11.dtd">
<!-- Generated by graphviz version 2.40.1 (20161225.0304)
 -->
<!-- Title: %3 Pages: 1 -->
<svg width="291pt" height="98pt"
 viewBox="0.00 0.00 291.06 98.00" xmlns="http://www.w3.org/2000/svg" xmlns:xlink="http://www.w3.org/1999/xlink">
<g id="graph0" class="graph" transform="scale(1 1) rotate(0) translate(4 94)">
<title>%3</title>
<polygon fill="#ffffff" stroke="transparent" points="-4,4 -4,-94 287.0582,-94 287.0582,4 -4,4"/>
<!-- Motor -->
<g id="node1" class="node">
<title>Motor</title>
<polygon fill="#2980b9" stroke="#2980b9" points="167,-63 113,-63 113,-27 167,-27 167,-63"/>
<text text-anchor="middle" x="140" y="-42.5" font-family="Sans" font-size="10.00" fill="#ffffff">Motor</text>
</g>
<!-- Servo -->
<g id="node2" class="node">
<title>Servo</title>
<polygon fill="#2980b9" stroke="#2980b9" points="65.5,-90 11.5,-90 11.5,-54 65.5,-54 65.5,-90"/>
<text text-anchor="middle" x="38.5" y="-69.5" font-family="Sans" font-size="10.00" fill="#ffffff">Servo</text>
</g>
<!-- Motor&#45;&gt;Servo -->
<g id="edge2" class="edge">
<title>Motor&#45;&gt;Servo</title>
<path fill="none" stroke="#000000" d="M112.7999,-52.2355C101.4225,-55.262 88.0162,-58.8282 75.7458,-62.0923"/>
<polygon fill="#000000" stroke="#000000" points="74.5394,-58.7914 65.7752,-64.7445 76.3389,-65.5561 74.5394,-58.7914"/>
</g>
<!-- buzzer -->
<g id="node3" class="node">
<title>buzzer</title>
<polygon fill="#2980b9" stroke="#2980b9" points="77,-36 0,-36 0,0 77,0 77,-36"/>
<text text-anchor="middle" x="38.5" y="-15.5" font-family="Sans" font-size="10.00" fill="#ffffff">Tonal buzzer</text>
</g>
<!-- Motor&#45;&gt;buzzer -->
<g id="edge3" class="edge">
<title>Motor&#45;&gt;buzzer</title>
<path fill="none" stroke="#000000" d="M112.7999,-37.7645C104.8642,-35.6535 95.9414,-33.28 87.1054,-30.9295"/>
<polygon fill="#000000" stroke="#000000" points="87.7872,-27.4892 77.2235,-28.3008 85.9876,-34.254 87.7872,-27.4892"/>
</g>
<!-- sin_values -->
<g id="node4" class="node">
<title>sin_values</title>
<ellipse fill="#9ec6e0" stroke="#9ec6e0" cx="243.0291" cy="-45" rx="40.0582" ry="18"/>
<text text-anchor="middle" x="243.0291" y="-42.5" font-family="Sans" font-size="10.00" fill="#ffffff">sin_values</text>
</g>
<!-- sin_values&#45;&gt;Motor -->
<g id="edge1" class="edge">
<title>sin_values&#45;&gt;Motor</title>
<path fill="none" stroke="#000000" d="M202.9003,-45C194.4781,-45 185.6284,-45 177.314,-45"/>
<polygon fill="#000000" stroke="#000000" points="177.1413,-41.5001 167.1412,-45 177.1412,-48.5001 177.1413,-41.5001"/>
</g>
</g>
</svg>
