<?xml version="1.0" encoding="UTF-8" standalone="no"?>
<!DOCTYPE svg PUBLIC "-//W3C//DTD SVG 1.1//EN"
 "http://www.w3.org/Graphics/SVG/1.1/DTD/svg11.dtd">
<!-- Generated by graphviz version 2.40.1 (20161225.0304)
 -->
<!-- Title: %3 Pages: 1 -->
<svg width="326pt" height="44pt"
 viewBox="0.00 0.00 325.59 44.00" xmlns="http://www.w3.org/2000/svg" xmlns:xlink="http://www.w3.org/1999/xlink">
<g id="graph0" class="graph" transform="scale(1 1) rotate(0) translate(4 40)">
<title>%3</title>
<polygon fill="#ffffff" stroke="transparent" points="-4,4 -4,-40 321.5901,-40 321.5901,4 -4,4"/>
<!-- output -->
<g id="node1" class="node">
<title>output</title>
<polygon fill="#2980b9" stroke="#2980b9" points="85,-36 0,-36 0,0 85,0 85,-36"/>
<text text-anchor="middle" x="42.5" y="-15.5" font-family="Sans" font-size="10.00" fill="#ffffff">Output device</text>
</g>
<!-- input -->
<g id="node2" class="node">
<title>input</title>
<polygon fill="#2980b9" stroke="#2980b9" points="317.5901,-36 240.5901,-36 240.5901,0 317.5901,0 317.5901,-36"/>
<text text-anchor="middle" x="279.0901" y="-15.5" font-family="Sans" font-size="10.00" fill="#ffffff">Input device</text>
</g>
<!-- tool -->
<g id="node3" class="node">
<title>tool</title>
<ellipse fill="#9ec6e0" stroke="#9ec6e0" cx="162.7951" cy="-18" rx="41.5911" ry="18"/>
<text text-anchor="middle" x="162.7951" y="-15.5" font-family="Sans" font-size="10.00" fill="#ffffff">source tool</text>
</g>
<!-- input&#45;&gt;tool -->
<g id="edge1" class="edge">
<title>input&#45;&gt;tool</title>
<path fill="none" stroke="#000000" d="M240.3656,-18C232.2859,-18 223.6409,-18 215.1615,-18"/>
<polygon fill="#000000" stroke="#000000" points="214.9499,-14.5001 204.9498,-18 214.9498,-21.5001 214.9499,-14.5001"/>
</g>
<!-- tool&#45;&gt;output -->
<g id="edge2" class="edge">
<title>tool&#45;&gt;output</title>
<path fill="none" stroke="#000000" d="M120.7217,-18C112.5331,-18 103.8518,-18 95.3666,-18"/>
<polygon fill="#000000" stroke="#000000" points="95.1603,-14.5001 85.1602,-18 95.1602,-21.5001 95.1603,-14.5001"/>
</g>
</g>
</svg>
