<?xml version="1.0" encoding="UTF-8" standalone="no"?>
<!DOCTYPE svg PUBLIC "-//W3C//DTD SVG 1.1//EN"
 "http://www.w3.org/Graphics/SVG/1.1/DTD/svg11.dtd">
<!-- Generated by graphviz version 2.40.1 (20161225.0304)
 -->
<!-- Title: %3 Pages: 1 -->
<svg width="328pt" height="44pt"
 viewBox="0.00 0.00 327.59 44.00" xmlns="http://www.w3.org/2000/svg" xmlns:xlink="http://www.w3.org/1999/xlink">
<g id="graph0" class="graph" transform="scale(1 1) rotate(0) translate(4 40)">
<title>%3</title>
<polygon fill="#ffffff" stroke="transparent" points="-4,4 -4,-40 323.5901,-40 323.5901,4 -4,4"/>
<!-- output -->
<g id="node1" class="node">
<title>output</title>
<polygon fill="#2980b9" stroke="#2980b9" points="86,-36 0,-36 0,0 86,0 86,-36"/>
<text text-anchor="middle" x="43" y="-15.5" font-family="Sans" font-size="10.00" fill="#ffffff">Output Device</text>
</g>
<!-- input -->
<g id="node2" class="node">
<title>input</title>
<polygon fill="#2980b9" stroke="#2980b9" points="319.5901,-36 241.5901,-36 241.5901,0 319.5901,0 319.5901,-36"/>
<text text-anchor="middle" x="280.5901" y="-15.5" font-family="Sans" font-size="10.00" fill="#ffffff">Input Device</text>
</g>
<!-- tool -->
<g id="node3" class="node">
<title>tool</title>
<ellipse fill="#9ec6e0" stroke="#9ec6e0" cx="163.7951" cy="-18" rx="41.5911" ry="18"/>
<text text-anchor="middle" x="163.7951" y="-15.5" font-family="Sans" font-size="10.00" fill="#ffffff">source tool</text>
</g>
<!-- input&#45;&gt;tool -->
<g id="edge1" class="edge">
<title>input&#45;&gt;tool</title>
<path fill="none" stroke="#000000" d="M241.3742,-18C233.2706,-18 224.6127,-18 216.1274,-18"/>
<polygon fill="#000000" stroke="#000000" points="215.9118,-14.5001 205.9118,-18 215.9117,-21.5001 215.9118,-14.5001"/>
</g>
<!-- tool&#45;&gt;output -->
<g id="edge2" class="edge">
<title>tool&#45;&gt;output</title>
<path fill="none" stroke="#000000" d="M121.8858,-18C113.5598,-18 104.7149,-18 96.0732,-18"/>
<polygon fill="#000000" stroke="#000000" points="96.065,-14.5001 86.0649,-18 96.0649,-21.5001 96.065,-14.5001"/>
</g>
</g>
</svg>
