<?xml version="1.0" encoding="UTF-8" standalone="no"?>
<!DOCTYPE svg PUBLIC "-//W3C//DTD SVG 1.1//EN"
 "http://www.w3.org/Graphics/SVG/1.1/DTD/svg11.dtd">
<!-- Generated by graphviz version 2.38.0 (20140413.2041)
 -->
<!-- Title: %3 Pages: 1 -->
<svg width="301pt" height="44pt"
 viewBox="0.00 0.00 300.53 44.00" xmlns="http://www.w3.org/2000/svg" xmlns:xlink="http://www.w3.org/1999/xlink">
<g id="graph0" class="graph" transform="scale(1 1) rotate(0) translate(4 40)">
<title>%3</title>
<polygon fill="white" stroke="none" points="-4,4 -4,-40 296.526,-40 296.526,4 -4,4"/>
<!-- output -->
<g id="node1" class="node"><title>output</title>
<polygon fill="#2980b9" stroke="#2980b9" points="76,-36 0,-36 0,-0 76,-0 76,-36"/>
<text text-anchor="middle" x="38" y="-15.5" font-family="Arial" font-size="10.00" fill="#ffffff">Output device</text>
</g>
<!-- input -->
<g id="node2" class="node"><title>input</title>
<polygon fill="#2980b9" stroke="#2980b9" points="292.526,-36 224.526,-36 224.526,-0 292.526,-0 292.526,-36"/>
<text text-anchor="middle" x="258.526" y="-15.5" font-family="Arial" font-size="10.00" fill="#ffffff">Input device</text>
</g>
<!-- tool -->
<g id="node3" class="node"><title>tool</title>
<ellipse fill="#9ec6e0" stroke="#9ec6e0" cx="150.263" cy="-18" rx="38.0276" ry="18"/>
<text text-anchor="middle" x="150.263" y="-15.5" font-family="Arial" font-size="10.00" fill="#ffffff">source tool</text>
</g>
<!-- input&#45;&gt;tool -->
<g id="edge1" class="edge"><title>input&#45;&gt;tool</title>
<path fill="none" stroke="black" d="M224.486,-18C216.341,-18 207.458,-18 198.776,-18"/>
<polygon fill="black" stroke="black" points="198.735,-14.5001 188.734,-18 198.734,-21.5001 198.735,-14.5001"/>
</g>
<!-- tool&#45;&gt;output -->
<g id="edge2" class="edge"><title>tool&#45;&gt;output</title>
<path fill="none" stroke="black" d="M111.933,-18C103.76,-18 95.0029,-18 86.493,-18"/>
<polygon fill="black" stroke="black" points="86.2916,-14.5001 76.2916,-18 86.2916,-21.5001 86.2916,-14.5001"/>
</g>
</g>
</svg>
