<?xml version="1.0" encoding="UTF-8" standalone="no"?>
<!DOCTYPE svg PUBLIC "-//W3C//DTD SVG 1.1//EN"
 "http://www.w3.org/Graphics/SVG/1.1/DTD/svg11.dtd">
<!-- Generated by graphviz version 2.40.1 (20161225.0304)
 -->
<!-- Title: %3 Pages: 1 -->
<svg width="363pt" height="44pt"
 viewBox="0.00 0.00 363.26 44.00" xmlns="http://www.w3.org/2000/svg" xmlns:xlink="http://www.w3.org/1999/xlink">
<g id="graph0" class="graph" transform="scale(1 1) rotate(0) translate(4 40)">
<title>%3</title>
<polygon fill="#ffffff" stroke="transparent" points="-4,4 -4,-40 359.2646,-40 359.2646,4 -4,4"/>
<!-- output -->
<g id="node1" class="node">
<title>output</title>
<polygon fill="#2980b9" stroke="#2980b9" points="85,-36 0,-36 0,0 85,0 85,-36"/>
<text text-anchor="middle" x="42.5" y="-15.5" font-family="Sans" font-size="10.00" fill="#ffffff">Output device</text>
</g>
<!-- input -->
<g id="node2" class="node">
<title>input</title>
<polygon fill="#2980b9" stroke="#2980b9" points="355.2646,-36 278.2646,-36 278.2646,0 355.2646,0 355.2646,-36"/>
<text text-anchor="middle" x="316.7646" y="-15.5" font-family="Sans" font-size="10.00" fill="#ffffff">Input device</text>
</g>
<!-- gen -->
<g id="node3" class="node">
<title>gen</title>
<ellipse fill="#9ec6e0" stroke="#9ec6e0" cx="181.6323" cy="-18" rx="60.7649" ry="18"/>
<text text-anchor="middle" x="181.6323" y="-15.5" font-family="Sans" font-size="10.00" fill="#ffffff">custom generator</text>
</g>
<!-- input&#45;&gt;gen -->
<g id="edge1" class="edge">
<title>input&#45;&gt;gen</title>
<path fill="none" stroke="#000000" d="M278.0411,-18C270.0251,-18 261.3423,-18 252.5835,-18"/>
<polygon fill="#000000" stroke="#000000" points="252.3019,-14.5001 242.3018,-18 252.3018,-21.5001 252.3019,-14.5001"/>
</g>
<!-- gen&#45;&gt;output -->
<g id="edge2" class="edge">
<title>gen&#45;&gt;output</title>
<path fill="none" stroke="#000000" d="M120.6068,-18C112.1874,-18 103.5986,-18 95.3436,-18"/>
<polygon fill="#000000" stroke="#000000" points="95.1039,-14.5001 85.1039,-18 95.1039,-21.5001 95.1039,-14.5001"/>
</g>
</g>
</svg>
