<?xml version="1.0" encoding="UTF-8" standalone="no"?>
<!DOCTYPE svg PUBLIC "-//W3C//DTD SVG 1.1//EN"
 "http://www.w3.org/Graphics/SVG/1.1/DTD/svg11.dtd">
<!-- Generated by graphviz version 2.40.1 (20161225.0304)
 -->
<!-- Title: %3 Pages: 1 -->
<svg width="365pt" height="44pt"
 viewBox="0.00 0.00 365.26 44.00" xmlns="http://www.w3.org/2000/svg" xmlns:xlink="http://www.w3.org/1999/xlink">
<g id="graph0" class="graph" transform="scale(1 1) rotate(0) translate(4 40)">
<title>%3</title>
<polygon fill="#ffffff" stroke="transparent" points="-4,4 -4,-40 361.2646,-40 361.2646,4 -4,4"/>
<!-- output -->
<g id="node1" class="node">
<title>output</title>
<polygon fill="#2980b9" stroke="#2980b9" points="86,-36 0,-36 0,0 86,0 86,-36"/>
<text text-anchor="middle" x="43" y="-15.5" font-family="Sans" font-size="10.00" fill="#ffffff">Output Device</text>
</g>
<!-- input -->
<g id="node2" class="node">
<title>input</title>
<polygon fill="#2980b9" stroke="#2980b9" points="357.2646,-36 279.2646,-36 279.2646,0 357.2646,0 357.2646,-36"/>
<text text-anchor="middle" x="318.2646" y="-15.5" font-family="Sans" font-size="10.00" fill="#ffffff">Input Device</text>
</g>
<!-- gen -->
<g id="node3" class="node">
<title>gen</title>
<ellipse fill="#9ec6e0" stroke="#9ec6e0" cx="182.6323" cy="-18" rx="60.7649" ry="18"/>
<text text-anchor="middle" x="182.6323" y="-15.5" font-family="Sans" font-size="10.00" fill="#ffffff">custom generator</text>
</g>
<!-- input&#45;&gt;gen -->
<g id="edge1" class="edge">
<title>input&#45;&gt;gen</title>
<path fill="none" stroke="#000000" d="M279.0341,-18C271.049,-18 262.4168,-18 253.7126,-18"/>
<polygon fill="#000000" stroke="#000000" points="253.4962,-14.5001 243.4962,-18 253.4961,-21.5001 253.4962,-14.5001"/>
</g>
<!-- gen&#45;&gt;output -->
<g id="edge2" class="edge">
<title>gen&#45;&gt;output</title>
<path fill="none" stroke="#000000" d="M121.7937,-18C113.225,-18 104.4728,-18 96.0651,-18"/>
<polygon fill="#000000" stroke="#000000" points="96.0158,-14.5001 86.0158,-18 96.0157,-21.5001 96.0158,-14.5001"/>
</g>
</g>
</svg>
