<?xml version="1.0" encoding="UTF-8" standalone="no"?>
<!DOCTYPE svg PUBLIC "-//W3C//DTD SVG 1.1//EN"
 "http://www.w3.org/Graphics/SVG/1.1/DTD/svg11.dtd">
<!-- Generated by graphviz version 2.40.1 (20161225.0304)
 -->
<!-- Title: classes Pages: 1 -->
<svg width="865pt" height="557pt"
 viewBox="0.00 0.00 865.00 557.00" xmlns="http://www.w3.org/2000/svg" xmlns:xlink="http://www.w3.org/1999/xlink">
<g id="graph0" class="graph" transform="scale(1 1) rotate(0) translate(4 553)">
<title>classes</title>
<polygon fill="#ffffff" stroke="transparent" points="-4,4 -4,-553 861,-553 861,4 -4,4"/>
<!-- CompositeDevice -->
<g id="node1" class="node">
<title>CompositeDevice</title>
<polygon fill="#9ec6e0" stroke="#9ec6e0" points="193,-144 90,-144 90,-108 193,-108 193,-144"/>
<text text-anchor="middle" x="141.5" y="-123.5" font-family="Sans" font-size="10.00" fill="#000000">CompositeDevice</text>
</g>
<!-- Device -->
<g id="node3" class="node">
<title>Device</title>
<polygon fill="#9ec6e0" stroke="#9ec6e0" points="54,-171 0,-171 0,-135 54,-135 54,-171"/>
<text text-anchor="middle" x="27" y="-150.5" font-family="Sans" font-size="10.00" fill="#000000">Device</text>
</g>
<!-- CompositeDevice&#45;&gt;Device -->
<g id="edge3" class="edge">
<title>CompositeDevice&#45;&gt;Device</title>
<path fill="none" stroke="#000000" d="M89.9443,-138.1573C81.1667,-140.2271 72.2088,-142.3394 63.907,-144.297"/>
<polygon fill="#000000" stroke="#000000" points="63.0918,-140.8932 54.1621,-146.595 64.6985,-147.7063 63.0918,-140.8932"/>
</g>
<!-- CompositeOutputDevice -->
<g id="node2" class="node">
<title>CompositeOutputDevice</title>
<polygon fill="#9ec6e0" stroke="#9ec6e0" points="365,-279 229,-279 229,-243 365,-243 365,-279"/>
<text text-anchor="middle" x="297" y="-258.5" font-family="Sans" font-size="10.00" fill="#000000">CompositeOutputDevice</text>
</g>
<!-- CompositeOutputDevice&#45;&gt;CompositeDevice -->
<g id="edge4" class="edge">
<title>CompositeOutputDevice&#45;&gt;CompositeDevice</title>
<path fill="none" stroke="#000000" d="M270.518,-242.986C257.2181,-233.2211 241.3512,-220.4232 229,-207 209.4692,-185.7739 214.4395,-172.2963 193,-153 191.8745,-151.987 190.704,-151 189.4978,-150.0394"/>
<polygon fill="#000000" stroke="#000000" points="191.2946,-147.0227 181.1142,-144.0883 187.2426,-152.7308 191.2946,-147.0227"/>
</g>
<!-- LEDCollection -->
<g id="node4" class="node">
<title>LEDCollection</title>
<polygon fill="#9ec6e0" stroke="#9ec6e0" points="502.5,-387 418.5,-387 418.5,-351 502.5,-351 502.5,-387"/>
<text text-anchor="middle" x="460.5" y="-366.5" font-family="Sans" font-size="10.00" fill="#000000">LEDCollection</text>
</g>
<!-- LEDCollection&#45;&gt;CompositeOutputDevice -->
<g id="edge10" class="edge">
<title>LEDCollection&#45;&gt;CompositeOutputDevice</title>
<path fill="none" stroke="#000000" d="M418.2494,-351.3294C412.3408,-348.4279 406.4359,-345.287 401,-342 373.8045,-325.5555 345.5112,-303.1172 325.3134,-286.0267"/>
<polygon fill="#000000" stroke="#000000" points="327.3233,-283.14 317.4501,-279.2968 322.7717,-288.4582 327.3233,-283.14"/>
</g>
<!-- ButtonBoard -->
<g id="node5" class="node">
<title>ButtonBoard</title>
<polygon fill="#2980b9" stroke="#2980b9" points="335.5,-198 258.5,-198 258.5,-162 335.5,-162 335.5,-198"/>
<text text-anchor="middle" x="297" y="-177.5" font-family="Sans" font-size="10.00" fill="#ffffff">ButtonBoard</text>
</g>
<!-- ButtonBoard&#45;&gt;CompositeDevice -->
<g id="edge1" class="edge">
<title>ButtonBoard&#45;&gt;CompositeDevice</title>
<path fill="none" stroke="#000000" d="M258.1619,-166.5128C241.3856,-160.687 221.3528,-153.7302 202.6615,-147.2393"/>
<polygon fill="#000000" stroke="#000000" points="203.6286,-143.8702 193.0337,-143.896 201.3322,-150.4828 203.6286,-143.8702"/>
</g>
<!-- CamJamKitRobot -->
<g id="node6" class="node">
<title>CamJamKitRobot</title>
<polygon fill="#2980b9" stroke="#2980b9" points="510,-171 411,-171 411,-135 510,-135 510,-171"/>
<text text-anchor="middle" x="460.5" y="-150.5" font-family="Sans" font-size="10.00" fill="#ffffff">CamJamKitRobot</text>
</g>
<!-- Robot -->
<g id="node7" class="node">
<title>Robot</title>
<polygon fill="#2980b9" stroke="#2980b9" points="324,-144 270,-144 270,-108 324,-108 324,-144"/>
<text text-anchor="middle" x="297" y="-123.5" font-family="Sans" font-size="10.00" fill="#ffffff">Robot</text>
</g>
<!-- CamJamKitRobot&#45;&gt;Robot -->
<g id="edge2" class="edge">
<title>CamJamKitRobot&#45;&gt;Robot</title>
<path fill="none" stroke="#000000" d="M410.5562,-144.7524C385.9618,-140.6909 356.8172,-135.8781 334.2121,-132.1451"/>
<polygon fill="#000000" stroke="#000000" points="334.7626,-128.6887 324.3259,-130.5125 333.622,-135.5952 334.7626,-128.6887"/>
</g>
<!-- Robot&#45;&gt;CompositeDevice -->
<g id="edge19" class="edge">
<title>Robot&#45;&gt;CompositeDevice</title>
<path fill="none" stroke="#000000" d="M269.914,-126C251.495,-126 226.3569,-126 203.2037,-126"/>
<polygon fill="#000000" stroke="#000000" points="203.0835,-122.5001 193.0835,-126 203.0835,-129.5001 203.0835,-122.5001"/>
</g>
<!-- Energenie -->
<g id="node8" class="node">
<title>Energenie</title>
<polygon fill="#2980b9" stroke="#2980b9" points="174,-198 109,-198 109,-162 174,-162 174,-198"/>
<text text-anchor="middle" x="141.5" y="-177.5" font-family="Sans" font-size="10.00" fill="#ffffff">Energenie</text>
</g>
<!-- Energenie&#45;&gt;Device -->
<g id="edge5" class="edge">
<title>Energenie&#45;&gt;Device</title>
<path fill="none" stroke="#000000" d="M108.9952,-172.3351C95.0561,-169.0482 78.6936,-165.1898 64.267,-161.7879"/>
<polygon fill="#000000" stroke="#000000" points="64.703,-158.2947 54.1667,-159.4061 63.0964,-165.1079 64.703,-158.2947"/>
</g>
<!-- FishDish -->
<g id="node9" class="node">
<title>FishDish</title>
<polygon fill="#2980b9" stroke="#2980b9" points="625,-333 568,-333 568,-297 625,-297 625,-333"/>
<text text-anchor="middle" x="596.5" y="-312.5" font-family="Sans" font-size="10.00" fill="#ffffff">FishDish</text>
</g>
<!-- TrafficLightsBuzzer -->
<g id="node10" class="node">
<title>TrafficLightsBuzzer</title>
<polygon fill="#2980b9" stroke="#2980b9" points="514.5,-333 406.5,-333 406.5,-297 514.5,-297 514.5,-333"/>
<text text-anchor="middle" x="460.5" y="-312.5" font-family="Sans" font-size="10.00" fill="#ffffff">TrafficLightsBuzzer</text>
</g>
<!-- FishDish&#45;&gt;TrafficLightsBuzzer -->
<g id="edge6" class="edge">
<title>FishDish&#45;&gt;TrafficLightsBuzzer</title>
<path fill="none" stroke="#000000" d="M567.9899,-315C555.3961,-315 540.0368,-315 524.9146,-315"/>
<polygon fill="#000000" stroke="#000000" points="524.5202,-311.5001 514.5202,-315 524.5201,-318.5001 524.5202,-311.5001"/>
</g>
<!-- TrafficLightsBuzzer&#45;&gt;CompositeOutputDevice -->
<g id="edge27" class="edge">
<title>TrafficLightsBuzzer&#45;&gt;CompositeOutputDevice</title>
<path fill="none" stroke="#000000" d="M406.0569,-297.0188C391.7307,-292.2872 376.1405,-287.1382 361.3475,-282.2524"/>
<polygon fill="#000000" stroke="#000000" points="362.356,-278.8996 351.7629,-279.0868 360.1607,-285.5464 362.356,-278.8996"/>
</g>
<!-- JamHat -->
<g id="node11" class="node">
<title>JamHat</title>
<polygon fill="#2980b9" stroke="#2980b9" points="487.5,-279 433.5,-279 433.5,-243 487.5,-243 487.5,-279"/>
<text text-anchor="middle" x="460.5" y="-258.5" font-family="Sans" font-size="10.00" fill="#ffffff">JamHat</text>
</g>
<!-- JamHat&#45;&gt;CompositeOutputDevice -->
<g id="edge7" class="edge">
<title>JamHat&#45;&gt;CompositeOutputDevice</title>
<path fill="none" stroke="#000000" d="M433.1338,-261C417.1185,-261 396.0069,-261 375.2023,-261"/>
<polygon fill="#000000" stroke="#000000" points="375.0375,-257.5001 365.0375,-261 375.0374,-264.5001 375.0375,-257.5001"/>
</g>
<!-- LEDBarGraph -->
<g id="node12" class="node">
<title>LEDBarGraph</title>
<polygon fill="#2980b9" stroke="#2980b9" points="637,-495 556,-495 556,-459 637,-459 637,-495"/>
<text text-anchor="middle" x="596.5" y="-474.5" font-family="Sans" font-size="10.00" fill="#ffffff">LEDBarGraph</text>
</g>
<!-- LEDBarGraph&#45;&gt;LEDCollection -->
<g id="edge8" class="edge">
<title>LEDBarGraph&#45;&gt;LEDCollection</title>
<path fill="none" stroke="#000000" d="M573.7367,-458.9232C551.1815,-441.0118 516.4742,-413.4501 491.4292,-393.5614"/>
<polygon fill="#000000" stroke="#000000" points="493.3453,-390.6137 483.3376,-387.1357 488.9921,-396.0955 493.3453,-390.6137"/>
</g>
<!-- LEDBoard -->
<g id="node13" class="node">
<title>LEDBoard</title>
<polygon fill="#2980b9" stroke="#2980b9" points="628.5,-387 564.5,-387 564.5,-351 628.5,-351 628.5,-387"/>
<text text-anchor="middle" x="596.5" y="-366.5" font-family="Sans" font-size="10.00" fill="#ffffff">LEDBoard</text>
</g>
<!-- LEDBoard&#45;&gt;LEDCollection -->
<g id="edge9" class="edge">
<title>LEDBoard&#45;&gt;LEDCollection</title>
<path fill="none" stroke="#000000" d="M564.2699,-369C548.8393,-369 529.9735,-369 512.58,-369"/>
<polygon fill="#000000" stroke="#000000" points="512.5462,-365.5001 502.5462,-369 512.5461,-372.5001 512.5462,-365.5001"/>
</g>
<!-- PhaseEnableRobot -->
<g id="node14" class="node">
<title>PhaseEnableRobot</title>
<polygon fill="#2980b9" stroke="#2980b9" points="350.5,-90 243.5,-90 243.5,-54 350.5,-54 350.5,-90"/>
<text text-anchor="middle" x="297" y="-69.5" font-family="Sans" font-size="10.00" fill="#ffffff">PhaseEnableRobot</text>
</g>
<!-- PhaseEnableRobot&#45;&gt;CompositeDevice -->
<g id="edge11" class="edge">
<title>PhaseEnableRobot&#45;&gt;CompositeDevice</title>
<path fill="none" stroke="#000000" d="M244.7882,-90.1314C231.2392,-94.8366 216.5262,-99.9459 202.5662,-104.7937"/>
<polygon fill="#000000" stroke="#000000" points="201.344,-101.5131 193.0455,-108.0999 203.6404,-108.1257 201.344,-101.5131"/>
</g>
<!-- PiHutXmasTree -->
<g id="node15" class="node">
<title>PiHutXmasTree</title>
<polygon fill="#2980b9" stroke="#2980b9" points="765,-495 674,-495 674,-459 765,-459 765,-495"/>
<text text-anchor="middle" x="719.5" y="-474.5" font-family="Sans" font-size="10.00" fill="#ffffff">PiHutXmasTree</text>
</g>
<!-- PiHutXmasTree&#45;&gt;LEDBoard -->
<g id="edge12" class="edge">
<title>PiHutXmasTree&#45;&gt;LEDBoard</title>
<path fill="none" stroke="#000000" d="M685.7144,-458.9444C681.3045,-456.1416 676.9512,-453.1304 673,-450 652.414,-433.6902 632.1445,-411.8948 617.647,-395.0211"/>
<polygon fill="#000000" stroke="#000000" points="620.1463,-392.5562 611.0176,-387.1787 614.8004,-397.0752 620.1463,-392.5562"/>
</g>
<!-- PiLiter -->
<g id="node16" class="node">
<title>PiLiter</title>
<polygon fill="#2980b9" stroke="#2980b9" points="746.5,-441 692.5,-441 692.5,-405 746.5,-405 746.5,-441"/>
<text text-anchor="middle" x="719.5" y="-420.5" font-family="Sans" font-size="10.00" fill="#ffffff">PiLiter</text>
</g>
<!-- PiLiter&#45;&gt;LEDBoard -->
<g id="edge13" class="edge">
<title>PiLiter&#45;&gt;LEDBoard</title>
<path fill="none" stroke="#000000" d="M692.2023,-411.0156C676.3178,-404.0419 655.9697,-395.1086 638.1236,-387.2738"/>
<polygon fill="#000000" stroke="#000000" points="639.0742,-383.8687 628.5107,-383.0535 636.2602,-390.2782 639.0742,-383.8687"/>
</g>
<!-- PiLiterBarGraph -->
<g id="node17" class="node">
<title>PiLiterBarGraph</title>
<polygon fill="#2980b9" stroke="#2980b9" points="766,-549 673,-549 673,-513 766,-513 766,-549"/>
<text text-anchor="middle" x="719.5" y="-528.5" font-family="Sans" font-size="10.00" fill="#ffffff">PiLiterBarGraph</text>
</g>
<!-- PiLiterBarGraph&#45;&gt;LEDBarGraph -->
<g id="edge14" class="edge">
<title>PiLiterBarGraph&#45;&gt;LEDBarGraph</title>
<path fill="none" stroke="#000000" d="M678.2006,-512.8686C667.9447,-508.3659 656.8456,-503.4932 646.2322,-498.8336"/>
<polygon fill="#000000" stroke="#000000" points="647.6271,-495.6237 637.0637,-494.8085 644.8132,-502.0332 647.6271,-495.6237"/>
</g>
<!-- PiStop -->
<g id="node18" class="node">
<title>PiStop</title>
<polygon fill="#2980b9" stroke="#2980b9" points="856.5,-414 802.5,-414 802.5,-378 856.5,-378 856.5,-414"/>
<text text-anchor="middle" x="829.5" y="-393.5" font-family="Sans" font-size="10.00" fill="#ffffff">PiStop</text>
</g>
<!-- TrafficLights -->
<g id="node19" class="node">
<title>TrafficLights</title>
<polygon fill="#2980b9" stroke="#2980b9" points="757,-387 682,-387 682,-351 757,-351 757,-387"/>
<text text-anchor="middle" x="719.5" y="-366.5" font-family="Sans" font-size="10.00" fill="#ffffff">TrafficLights</text>
</g>
<!-- PiStop&#45;&gt;TrafficLights -->
<g id="edge15" class="edge">
<title>PiStop&#45;&gt;TrafficLights</title>
<path fill="none" stroke="#000000" d="M802.309,-389.3258C791.6723,-386.715 779.1525,-383.642 767.1135,-380.687"/>
<polygon fill="#000000" stroke="#000000" points="767.7119,-377.23 757.1658,-378.2452 766.0432,-384.0282 767.7119,-377.23"/>
</g>
<!-- TrafficLights&#45;&gt;LEDBoard -->
<g id="edge26" class="edge">
<title>TrafficLights&#45;&gt;LEDBoard</title>
<path fill="none" stroke="#000000" d="M681.9276,-369C668.4161,-369 653.079,-369 639.1655,-369"/>
<polygon fill="#000000" stroke="#000000" points="638.857,-365.5001 628.857,-369 638.857,-372.5001 638.857,-365.5001"/>
</g>
<!-- PiTraffic -->
<g id="node20" class="node">
<title>PiTraffic</title>
<polygon fill="#2980b9" stroke="#2980b9" points="857,-360 802,-360 802,-324 857,-324 857,-360"/>
<text text-anchor="middle" x="829.5" y="-339.5" font-family="Sans" font-size="10.00" fill="#ffffff">PiTraffic</text>
</g>
<!-- PiTraffic&#45;&gt;TrafficLights -->
<g id="edge16" class="edge">
<title>PiTraffic&#45;&gt;TrafficLights</title>
<path fill="none" stroke="#000000" d="M801.7424,-348.8132C791.201,-351.4007 778.8735,-354.4265 767.0186,-357.3364"/>
<polygon fill="#000000" stroke="#000000" points="766.0985,-353.9582 757.2211,-359.7412 767.7672,-360.7564 766.0985,-353.9582"/>
</g>
<!-- PololuDRV8835Robot -->
<g id="node21" class="node">
<title>PololuDRV8835Robot</title>
<polygon fill="#2980b9" stroke="#2980b9" points="520,-63 401,-63 401,-27 520,-27 520,-63"/>
<text text-anchor="middle" x="460.5" y="-42.5" font-family="Sans" font-size="10.00" fill="#ffffff">PololuDRV8835Robot</text>
</g>
<!-- PololuDRV8835Robot&#45;&gt;PhaseEnableRobot -->
<g id="edge17" class="edge">
<title>PololuDRV8835Robot&#45;&gt;PhaseEnableRobot</title>
<path fill="none" stroke="#000000" d="M400.547,-54.9005C387.547,-57.0473 373.7536,-59.3251 360.618,-61.4943"/>
<polygon fill="#000000" stroke="#000000" points="360.0214,-58.0453 350.7253,-63.1279 361.162,-64.9518 360.0214,-58.0453"/>
</g>
<!-- PumpkinPi -->
<g id="node22" class="node">
<title>PumpkinPi</title>
<polygon fill="#2980b9" stroke="#2980b9" points="753.5,-333 685.5,-333 685.5,-297 753.5,-297 753.5,-333"/>
<text text-anchor="middle" x="719.5" y="-312.5" font-family="Sans" font-size="10.00" fill="#ffffff">PumpkinPi</text>
</g>
<!-- PumpkinPi&#45;&gt;LEDBoard -->
<g id="edge18" class="edge">
<title>PumpkinPi&#45;&gt;LEDBoard</title>
<path fill="none" stroke="#000000" d="M685.2376,-330.042C670.6389,-336.4512 653.4741,-343.987 638.1507,-350.7143"/>
<polygon fill="#000000" stroke="#000000" points="636.6366,-347.5565 628.8872,-354.7812 639.4506,-353.966 636.6366,-347.5565"/>
</g>
<!-- RyanteckRobot -->
<g id="node23" class="node">
<title>RyanteckRobot</title>
<polygon fill="#2980b9" stroke="#2980b9" points="505,-117 416,-117 416,-81 505,-81 505,-117"/>
<text text-anchor="middle" x="460.5" y="-96.5" font-family="Sans" font-size="10.00" fill="#ffffff">RyanteckRobot</text>
</g>
<!-- RyanteckRobot&#45;&gt;Robot -->
<g id="edge20" class="edge">
<title>RyanteckRobot&#45;&gt;Robot</title>
<path fill="none" stroke="#000000" d="M415.8229,-106.3779C390.1764,-110.6131 358.3538,-115.8682 334.0975,-119.8738"/>
<polygon fill="#000000" stroke="#000000" points="333.5013,-116.4248 324.2052,-121.5074 334.6419,-123.3312 333.5013,-116.4248"/>
</g>
<!-- SnowPi -->
<g id="node24" class="node">
<title>SnowPi</title>
<polygon fill="#2980b9" stroke="#2980b9" points="746.5,-279 692.5,-279 692.5,-243 746.5,-243 746.5,-279"/>
<text text-anchor="middle" x="719.5" y="-258.5" font-family="Sans" font-size="10.00" fill="#ffffff">SnowPi</text>
</g>
<!-- SnowPi&#45;&gt;LEDBoard -->
<g id="edge21" class="edge">
<title>SnowPi&#45;&gt;LEDBoard</title>
<path fill="none" stroke="#000000" d="M692.4718,-273.9139C685.6844,-277.8765 678.7138,-282.6296 673,-288 651.9822,-307.7548 657.3961,-321.6039 637,-342 636.2232,-342.7768 635.4208,-343.5443 634.5976,-344.3015"/>
<polygon fill="#000000" stroke="#000000" points="632.2122,-341.7327 626.7465,-350.8088 636.6792,-347.1221 632.2122,-341.7327"/>
</g>
<!-- StatusBoard -->
<g id="node25" class="node">
<title>StatusBoard</title>
<polygon fill="#2980b9" stroke="#2980b9" points="498.5,-225 422.5,-225 422.5,-189 498.5,-189 498.5,-225"/>
<text text-anchor="middle" x="460.5" y="-204.5" font-family="Sans" font-size="10.00" fill="#ffffff">StatusBoard</text>
</g>
<!-- StatusBoard&#45;&gt;CompositeOutputDevice -->
<g id="edge22" class="edge">
<title>StatusBoard&#45;&gt;CompositeOutputDevice</title>
<path fill="none" stroke="#000000" d="M422.1665,-219.6606C404.0776,-225.6349 381.9933,-232.9288 361.4393,-239.7173"/>
<polygon fill="#000000" stroke="#000000" points="360.2087,-236.4377 351.8108,-242.8973 362.404,-243.0846 360.2087,-236.4377"/>
</g>
<!-- StatusZero -->
<g id="node26" class="node">
<title>StatusZero</title>
<polygon fill="#2980b9" stroke="#2980b9" points="754.5,-225 684.5,-225 684.5,-189 754.5,-189 754.5,-225"/>
<text text-anchor="middle" x="719.5" y="-204.5" font-family="Sans" font-size="10.00" fill="#ffffff">StatusZero</text>
</g>
<!-- StatusZero&#45;&gt;LEDBoard -->
<g id="edge23" class="edge">
<title>StatusZero&#45;&gt;LEDBoard</title>
<path fill="none" stroke="#000000" d="M684.2784,-223.6005C680.0912,-226.6291 676.1824,-230.0906 673,-234 641.058,-273.2391 667.7117,-301.7907 637,-342 636.5384,-342.6044 636.0591,-343.1997 635.5641,-343.7857"/>
<polygon fill="#000000" stroke="#000000" points="633.0411,-341.3582 628.3863,-350.8758 637.9604,-346.3384 633.0411,-341.3582"/>
</g>
<!-- TonalBuzzer -->
<g id="node27" class="node">
<title>TonalBuzzer</title>
<polygon fill="#2980b9" stroke="#2980b9" points="334.5,-36 259.5,-36 259.5,0 334.5,0 334.5,-36"/>
<text text-anchor="middle" x="297" y="-15.5" font-family="Sans" font-size="10.00" fill="#ffffff">TonalBuzzer</text>
</g>
<!-- TonalBuzzer&#45;&gt;CompositeDevice -->
<g id="edge24" class="edge">
<title>TonalBuzzer&#45;&gt;CompositeDevice</title>
<path fill="none" stroke="#000000" d="M259.4455,-30.0605C249.1968,-34.1017 238.3487,-39.1074 229,-45 204.7017,-60.3153 181.0388,-82.8233 164.4602,-100.2282"/>
<polygon fill="#000000" stroke="#000000" points="161.6348,-98.1255 157.3648,-107.8218 166.7495,-102.9047 161.6348,-98.1255"/>
</g>
<!-- TrafficHat -->
<g id="node28" class="node">
<title>TrafficHat</title>
<polygon fill="#2980b9" stroke="#2980b9" points="628,-279 565,-279 565,-243 628,-243 628,-279"/>
<text text-anchor="middle" x="596.5" y="-258.5" font-family="Sans" font-size="10.00" fill="#ffffff">TrafficHat</text>
</g>
<!-- TrafficHat&#45;&gt;TrafficLightsBuzzer -->
<g id="edge25" class="edge">
<title>TrafficHat&#45;&gt;TrafficLightsBuzzer</title>
<path fill="none" stroke="#000000" d="M564.957,-273.5244C550.3294,-279.3324 532.5064,-286.4092 515.7538,-293.061"/>
<polygon fill="#000000" stroke="#000000" points="514.0486,-289.9722 506.0461,-296.9155 516.6319,-296.4781 514.0486,-289.9722"/>
</g>
</g>
</svg>
