<?xml version="1.0" encoding="UTF-8" standalone="no"?>
<!DOCTYPE svg PUBLIC "-//W3C//DTD SVG 1.1//EN"
 "http://www.w3.org/Graphics/SVG/1.1/DTD/svg11.dtd">
<!-- Generated by graphviz version 2.36.0 (20140111.2315)
 -->
<!-- Title: classes Pages: 1 -->
<svg width="808pt" height="332pt"
 viewBox="0.00 0.00 808.00 332.00" xmlns="http://www.w3.org/2000/svg" xmlns:xlink="http://www.w3.org/1999/xlink">
<g id="graph0" class="graph" transform="scale(1 1) rotate(0) translate(4 328)">
<title>classes</title>
<polygon fill="white" stroke="none" points="-4,4 -4,-328 804,-328 804,4 -4,4"/>
<!-- AnalogInputDevice -->
<g id="node1" class="node"><title>AnalogInputDevice</title>
<polygon fill="#2980b9" stroke="#2980b9" points="608,-252 502,-252 502,-216 608,-216 608,-252"/>
<text text-anchor="middle" x="555" y="-231.5" font-family="Sans" font-size="10.00" fill="#ffffff">AnalogInputDevice</text>
</g>
<!-- CompositeDevice -->
<g id="node2" class="node"><title>CompositeDevice</title>
<polygon fill="#2980b9" stroke="#2980b9" points="279.5,-324 178.5,-324 178.5,-288 279.5,-288 279.5,-324"/>
<text text-anchor="middle" x="229" y="-303.5" font-family="Sans" font-size="10.00" fill="#ffffff">CompositeDevice</text>
</g>
<!-- AnalogInputDevice&#45;&gt;CompositeDevice -->
<g id="edge1" class="edge"><title>AnalogInputDevice&#45;&gt;CompositeDevice</title>
<path fill="none" stroke="black" d="M502.26,-246.325C443.965,-258.842 350.25,-278.965 289.144,-292.086"/>
<polygon fill="black" stroke="black" points="288.296,-288.688 279.253,-294.209 289.765,-295.532 288.296,-288.688"/>
</g>
<!-- MCP3xxx -->
<g id="node3" class="node"><title>MCP3xxx</title>
<polygon fill="#2980b9" stroke="#2980b9" points="638.5,-180 579.5,-180 579.5,-144 638.5,-144 638.5,-180"/>
<text text-anchor="middle" x="609" y="-159.5" font-family="Sans" font-size="10.00" fill="#ffffff">MCP3xxx</text>
</g>
<!-- MCP3xxx&#45;&gt;AnalogInputDevice -->
<g id="edge2" class="edge"><title>MCP3xxx&#45;&gt;AnalogInputDevice</title>
<path fill="none" stroke="black" d="M595.652,-180.303C589.243,-188.611 581.442,-198.723 574.394,-207.859"/>
<polygon fill="black" stroke="black" points="571.532,-205.84 568.195,-215.896 577.074,-210.116 571.532,-205.84"/>
</g>
<!-- MCP33xx -->
<g id="node4" class="node"><title>MCP33xx</title>
<polygon fill="#2980b9" stroke="#2980b9" points="480,-108 420,-108 420,-72 480,-72 480,-108"/>
<text text-anchor="middle" x="450" y="-87.5" font-family="Sans" font-size="10.00" fill="#ffffff">MCP33xx</text>
</g>
<!-- MCP33xx&#45;&gt;MCP3xxx -->
<g id="edge3" class="edge"><title>MCP33xx&#45;&gt;MCP3xxx</title>
<path fill="none" stroke="black" d="M479.534,-104.002C505.081,-115.249 542.204,-131.593 570.154,-143.898"/>
<polygon fill="black" stroke="black" points="569.062,-147.241 579.624,-148.067 571.882,-140.835 569.062,-147.241"/>
</g>
<!-- MCP3004 -->
<g id="node5" class="node"><title>MCP3004</title>
<polygon fill="#2980b9" stroke="#2980b9" points="560,-108 498,-108 498,-72 560,-72 560,-108"/>
<text text-anchor="middle" x="529" y="-87.5" font-family="Sans" font-size="10.00" fill="#ffffff">MCP3004</text>
</g>
<!-- MCP3004&#45;&gt;MCP3xxx -->
<g id="edge4" class="edge"><title>MCP3004&#45;&gt;MCP3xxx</title>
<path fill="none" stroke="black" d="M548.775,-108.303C558.754,-117.035 571.011,-127.76 581.857,-137.25"/>
<polygon fill="black" stroke="black" points="579.622,-139.945 589.452,-143.896 584.231,-134.677 579.622,-139.945"/>
</g>
<!-- MCP3008 -->
<g id="node6" class="node"><title>MCP3008</title>
<polygon fill="#2980b9" stroke="#2980b9" points="640,-108 578,-108 578,-72 640,-72 640,-108"/>
<text text-anchor="middle" x="609" y="-87.5" font-family="Sans" font-size="10.00" fill="#ffffff">MCP3008</text>
</g>
<!-- MCP3008&#45;&gt;MCP3xxx -->
<g id="edge5" class="edge"><title>MCP3008&#45;&gt;MCP3xxx</title>
<path fill="none" stroke="black" d="M609,-108.303C609,-116.017 609,-125.288 609,-133.888"/>
<polygon fill="black" stroke="black" points="605.5,-133.896 609,-143.896 612.5,-133.896 605.5,-133.896"/>
</g>
<!-- MCP3204 -->
<g id="node7" class="node"><title>MCP3204</title>
<polygon fill="#2980b9" stroke="#2980b9" points="720,-108 658,-108 658,-72 720,-72 720,-108"/>
<text text-anchor="middle" x="689" y="-87.5" font-family="Sans" font-size="10.00" fill="#ffffff">MCP3204</text>
</g>
<!-- MCP3204&#45;&gt;MCP3xxx -->
<g id="edge6" class="edge"><title>MCP3204&#45;&gt;MCP3xxx</title>
<path fill="none" stroke="black" d="M669.225,-108.303C659.246,-117.035 646.989,-127.76 636.143,-137.25"/>
<polygon fill="black" stroke="black" points="633.769,-134.677 628.548,-143.896 638.378,-139.945 633.769,-134.677"/>
</g>
<!-- MCP3208 -->
<g id="node8" class="node"><title>MCP3208</title>
<polygon fill="#2980b9" stroke="#2980b9" points="800,-108 738,-108 738,-72 800,-72 800,-108"/>
<text text-anchor="middle" x="769" y="-87.5" font-family="Sans" font-size="10.00" fill="#ffffff">MCP3208</text>
</g>
<!-- MCP3208&#45;&gt;MCP3xxx -->
<g id="edge7" class="edge"><title>MCP3208&#45;&gt;MCP3xxx</title>
<path fill="none" stroke="black" d="M738.15,-104.497C712.4,-115.762 675.557,-131.881 647.808,-144.022"/>
<polygon fill="black" stroke="black" points="646.163,-140.921 638.405,-148.135 648.969,-147.334 646.163,-140.921"/>
</g>
<!-- MCP3301 -->
<g id="node9" class="node"><title>MCP3301</title>
<polygon fill="#2980b9" stroke="#2980b9" points="401,-36 339,-36 339,-0 401,-0 401,-36"/>
<text text-anchor="middle" x="370" y="-15.5" font-family="Sans" font-size="10.00" fill="#ffffff">MCP3301</text>
</g>
<!-- MCP3301&#45;&gt;MCP33xx -->
<g id="edge8" class="edge"><title>MCP3301&#45;&gt;MCP33xx</title>
<path fill="none" stroke="black" d="M389.775,-36.3034C399.754,-45.0345 412.011,-55.7595 422.857,-65.2497"/>
<polygon fill="black" stroke="black" points="420.622,-67.9446 430.452,-71.8957 425.231,-62.6766 420.622,-67.9446"/>
</g>
<!-- MCP3302 -->
<g id="node10" class="node"><title>MCP3302</title>
<polygon fill="#2980b9" stroke="#2980b9" points="481,-36 419,-36 419,-0 481,-0 481,-36"/>
<text text-anchor="middle" x="450" y="-15.5" font-family="Sans" font-size="10.00" fill="#ffffff">MCP3302</text>
</g>
<!-- MCP3302&#45;&gt;MCP33xx -->
<g id="edge9" class="edge"><title>MCP3302&#45;&gt;MCP33xx</title>
<path fill="none" stroke="black" d="M450,-36.3034C450,-44.0173 450,-53.2875 450,-61.8876"/>
<polygon fill="black" stroke="black" points="446.5,-61.8956 450,-71.8957 453.5,-61.8957 446.5,-61.8956"/>
</g>
<!-- MCP3304 -->
<g id="node11" class="node"><title>MCP3304</title>
<polygon fill="#2980b9" stroke="#2980b9" points="561,-36 499,-36 499,-0 561,-0 561,-36"/>
<text text-anchor="middle" x="530" y="-15.5" font-family="Sans" font-size="10.00" fill="#ffffff">MCP3304</text>
</g>
<!-- MCP3304&#45;&gt;MCP33xx -->
<g id="edge10" class="edge"><title>MCP3304&#45;&gt;MCP33xx</title>
<path fill="none" stroke="black" d="M510.225,-36.3034C500.246,-45.0345 487.989,-55.7595 477.143,-65.2497"/>
<polygon fill="black" stroke="black" points="474.769,-62.6766 469.548,-71.8957 479.378,-67.9446 474.769,-62.6766"/>
</g>
<!-- RGBLED -->
<g id="node12" class="node"><title>RGBLED</title>
<polygon fill="#2980b9" stroke="#2980b9" points="56,-252 0,-252 0,-216 56,-216 56,-252"/>
<text text-anchor="middle" x="28" y="-231.5" font-family="Sans" font-size="10.00" fill="#ffffff">RGBLED</text>
</g>
<!-- RGBLED&#45;&gt;CompositeDevice -->
<g id="edge11" class="edge"><title>RGBLED&#45;&gt;CompositeDevice</title>
<path fill="none" stroke="black" d="M55.7289,-248.167C58.8345,-249.514 61.9702,-250.819 65,-252 98.836,-265.187 137.45,-277.783 168.706,-287.384"/>
<polygon fill="black" stroke="black" points="167.994,-290.826 178.58,-290.393 170.035,-284.13 167.994,-290.826"/>
</g>
<!-- Motor -->
<g id="node13" class="node"><title>Motor</title>
<polygon fill="#2980b9" stroke="#2980b9" points="128,-252 74,-252 74,-216 128,-216 128,-252"/>
<text text-anchor="middle" x="101" y="-231.5" font-family="Sans" font-size="10.00" fill="#ffffff">Motor</text>
</g>
<!-- Motor&#45;&gt;CompositeDevice -->
<g id="edge12" class="edge"><title>Motor&#45;&gt;CompositeDevice</title>
<path fill="none" stroke="black" d="M128.146,-249.845C145.837,-259.52 169.228,-272.312 189.029,-283.141"/>
<polygon fill="black" stroke="black" points="187.388,-286.233 197.841,-287.96 190.747,-280.091 187.388,-286.233"/>
</g>
<!-- LEDBoard -->
<g id="node14" class="node"><title>LEDBoard</title>
<polygon fill="#2980b9" stroke="#2980b9" points="210,-252 146,-252 146,-216 210,-216 210,-252"/>
<text text-anchor="middle" x="178" y="-231.5" font-family="Sans" font-size="10.00" fill="#ffffff">LEDBoard</text>
</g>
<!-- LEDBoard&#45;&gt;CompositeDevice -->
<g id="edge13" class="edge"><title>LEDBoard&#45;&gt;CompositeDevice</title>
<path fill="none" stroke="black" d="M190.607,-252.303C196.597,-260.526 203.876,-270.517 210.479,-279.579"/>
<polygon fill="black" stroke="black" points="207.821,-281.874 216.538,-287.896 213.478,-277.752 207.821,-281.874"/>
</g>
<!-- PiLiter -->
<g id="node15" class="node"><title>PiLiter</title>
<polygon fill="#2980b9" stroke="#2980b9" points="99,-180 45,-180 45,-144 99,-144 99,-180"/>
<text text-anchor="middle" x="72" y="-159.5" font-family="Sans" font-size="10.00" fill="#ffffff">PiLiter</text>
</g>
<!-- PiLiter&#45;&gt;LEDBoard -->
<g id="edge14" class="edge"><title>PiLiter&#45;&gt;LEDBoard</title>
<path fill="none" stroke="black" d="M97.9305,-180.124C111.662,-189.192 128.706,-200.448 143.536,-210.241"/>
<polygon fill="black" stroke="black" points="141.696,-213.22 151.97,-215.81 145.554,-207.379 141.696,-213.22"/>
</g>
<!-- TrafficLights -->
<g id="node16" class="node"><title>TrafficLights</title>
<polygon fill="#2980b9" stroke="#2980b9" points="189,-180 117,-180 117,-144 189,-144 189,-180"/>
<text text-anchor="middle" x="153" y="-159.5" font-family="Sans" font-size="10.00" fill="#ffffff">TrafficLights</text>
</g>
<!-- TrafficLights&#45;&gt;LEDBoard -->
<g id="edge15" class="edge"><title>TrafficLights&#45;&gt;LEDBoard</title>
<path fill="none" stroke="black" d="M159.18,-180.303C161.995,-188.187 165.391,-197.696 168.519,-206.454"/>
<polygon fill="black" stroke="black" points="165.232,-207.655 171.891,-215.896 171.824,-205.301 165.232,-207.655"/>
</g>
<!-- PiTraffic -->
<g id="node17" class="node"><title>PiTraffic</title>
<polygon fill="#2980b9" stroke="#2980b9" points="180,-108 126,-108 126,-72 180,-72 180,-108"/>
<text text-anchor="middle" x="153" y="-87.5" font-family="Sans" font-size="10.00" fill="#ffffff">PiTraffic</text>
</g>
<!-- PiTraffic&#45;&gt;TrafficLights -->
<g id="edge16" class="edge"><title>PiTraffic&#45;&gt;TrafficLights</title>
<path fill="none" stroke="black" d="M153,-108.303C153,-116.017 153,-125.288 153,-133.888"/>
<polygon fill="black" stroke="black" points="149.5,-133.896 153,-143.896 156.5,-133.896 149.5,-133.896"/>
</g>
<!-- TrafficLightsBuzzer -->
<g id="node18" class="node"><title>TrafficLightsBuzzer</title>
<polygon fill="#2980b9" stroke="#2980b9" points="333.5,-252 228.5,-252 228.5,-216 333.5,-216 333.5,-252"/>
<text text-anchor="middle" x="281" y="-231.5" font-family="Sans" font-size="10.00" fill="#ffffff">TrafficLightsBuzzer</text>
</g>
<!-- TrafficLightsBuzzer&#45;&gt;CompositeDevice -->
<g id="edge17" class="edge"><title>TrafficLightsBuzzer&#45;&gt;CompositeDevice</title>
<path fill="none" stroke="black" d="M268.146,-252.303C261.975,-260.611 254.463,-270.723 247.676,-279.859"/>
<polygon fill="black" stroke="black" points="244.86,-277.781 241.706,-287.896 250.479,-281.955 244.86,-277.781"/>
</g>
<!-- FishDish -->
<g id="node19" class="node"><title>FishDish</title>
<polygon fill="#2980b9" stroke="#2980b9" points="263,-180 207,-180 207,-144 263,-144 263,-180"/>
<text text-anchor="middle" x="235" y="-159.5" font-family="Sans" font-size="10.00" fill="#ffffff">FishDish</text>
</g>
<!-- FishDish&#45;&gt;TrafficLightsBuzzer -->
<g id="edge18" class="edge"><title>FishDish&#45;&gt;TrafficLightsBuzzer</title>
<path fill="none" stroke="black" d="M246.371,-180.303C251.718,-188.441 258.204,-198.311 264.111,-207.299"/>
<polygon fill="black" stroke="black" points="261.343,-209.461 269.76,-215.896 267.193,-205.616 261.343,-209.461"/>
</g>
<!-- TrafficHat -->
<g id="node20" class="node"><title>TrafficHat</title>
<polygon fill="#2980b9" stroke="#2980b9" points="342.5,-180 281.5,-180 281.5,-144 342.5,-144 342.5,-180"/>
<text text-anchor="middle" x="312" y="-159.5" font-family="Sans" font-size="10.00" fill="#ffffff">TrafficHat</text>
</g>
<!-- TrafficHat&#45;&gt;TrafficLightsBuzzer -->
<g id="edge19" class="edge"><title>TrafficHat&#45;&gt;TrafficLightsBuzzer</title>
<path fill="none" stroke="black" d="M304.337,-180.303C300.808,-188.272 296.544,-197.9 292.631,-206.736"/>
<polygon fill="black" stroke="black" points="289.424,-205.335 288.575,-215.896 295.824,-208.169 289.424,-205.335"/>
</g>
<!-- Robot -->
<g id="node21" class="node"><title>Robot</title>
<polygon fill="#2980b9" stroke="#2980b9" points="431,-252 377,-252 377,-216 431,-216 431,-252"/>
<text text-anchor="middle" x="404" y="-231.5" font-family="Sans" font-size="10.00" fill="#ffffff">Robot</text>
</g>
<!-- Robot&#45;&gt;CompositeDevice -->
<g id="edge20" class="edge"><title>Robot&#45;&gt;CompositeDevice</title>
<path fill="none" stroke="black" d="M376.656,-245.938C351.218,-256.113 312.631,-271.547 281.284,-284.087"/>
<polygon fill="black" stroke="black" points="279.795,-280.912 271.81,-287.876 282.394,-287.412 279.795,-280.912"/>
</g>
<!-- RyanteckRobot -->
<g id="node22" class="node"><title>RyanteckRobot</title>
<polygon fill="#2980b9" stroke="#2980b9" points="447,-180 361,-180 361,-144 447,-144 447,-180"/>
<text text-anchor="middle" x="404" y="-159.5" font-family="Sans" font-size="10.00" fill="#ffffff">RyanteckRobot</text>
</g>
<!-- RyanteckRobot&#45;&gt;Robot -->
<g id="edge21" class="edge"><title>RyanteckRobot&#45;&gt;Robot</title>
<path fill="none" stroke="black" d="M404,-180.303C404,-188.017 404,-197.288 404,-205.888"/>
<polygon fill="black" stroke="black" points="400.5,-205.896 404,-215.896 407.5,-205.896 400.5,-205.896"/>
</g>
<!-- CamJamKitRobot -->
<g id="node23" class="node"><title>CamJamKitRobot</title>
<polygon fill="#2980b9" stroke="#2980b9" points="561,-180 465,-180 465,-144 561,-144 561,-180"/>
<text text-anchor="middle" x="513" y="-159.5" font-family="Sans" font-size="10.00" fill="#ffffff">CamJamKitRobot</text>
</g>
<!-- CamJamKitRobot&#45;&gt;Robot -->
<g id="edge22" class="edge"><title>CamJamKitRobot&#45;&gt;Robot</title>
<path fill="none" stroke="black" d="M486.336,-180.124C472.216,-189.192 454.689,-200.448 439.439,-210.241"/>
<polygon fill="black" stroke="black" points="437.29,-207.462 430.767,-215.81 441.073,-213.352 437.29,-207.462"/>
</g>
</g>
</svg>
