<?xml version="1.0" encoding="UTF-8" standalone="no"?>
<!DOCTYPE svg PUBLIC "-//W3C//DTD SVG 1.1//EN"
 "http://www.w3.org/Graphics/SVG/1.1/DTD/svg11.dtd">
<!-- Generated by graphviz version 2.40.1 (20161225.0304)
 -->
<!-- Title: classes Pages: 1 -->
<svg width="865pt" height="611pt"
 viewBox="0.00 0.00 865.00 611.00" xmlns="http://www.w3.org/2000/svg" xmlns:xlink="http://www.w3.org/1999/xlink">
<g id="graph0" class="graph" transform="scale(1 1) rotate(0) translate(4 607)">
<title>classes</title>
<polygon fill="#ffffff" stroke="transparent" points="-4,4 -4,-607 861,-607 861,4 -4,4"/>
<!-- CompositeDevice -->
<g id="node1" class="node">
<title>CompositeDevice</title>
<polygon fill="#9ec6e0" stroke="#9ec6e0" points="193,-144 90,-144 90,-108 193,-108 193,-144"/>
<text text-anchor="middle" x="141.5" y="-123.5" font-family="Sans" font-size="10.00" fill="#000000">CompositeDevice</text>
</g>
<!-- Device -->
<g id="node3" class="node">
<title>Device</title>
<polygon fill="#9ec6e0" stroke="#9ec6e0" points="54,-171 0,-171 0,-135 54,-135 54,-171"/>
<text text-anchor="middle" x="27" y="-150.5" font-family="Sans" font-size="10.00" fill="#000000">Device</text>
</g>
<!-- CompositeDevice&#45;&gt;Device -->
<g id="edge3" class="edge">
<title>CompositeDevice&#45;&gt;Device</title>
<path fill="none" stroke="#000000" d="M89.9443,-138.1573C81.1667,-140.2271 72.2088,-142.3394 63.907,-144.297"/>
<polygon fill="#000000" stroke="#000000" points="63.0918,-140.8932 54.1621,-146.595 64.6985,-147.7063 63.0918,-140.8932"/>
</g>
<!-- CompositeOutputDevice -->
<g id="node2" class="node">
<title>CompositeOutputDevice</title>
<polygon fill="#9ec6e0" stroke="#9ec6e0" points="365,-333 229,-333 229,-297 365,-297 365,-333"/>
<text text-anchor="middle" x="297" y="-312.5" font-family="Sans" font-size="10.00" fill="#000000">CompositeOutputDevice</text>
</g>
<!-- CompositeOutputDevice&#45;&gt;CompositeDevice -->
<g id="edge4" class="edge">
<title>CompositeOutputDevice&#45;&gt;CompositeDevice</title>
<path fill="none" stroke="#000000" d="M285.4852,-296.7969C259.0652,-255.0666 196.1118,-155.8498 193,-153 191.8833,-151.9773 190.7206,-150.9817 189.5212,-150.0136"/>
<polygon fill="#000000" stroke="#000000" points="191.3366,-147.0086 181.17,-144.0268 187.2581,-152.6978 191.3366,-147.0086"/>
</g>
<!-- LEDCollection -->
<g id="node4" class="node">
<title>LEDCollection</title>
<polygon fill="#9ec6e0" stroke="#9ec6e0" points="502.5,-495 418.5,-495 418.5,-459 502.5,-459 502.5,-495"/>
<text text-anchor="middle" x="460.5" y="-474.5" font-family="Sans" font-size="10.00" fill="#000000">LEDCollection</text>
</g>
<!-- LEDCollection&#45;&gt;CompositeOutputDevice -->
<g id="edge10" class="edge">
<title>LEDCollection&#45;&gt;CompositeOutputDevice</title>
<path fill="none" stroke="#000000" d="M418.3426,-461.0266C412.233,-457.8322 406.2451,-454.1571 401,-450 362.5032,-419.4888 330.1958,-371.7693 312.2424,-341.9966"/>
<polygon fill="#000000" stroke="#000000" points="315.0294,-339.8332 306.9281,-333.0053 309.0033,-343.3949 315.0294,-339.8332"/>
</g>
<!-- ButtonBoard -->
<g id="node5" class="node">
<title>ButtonBoard</title>
<polygon fill="#2980b9" stroke="#2980b9" points="335.5,-198 258.5,-198 258.5,-162 335.5,-162 335.5,-198"/>
<text text-anchor="middle" x="297" y="-177.5" font-family="Sans" font-size="10.00" fill="#ffffff">ButtonBoard</text>
</g>
<!-- ButtonBoard&#45;&gt;CompositeDevice -->
<g id="edge1" class="edge">
<title>ButtonBoard&#45;&gt;CompositeDevice</title>
<path fill="none" stroke="#000000" d="M258.1619,-166.5128C241.3856,-160.687 221.3528,-153.7302 202.6615,-147.2393"/>
<polygon fill="#000000" stroke="#000000" points="203.6286,-143.8702 193.0337,-143.896 201.3322,-150.4828 203.6286,-143.8702"/>
</g>
<!-- CamJamKitRobot -->
<g id="node6" class="node">
<title>CamJamKitRobot</title>
<polygon fill="#2980b9" stroke="#2980b9" points="510,-171 411,-171 411,-135 510,-135 510,-171"/>
<text text-anchor="middle" x="460.5" y="-150.5" font-family="Sans" font-size="10.00" fill="#ffffff">CamJamKitRobot</text>
</g>
<!-- Robot -->
<g id="node7" class="node">
<title>Robot</title>
<polygon fill="#2980b9" stroke="#2980b9" points="324,-144 270,-144 270,-108 324,-108 324,-144"/>
<text text-anchor="middle" x="297" y="-123.5" font-family="Sans" font-size="10.00" fill="#ffffff">Robot</text>
</g>
<!-- CamJamKitRobot&#45;&gt;Robot -->
<g id="edge2" class="edge">
<title>CamJamKitRobot&#45;&gt;Robot</title>
<path fill="none" stroke="#000000" d="M410.5562,-144.7524C385.9618,-140.6909 356.8172,-135.8781 334.2121,-132.1451"/>
<polygon fill="#000000" stroke="#000000" points="334.7626,-128.6887 324.3259,-130.5125 333.622,-135.5952 334.7626,-128.6887"/>
</g>
<!-- Robot&#45;&gt;CompositeDevice -->
<g id="edge19" class="edge">
<title>Robot&#45;&gt;CompositeDevice</title>
<path fill="none" stroke="#000000" d="M269.914,-126C251.495,-126 226.3569,-126 203.2037,-126"/>
<polygon fill="#000000" stroke="#000000" points="203.0835,-122.5001 193.0835,-126 203.0835,-129.5001 203.0835,-122.5001"/>
</g>
<!-- Energenie -->
<g id="node8" class="node">
<title>Energenie</title>
<polygon fill="#2980b9" stroke="#2980b9" points="174,-198 109,-198 109,-162 174,-162 174,-198"/>
<text text-anchor="middle" x="141.5" y="-177.5" font-family="Sans" font-size="10.00" fill="#ffffff">Energenie</text>
</g>
<!-- Energenie&#45;&gt;Device -->
<g id="edge5" class="edge">
<title>Energenie&#45;&gt;Device</title>
<path fill="none" stroke="#000000" d="M108.9952,-172.3351C95.0561,-169.0482 78.6936,-165.1898 64.267,-161.7879"/>
<polygon fill="#000000" stroke="#000000" points="64.703,-158.2947 54.1667,-159.4061 63.0964,-165.1079 64.703,-158.2947"/>
</g>
<!-- FishDish -->
<g id="node9" class="node">
<title>FishDish</title>
<polygon fill="#2980b9" stroke="#2980b9" points="489,-441 432,-441 432,-405 489,-405 489,-441"/>
<text text-anchor="middle" x="460.5" y="-420.5" font-family="Sans" font-size="10.00" fill="#ffffff">FishDish</text>
</g>
<!-- FishDish&#45;&gt;CompositeOutputDevice -->
<g id="edge6" class="edge">
<title>FishDish&#45;&gt;CompositeOutputDevice</title>
<path fill="none" stroke="#000000" d="M431.9577,-411.6798C421.9094,-407.2735 410.707,-401.8696 401,-396 373.8045,-379.5555 345.5112,-357.1172 325.3134,-340.0267"/>
<polygon fill="#000000" stroke="#000000" points="327.3233,-337.14 317.4501,-333.2968 322.7717,-342.4582 327.3233,-337.14"/>
</g>
<!-- JamHat -->
<g id="node10" class="node">
<title>JamHat</title>
<polygon fill="#2980b9" stroke="#2980b9" points="487.5,-387 433.5,-387 433.5,-351 487.5,-351 487.5,-387"/>
<text text-anchor="middle" x="460.5" y="-366.5" font-family="Sans" font-size="10.00" fill="#ffffff">JamHat</text>
</g>
<!-- JamHat&#45;&gt;CompositeOutputDevice -->
<g id="edge7" class="edge">
<title>JamHat&#45;&gt;CompositeOutputDevice</title>
<path fill="none" stroke="#000000" d="M433.1338,-359.9616C413.5518,-353.4942 386.3508,-344.5104 361.4078,-336.2723"/>
<polygon fill="#000000" stroke="#000000" points="362.2103,-332.8515 351.6172,-333.0387 360.015,-339.4983 362.2103,-332.8515"/>
</g>
<!-- LEDBarGraph -->
<g id="node11" class="node">
<title>LEDBarGraph</title>
<polygon fill="#2980b9" stroke="#2980b9" points="637,-549 556,-549 556,-513 637,-513 637,-549"/>
<text text-anchor="middle" x="596.5" y="-528.5" font-family="Sans" font-size="10.00" fill="#ffffff">LEDBarGraph</text>
</g>
<!-- LEDBarGraph&#45;&gt;LEDCollection -->
<g id="edge8" class="edge">
<title>LEDBarGraph&#45;&gt;LEDCollection</title>
<path fill="none" stroke="#000000" d="M555.6955,-514.7982C541.9605,-509.3446 526.4531,-503.1873 512.0034,-497.4499"/>
<polygon fill="#000000" stroke="#000000" points="513.2757,-494.1893 502.6899,-493.7519 510.6924,-500.6952 513.2757,-494.1893"/>
</g>
<!-- LEDBoard -->
<g id="node12" class="node">
<title>LEDBoard</title>
<polygon fill="#2980b9" stroke="#2980b9" points="628.5,-441 564.5,-441 564.5,-405 628.5,-405 628.5,-441"/>
<text text-anchor="middle" x="596.5" y="-420.5" font-family="Sans" font-size="10.00" fill="#ffffff">LEDBoard</text>
</g>
<!-- LEDBoard&#45;&gt;LEDCollection -->
<g id="edge9" class="edge">
<title>LEDBoard&#45;&gt;LEDCollection</title>
<path fill="none" stroke="#000000" d="M564.2699,-435.7972C548.6951,-441.9813 529.6205,-449.5551 512.0927,-456.5147"/>
<polygon fill="#000000" stroke="#000000" points="510.5487,-453.3618 502.5462,-460.3052 513.132,-459.8678 510.5487,-453.3618"/>
</g>
<!-- PhaseEnableRobot -->
<g id="node13" class="node">
<title>PhaseEnableRobot</title>
<polygon fill="#2980b9" stroke="#2980b9" points="350.5,-90 243.5,-90 243.5,-54 350.5,-54 350.5,-90"/>
<text text-anchor="middle" x="297" y="-69.5" font-family="Sans" font-size="10.00" fill="#ffffff">PhaseEnableRobot</text>
</g>
<!-- PhaseEnableRobot&#45;&gt;CompositeDevice -->
<g id="edge11" class="edge">
<title>PhaseEnableRobot&#45;&gt;CompositeDevice</title>
<path fill="none" stroke="#000000" d="M244.7882,-90.1314C231.2392,-94.8366 216.5262,-99.9459 202.5662,-104.7937"/>
<polygon fill="#000000" stroke="#000000" points="201.344,-101.5131 193.0455,-108.0999 203.6404,-108.1257 201.344,-101.5131"/>
</g>
<!-- PiHutXmasTree -->
<g id="node14" class="node">
<title>PiHutXmasTree</title>
<polygon fill="#2980b9" stroke="#2980b9" points="765,-549 674,-549 674,-513 765,-513 765,-549"/>
<text text-anchor="middle" x="719.5" y="-528.5" font-family="Sans" font-size="10.00" fill="#ffffff">PiHutXmasTree</text>
</g>
<!-- PiHutXmasTree&#45;&gt;LEDBoard -->
<g id="edge12" class="edge">
<title>PiHutXmasTree&#45;&gt;LEDBoard</title>
<path fill="none" stroke="#000000" d="M685.7144,-512.9444C681.3045,-510.1416 676.9512,-507.1304 673,-504 652.414,-487.6902 632.1445,-465.8948 617.647,-449.0211"/>
<polygon fill="#000000" stroke="#000000" points="620.1463,-446.5562 611.0176,-441.1787 614.8004,-451.0752 620.1463,-446.5562"/>
</g>
<!-- PiLiter -->
<g id="node15" class="node">
<title>PiLiter</title>
<polygon fill="#2980b9" stroke="#2980b9" points="746.5,-495 692.5,-495 692.5,-459 746.5,-459 746.5,-495"/>
<text text-anchor="middle" x="719.5" y="-474.5" font-family="Sans" font-size="10.00" fill="#ffffff">PiLiter</text>
</g>
<!-- PiLiter&#45;&gt;LEDBoard -->
<g id="edge13" class="edge">
<title>PiLiter&#45;&gt;LEDBoard</title>
<path fill="none" stroke="#000000" d="M692.2023,-465.0156C676.3178,-458.0419 655.9697,-449.1086 638.1236,-441.2738"/>
<polygon fill="#000000" stroke="#000000" points="639.0742,-437.8687 628.5107,-437.0535 636.2602,-444.2782 639.0742,-437.8687"/>
</g>
<!-- PiLiterBarGraph -->
<g id="node16" class="node">
<title>PiLiterBarGraph</title>
<polygon fill="#2980b9" stroke="#2980b9" points="766,-603 673,-603 673,-567 766,-567 766,-603"/>
<text text-anchor="middle" x="719.5" y="-582.5" font-family="Sans" font-size="10.00" fill="#ffffff">PiLiterBarGraph</text>
</g>
<!-- PiLiterBarGraph&#45;&gt;LEDBarGraph -->
<g id="edge14" class="edge">
<title>PiLiterBarGraph&#45;&gt;LEDBarGraph</title>
<path fill="none" stroke="#000000" d="M678.2006,-566.8686C667.9447,-562.3659 656.8456,-557.4932 646.2322,-552.8336"/>
<polygon fill="#000000" stroke="#000000" points="647.6271,-549.6237 637.0637,-548.8085 644.8132,-556.0332 647.6271,-549.6237"/>
</g>
<!-- PiStop -->
<g id="node17" class="node">
<title>PiStop</title>
<polygon fill="#2980b9" stroke="#2980b9" points="856.5,-468 802.5,-468 802.5,-432 856.5,-432 856.5,-468"/>
<text text-anchor="middle" x="829.5" y="-447.5" font-family="Sans" font-size="10.00" fill="#ffffff">PiStop</text>
</g>
<!-- TrafficLights -->
<g id="node18" class="node">
<title>TrafficLights</title>
<polygon fill="#2980b9" stroke="#2980b9" points="757,-441 682,-441 682,-405 757,-405 757,-441"/>
<text text-anchor="middle" x="719.5" y="-420.5" font-family="Sans" font-size="10.00" fill="#ffffff">TrafficLights</text>
</g>
<!-- PiStop&#45;&gt;TrafficLights -->
<g id="edge15" class="edge">
<title>PiStop&#45;&gt;TrafficLights</title>
<path fill="none" stroke="#000000" d="M802.309,-443.3258C791.6723,-440.715 779.1525,-437.642 767.1135,-434.687"/>
<polygon fill="#000000" stroke="#000000" points="767.7119,-431.23 757.1658,-432.2452 766.0432,-438.0282 767.7119,-431.23"/>
</g>
<!-- TrafficLights&#45;&gt;LEDBoard -->
<g id="edge26" class="edge">
<title>TrafficLights&#45;&gt;LEDBoard</title>
<path fill="none" stroke="#000000" d="M681.9276,-423C668.4161,-423 653.079,-423 639.1655,-423"/>
<polygon fill="#000000" stroke="#000000" points="638.857,-419.5001 628.857,-423 638.857,-426.5001 638.857,-419.5001"/>
</g>
<!-- PiTraffic -->
<g id="node19" class="node">
<title>PiTraffic</title>
<polygon fill="#2980b9" stroke="#2980b9" points="857,-414 802,-414 802,-378 857,-378 857,-414"/>
<text text-anchor="middle" x="829.5" y="-393.5" font-family="Sans" font-size="10.00" fill="#ffffff">PiTraffic</text>
</g>
<!-- PiTraffic&#45;&gt;TrafficLights -->
<g id="edge16" class="edge">
<title>PiTraffic&#45;&gt;TrafficLights</title>
<path fill="none" stroke="#000000" d="M801.7424,-402.8132C791.201,-405.4007 778.8735,-408.4265 767.0186,-411.3364"/>
<polygon fill="#000000" stroke="#000000" points="766.0985,-407.9582 757.2211,-413.7412 767.7672,-414.7564 766.0985,-407.9582"/>
</g>
<!-- PololuDRV8835Robot -->
<g id="node20" class="node">
<title>PololuDRV8835Robot</title>
<polygon fill="#2980b9" stroke="#2980b9" points="520,-63 401,-63 401,-27 520,-27 520,-63"/>
<text text-anchor="middle" x="460.5" y="-42.5" font-family="Sans" font-size="10.00" fill="#ffffff">PololuDRV8835Robot</text>
</g>
<!-- PololuDRV8835Robot&#45;&gt;PhaseEnableRobot -->
<g id="edge17" class="edge">
<title>PololuDRV8835Robot&#45;&gt;PhaseEnableRobot</title>
<path fill="none" stroke="#000000" d="M400.547,-54.9005C387.547,-57.0473 373.7536,-59.3251 360.618,-61.4943"/>
<polygon fill="#000000" stroke="#000000" points="360.0214,-58.0453 350.7253,-63.1279 361.162,-64.9518 360.0214,-58.0453"/>
</g>
<!-- PumpkinPi -->
<g id="node21" class="node">
<title>PumpkinPi</title>
<polygon fill="#2980b9" stroke="#2980b9" points="753.5,-387 685.5,-387 685.5,-351 753.5,-351 753.5,-387"/>
<text text-anchor="middle" x="719.5" y="-366.5" font-family="Sans" font-size="10.00" fill="#ffffff">PumpkinPi</text>
</g>
<!-- PumpkinPi&#45;&gt;LEDBoard -->
<g id="edge18" class="edge">
<title>PumpkinPi&#45;&gt;LEDBoard</title>
<path fill="none" stroke="#000000" d="M685.2376,-384.042C670.6389,-390.4512 653.4741,-397.987 638.1507,-404.7143"/>
<polygon fill="#000000" stroke="#000000" points="636.6366,-401.5565 628.8872,-408.7812 639.4506,-407.966 636.6366,-401.5565"/>
</g>
<!-- RyanteckRobot -->
<g id="node22" class="node">
<title>RyanteckRobot</title>
<polygon fill="#2980b9" stroke="#2980b9" points="505,-117 416,-117 416,-81 505,-81 505,-117"/>
<text text-anchor="middle" x="460.5" y="-96.5" font-family="Sans" font-size="10.00" fill="#ffffff">RyanteckRobot</text>
</g>
<!-- RyanteckRobot&#45;&gt;Robot -->
<g id="edge20" class="edge">
<title>RyanteckRobot&#45;&gt;Robot</title>
<path fill="none" stroke="#000000" d="M415.8229,-106.3779C390.1764,-110.6131 358.3538,-115.8682 334.0975,-119.8738"/>
<polygon fill="#000000" stroke="#000000" points="333.5013,-116.4248 324.2052,-121.5074 334.6419,-123.3312 333.5013,-116.4248"/>
</g>
<!-- SnowPi -->
<g id="node23" class="node">
<title>SnowPi</title>
<polygon fill="#2980b9" stroke="#2980b9" points="746.5,-333 692.5,-333 692.5,-297 746.5,-297 746.5,-333"/>
<text text-anchor="middle" x="719.5" y="-312.5" font-family="Sans" font-size="10.00" fill="#ffffff">SnowPi</text>
</g>
<!-- SnowPi&#45;&gt;LEDBoard -->
<g id="edge21" class="edge">
<title>SnowPi&#45;&gt;LEDBoard</title>
<path fill="none" stroke="#000000" d="M692.0851,-329.1617C685.5897,-332.9865 678.8536,-337.3623 673,-342 652.414,-358.3098 632.1445,-380.1052 617.647,-396.9789"/>
<polygon fill="#000000" stroke="#000000" points="614.8004,-394.9248 611.0176,-404.8213 620.1463,-399.4438 614.8004,-394.9248"/>
</g>
<!-- StatusBoard -->
<g id="node24" class="node">
<title>StatusBoard</title>
<polygon fill="#2980b9" stroke="#2980b9" points="498.5,-333 422.5,-333 422.5,-297 498.5,-297 498.5,-333"/>
<text text-anchor="middle" x="460.5" y="-312.5" font-family="Sans" font-size="10.00" fill="#ffffff">StatusBoard</text>
</g>
<!-- StatusBoard&#45;&gt;CompositeOutputDevice -->
<g id="edge22" class="edge">
<title>StatusBoard&#45;&gt;CompositeOutputDevice</title>
<path fill="none" stroke="#000000" d="M422.1665,-315C408.0971,-315 391.6107,-315 375.3072,-315"/>
<polygon fill="#000000" stroke="#000000" points="375.2029,-311.5001 365.2028,-315 375.2028,-318.5001 375.2029,-311.5001"/>
</g>
<!-- StatusZero -->
<g id="node25" class="node">
<title>StatusZero</title>
<polygon fill="#2980b9" stroke="#2980b9" points="754.5,-279 684.5,-279 684.5,-243 754.5,-243 754.5,-279"/>
<text text-anchor="middle" x="719.5" y="-258.5" font-family="Sans" font-size="10.00" fill="#ffffff">StatusZero</text>
</g>
<!-- StatusZero&#45;&gt;LEDBoard -->
<g id="edge23" class="edge">
<title>StatusZero&#45;&gt;LEDBoard</title>
<path fill="none" stroke="#000000" d="M684.4808,-278.5372C680.3603,-281.3868 676.4144,-284.5495 673,-288 641.9818,-319.3462 619.3522,-365.8047 607.0663,-395.2311"/>
<polygon fill="#000000" stroke="#000000" points="603.6694,-394.2942 603.1551,-404.8766 610.1564,-396.9246 603.6694,-394.2942"/>
</g>
<!-- TonalBuzzer -->
<g id="node26" class="node">
<title>TonalBuzzer</title>
<polygon fill="#2980b9" stroke="#2980b9" points="334.5,-36 259.5,-36 259.5,0 334.5,0 334.5,-36"/>
<text text-anchor="middle" x="297" y="-15.5" font-family="Sans" font-size="10.00" fill="#ffffff">TonalBuzzer</text>
</g>
<!-- TonalBuzzer&#45;&gt;CompositeDevice -->
<g id="edge24" class="edge">
<title>TonalBuzzer&#45;&gt;CompositeDevice</title>
<path fill="none" stroke="#000000" d="M259.4455,-30.0605C249.1968,-34.1017 238.3487,-39.1074 229,-45 204.7017,-60.3153 181.0388,-82.8233 164.4602,-100.2282"/>
<polygon fill="#000000" stroke="#000000" points="161.6348,-98.1255 157.3648,-107.8218 166.7495,-102.9047 161.6348,-98.1255"/>
</g>
<!-- TrafficHat -->
<g id="node27" class="node">
<title>TrafficHat</title>
<polygon fill="#2980b9" stroke="#2980b9" points="492,-279 429,-279 429,-243 492,-243 492,-279"/>
<text text-anchor="middle" x="460.5" y="-258.5" font-family="Sans" font-size="10.00" fill="#ffffff">TrafficHat</text>
</g>
<!-- TrafficHat&#45;&gt;CompositeOutputDevice -->
<g id="edge25" class="edge">
<title>TrafficHat&#45;&gt;CompositeOutputDevice</title>
<path fill="none" stroke="#000000" d="M428.9756,-271.4117C409.7278,-277.7688 384.4151,-286.1289 361.1106,-293.8258"/>
<polygon fill="#000000" stroke="#000000" points="360.0114,-290.5029 351.6136,-296.9625 362.2068,-297.1497 360.0114,-290.5029"/>
</g>
<!-- TrafficLightsBuzzer -->
<g id="node28" class="node">
<title>TrafficLightsBuzzer</title>
<polygon fill="#2980b9" stroke="#2980b9" points="514.5,-225 406.5,-225 406.5,-189 514.5,-189 514.5,-225"/>
<text text-anchor="middle" x="460.5" y="-204.5" font-family="Sans" font-size="10.00" fill="#ffffff">TrafficLightsBuzzer</text>
</g>
<!-- TrafficLightsBuzzer&#45;&gt;CompositeOutputDevice -->
<g id="edge27" class="edge">
<title>TrafficLightsBuzzer&#45;&gt;CompositeOutputDevice</title>
<path fill="none" stroke="#000000" d="M417.2999,-225.139C411.7095,-227.909 406.1447,-230.8891 401,-234 373.8045,-250.4445 345.5112,-272.8828 325.3134,-289.9733"/>
<polygon fill="#000000" stroke="#000000" points="322.7717,-287.5418 317.4501,-296.7032 327.3233,-292.86 322.7717,-287.5418"/>
</g>
</g>
</svg>
