<?xml version="1.0" encoding="UTF-8" standalone="no"?>
<!DOCTYPE svg PUBLIC "-//W3C//DTD SVG 1.1//EN"
 "http://www.w3.org/Graphics/SVG/1.1/DTD/svg11.dtd">
<!-- Generated by graphviz version 2.43.0 (0)
 -->
<!-- Title: classes Pages: 1 -->
<svg width="880pt" height="638pt"
 viewBox="0.00 0.00 880.00 638.00" xmlns="http://www.w3.org/2000/svg" xmlns:xlink="http://www.w3.org/1999/xlink">
<g id="graph0" class="graph" transform="scale(1 1) rotate(0) translate(4 634)">
<title>classes</title>
<polygon fill="white" stroke="transparent" points="-4,4 -4,-634 876,-634 876,4 -4,4"/>
<!-- EventsMixin -->
<g id="node1" class="node">
<title>EventsMixin</title>
<polygon fill="#c69ee0" stroke="#c69ee0" points="180,-524 103,-524 103,-488 180,-488 180,-524"/>
<text text-anchor="middle" x="141.5" y="-503.5" font-family="Sans" font-size="10.00" fill="#000000">EventsMixin</text>
</g>
<!-- HoldMixin -->
<g id="node2" class="node">
<title>HoldMixin</title>
<polygon fill="#c69ee0" stroke="#c69ee0" points="330,-563 264,-563 264,-527 330,-527 330,-563"/>
<text text-anchor="middle" x="297" y="-542.5" font-family="Sans" font-size="10.00" fill="#000000">HoldMixin</text>
</g>
<!-- HoldMixin&#45;&gt;EventsMixin -->
<g id="edge8" class="edge">
<title>HoldMixin&#45;&gt;EventsMixin</title>
<path fill="none" stroke="black" d="M263.82,-536.82C242.44,-531.39 213.99,-524.16 190.01,-518.07"/>
<polygon fill="black" stroke="black" points="190.6,-514.61 180.05,-515.54 188.88,-521.39 190.6,-514.61"/>
</g>
<!-- CompositeDevice -->
<g id="node3" class="node">
<title>CompositeDevice</title>
<polygon fill="#9ec6e0" stroke="#9ec6e0" points="193,-252 90,-252 90,-216 193,-216 193,-252"/>
<text text-anchor="middle" x="141.5" y="-231.5" font-family="Sans" font-size="10.00" fill="#000000">CompositeDevice</text>
</g>
<!-- Device -->
<g id="node5" class="node">
<title>Device</title>
<polygon fill="#9ec6e0" stroke="#9ec6e0" points="54,-225 0,-225 0,-189 54,-189 54,-225"/>
<text text-anchor="middle" x="27" y="-204.5" font-family="Sans" font-size="10.00" fill="#000000">Device</text>
</g>
<!-- CompositeDevice&#45;&gt;Device -->
<g id="edge4" class="edge">
<title>CompositeDevice&#45;&gt;Device</title>
<path fill="none" stroke="black" d="M89.84,-221.84C81.15,-219.76 72.28,-217.63 64.07,-215.66"/>
<polygon fill="black" stroke="black" points="64.62,-212.19 54.08,-213.26 62.99,-219 64.62,-212.19"/>
</g>
<!-- CompositeOutputDevice -->
<g id="node4" class="node">
<title>CompositeOutputDevice</title>
<polygon fill="#9ec6e0" stroke="#9ec6e0" points="365,-333 229,-333 229,-297 365,-297 365,-333"/>
<text text-anchor="middle" x="297" y="-312.5" font-family="Sans" font-size="10.00" fill="#000000">CompositeOutputDevice</text>
</g>
<!-- CompositeOutputDevice&#45;&gt;CompositeDevice -->
<g id="edge5" class="edge">
<title>CompositeOutputDevice&#45;&gt;CompositeDevice</title>
<path fill="none" stroke="black" d="M261.55,-296.82C239.14,-284.99 209.72,-269.47 185.73,-256.81"/>
<polygon fill="black" stroke="black" points="187.31,-253.69 176.83,-252.12 184.04,-259.88 187.31,-253.69"/>
</g>
<!-- LEDCollection -->
<g id="node6" class="node">
<title>LEDCollection</title>
<polygon fill="#9ec6e0" stroke="#9ec6e0" points="503,-522 419,-522 419,-486 503,-486 503,-522"/>
<text text-anchor="middle" x="461" y="-501.5" font-family="Sans" font-size="10.00" fill="#000000">LEDCollection</text>
</g>
<!-- LEDCollection&#45;&gt;CompositeOutputDevice -->
<g id="edge12" class="edge">
<title>LEDCollection&#45;&gt;CompositeOutputDevice</title>
<path fill="none" stroke="black" d="M418.75,-489.89C412.27,-486.39 406.06,-482.14 401,-477 373.07,-448.64 385.99,-428.82 365,-395 352.88,-375.47 336.31,-355.65 322.69,-340.62"/>
<polygon fill="black" stroke="black" points="325.22,-338.2 315.87,-333.22 320.08,-342.95 325.22,-338.2"/>
</g>
<!-- ButtonBoard -->
<g id="node7" class="node">
<title>ButtonBoard</title>
<polygon fill="#2980b9" stroke="#2980b9" points="499.5,-576 422.5,-576 422.5,-540 499.5,-540 499.5,-576"/>
<text text-anchor="middle" x="461" y="-555.5" font-family="Sans" font-size="10.00" fill="#ffffff">ButtonBoard</text>
</g>
<!-- ButtonBoard&#45;&gt;HoldMixin -->
<g id="edge2" class="edge">
<title>ButtonBoard&#45;&gt;HoldMixin</title>
<path fill="none" stroke="black" d="M422.43,-554.98C397.86,-553.01 365.74,-550.44 340.28,-548.39"/>
<polygon fill="black" stroke="black" points="340.42,-544.89 330.18,-547.58 339.86,-551.87 340.42,-544.89"/>
</g>
<!-- ButtonBoard&#45;&gt;CompositeDevice -->
<g id="edge1" class="edge">
<title>ButtonBoard&#45;&gt;CompositeDevice</title>
<path fill="none" stroke="black" d="M422.48,-545.71C414.71,-541.9 407.05,-537.06 401,-531 373.74,-503.69 388.63,-482.5 365,-452 317.39,-390.54 283.84,-397.1 229,-342 203.31,-316.18 177.7,-283.06 161.1,-260.34"/>
<polygon fill="black" stroke="black" points="163.89,-258.23 155.19,-252.18 158.22,-262.34 163.89,-258.23"/>
</g>
<!-- CamJamKitRobot -->
<g id="node8" class="node">
<title>CamJamKitRobot</title>
<polygon fill="#2980b9" stroke="#2980b9" points="511,-144 411,-144 411,-108 511,-108 511,-144"/>
<text text-anchor="middle" x="461" y="-123.5" font-family="Sans" font-size="10.00" fill="#ffffff">CamJamKitRobot</text>
</g>
<!-- Robot -->
<g id="node9" class="node">
<title>Robot</title>
<polygon fill="#2980b9" stroke="#2980b9" points="324,-184 270,-184 270,-148 324,-148 324,-184"/>
<text text-anchor="middle" x="297" y="-163.5" font-family="Sans" font-size="10.00" fill="#ffffff">Robot</text>
</g>
<!-- CamJamKitRobot&#45;&gt;Robot -->
<g id="edge3" class="edge">
<title>CamJamKitRobot&#45;&gt;Robot</title>
<path fill="none" stroke="black" d="M410.96,-138.11C386.24,-144.21 356.81,-151.48 334.18,-157.07"/>
<polygon fill="black" stroke="black" points="333.17,-153.71 324.3,-159.51 334.85,-160.51 333.17,-153.71"/>
</g>
<!-- Robot&#45;&gt;CompositeDevice -->
<g id="edge22" class="edge">
<title>Robot&#45;&gt;CompositeDevice</title>
<path fill="none" stroke="black" d="M269.96,-177.54C248.78,-186.92 218.28,-200.43 192.42,-211.88"/>
<polygon fill="black" stroke="black" points="190.86,-208.75 183.13,-216 193.7,-215.15 190.86,-208.75"/>
</g>
<!-- Energenie -->
<g id="node10" class="node">
<title>Energenie</title>
<polygon fill="#2980b9" stroke="#2980b9" points="174,-198 109,-198 109,-162 174,-162 174,-198"/>
<text text-anchor="middle" x="141.5" y="-177.5" font-family="Sans" font-size="10.00" fill="#ffffff">Energenie</text>
</g>
<!-- Energenie&#45;&gt;Device -->
<g id="edge6" class="edge">
<title>Energenie&#45;&gt;Device</title>
<path fill="none" stroke="black" d="M108.86,-187.59C94.95,-190.93 78.54,-194.87 64.15,-198.32"/>
<polygon fill="black" stroke="black" points="63,-195 54.09,-200.74 64.63,-201.81 63,-195"/>
</g>
<!-- FishDish -->
<g id="node11" class="node">
<title>FishDish</title>
<polygon fill="#2980b9" stroke="#2980b9" points="490,-468 432,-468 432,-432 490,-432 490,-468"/>
<text text-anchor="middle" x="461" y="-447.5" font-family="Sans" font-size="10.00" fill="#ffffff">FishDish</text>
</g>
<!-- FishDish&#45;&gt;CompositeOutputDevice -->
<g id="edge7" class="edge">
<title>FishDish&#45;&gt;CompositeOutputDevice</title>
<path fill="none" stroke="black" d="M431.79,-439.68C421.62,-435.31 410.36,-429.67 401,-423 368.16,-399.6 337.18,-364.73 317.93,-340.99"/>
<polygon fill="black" stroke="black" points="320.61,-338.72 311.63,-333.09 315.13,-343.09 320.61,-338.72"/>
</g>
<!-- JamHat -->
<g id="node12" class="node">
<title>JamHat</title>
<polygon fill="#2980b9" stroke="#2980b9" points="488,-414 434,-414 434,-378 488,-378 488,-414"/>
<text text-anchor="middle" x="461" y="-393.5" font-family="Sans" font-size="10.00" fill="#ffffff">JamHat</text>
</g>
<!-- JamHat&#45;&gt;CompositeOutputDevice -->
<g id="edge9" class="edge">
<title>JamHat&#45;&gt;CompositeOutputDevice</title>
<path fill="none" stroke="black" d="M433.72,-384.34C423.45,-379.69 411.62,-374.21 401,-369 381,-359.19 359.1,-347.8 340.66,-338.02"/>
<polygon fill="black" stroke="black" points="342.1,-334.82 331.63,-333.21 338.81,-341 342.1,-334.82"/>
</g>
<!-- LEDBarGraph -->
<g id="node13" class="node">
<title>LEDBarGraph</title>
<polygon fill="#2980b9" stroke="#2980b9" points="638,-576 557,-576 557,-540 638,-540 638,-576"/>
<text text-anchor="middle" x="597.5" y="-555.5" font-family="Sans" font-size="10.00" fill="#ffffff">LEDBarGraph</text>
</g>
<!-- LEDBarGraph&#45;&gt;LEDCollection -->
<g id="edge10" class="edge">
<title>LEDBarGraph&#45;&gt;LEDCollection</title>
<path fill="none" stroke="black" d="M556.87,-542.09C543.02,-536.53 527.26,-530.2 512.63,-524.33"/>
<polygon fill="black" stroke="black" points="513.8,-521.02 503.21,-520.55 511.19,-527.52 513.8,-521.02"/>
</g>
<!-- LEDBoard -->
<g id="node14" class="node">
<title>LEDBoard</title>
<polygon fill="#2980b9" stroke="#2980b9" points="629.5,-468 565.5,-468 565.5,-432 629.5,-432 629.5,-468"/>
<text text-anchor="middle" x="597.5" y="-447.5" font-family="Sans" font-size="10.00" fill="#ffffff">LEDBoard</text>
</g>
<!-- LEDBoard&#45;&gt;LEDCollection -->
<g id="edge11" class="edge">
<title>LEDBoard&#45;&gt;LEDCollection</title>
<path fill="none" stroke="black" d="M565.3,-462.52C549.72,-468.78 530.47,-476.51 512.83,-483.59"/>
<polygon fill="black" stroke="black" points="511.2,-480.48 503.22,-487.45 513.81,-486.97 511.2,-480.48"/>
</g>
<!-- PhaseEnableRobot -->
<g id="node15" class="node">
<title>PhaseEnableRobot</title>
<polygon fill="#2980b9" stroke="#2980b9" points="350.5,-130 243.5,-130 243.5,-94 350.5,-94 350.5,-130"/>
<text text-anchor="middle" x="297" y="-109.5" font-family="Sans" font-size="10.00" fill="#ffffff">PhaseEnableRobot</text>
</g>
<!-- PhaseEnableRobot&#45;&gt;CompositeDevice -->
<g id="edge13" class="edge">
<title>PhaseEnableRobot&#45;&gt;CompositeDevice</title>
<path fill="none" stroke="black" d="M243.36,-128.9C238.19,-131.79 233.29,-135.14 229,-139 203.6,-161.89 217.13,-182.77 193,-207 192.09,-207.91 191.15,-208.8 190.17,-209.66"/>
<polygon fill="black" stroke="black" points="187.95,-206.96 182.18,-215.84 192.23,-212.5 187.95,-206.96"/>
</g>
<!-- PiHutXmasTree -->
<g id="node16" class="node">
<title>PiHutXmasTree</title>
<polygon fill="#2980b9" stroke="#2980b9" points="766,-576 675,-576 675,-540 766,-540 766,-576"/>
<text text-anchor="middle" x="720.5" y="-555.5" font-family="Sans" font-size="10.00" fill="#ffffff">PiHutXmasTree</text>
</g>
<!-- PiHutXmasTree&#45;&gt;LEDBoard -->
<g id="edge14" class="edge">
<title>PiHutXmasTree&#45;&gt;LEDBoard</title>
<path fill="none" stroke="black" d="M686.43,-539.91C682.12,-537.11 677.86,-534.11 674,-531 653.67,-514.63 633.67,-492.84 619.36,-475.98"/>
<polygon fill="black" stroke="black" points="621.92,-473.58 612.82,-468.15 616.54,-478.07 621.92,-473.58"/>
</g>
<!-- PiLiter -->
<g id="node17" class="node">
<title>PiLiter</title>
<polygon fill="#2980b9" stroke="#2980b9" points="747.5,-522 693.5,-522 693.5,-486 747.5,-486 747.5,-522"/>
<text text-anchor="middle" x="720.5" y="-501.5" font-family="Sans" font-size="10.00" fill="#ffffff">PiLiter</text>
</g>
<!-- PiLiter&#45;&gt;LEDBoard -->
<g id="edge15" class="edge">
<title>PiLiter&#45;&gt;LEDBoard</title>
<path fill="none" stroke="black" d="M693.24,-492.28C677.53,-485.27 657.21,-476.2 639.43,-468.27"/>
<polygon fill="black" stroke="black" points="640.41,-464.87 629.85,-463.99 637.56,-471.26 640.41,-464.87"/>
</g>
<!-- PiLiterBarGraph -->
<g id="node18" class="node">
<title>PiLiterBarGraph</title>
<polygon fill="#2980b9" stroke="#2980b9" points="767,-630 674,-630 674,-594 767,-594 767,-630"/>
<text text-anchor="middle" x="720.5" y="-609.5" font-family="Sans" font-size="10.00" fill="#ffffff">PiLiterBarGraph</text>
</g>
<!-- PiLiterBarGraph&#45;&gt;LEDBarGraph -->
<g id="edge16" class="edge">
<title>PiLiterBarGraph&#45;&gt;LEDBarGraph</title>
<path fill="none" stroke="black" d="M678.87,-593.87C668.88,-589.41 658.08,-584.59 647.74,-579.97"/>
<polygon fill="black" stroke="black" points="648.96,-576.69 638.4,-575.81 646.11,-583.08 648.96,-576.69"/>
</g>
<!-- PiStop -->
<g id="node19" class="node">
<title>PiStop</title>
<polygon fill="#2980b9" stroke="#2980b9" points="864.5,-522 810.5,-522 810.5,-486 864.5,-486 864.5,-522"/>
<text text-anchor="middle" x="837.5" y="-501.5" font-family="Sans" font-size="10.00" fill="#ffffff">PiStop</text>
</g>
<!-- TrafficLights -->
<g id="node20" class="node">
<title>TrafficLights</title>
<polygon fill="#2980b9" stroke="#2980b9" points="758,-468 683,-468 683,-432 758,-432 758,-468"/>
<text text-anchor="middle" x="720.5" y="-447.5" font-family="Sans" font-size="10.00" fill="#ffffff">TrafficLights</text>
</g>
<!-- PiStop&#45;&gt;TrafficLights -->
<g id="edge17" class="edge">
<title>PiStop&#45;&gt;TrafficLights</title>
<path fill="none" stroke="black" d="M810.4,-491.75C797.79,-485.82 782.27,-478.54 767.75,-471.72"/>
<polygon fill="black" stroke="black" points="768.93,-468.41 758.39,-467.32 765.96,-474.74 768.93,-468.41"/>
</g>
<!-- TrafficLights&#45;&gt;LEDBoard -->
<g id="edge31" class="edge">
<title>TrafficLights&#45;&gt;LEDBoard</title>
<path fill="none" stroke="black" d="M682.87,-450C669.34,-450 653.92,-450 640,-450"/>
<polygon fill="black" stroke="black" points="639.7,-446.5 629.7,-450 639.7,-453.5 639.7,-446.5"/>
</g>
<!-- PiTraffic -->
<g id="node21" class="node">
<title>PiTraffic</title>
<polygon fill="#2980b9" stroke="#2980b9" points="865,-468 810,-468 810,-432 865,-432 865,-468"/>
<text text-anchor="middle" x="837.5" y="-447.5" font-family="Sans" font-size="10.00" fill="#ffffff">PiTraffic</text>
</g>
<!-- PiTraffic&#45;&gt;TrafficLights -->
<g id="edge18" class="edge">
<title>PiTraffic&#45;&gt;TrafficLights</title>
<path fill="none" stroke="black" d="M809.83,-450C797.44,-450 782.34,-450 768.16,-450"/>
<polygon fill="black" stroke="black" points="768.04,-446.5 758.04,-450 768.04,-453.5 768.04,-446.5"/>
</g>
<!-- Pibrella -->
<g id="node22" class="node">
<title>Pibrella</title>
<polygon fill="#2980b9" stroke="#2980b9" points="488,-360 434,-360 434,-324 488,-324 488,-360"/>
<text text-anchor="middle" x="461" y="-339.5" font-family="Sans" font-size="10.00" fill="#ffffff">Pibrella</text>
</g>
<!-- Pibrella&#45;&gt;CompositeOutputDevice -->
<g id="edge19" class="edge">
<title>Pibrella&#45;&gt;CompositeOutputDevice</title>
<path fill="none" stroke="black" d="M433.97,-337.66C417.91,-334.99 396.39,-331.4 375.22,-327.87"/>
<polygon fill="black" stroke="black" points="375.65,-324.39 365.21,-326.2 374.5,-331.3 375.65,-324.39"/>
</g>
<!-- PololuDRV8835Robot -->
<g id="node23" class="node">
<title>PololuDRV8835Robot</title>
<polygon fill="#2980b9" stroke="#2980b9" points="521,-36 401,-36 401,0 521,0 521,-36"/>
<text text-anchor="middle" x="461" y="-15.5" font-family="Sans" font-size="10.00" fill="#ffffff">PololuDRV8835Robot</text>
</g>
<!-- PololuDRV8835Robot&#45;&gt;PhaseEnableRobot -->
<g id="edge20" class="edge">
<title>PololuDRV8835Robot&#45;&gt;PhaseEnableRobot</title>
<path fill="none" stroke="black" d="M415.38,-36C410.36,-38.73 405.45,-41.73 401,-45 381.72,-59.16 384.6,-71.29 365,-85 362.93,-86.45 360.78,-87.83 358.56,-89.16"/>
<polygon fill="black" stroke="black" points="356.84,-86.11 349.75,-93.98 360.2,-92.25 356.84,-86.11"/>
</g>
<!-- PumpkinPi -->
<g id="node24" class="node">
<title>PumpkinPi</title>
<polygon fill="#2980b9" stroke="#2980b9" points="754.5,-414 686.5,-414 686.5,-378 754.5,-378 754.5,-414"/>
<text text-anchor="middle" x="720.5" y="-393.5" font-family="Sans" font-size="10.00" fill="#ffffff">PumpkinPi</text>
</g>
<!-- PumpkinPi&#45;&gt;LEDBoard -->
<g id="edge21" class="edge">
<title>PumpkinPi&#45;&gt;LEDBoard</title>
<path fill="none" stroke="black" d="M686.44,-410.76C671.83,-417.27 654.53,-425 639.14,-431.86"/>
<polygon fill="black" stroke="black" points="637.56,-428.73 629.86,-436.01 640.42,-435.13 637.56,-428.73"/>
</g>
<!-- RotaryEncoder -->
<g id="node25" class="node">
<title>RotaryEncoder</title>
<polygon fill="#2980b9" stroke="#2980b9" points="341,-497 253,-497 253,-461 341,-461 341,-497"/>
<text text-anchor="middle" x="297" y="-476.5" font-family="Sans" font-size="10.00" fill="#ffffff">RotaryEncoder</text>
</g>
<!-- RotaryEncoder&#45;&gt;EventsMixin -->
<g id="edge24" class="edge">
<title>RotaryEncoder&#45;&gt;EventsMixin</title>
<path fill="none" stroke="black" d="M252.83,-486.59C233.26,-490.04 210.06,-494.12 190,-497.65"/>
<polygon fill="black" stroke="black" points="189.37,-494.2 180.13,-499.38 190.58,-501.1 189.37,-494.2"/>
</g>
<!-- RotaryEncoder&#45;&gt;CompositeDevice -->
<g id="edge23" class="edge">
<title>RotaryEncoder&#45;&gt;CompositeDevice</title>
<path fill="none" stroke="black" d="M269.04,-460.87C255.71,-450.89 240.13,-437.58 229,-423 190.01,-371.91 163.41,-300.44 150.83,-261.67"/>
<polygon fill="black" stroke="black" points="154.15,-260.57 147.79,-252.1 147.48,-262.69 154.15,-260.57"/>
</g>
<!-- RyanteckRobot -->
<g id="node26" class="node">
<title>RyanteckRobot</title>
<polygon fill="#2980b9" stroke="#2980b9" points="506.5,-90 415.5,-90 415.5,-54 506.5,-54 506.5,-90"/>
<text text-anchor="middle" x="461" y="-69.5" font-family="Sans" font-size="10.00" fill="#ffffff">RyanteckRobot</text>
</g>
<!-- RyanteckRobot&#45;&gt;Robot -->
<g id="edge25" class="edge">
<title>RyanteckRobot&#45;&gt;Robot</title>
<path fill="none" stroke="black" d="M415.38,-90C410.36,-92.73 405.45,-95.73 401,-99 381.72,-113.16 384.6,-125.29 365,-139 355.56,-145.61 344.27,-150.95 333.66,-155.08"/>
<polygon fill="black" stroke="black" points="332.39,-151.82 324.2,-158.54 334.79,-158.4 332.39,-151.82"/>
</g>
<!-- SnowPi -->
<g id="node27" class="node">
<title>SnowPi</title>
<polygon fill="#2980b9" stroke="#2980b9" points="747.5,-360 693.5,-360 693.5,-324 747.5,-324 747.5,-360"/>
<text text-anchor="middle" x="720.5" y="-339.5" font-family="Sans" font-size="10.00" fill="#ffffff">SnowPi</text>
</g>
<!-- SnowPi&#45;&gt;LEDBoard -->
<g id="edge26" class="edge">
<title>SnowPi&#45;&gt;LEDBoard</title>
<path fill="none" stroke="black" d="M693.14,-355.92C686.64,-359.81 679.87,-364.28 674,-369 653.67,-385.37 633.67,-407.16 619.36,-424.02"/>
<polygon fill="black" stroke="black" points="616.54,-421.93 612.82,-431.85 621.92,-426.42 616.54,-421.93"/>
</g>
<!-- StatusBoard -->
<g id="node28" class="node">
<title>StatusBoard</title>
<polygon fill="#2980b9" stroke="#2980b9" points="499,-306 423,-306 423,-270 499,-270 499,-306"/>
<text text-anchor="middle" x="461" y="-285.5" font-family="Sans" font-size="10.00" fill="#ffffff">StatusBoard</text>
</g>
<!-- StatusBoard&#45;&gt;CompositeOutputDevice -->
<g id="edge27" class="edge">
<title>StatusBoard&#45;&gt;CompositeOutputDevice</title>
<path fill="none" stroke="black" d="M422.83,-294.19C408.68,-296.55 391.96,-299.34 375.45,-302.09"/>
<polygon fill="black" stroke="black" points="374.5,-298.7 365.22,-303.8 375.65,-305.61 374.5,-298.7"/>
</g>
<!-- StatusZero -->
<g id="node29" class="node">
<title>StatusZero</title>
<polygon fill="#2980b9" stroke="#2980b9" points="755.5,-306 685.5,-306 685.5,-270 755.5,-270 755.5,-306"/>
<text text-anchor="middle" x="720.5" y="-285.5" font-family="Sans" font-size="10.00" fill="#ffffff">StatusZero</text>
</g>
<!-- StatusZero&#45;&gt;LEDBoard -->
<g id="edge28" class="edge">
<title>StatusZero&#45;&gt;LEDBoard</title>
<path fill="none" stroke="black" d="M685.22,-305.59C681.19,-308.43 677.33,-311.58 674,-315 643.32,-346.48 621,-392.9 608.9,-422.28"/>
<polygon fill="black" stroke="black" points="605.51,-421.33 605.05,-431.91 612.01,-423.93 605.51,-421.33"/>
</g>
<!-- TonalBuzzer -->
<g id="node30" class="node">
<title>TonalBuzzer</title>
<polygon fill="#2980b9" stroke="#2980b9" points="334.5,-76 259.5,-76 259.5,-40 334.5,-40 334.5,-76"/>
<text text-anchor="middle" x="297" y="-55.5" font-family="Sans" font-size="10.00" fill="#ffffff">TonalBuzzer</text>
</g>
<!-- TonalBuzzer&#45;&gt;CompositeDevice -->
<g id="edge29" class="edge">
<title>TonalBuzzer&#45;&gt;CompositeDevice</title>
<path fill="none" stroke="black" d="M259.34,-66.14C248.3,-70.19 237.01,-76.18 229,-85 190.99,-126.85 228.7,-163.16 193,-207 192.51,-207.61 191.99,-208.2 191.47,-208.79"/>
<polygon fill="black" stroke="black" points="188.88,-206.41 183.84,-215.73 193.59,-211.58 188.88,-206.41"/>
</g>
<!-- TrafficHat -->
<g id="node31" class="node">
<title>TrafficHat</title>
<polygon fill="#2980b9" stroke="#2980b9" points="492.5,-252 429.5,-252 429.5,-216 492.5,-216 492.5,-252"/>
<text text-anchor="middle" x="461" y="-231.5" font-family="Sans" font-size="10.00" fill="#ffffff">TrafficHat</text>
</g>
<!-- TrafficHat&#45;&gt;CompositeOutputDevice -->
<g id="edge30" class="edge">
<title>TrafficHat&#45;&gt;CompositeOutputDevice</title>
<path fill="none" stroke="black" d="M429.23,-247.7C420.1,-251.87 410.1,-256.54 401,-261 381,-270.81 359.1,-282.2 340.66,-291.98"/>
<polygon fill="black" stroke="black" points="338.81,-289 331.63,-296.79 342.1,-295.18 338.81,-289"/>
</g>
<!-- TrafficLightsBuzzer -->
<g id="node32" class="node">
<title>TrafficLightsBuzzer</title>
<polygon fill="#2980b9" stroke="#2980b9" points="515,-198 407,-198 407,-162 515,-162 515,-198"/>
<text text-anchor="middle" x="461" y="-177.5" font-family="Sans" font-size="10.00" fill="#ffffff">TrafficLightsBuzzer</text>
</g>
<!-- TrafficLightsBuzzer&#45;&gt;CompositeOutputDevice -->
<g id="edge32" class="edge">
<title>TrafficLightsBuzzer&#45;&gt;CompositeOutputDevice</title>
<path fill="none" stroke="black" d="M415.47,-198.13C410.43,-200.83 405.5,-203.8 401,-207 368.16,-230.4 337.18,-265.27 317.93,-289.01"/>
<polygon fill="black" stroke="black" points="315.13,-286.91 311.63,-296.91 320.61,-291.28 315.13,-286.91"/>
</g>
<!-- TrafficpHat -->
<g id="node33" class="node">
<title>TrafficpHat</title>
<polygon fill="#2980b9" stroke="#2980b9" points="872,-414 803,-414 803,-378 872,-378 872,-414"/>
<text text-anchor="middle" x="837.5" y="-393.5" font-family="Sans" font-size="10.00" fill="#ffffff">TrafficpHat</text>
</g>
<!-- TrafficpHat&#45;&gt;TrafficLights -->
<g id="edge33" class="edge">
<title>TrafficpHat&#45;&gt;TrafficLights</title>
<path fill="none" stroke="black" d="M802.93,-411.76C791.84,-416.97 779.3,-422.86 767.45,-428.42"/>
<polygon fill="black" stroke="black" points="765.7,-425.38 758.13,-432.8 768.67,-431.72 765.7,-425.38"/>
</g>
</g>
</svg>
