<?xml version="1.0" encoding="UTF-8" standalone="no"?>
<!DOCTYPE svg PUBLIC "-//W3C//DTD SVG 1.1//EN"
 "http://www.w3.org/Graphics/SVG/1.1/DTD/svg11.dtd">
<!-- Generated by graphviz version 2.38.0 (20140413.2041)
 -->
<!-- Title: classes Pages: 1 -->
<svg width="858pt" height="188pt"
 viewBox="0.00 0.00 858.00 188.00" xmlns="http://www.w3.org/2000/svg" xmlns:xlink="http://www.w3.org/1999/xlink">
<g id="graph0" class="graph" transform="scale(1 1) rotate(0) translate(4 184)">
<title>classes</title>
<polygon fill="white" stroke="none" points="-4,4 -4,-184 854,-184 854,4 -4,4"/>
<!-- RGBLED -->
<g id="node1" class="node"><title>RGBLED</title>
<polygon fill="#298029" stroke="#298029" points="148,-108 92,-108 92,-72 148,-72 148,-108"/>
<text text-anchor="middle" x="120" y="-87.5" font-family="Sans" font-size="10.00" fill="#ffffff">RGBLED</text>
</g>
<!-- LED -->
<g id="node2" class="node"><title>LED</title>
<polygon fill="#298029" stroke="#298029" points="262,-36 208,-36 208,-0 262,-0 262,-36"/>
<text text-anchor="middle" x="235" y="-15.5" font-family="Sans" font-size="10.00" fill="#ffffff">LED</text>
</g>
<!-- RGBLED&#45;&gt;LED -->
<g id="edge1" class="edge"><title>RGBLED&#45;&gt;LED</title>
<path fill="none" stroke="black" stroke-dasharray="5,2" d="M148.132,-71.8761C163.505,-62.5187 182.706,-50.831 199.144,-40.8253"/>
<polygon fill="none" stroke="black" points="201.228,-43.6543 207.95,-35.4651 197.588,-37.6749 201.228,-43.6543"/>
</g>
<!-- PWMLED -->
<g id="node3" class="node"><title>PWMLED</title>
<polygon fill="#298029" stroke="#298029" points="190,-36 132,-36 132,-0 190,-0 190,-36"/>
<text text-anchor="middle" x="161" y="-15.5" font-family="Sans" font-size="10.00" fill="#ffffff">PWMLED</text>
</g>
<!-- RGBLED&#45;&gt;PWMLED -->
<g id="edge2" class="edge"><title>RGBLED&#45;&gt;PWMLED</title>
<path fill="none" stroke="black" stroke-dasharray="5,2" d="M130.135,-71.6966C134.852,-63.6436 140.562,-53.8945 145.782,-44.9824"/>
<polygon fill="none" stroke="black" points="148.948,-46.5021 150.982,-36.1043 142.908,-42.9643 148.948,-46.5021"/>
</g>
<!-- LEDBoard -->
<g id="node4" class="node"><title>LEDBoard</title>
<polygon fill="#298029" stroke="#298029" points="230,-108 166,-108 166,-72 230,-72 230,-108"/>
<text text-anchor="middle" x="198" y="-87.5" font-family="Sans" font-size="10.00" fill="#ffffff">LEDBoard</text>
</g>
<!-- LEDBoard&#45;&gt;LED -->
<g id="edge3" class="edge"><title>LEDBoard&#45;&gt;LED</title>
<path fill="none" stroke="black" stroke-dasharray="5,2" d="M207.146,-71.6966C211.403,-63.6436 216.556,-53.8945 221.266,-44.9824"/>
<polygon fill="none" stroke="black" points="224.38,-46.5809 225.959,-36.1043 218.192,-43.3097 224.38,-46.5809"/>
</g>
<!-- LEDBoard&#45;&gt;PWMLED -->
<g id="edge4" class="edge"><title>LEDBoard&#45;&gt;PWMLED</title>
<path fill="none" stroke="black" stroke-dasharray="5,2" d="M188.854,-71.6966C184.597,-63.6436 179.444,-53.8945 174.734,-44.9824"/>
<polygon fill="none" stroke="black" points="177.808,-43.3097 170.041,-36.1043 171.62,-46.5809 177.808,-43.3097"/>
</g>
<!-- LEDBarGraph -->
<g id="node5" class="node"><title>LEDBarGraph</title>
<polygon fill="#298029" stroke="#298029" points="329.5,-108 248.5,-108 248.5,-72 329.5,-72 329.5,-108"/>
<text text-anchor="middle" x="289" y="-87.5" font-family="Sans" font-size="10.00" fill="#ffffff">LEDBarGraph</text>
</g>
<!-- LEDBarGraph&#45;&gt;LED -->
<g id="edge5" class="edge"><title>LEDBarGraph&#45;&gt;LED</title>
<path fill="none" stroke="black" stroke-dasharray="5,2" d="M275.652,-71.6966C269.243,-63.3893 261.442,-53.2771 254.394,-44.1407"/>
<polygon fill="none" stroke="black" points="257.074,-41.8844 248.195,-36.1043 251.532,-46.16 257.074,-41.8844"/>
</g>
<!-- LEDBarGraph&#45;&gt;PWMLED -->
<g id="edge6" class="edge"><title>LEDBarGraph&#45;&gt;PWMLED</title>
<path fill="none" stroke="black" stroke-dasharray="5,2" d="M257.688,-71.8761C240.006,-62.2062 217.773,-50.0479 199.087,-39.8289"/>
<polygon fill="none" stroke="black" points="200.687,-36.7148 190.234,-34.9874 197.329,-42.8564 200.687,-36.7148"/>
</g>
<!-- ButtonBoard -->
<g id="node6" class="node"><title>ButtonBoard</title>
<polygon fill="#298029" stroke="#298029" points="413.5,-180 336.5,-180 336.5,-144 413.5,-144 413.5,-180"/>
<text text-anchor="middle" x="375" y="-159.5" font-family="Sans" font-size="10.00" fill="#ffffff">ButtonBoard</text>
</g>
<!-- Button -->
<g id="node7" class="node"><title>Button</title>
<polygon fill="#298029" stroke="#298029" points="402,-108 348,-108 348,-72 402,-72 402,-108"/>
<text text-anchor="middle" x="375" y="-87.5" font-family="Sans" font-size="10.00" fill="#ffffff">Button</text>
</g>
<!-- ButtonBoard&#45;&gt;Button -->
<g id="edge7" class="edge"><title>ButtonBoard&#45;&gt;Button</title>
<path fill="none" stroke="black" stroke-dasharray="5,2" d="M375,-143.697C375,-135.983 375,-126.712 375,-118.112"/>
<polygon fill="none" stroke="black" points="378.5,-118.104 375,-108.104 371.5,-118.104 378.5,-118.104"/>
</g>
<!-- TrafficLightsBuzzer -->
<g id="node8" class="node"><title>TrafficLightsBuzzer</title>
<polygon fill="#298029" stroke="#298029" points="536.5,-180 431.5,-180 431.5,-144 536.5,-144 536.5,-180"/>
<text text-anchor="middle" x="484" y="-159.5" font-family="Sans" font-size="10.00" fill="#ffffff">TrafficLightsBuzzer</text>
</g>
<!-- TrafficLightsBuzzer&#45;&gt;Button -->
<g id="edge10" class="edge"><title>TrafficLightsBuzzer&#45;&gt;Button</title>
<path fill="none" stroke="black" stroke-dasharray="5,2" d="M457.336,-143.876C443.216,-134.808 425.689,-123.552 410.439,-113.759"/>
<polygon fill="none" stroke="black" points="412.073,-110.648 401.767,-108.19 408.29,-116.538 412.073,-110.648"/>
</g>
<!-- TrafficLights -->
<g id="node9" class="node"><title>TrafficLights</title>
<polygon fill="#298029" stroke="#298029" points="582,-108 510,-108 510,-72 582,-72 582,-108"/>
<text text-anchor="middle" x="546" y="-87.5" font-family="Sans" font-size="10.00" fill="#ffffff">TrafficLights</text>
</g>
<!-- TrafficLightsBuzzer&#45;&gt;TrafficLights -->
<g id="edge8" class="edge"><title>TrafficLightsBuzzer&#45;&gt;TrafficLights</title>
<path fill="none" stroke="black" stroke-dasharray="5,2" d="M499.326,-143.697C506.759,-135.305 515.823,-125.07 523.98,-115.861"/>
<polygon fill="none" stroke="black" points="526.84,-117.911 530.85,-108.104 521.6,-113.27 526.84,-117.911"/>
</g>
<!-- Buzzer -->
<g id="node10" class="node"><title>Buzzer</title>
<polygon fill="#298029" stroke="#298029" points="492,-108 438,-108 438,-72 492,-72 492,-108"/>
<text text-anchor="middle" x="465" y="-87.5" font-family="Sans" font-size="10.00" fill="#ffffff">Buzzer</text>
</g>
<!-- TrafficLightsBuzzer&#45;&gt;Buzzer -->
<g id="edge9" class="edge"><title>TrafficLightsBuzzer&#45;&gt;Buzzer</title>
<path fill="none" stroke="black" stroke-dasharray="5,2" d="M479.303,-143.697C477.187,-135.898 474.638,-126.509 472.282,-117.829"/>
<polygon fill="none" stroke="black" points="475.64,-116.838 469.643,-108.104 468.884,-118.672 475.64,-116.838"/>
</g>
<!-- StatusBoard -->
<g id="node11" class="node"><title>StatusBoard</title>
<polygon fill="#298029" stroke="#298029" points="318.5,-180 241.5,-180 241.5,-144 318.5,-144 318.5,-180"/>
<text text-anchor="middle" x="280" y="-159.5" font-family="Sans" font-size="10.00" fill="#ffffff">StatusBoard</text>
</g>
<!-- StatusBoard&#45;&gt;LEDBoard -->
<g id="edge11" class="edge"><title>StatusBoard&#45;&gt;LEDBoard</title>
<path fill="none" stroke="black" stroke-dasharray="5,2" d="M259.73,-143.697C249.502,-134.965 236.939,-124.24 225.822,-114.75"/>
<polygon fill="none" stroke="black" points="227.915,-111.935 218.037,-108.104 223.37,-117.259 227.915,-111.935"/>
</g>
<!-- StatusBoard&#45;&gt;Button -->
<g id="edge12" class="edge"><title>StatusBoard&#45;&gt;Button</title>
<path fill="none" stroke="black" stroke-dasharray="5,2" d="M303.483,-143.697C315.563,-134.796 330.454,-123.823 343.516,-114.199"/>
<polygon fill="none" stroke="black" points="345.813,-116.854 351.787,-108.104 341.66,-111.219 345.813,-116.854"/>
</g>
<!-- JamHat -->
<g id="node12" class="node"><title>JamHat</title>
<polygon fill="#298029" stroke="#298029" points="223,-180 169,-180 169,-144 223,-144 223,-180"/>
<text text-anchor="middle" x="196" y="-159.5" font-family="Sans" font-size="10.00" fill="#ffffff">JamHat</text>
</g>
<!-- JamHat&#45;&gt;LEDBoard -->
<g id="edge13" class="edge"><title>JamHat&#45;&gt;LEDBoard</title>
<path fill="none" stroke="black" stroke-dasharray="5,2" d="M196.494,-143.697C196.715,-135.983 196.98,-126.712 197.225,-118.112"/>
<polygon fill="none" stroke="black" points="200.724,-118.2 197.511,-108.104 193.727,-118 200.724,-118.2"/>
</g>
<!-- JamHat&#45;&gt;Button -->
<g id="edge14" class="edge"><title>JamHat&#45;&gt;Button</title>
<path fill="none" stroke="black" stroke-dasharray="5,2" d="M223.375,-147.68C226.267,-146.391 229.181,-145.14 232,-144 278.125,-125.347 291.778,-126.411 338,-108 338.099,-107.961 338.197,-107.921 338.296,-107.882"/>
<polygon fill="none" stroke="black" points="339.797,-111.048 347.658,-103.944 337.083,-104.595 339.797,-111.048"/>
</g>
<!-- TonalBuzzer -->
<g id="node13" class="node"><title>TonalBuzzer</title>
<polygon fill="#298029" stroke="#298029" points="74,-108 0,-108 0,-72 74,-72 74,-108"/>
<text text-anchor="middle" x="37" y="-87.5" font-family="Sans" font-size="10.00" fill="#ffffff">TonalBuzzer</text>
</g>
<!-- JamHat&#45;&gt;TonalBuzzer -->
<g id="edge15" class="edge"><title>JamHat&#45;&gt;TonalBuzzer</title>
<path fill="none" stroke="black" stroke-dasharray="5,2" d="M168.667,-148.967C145.316,-138.686 111.214,-123.673 83.5673,-111.501"/>
<polygon fill="none" stroke="black" points="84.6482,-108.153 74.0856,-107.327 81.8276,-114.56 84.6482,-108.153"/>
</g>
<!-- Robot -->
<g id="node14" class="node"><title>Robot</title>
<polygon fill="#298029" stroke="#298029" points="778,-180 724,-180 724,-144 778,-144 778,-180"/>
<text text-anchor="middle" x="751" y="-159.5" font-family="Sans" font-size="10.00" fill="#ffffff">Robot</text>
</g>
<!-- Motor -->
<g id="node15" class="node"><title>Motor</title>
<polygon fill="#298029" stroke="#298029" points="778,-108 724,-108 724,-72 778,-72 778,-108"/>
<text text-anchor="middle" x="751" y="-87.5" font-family="Sans" font-size="10.00" fill="#ffffff">Motor</text>
</g>
<!-- Robot&#45;&gt;Motor -->
<g id="edge16" class="edge"><title>Robot&#45;&gt;Motor</title>
<path fill="none" stroke="black" stroke-dasharray="5,2" d="M751,-143.697C751,-135.983 751,-126.712 751,-118.112"/>
<polygon fill="none" stroke="black" points="754.5,-118.104 751,-108.104 747.5,-118.104 754.5,-118.104"/>
</g>
<!-- DigitalOutputDevice -->
<g id="node16" class="node"><title>DigitalOutputDevice</title>
<polygon fill="#298029" stroke="#298029" points="709,-36 597,-36 597,-0 709,-0 709,-36"/>
<text text-anchor="middle" x="653" y="-15.5" font-family="Sans" font-size="10.00" fill="#ffffff">DigitalOutputDevice</text>
</g>
<!-- Motor&#45;&gt;DigitalOutputDevice -->
<g id="edge17" class="edge"><title>Motor&#45;&gt;DigitalOutputDevice</title>
<path fill="none" stroke="black" stroke-dasharray="5,2" d="M727.027,-71.8761C714.45,-62.8931 698.868,-51.7625 685.248,-42.0341"/>
<polygon fill="none" stroke="black" points="687.237,-39.1541 677.066,-36.1898 683.169,-44.8502 687.237,-39.1541"/>
</g>
<!-- PWMOutputDevice -->
<g id="node17" class="node"><title>PWMOutputDevice</title>
<polygon fill="#298029" stroke="#298029" points="831,-36 727,-36 727,-0 831,-0 831,-36"/>
<text text-anchor="middle" x="779" y="-15.5" font-family="Sans" font-size="10.00" fill="#ffffff">PWMOutputDevice</text>
</g>
<!-- Motor&#45;&gt;PWMOutputDevice -->
<g id="edge18" class="edge"><title>Motor&#45;&gt;PWMOutputDevice</title>
<path fill="none" stroke="black" stroke-dasharray="5,2" d="M757.921,-71.6966C761.075,-63.8132 764.878,-54.3042 768.381,-45.5464"/>
<polygon fill="none" stroke="black" points="771.694,-46.689 772.158,-36.1043 765.195,-44.0892 771.694,-46.689"/>
</g>
<!-- PhaseEnableRobot -->
<g id="node18" class="node"><title>PhaseEnableRobot</title>
<polygon fill="#298029" stroke="#298029" points="705.5,-180 600.5,-180 600.5,-144 705.5,-144 705.5,-180"/>
<text text-anchor="middle" x="653" y="-159.5" font-family="Sans" font-size="10.00" fill="#ffffff">PhaseEnableRobot</text>
</g>
<!-- PhaseEnableMotor -->
<g id="node19" class="node"><title>PhaseEnableMotor</title>
<polygon fill="#298029" stroke="#298029" points="706,-108 600,-108 600,-72 706,-72 706,-108"/>
<text text-anchor="middle" x="653" y="-87.5" font-family="Sans" font-size="10.00" fill="#ffffff">PhaseEnableMotor</text>
</g>
<!-- PhaseEnableRobot&#45;&gt;PhaseEnableMotor -->
<g id="edge19" class="edge"><title>PhaseEnableRobot&#45;&gt;PhaseEnableMotor</title>
<path fill="none" stroke="black" stroke-dasharray="5,2" d="M653,-143.697C653,-135.983 653,-126.712 653,-118.112"/>
<polygon fill="none" stroke="black" points="656.5,-118.104 653,-108.104 649.5,-118.104 656.5,-118.104"/>
</g>
<!-- PhaseEnableMotor&#45;&gt;DigitalOutputDevice -->
<g id="edge20" class="edge"><title>PhaseEnableMotor&#45;&gt;DigitalOutputDevice</title>
<path fill="none" stroke="black" stroke-dasharray="5,2" d="M653,-71.6966C653,-63.9827 653,-54.7125 653,-46.1124"/>
<polygon fill="none" stroke="black" points="656.5,-46.1043 653,-36.1043 649.5,-46.1044 656.5,-46.1043"/>
</g>
<!-- PhaseEnableMotor&#45;&gt;PWMOutputDevice -->
<g id="edge21" class="edge"><title>PhaseEnableMotor&#45;&gt;PWMOutputDevice</title>
<path fill="none" stroke="black" stroke-dasharray="5,2" d="M683.823,-71.8761C700.45,-62.6388 721.165,-51.1308 739.019,-41.2116"/>
<polygon fill="none" stroke="black" points="741.017,-44.1058 748.058,-36.1898 737.617,-37.9867 741.017,-44.1058"/>
</g>
<!-- Servo -->
<g id="node20" class="node"><title>Servo</title>
<polygon fill="#298029" stroke="#298029" points="850,-108 796,-108 796,-72 850,-72 850,-108"/>
<text text-anchor="middle" x="823" y="-87.5" font-family="Sans" font-size="10.00" fill="#ffffff">Servo</text>
</g>
<!-- Servo&#45;&gt;PWMOutputDevice -->
<g id="edge22" class="edge"><title>Servo&#45;&gt;PWMOutputDevice</title>
<path fill="none" stroke="black" stroke-dasharray="5,2" d="M812.124,-71.6966C807.008,-63.5589 800.805,-53.689 795.155,-44.7013"/>
<polygon fill="none" stroke="black" points="798.036,-42.7081 789.751,-36.1043 792.11,-46.4333 798.036,-42.7081"/>
</g>
</g>
</svg>
