<?xml version="1.0" encoding="UTF-8" standalone="no"?>
<!DOCTYPE svg PUBLIC "-//W3C//DTD SVG 1.1//EN"
 "http://www.w3.org/Graphics/SVG/1.1/DTD/svg11.dtd">
<!-- Generated by graphviz version 2.36.0 (20140111.2315)
 -->
<!-- Title: classes Pages: 1 -->
<svg width="713pt" height="332pt"
 viewBox="0.00 0.00 713.00 332.00" xmlns="http://www.w3.org/2000/svg" xmlns:xlink="http://www.w3.org/1999/xlink">
<g id="graph0" class="graph" transform="scale(1 1) rotate(0) translate(4 328)">
<title>classes</title>
<polygon fill="white" stroke="none" points="-4,4 -4,-328 709,-328 709,4 -4,4"/>
<!-- AnalogInputDevice -->
<g id="node1" class="node"><title>AnalogInputDevice</title>
<polygon fill="#2980b9" stroke="#2980b9" points="562,-252 456,-252 456,-216 562,-216 562,-252"/>
<text text-anchor="middle" x="509" y="-231.5" font-family="Sans" font-size="10.00" fill="#ffffff">AnalogInputDevice</text>
</g>
<!-- CompositeDevice -->
<g id="node2" class="node"><title>CompositeDevice</title>
<polygon fill="#2980b9" stroke="#2980b9" points="279.5,-324 178.5,-324 178.5,-288 279.5,-288 279.5,-324"/>
<text text-anchor="middle" x="229" y="-303.5" font-family="Sans" font-size="10.00" fill="#ffffff">CompositeDevice</text>
</g>
<!-- AnalogInputDevice&#45;&gt;CompositeDevice -->
<g id="edge1" class="edge"><title>AnalogInputDevice&#45;&gt;CompositeDevice</title>
<path fill="none" stroke="black" d="M456.334,-248.166C408.908,-260.023 339.22,-277.445 289.518,-289.871"/>
<polygon fill="black" stroke="black" points="288.396,-286.543 279.544,-292.364 290.094,-293.334 288.396,-286.543"/>
</g>
<!-- MCP3xxx -->
<g id="node3" class="node"><title>MCP3xxx</title>
<polygon fill="#2980b9" stroke="#2980b9" points="543.5,-180 484.5,-180 484.5,-144 543.5,-144 543.5,-180"/>
<text text-anchor="middle" x="514" y="-159.5" font-family="Sans" font-size="10.00" fill="#ffffff">MCP3xxx</text>
</g>
<!-- MCP3xxx&#45;&gt;AnalogInputDevice -->
<g id="edge2" class="edge"><title>MCP3xxx&#45;&gt;AnalogInputDevice</title>
<path fill="none" stroke="black" d="M512.764,-180.303C512.213,-188.017 511.551,-197.288 510.937,-205.888"/>
<polygon fill="black" stroke="black" points="507.443,-205.672 510.222,-215.896 514.425,-206.17 507.443,-205.672"/>
</g>
<!-- MCP33xx -->
<g id="node4" class="node"><title>MCP33xx</title>
<polygon fill="#2980b9" stroke="#2980b9" points="385,-108 325,-108 325,-72 385,-72 385,-108"/>
<text text-anchor="middle" x="355" y="-87.5" font-family="Sans" font-size="10.00" fill="#ffffff">MCP33xx</text>
</g>
<!-- MCP33xx&#45;&gt;MCP3xxx -->
<g id="edge3" class="edge"><title>MCP33xx&#45;&gt;MCP3xxx</title>
<path fill="none" stroke="black" d="M384.534,-104.002C410.081,-115.249 447.204,-131.593 475.154,-143.898"/>
<polygon fill="black" stroke="black" points="474.062,-147.241 484.624,-148.067 476.882,-140.835 474.062,-147.241"/>
</g>
<!-- MCP3004 -->
<g id="node5" class="node"><title>MCP3004</title>
<polygon fill="#2980b9" stroke="#2980b9" points="465,-108 403,-108 403,-72 465,-72 465,-108"/>
<text text-anchor="middle" x="434" y="-87.5" font-family="Sans" font-size="10.00" fill="#ffffff">MCP3004</text>
</g>
<!-- MCP3004&#45;&gt;MCP3xxx -->
<g id="edge4" class="edge"><title>MCP3004&#45;&gt;MCP3xxx</title>
<path fill="none" stroke="black" d="M453.775,-108.303C463.754,-117.035 476.011,-127.76 486.857,-137.25"/>
<polygon fill="black" stroke="black" points="484.622,-139.945 494.452,-143.896 489.231,-134.677 484.622,-139.945"/>
</g>
<!-- MCP3008 -->
<g id="node6" class="node"><title>MCP3008</title>
<polygon fill="#2980b9" stroke="#2980b9" points="545,-108 483,-108 483,-72 545,-72 545,-108"/>
<text text-anchor="middle" x="514" y="-87.5" font-family="Sans" font-size="10.00" fill="#ffffff">MCP3008</text>
</g>
<!-- MCP3008&#45;&gt;MCP3xxx -->
<g id="edge5" class="edge"><title>MCP3008&#45;&gt;MCP3xxx</title>
<path fill="none" stroke="black" d="M514,-108.303C514,-116.017 514,-125.288 514,-133.888"/>
<polygon fill="black" stroke="black" points="510.5,-133.896 514,-143.896 517.5,-133.896 510.5,-133.896"/>
</g>
<!-- MCP3204 -->
<g id="node7" class="node"><title>MCP3204</title>
<polygon fill="#2980b9" stroke="#2980b9" points="625,-108 563,-108 563,-72 625,-72 625,-108"/>
<text text-anchor="middle" x="594" y="-87.5" font-family="Sans" font-size="10.00" fill="#ffffff">MCP3204</text>
</g>
<!-- MCP3204&#45;&gt;MCP3xxx -->
<g id="edge6" class="edge"><title>MCP3204&#45;&gt;MCP3xxx</title>
<path fill="none" stroke="black" d="M574.225,-108.303C564.246,-117.035 551.989,-127.76 541.143,-137.25"/>
<polygon fill="black" stroke="black" points="538.769,-134.677 533.548,-143.896 543.378,-139.945 538.769,-134.677"/>
</g>
<!-- MCP3208 -->
<g id="node8" class="node"><title>MCP3208</title>
<polygon fill="#2980b9" stroke="#2980b9" points="705,-108 643,-108 643,-72 705,-72 705,-108"/>
<text text-anchor="middle" x="674" y="-87.5" font-family="Sans" font-size="10.00" fill="#ffffff">MCP3208</text>
</g>
<!-- MCP3208&#45;&gt;MCP3xxx -->
<g id="edge7" class="edge"><title>MCP3208&#45;&gt;MCP3xxx</title>
<path fill="none" stroke="black" d="M643.15,-104.497C617.4,-115.762 580.557,-131.881 552.808,-144.022"/>
<polygon fill="black" stroke="black" points="551.163,-140.921 543.405,-148.135 553.969,-147.334 551.163,-140.921"/>
</g>
<!-- MCP3301 -->
<g id="node9" class="node"><title>MCP3301</title>
<polygon fill="#2980b9" stroke="#2980b9" points="306,-36 244,-36 244,-0 306,-0 306,-36"/>
<text text-anchor="middle" x="275" y="-15.5" font-family="Sans" font-size="10.00" fill="#ffffff">MCP3301</text>
</g>
<!-- MCP3301&#45;&gt;MCP33xx -->
<g id="edge8" class="edge"><title>MCP3301&#45;&gt;MCP33xx</title>
<path fill="none" stroke="black" d="M294.775,-36.3034C304.754,-45.0345 317.011,-55.7595 327.857,-65.2497"/>
<polygon fill="black" stroke="black" points="325.622,-67.9446 335.452,-71.8957 330.231,-62.6766 325.622,-67.9446"/>
</g>
<!-- MCP3302 -->
<g id="node10" class="node"><title>MCP3302</title>
<polygon fill="#2980b9" stroke="#2980b9" points="386,-36 324,-36 324,-0 386,-0 386,-36"/>
<text text-anchor="middle" x="355" y="-15.5" font-family="Sans" font-size="10.00" fill="#ffffff">MCP3302</text>
</g>
<!-- MCP3302&#45;&gt;MCP33xx -->
<g id="edge9" class="edge"><title>MCP3302&#45;&gt;MCP33xx</title>
<path fill="none" stroke="black" d="M355,-36.3034C355,-44.0173 355,-53.2875 355,-61.8876"/>
<polygon fill="black" stroke="black" points="351.5,-61.8956 355,-71.8957 358.5,-61.8957 351.5,-61.8956"/>
</g>
<!-- MCP3304 -->
<g id="node11" class="node"><title>MCP3304</title>
<polygon fill="#2980b9" stroke="#2980b9" points="466,-36 404,-36 404,-0 466,-0 466,-36"/>
<text text-anchor="middle" x="435" y="-15.5" font-family="Sans" font-size="10.00" fill="#ffffff">MCP3304</text>
</g>
<!-- MCP3304&#45;&gt;MCP33xx -->
<g id="edge10" class="edge"><title>MCP3304&#45;&gt;MCP33xx</title>
<path fill="none" stroke="black" d="M415.225,-36.3034C405.246,-45.0345 392.989,-55.7595 382.143,-65.2497"/>
<polygon fill="black" stroke="black" points="379.769,-62.6766 374.548,-71.8957 384.378,-67.9446 379.769,-62.6766"/>
</g>
<!-- RGBLED -->
<g id="node12" class="node"><title>RGBLED</title>
<polygon fill="#2980b9" stroke="#2980b9" points="56,-252 0,-252 0,-216 56,-216 56,-252"/>
<text text-anchor="middle" x="28" y="-231.5" font-family="Sans" font-size="10.00" fill="#ffffff">RGBLED</text>
</g>
<!-- RGBLED&#45;&gt;CompositeDevice -->
<g id="edge11" class="edge"><title>RGBLED&#45;&gt;CompositeDevice</title>
<path fill="none" stroke="black" d="M55.7289,-248.167C58.8345,-249.514 61.9702,-250.819 65,-252 98.836,-265.187 137.45,-277.783 168.706,-287.384"/>
<polygon fill="black" stroke="black" points="167.994,-290.826 178.58,-290.393 170.035,-284.13 167.994,-290.826"/>
</g>
<!-- Motor -->
<g id="node13" class="node"><title>Motor</title>
<polygon fill="#2980b9" stroke="#2980b9" points="128,-252 74,-252 74,-216 128,-216 128,-252"/>
<text text-anchor="middle" x="101" y="-231.5" font-family="Sans" font-size="10.00" fill="#ffffff">Motor</text>
</g>
<!-- Motor&#45;&gt;CompositeDevice -->
<g id="edge12" class="edge"><title>Motor&#45;&gt;CompositeDevice</title>
<path fill="none" stroke="black" d="M128.146,-249.845C145.837,-259.52 169.228,-272.312 189.029,-283.141"/>
<polygon fill="black" stroke="black" points="187.388,-286.233 197.841,-287.96 190.747,-280.091 187.388,-286.233"/>
</g>
<!-- LEDBoard -->
<g id="node14" class="node"><title>LEDBoard</title>
<polygon fill="#2980b9" stroke="#2980b9" points="210,-252 146,-252 146,-216 210,-216 210,-252"/>
<text text-anchor="middle" x="178" y="-231.5" font-family="Sans" font-size="10.00" fill="#ffffff">LEDBoard</text>
</g>
<!-- LEDBoard&#45;&gt;CompositeDevice -->
<g id="edge13" class="edge"><title>LEDBoard&#45;&gt;CompositeDevice</title>
<path fill="none" stroke="black" d="M190.607,-252.303C196.597,-260.526 203.876,-270.517 210.479,-279.579"/>
<polygon fill="black" stroke="black" points="207.821,-281.874 216.538,-287.896 213.478,-277.752 207.821,-281.874"/>
</g>
<!-- PiLiter -->
<g id="node15" class="node"><title>PiLiter</title>
<polygon fill="#2980b9" stroke="#2980b9" points="118,-180 64,-180 64,-144 118,-144 118,-180"/>
<text text-anchor="middle" x="91" y="-159.5" font-family="Sans" font-size="10.00" fill="#ffffff">PiLiter</text>
</g>
<!-- PiLiter&#45;&gt;LEDBoard -->
<g id="edge14" class="edge"><title>PiLiter&#45;&gt;LEDBoard</title>
<path fill="none" stroke="black" d="M112.506,-180.303C123.463,-189.119 136.946,-199.968 148.825,-209.526"/>
<polygon fill="black" stroke="black" points="146.756,-212.354 156.742,-215.896 151.145,-206.9 146.756,-212.354"/>
</g>
<!-- TrafficLights -->
<g id="node16" class="node"><title>TrafficLights</title>
<polygon fill="#2980b9" stroke="#2980b9" points="208,-180 136,-180 136,-144 208,-144 208,-180"/>
<text text-anchor="middle" x="172" y="-159.5" font-family="Sans" font-size="10.00" fill="#ffffff">TrafficLights</text>
</g>
<!-- TrafficLights&#45;&gt;LEDBoard -->
<g id="edge15" class="edge"><title>TrafficLights&#45;&gt;LEDBoard</title>
<path fill="none" stroke="black" d="M173.483,-180.303C174.144,-188.017 174.939,-197.288 175.676,-205.888"/>
<polygon fill="black" stroke="black" points="172.193,-206.231 176.534,-215.896 179.167,-205.633 172.193,-206.231"/>
</g>
<!-- PiTraffic -->
<g id="node17" class="node"><title>PiTraffic</title>
<polygon fill="#2980b9" stroke="#2980b9" points="199,-108 145,-108 145,-72 199,-72 199,-108"/>
<text text-anchor="middle" x="172" y="-87.5" font-family="Sans" font-size="10.00" fill="#ffffff">PiTraffic</text>
</g>
<!-- PiTraffic&#45;&gt;TrafficLights -->
<g id="edge16" class="edge"><title>PiTraffic&#45;&gt;TrafficLights</title>
<path fill="none" stroke="black" d="M172,-108.303C172,-116.017 172,-125.288 172,-133.888"/>
<polygon fill="black" stroke="black" points="168.5,-133.896 172,-143.896 175.5,-133.896 168.5,-133.896"/>
</g>
<!-- TrafficLightsBuzzer -->
<g id="node18" class="node"><title>TrafficLightsBuzzer</title>
<polygon fill="#2980b9" stroke="#2980b9" points="333.5,-252 228.5,-252 228.5,-216 333.5,-216 333.5,-252"/>
<text text-anchor="middle" x="281" y="-231.5" font-family="Sans" font-size="10.00" fill="#ffffff">TrafficLightsBuzzer</text>
</g>
<!-- TrafficLightsBuzzer&#45;&gt;CompositeDevice -->
<g id="edge17" class="edge"><title>TrafficLightsBuzzer&#45;&gt;CompositeDevice</title>
<path fill="none" stroke="black" d="M268.146,-252.303C261.975,-260.611 254.463,-270.723 247.676,-279.859"/>
<polygon fill="black" stroke="black" points="244.86,-277.781 241.706,-287.896 250.479,-281.955 244.86,-277.781"/>
</g>
<!-- FishDish -->
<g id="node19" class="node"><title>FishDish</title>
<polygon fill="#2980b9" stroke="#2980b9" points="282,-180 226,-180 226,-144 282,-144 282,-180"/>
<text text-anchor="middle" x="254" y="-159.5" font-family="Sans" font-size="10.00" fill="#ffffff">FishDish</text>
</g>
<!-- FishDish&#45;&gt;TrafficLightsBuzzer -->
<g id="edge18" class="edge"><title>FishDish&#45;&gt;TrafficLightsBuzzer</title>
<path fill="none" stroke="black" d="M260.674,-180.303C263.715,-188.187 267.383,-197.696 270.761,-206.454"/>
<polygon fill="black" stroke="black" points="267.538,-207.825 274.403,-215.896 274.069,-205.306 267.538,-207.825"/>
</g>
<!-- TrafficHat -->
<g id="node20" class="node"><title>TrafficHat</title>
<polygon fill="#2980b9" stroke="#2980b9" points="361.5,-180 300.5,-180 300.5,-144 361.5,-144 361.5,-180"/>
<text text-anchor="middle" x="331" y="-159.5" font-family="Sans" font-size="10.00" fill="#ffffff">TrafficHat</text>
</g>
<!-- TrafficHat&#45;&gt;TrafficLightsBuzzer -->
<g id="edge19" class="edge"><title>TrafficHat&#45;&gt;TrafficLightsBuzzer</title>
<path fill="none" stroke="black" d="M318.64,-180.303C312.767,-188.526 305.631,-198.517 299.158,-207.579"/>
<polygon fill="black" stroke="black" points="296.182,-205.724 293.217,-215.896 301.878,-209.793 296.182,-205.724"/>
</g>
<!-- Robot -->
<g id="node21" class="node"><title>Robot</title>
<polygon fill="#2980b9" stroke="#2980b9" points="427,-252 373,-252 373,-216 427,-216 427,-252"/>
<text text-anchor="middle" x="400" y="-231.5" font-family="Sans" font-size="10.00" fill="#ffffff">Robot</text>
</g>
<!-- Robot&#45;&gt;CompositeDevice -->
<g id="edge20" class="edge"><title>Robot&#45;&gt;CompositeDevice</title>
<path fill="none" stroke="black" d="M372.905,-246.092C348.091,-256.249 310.706,-271.553 280.26,-284.016"/>
<polygon fill="black" stroke="black" points="278.572,-280.925 270.643,-287.953 281.224,-287.404 278.572,-280.925"/>
</g>
<!-- RyanteckRobot -->
<g id="node22" class="node"><title>RyanteckRobot</title>
<polygon fill="#2980b9" stroke="#2980b9" points="466,-180 380,-180 380,-144 466,-144 466,-180"/>
<text text-anchor="middle" x="423" y="-159.5" font-family="Sans" font-size="10.00" fill="#ffffff">RyanteckRobot</text>
</g>
<!-- RyanteckRobot&#45;&gt;Robot -->
<g id="edge21" class="edge"><title>RyanteckRobot&#45;&gt;Robot</title>
<path fill="none" stroke="black" d="M417.315,-180.303C414.752,-188.102 411.667,-197.491 408.815,-206.171"/>
<polygon fill="black" stroke="black" points="405.416,-205.303 405.62,-215.896 412.067,-207.488 405.416,-205.303"/>
</g>
</g>
</svg>
