<?xml version="1.0" encoding="UTF-8" standalone="no"?>
<!DOCTYPE svg PUBLIC "-//W3C//DTD SVG 1.1//EN"
 "http://www.w3.org/Graphics/SVG/1.1/DTD/svg11.dtd">
<!-- Generated by graphviz version 2.40.1 (20161225.0304)
 -->
<!-- Title: classes Pages: 1 -->
<svg width="854pt" height="503pt"
 viewBox="0.00 0.00 854.00 503.00" xmlns="http://www.w3.org/2000/svg" xmlns:xlink="http://www.w3.org/1999/xlink">
<g id="graph0" class="graph" transform="scale(1 1) rotate(0) translate(4 499)">
<title>classes</title>
<polygon fill="#ffffff" stroke="transparent" points="-4,4 -4,-499 850,-499 850,4 -4,4"/>
<!-- Device -->
<g id="node1" class="node">
<title>Device</title>
<polygon fill="#9ec6e0" stroke="#9ec6e0" points="54,-117 0,-117 0,-81 54,-81 54,-117"/>
<text text-anchor="middle" x="27" y="-96.5" font-family="Sans" font-size="10.00" fill="#000000">Device</text>
</g>
<!-- CompositeDevice -->
<g id="node2" class="node">
<title>CompositeDevice</title>
<polygon fill="#9ec6e0" stroke="#9ec6e0" points="193,-144 90,-144 90,-108 193,-108 193,-144"/>
<text text-anchor="middle" x="141.5" y="-123.5" font-family="Sans" font-size="10.00" fill="#000000">CompositeDevice</text>
</g>
<!-- CompositeDevice&#45;&gt;Device -->
<g id="edge1" class="edge">
<title>CompositeDevice&#45;&gt;Device</title>
<path fill="none" stroke="#000000" d="M89.9443,-113.8427C81.1667,-111.7729 72.2088,-109.6606 63.907,-107.703"/>
<polygon fill="#000000" stroke="#000000" points="64.6985,-104.2937 54.1621,-105.405 63.0918,-111.1068 64.6985,-104.2937"/>
</g>
<!-- CompositeOutputDevice -->
<g id="node3" class="node">
<title>CompositeOutputDevice</title>
<polygon fill="#9ec6e0" stroke="#9ec6e0" points="365,-252 229,-252 229,-216 365,-216 365,-252"/>
<text text-anchor="middle" x="297" y="-231.5" font-family="Sans" font-size="10.00" fill="#000000">CompositeOutputDevice</text>
</g>
<!-- CompositeOutputDevice&#45;&gt;CompositeDevice -->
<g id="edge2" class="edge">
<title>CompositeOutputDevice&#45;&gt;CompositeDevice</title>
<path fill="none" stroke="#000000" d="M245.4905,-215.9303C239.7723,-213.2322 234.1579,-210.2511 229,-207 204.7017,-191.6847 181.0388,-169.1767 164.4602,-151.7718"/>
<polygon fill="#000000" stroke="#000000" points="166.7495,-149.0953 157.3648,-144.1782 161.6348,-153.8745 166.7495,-149.0953"/>
</g>
<!-- LEDCollection -->
<g id="node4" class="node">
<title>LEDCollection</title>
<polygon fill="#9ec6e0" stroke="#9ec6e0" points="497,-306 413,-306 413,-270 497,-270 497,-306"/>
<text text-anchor="middle" x="455" y="-285.5" font-family="Sans" font-size="10.00" fill="#000000">LEDCollection</text>
</g>
<!-- LEDCollection&#45;&gt;CompositeOutputDevice -->
<g id="edge3" class="edge">
<title>LEDCollection&#45;&gt;CompositeOutputDevice</title>
<path fill="none" stroke="#000000" d="M412.6589,-273.529C396.3852,-267.9671 377.4448,-261.4938 359.6598,-255.4154"/>
<polygon fill="#000000" stroke="#000000" points="360.5169,-252.0096 349.9224,-252.0874 358.2531,-258.6334 360.5169,-252.0096"/>
</g>
<!-- LEDBoard -->
<g id="node5" class="node">
<title>LEDBoard</title>
<polygon fill="#2980b9" stroke="#2980b9" points="617.5,-387 553.5,-387 553.5,-351 617.5,-351 617.5,-387"/>
<text text-anchor="middle" x="585.5" y="-366.5" font-family="Sans" font-size="10.00" fill="#ffffff">LEDBoard</text>
</g>
<!-- LEDBoard&#45;&gt;LEDCollection -->
<g id="edge4" class="edge">
<title>LEDBoard&#45;&gt;LEDCollection</title>
<path fill="none" stroke="#000000" d="M556.2133,-350.822C537.4914,-339.2016 513.0252,-324.0157 492.8376,-311.4854"/>
<polygon fill="#000000" stroke="#000000" points="494.5312,-308.4172 484.189,-306.1173 490.8396,-314.3647 494.5312,-308.4172"/>
</g>
<!-- LEDBarGraph -->
<g id="node6" class="node">
<title>LEDBarGraph</title>
<polygon fill="#2980b9" stroke="#2980b9" points="626,-306 545,-306 545,-270 626,-270 626,-306"/>
<text text-anchor="middle" x="585.5" y="-285.5" font-family="Sans" font-size="10.00" fill="#ffffff">LEDBarGraph</text>
</g>
<!-- LEDBarGraph&#45;&gt;LEDCollection -->
<g id="edge5" class="edge">
<title>LEDBarGraph&#45;&gt;LEDCollection</title>
<path fill="none" stroke="#000000" d="M544.9243,-288C533.1166,-288 520.0446,-288 507.6095,-288"/>
<polygon fill="#000000" stroke="#000000" points="507.3556,-284.5001 497.3555,-288 507.3555,-291.5001 507.3556,-284.5001"/>
</g>
<!-- PiLiter -->
<g id="node7" class="node">
<title>PiLiter</title>
<polygon fill="#2980b9" stroke="#2980b9" points="735.5,-495 681.5,-495 681.5,-459 735.5,-459 735.5,-495"/>
<text text-anchor="middle" x="708.5" y="-474.5" font-family="Sans" font-size="10.00" fill="#ffffff">PiLiter</text>
</g>
<!-- PiLiter&#45;&gt;LEDBoard -->
<g id="edge6" class="edge">
<title>PiLiter&#45;&gt;LEDBoard</title>
<path fill="none" stroke="#000000" d="M681.0851,-462.8383C674.5897,-459.0135 667.8536,-454.6377 662,-450 641.414,-433.6902 621.1445,-411.8948 606.647,-395.0211"/>
<polygon fill="#000000" stroke="#000000" points="609.1463,-392.5562 600.0176,-387.1787 603.8004,-397.0752 609.1463,-392.5562"/>
</g>
<!-- PiHutXmasTree -->
<g id="node8" class="node">
<title>PiHutXmasTree</title>
<polygon fill="#2980b9" stroke="#2980b9" points="754,-441 663,-441 663,-405 754,-405 754,-441"/>
<text text-anchor="middle" x="708.5" y="-420.5" font-family="Sans" font-size="10.00" fill="#ffffff">PiHutXmasTree</text>
</g>
<!-- PiHutXmasTree&#45;&gt;LEDBoard -->
<g id="edge7" class="edge">
<title>PiHutXmasTree&#45;&gt;LEDBoard</title>
<path fill="none" stroke="#000000" d="M667.2006,-404.8686C654.1716,-399.1485 639.7818,-392.831 626.7558,-387.1123"/>
<polygon fill="#000000" stroke="#000000" points="628.1143,-383.8863 617.5508,-383.0711 625.3003,-390.2958 628.1143,-383.8863"/>
</g>
<!-- PiLiterBarGraph -->
<g id="node9" class="node">
<title>PiLiterBarGraph</title>
<polygon fill="#2980b9" stroke="#2980b9" points="755,-279 662,-279 662,-243 755,-243 755,-279"/>
<text text-anchor="middle" x="708.5" y="-258.5" font-family="Sans" font-size="10.00" fill="#ffffff">PiLiterBarGraph</text>
</g>
<!-- PiLiterBarGraph&#45;&gt;LEDBarGraph -->
<g id="edge8" class="edge">
<title>PiLiterBarGraph&#45;&gt;LEDBarGraph</title>
<path fill="none" stroke="#000000" d="M661.999,-271.2075C653.491,-273.0752 644.5751,-275.0323 635.9582,-276.9238"/>
<polygon fill="#000000" stroke="#000000" points="635.0394,-273.5421 626.0224,-279.1048 636.5403,-280.3793 635.0394,-273.5421"/>
</g>
<!-- TrafficLights -->
<g id="node10" class="node">
<title>TrafficLights</title>
<polygon fill="#2980b9" stroke="#2980b9" points="746,-387 671,-387 671,-351 746,-351 746,-387"/>
<text text-anchor="middle" x="708.5" y="-366.5" font-family="Sans" font-size="10.00" fill="#ffffff">TrafficLights</text>
</g>
<!-- TrafficLights&#45;&gt;LEDBoard -->
<g id="edge9" class="edge">
<title>TrafficLights&#45;&gt;LEDBoard</title>
<path fill="none" stroke="#000000" d="M670.9276,-369C657.4161,-369 642.079,-369 628.1655,-369"/>
<polygon fill="#000000" stroke="#000000" points="627.857,-365.5001 617.857,-369 627.857,-372.5001 627.857,-365.5001"/>
</g>
<!-- SnowPi -->
<g id="node11" class="node">
<title>SnowPi</title>
<polygon fill="#2980b9" stroke="#2980b9" points="735.5,-333 681.5,-333 681.5,-297 735.5,-297 735.5,-333"/>
<text text-anchor="middle" x="708.5" y="-312.5" font-family="Sans" font-size="10.00" fill="#ffffff">SnowPi</text>
</g>
<!-- SnowPi&#45;&gt;LEDBoard -->
<g id="edge10" class="edge">
<title>SnowPi&#45;&gt;LEDBoard</title>
<path fill="none" stroke="#000000" d="M681.2023,-326.9844C665.3178,-333.9581 644.9697,-342.8914 627.1236,-350.7262"/>
<polygon fill="#000000" stroke="#000000" points="625.2602,-347.7218 617.5107,-354.9465 628.0742,-354.1313 625.2602,-347.7218"/>
</g>
<!-- PiTraffic -->
<g id="node12" class="node">
<title>PiTraffic</title>
<polygon fill="#2980b9" stroke="#2980b9" points="846,-414 791,-414 791,-378 846,-378 846,-414"/>
<text text-anchor="middle" x="818.5" y="-393.5" font-family="Sans" font-size="10.00" fill="#ffffff">PiTraffic</text>
</g>
<!-- PiTraffic&#45;&gt;TrafficLights -->
<g id="edge11" class="edge">
<title>PiTraffic&#45;&gt;TrafficLights</title>
<path fill="none" stroke="#000000" d="M790.7424,-389.1868C780.201,-386.5993 767.8735,-383.5735 756.0186,-380.6636"/>
<polygon fill="#000000" stroke="#000000" points="756.7672,-377.2436 746.2211,-378.2588 755.0985,-384.0418 756.7672,-377.2436"/>
</g>
<!-- PiStop -->
<g id="node13" class="node">
<title>PiStop</title>
<polygon fill="#2980b9" stroke="#2980b9" points="845.5,-360 791.5,-360 791.5,-324 845.5,-324 845.5,-360"/>
<text text-anchor="middle" x="818.5" y="-339.5" font-family="Sans" font-size="10.00" fill="#ffffff">PiStop</text>
</g>
<!-- PiStop&#45;&gt;TrafficLights -->
<g id="edge12" class="edge">
<title>PiStop&#45;&gt;TrafficLights</title>
<path fill="none" stroke="#000000" d="M791.309,-348.6742C780.6723,-351.285 768.1525,-354.358 756.1135,-357.313"/>
<polygon fill="#000000" stroke="#000000" points="755.0432,-353.9718 746.1658,-359.7548 756.7119,-360.77 755.0432,-353.9718"/>
</g>
<!-- TrafficLightsBuzzer -->
<g id="node14" class="node">
<title>TrafficLightsBuzzer</title>
<polygon fill="#2980b9" stroke="#2980b9" points="509,-252 401,-252 401,-216 509,-216 509,-252"/>
<text text-anchor="middle" x="455" y="-231.5" font-family="Sans" font-size="10.00" fill="#ffffff">TrafficLightsBuzzer</text>
</g>
<!-- TrafficLightsBuzzer&#45;&gt;CompositeOutputDevice -->
<g id="edge13" class="edge">
<title>TrafficLightsBuzzer&#45;&gt;CompositeOutputDevice</title>
<path fill="none" stroke="#000000" d="M400.6254,-234C392.413,-234 383.8061,-234 375.2117,-234"/>
<polygon fill="#000000" stroke="#000000" points="375.1527,-230.5001 365.1526,-234 375.1526,-237.5001 375.1527,-230.5001"/>
</g>
<!-- FishDish -->
<g id="node15" class="node">
<title>FishDish</title>
<polygon fill="#2980b9" stroke="#2980b9" points="614,-252 557,-252 557,-216 614,-216 614,-252"/>
<text text-anchor="middle" x="585.5" y="-231.5" font-family="Sans" font-size="10.00" fill="#ffffff">FishDish</text>
</g>
<!-- FishDish&#45;&gt;TrafficLightsBuzzer -->
<g id="edge14" class="edge">
<title>FishDish&#45;&gt;TrafficLightsBuzzer</title>
<path fill="none" stroke="#000000" d="M556.8612,-234C545.6807,-234 532.3799,-234 519.14,-234"/>
<polygon fill="#000000" stroke="#000000" points="519.0634,-230.5001 509.0634,-234 519.0633,-237.5001 519.0634,-230.5001"/>
</g>
<!-- TrafficHat -->
<g id="node16" class="node">
<title>TrafficHat</title>
<polygon fill="#2980b9" stroke="#2980b9" points="617,-198 554,-198 554,-162 617,-162 617,-198"/>
<text text-anchor="middle" x="585.5" y="-177.5" font-family="Sans" font-size="10.00" fill="#ffffff">TrafficHat</text>
</g>
<!-- TrafficHat&#45;&gt;TrafficLightsBuzzer -->
<g id="edge15" class="edge">
<title>TrafficHat&#45;&gt;TrafficLightsBuzzer</title>
<path fill="none" stroke="#000000" d="M553.9096,-193.0719C540.1666,-198.7587 523.6803,-205.5806 508.1431,-212.0097"/>
<polygon fill="#000000" stroke="#000000" points="506.5266,-208.8908 498.6247,-215.9484 509.2031,-215.3589 506.5266,-208.8908"/>
</g>
<!-- Robot -->
<g id="node17" class="node">
<title>Robot</title>
<polygon fill="#2980b9" stroke="#2980b9" points="324,-198 270,-198 270,-162 324,-162 324,-198"/>
<text text-anchor="middle" x="297" y="-177.5" font-family="Sans" font-size="10.00" fill="#ffffff">Robot</text>
</g>
<!-- Robot&#45;&gt;CompositeDevice -->
<g id="edge16" class="edge">
<title>Robot&#45;&gt;CompositeDevice</title>
<path fill="none" stroke="#000000" d="M269.914,-170.5939C251.3298,-164.1402 225.9054,-155.3112 202.5812,-147.2115"/>
<polygon fill="#000000" stroke="#000000" points="203.6783,-143.8875 193.0835,-143.9132 201.3819,-150.5001 203.6783,-143.8875"/>
</g>
<!-- RyanteckRobot -->
<g id="node18" class="node">
<title>RyanteckRobot</title>
<polygon fill="#2980b9" stroke="#2980b9" points="499.5,-198 410.5,-198 410.5,-162 499.5,-162 499.5,-198"/>
<text text-anchor="middle" x="455" y="-177.5" font-family="Sans" font-size="10.00" fill="#ffffff">RyanteckRobot</text>
</g>
<!-- RyanteckRobot&#45;&gt;Robot -->
<g id="edge17" class="edge">
<title>RyanteckRobot&#45;&gt;Robot</title>
<path fill="none" stroke="#000000" d="M410.1462,-180C386.203,-180 357.078,-180 334.374,-180"/>
<polygon fill="#000000" stroke="#000000" points="334.1163,-176.5001 324.1162,-180 334.1162,-183.5001 334.1163,-176.5001"/>
</g>
<!-- CamJamKitRobot -->
<g id="node19" class="node">
<title>CamJamKitRobot</title>
<polygon fill="#2980b9" stroke="#2980b9" points="504.5,-144 405.5,-144 405.5,-108 504.5,-108 504.5,-144"/>
<text text-anchor="middle" x="455" y="-123.5" font-family="Sans" font-size="10.00" fill="#ffffff">CamJamKitRobot</text>
</g>
<!-- CamJamKitRobot&#45;&gt;Robot -->
<g id="edge18" class="edge">
<title>CamJamKitRobot&#45;&gt;Robot</title>
<path fill="none" stroke="#000000" d="M405.4413,-142.9378C382.3156,-150.8415 355.2621,-160.0876 333.9617,-167.3675"/>
<polygon fill="#000000" stroke="#000000" points="332.6436,-164.1192 324.313,-170.6652 334.9075,-170.743 332.6436,-164.1192"/>
</g>
<!-- Motor -->
<g id="node20" class="node">
<title>Motor</title>
<polygon fill="#2980b9" stroke="#2980b9" points="324,-144 270,-144 270,-108 324,-108 324,-144"/>
<text text-anchor="middle" x="297" y="-123.5" font-family="Sans" font-size="10.00" fill="#ffffff">Motor</text>
</g>
<!-- Motor&#45;&gt;CompositeDevice -->
<g id="edge19" class="edge">
<title>Motor&#45;&gt;CompositeDevice</title>
<path fill="none" stroke="#000000" d="M269.914,-126C251.495,-126 226.3569,-126 203.2037,-126"/>
<polygon fill="#000000" stroke="#000000" points="203.0835,-122.5001 193.0835,-126 203.0835,-129.5001 203.0835,-122.5001"/>
</g>
<!-- Servo -->
<g id="node21" class="node">
<title>Servo</title>
<polygon fill="#2980b9" stroke="#2980b9" points="324,-90 270,-90 270,-54 324,-54 324,-90"/>
<text text-anchor="middle" x="297" y="-69.5" font-family="Sans" font-size="10.00" fill="#ffffff">Servo</text>
</g>
<!-- Servo&#45;&gt;CompositeDevice -->
<g id="edge20" class="edge">
<title>Servo&#45;&gt;CompositeDevice</title>
<path fill="none" stroke="#000000" d="M269.914,-81.4061C251.3298,-87.8598 225.9054,-96.6888 202.5812,-104.7885"/>
<polygon fill="#000000" stroke="#000000" points="201.3819,-101.4999 193.0835,-108.0868 203.6783,-108.1125 201.3819,-101.4999"/>
</g>
<!-- AngularServo -->
<g id="node22" class="node">
<title>AngularServo</title>
<polygon fill="#2980b9" stroke="#2980b9" points="496,-90 414,-90 414,-54 496,-54 496,-90"/>
<text text-anchor="middle" x="455" y="-69.5" font-family="Sans" font-size="10.00" fill="#ffffff">AngularServo</text>
</g>
<!-- AngularServo&#45;&gt;Servo -->
<g id="edge21" class="edge">
<title>AngularServo&#45;&gt;Servo</title>
<path fill="none" stroke="#000000" d="M413.8998,-72C389.3681,-72 358.4465,-72 334.568,-72"/>
<polygon fill="#000000" stroke="#000000" points="334.4736,-68.5001 324.4735,-72 334.4735,-75.5001 334.4736,-68.5001"/>
</g>
<!-- Energenie -->
<g id="node23" class="node">
<title>Energenie</title>
<polygon fill="#2980b9" stroke="#2980b9" points="174,-90 109,-90 109,-54 174,-54 174,-90"/>
<text text-anchor="middle" x="141.5" y="-69.5" font-family="Sans" font-size="10.00" fill="#ffffff">Energenie</text>
</g>
<!-- Energenie&#45;&gt;Device -->
<g id="edge22" class="edge">
<title>Energenie&#45;&gt;Device</title>
<path fill="none" stroke="#000000" d="M108.9952,-79.6649C95.0561,-82.9518 78.6936,-86.8102 64.267,-90.2121"/>
<polygon fill="#000000" stroke="#000000" points="63.0964,-86.8921 54.1667,-92.5939 64.703,-93.7053 63.0964,-86.8921"/>
</g>
<!-- ButtonBoard -->
<g id="node24" class="node">
<title>ButtonBoard</title>
<polygon fill="#2980b9" stroke="#2980b9" points="335.5,-36 258.5,-36 258.5,0 335.5,0 335.5,-36"/>
<text text-anchor="middle" x="297" y="-15.5" font-family="Sans" font-size="10.00" fill="#ffffff">ButtonBoard</text>
</g>
<!-- ButtonBoard&#45;&gt;CompositeDevice -->
<g id="edge23" class="edge">
<title>ButtonBoard&#45;&gt;CompositeDevice</title>
<path fill="none" stroke="#000000" d="M258.4537,-28.6754C248.1953,-32.7029 237.5902,-38.048 229,-45 206.5783,-63.1457 214.4395,-79.7037 193,-99 191.8745,-100.013 190.704,-101 189.4978,-101.9606"/>
<polygon fill="#000000" stroke="#000000" points="187.2426,-99.2692 181.1142,-107.9117 191.2946,-104.9773 187.2426,-99.2692"/>
</g>
</g>
</svg>
