<?xml version="1.0" encoding="UTF-8" standalone="no"?>
<!DOCTYPE svg PUBLIC "-//W3C//DTD SVG 1.1//EN"
 "http://www.w3.org/Graphics/SVG/1.1/DTD/svg11.dtd">
<!-- Generated by graphviz version 2.40.1 (20161225.0304)
 -->
<!-- Title: classes Pages: 1 -->
<svg width="854pt" height="611pt"
 viewBox="0.00 0.00 854.00 611.00" xmlns="http://www.w3.org/2000/svg" xmlns:xlink="http://www.w3.org/1999/xlink">
<g id="graph0" class="graph" transform="scale(1 1) rotate(0) translate(4 607)">
<title>classes</title>
<polygon fill="#ffffff" stroke="transparent" points="-4,4 -4,-607 850,-607 850,4 -4,4"/>
<!-- Device -->
<g id="node1" class="node">
<title>Device</title>
<polygon fill="#9ec6e0" stroke="#9ec6e0" points="54,-144 0,-144 0,-108 54,-108 54,-144"/>
<text text-anchor="middle" x="27" y="-123.5" font-family="Sans" font-size="10.00" fill="#000000">Device</text>
</g>
<!-- CompositeDevice -->
<g id="node2" class="node">
<title>CompositeDevice</title>
<polygon fill="#9ec6e0" stroke="#9ec6e0" points="193,-171 90,-171 90,-135 193,-135 193,-171"/>
<text text-anchor="middle" x="141.5" y="-150.5" font-family="Sans" font-size="10.00" fill="#000000">CompositeDevice</text>
</g>
<!-- CompositeDevice&#45;&gt;Device -->
<g id="edge1" class="edge">
<title>CompositeDevice&#45;&gt;Device</title>
<path fill="none" stroke="#000000" d="M89.9443,-140.8427C81.1667,-138.7729 72.2088,-136.6606 63.907,-134.703"/>
<polygon fill="#000000" stroke="#000000" points="64.6985,-131.2937 54.1621,-132.405 63.0918,-138.1068 64.6985,-131.2937"/>
</g>
<!-- CompositeOutputDevice -->
<g id="node3" class="node">
<title>CompositeOutputDevice</title>
<polygon fill="#9ec6e0" stroke="#9ec6e0" points="365,-333 229,-333 229,-297 365,-297 365,-333"/>
<text text-anchor="middle" x="297" y="-312.5" font-family="Sans" font-size="10.00" fill="#000000">CompositeOutputDevice</text>
</g>
<!-- CompositeOutputDevice&#45;&gt;CompositeDevice -->
<g id="edge2" class="edge">
<title>CompositeOutputDevice&#45;&gt;CompositeDevice</title>
<path fill="none" stroke="#000000" d="M271.6775,-296.9837C258.3879,-287.0228 242.1755,-274.0473 229,-261 203.0006,-235.2535 177.1034,-202.1178 160.3084,-179.3785"/>
<polygon fill="#000000" stroke="#000000" points="163.0634,-177.2165 154.336,-171.2096 157.4126,-181.3479 163.0634,-177.2165"/>
</g>
<!-- LEDCollection -->
<g id="node4" class="node">
<title>LEDCollection</title>
<polygon fill="#9ec6e0" stroke="#9ec6e0" points="497,-414 413,-414 413,-378 497,-378 497,-414"/>
<text text-anchor="middle" x="455" y="-393.5" font-family="Sans" font-size="10.00" fill="#000000">LEDCollection</text>
</g>
<!-- LEDCollection&#45;&gt;CompositeOutputDevice -->
<g id="edge3" class="edge">
<title>LEDCollection&#45;&gt;CompositeOutputDevice</title>
<path fill="none" stroke="#000000" d="M418.6529,-377.9214C412.7447,-374.9555 406.6968,-371.9029 401,-369 381.1514,-358.8856 359.2551,-347.5441 340.6944,-337.8757"/>
<polygon fill="#000000" stroke="#000000" points="342.0837,-334.6529 331.5985,-333.1326 338.847,-340.8597 342.0837,-334.6529"/>
</g>
<!-- LEDBoard -->
<g id="node5" class="node">
<title>LEDBoard</title>
<polygon fill="#2980b9" stroke="#2980b9" points="617.5,-495 553.5,-495 553.5,-459 617.5,-459 617.5,-495"/>
<text text-anchor="middle" x="585.5" y="-474.5" font-family="Sans" font-size="10.00" fill="#ffffff">LEDBoard</text>
</g>
<!-- LEDBoard&#45;&gt;LEDCollection -->
<g id="edge4" class="edge">
<title>LEDBoard&#45;&gt;LEDCollection</title>
<path fill="none" stroke="#000000" d="M556.2133,-458.822C537.4914,-447.2016 513.0252,-432.0157 492.8376,-419.4854"/>
<polygon fill="#000000" stroke="#000000" points="494.5312,-416.4172 484.189,-414.1173 490.8396,-422.3647 494.5312,-416.4172"/>
</g>
<!-- LEDBarGraph -->
<g id="node6" class="node">
<title>LEDBarGraph</title>
<polygon fill="#2980b9" stroke="#2980b9" points="626,-414 545,-414 545,-378 626,-378 626,-414"/>
<text text-anchor="middle" x="585.5" y="-393.5" font-family="Sans" font-size="10.00" fill="#ffffff">LEDBarGraph</text>
</g>
<!-- LEDBarGraph&#45;&gt;LEDCollection -->
<g id="edge5" class="edge">
<title>LEDBarGraph&#45;&gt;LEDCollection</title>
<path fill="none" stroke="#000000" d="M544.9243,-396C533.1166,-396 520.0446,-396 507.6095,-396"/>
<polygon fill="#000000" stroke="#000000" points="507.3556,-392.5001 497.3555,-396 507.3555,-399.5001 507.3556,-392.5001"/>
</g>
<!-- PiLiter -->
<g id="node7" class="node">
<title>PiLiter</title>
<polygon fill="#2980b9" stroke="#2980b9" points="735.5,-603 681.5,-603 681.5,-567 735.5,-567 735.5,-603"/>
<text text-anchor="middle" x="708.5" y="-582.5" font-family="Sans" font-size="10.00" fill="#ffffff">PiLiter</text>
</g>
<!-- PiLiter&#45;&gt;LEDBoard -->
<g id="edge6" class="edge">
<title>PiLiter&#45;&gt;LEDBoard</title>
<path fill="none" stroke="#000000" d="M681.0851,-570.8383C674.5897,-567.0135 667.8536,-562.6377 662,-558 641.414,-541.6902 621.1445,-519.8948 606.647,-503.0211"/>
<polygon fill="#000000" stroke="#000000" points="609.1463,-500.5562 600.0176,-495.1787 603.8004,-505.0752 609.1463,-500.5562"/>
</g>
<!-- PiHutXmasTree -->
<g id="node8" class="node">
<title>PiHutXmasTree</title>
<polygon fill="#2980b9" stroke="#2980b9" points="754,-549 663,-549 663,-513 754,-513 754,-549"/>
<text text-anchor="middle" x="708.5" y="-528.5" font-family="Sans" font-size="10.00" fill="#ffffff">PiHutXmasTree</text>
</g>
<!-- PiHutXmasTree&#45;&gt;LEDBoard -->
<g id="edge7" class="edge">
<title>PiHutXmasTree&#45;&gt;LEDBoard</title>
<path fill="none" stroke="#000000" d="M667.2006,-512.8686C654.1716,-507.1485 639.7818,-500.831 626.7558,-495.1123"/>
<polygon fill="#000000" stroke="#000000" points="628.1143,-491.8863 617.5508,-491.0711 625.3003,-498.2958 628.1143,-491.8863"/>
</g>
<!-- PiLiterBarGraph -->
<g id="node9" class="node">
<title>PiLiterBarGraph</title>
<polygon fill="#2980b9" stroke="#2980b9" points="755,-387 662,-387 662,-351 755,-351 755,-387"/>
<text text-anchor="middle" x="708.5" y="-366.5" font-family="Sans" font-size="10.00" fill="#ffffff">PiLiterBarGraph</text>
</g>
<!-- PiLiterBarGraph&#45;&gt;LEDBarGraph -->
<g id="edge8" class="edge">
<title>PiLiterBarGraph&#45;&gt;LEDBarGraph</title>
<path fill="none" stroke="#000000" d="M661.999,-379.2075C653.491,-381.0752 644.5751,-383.0323 635.9582,-384.9238"/>
<polygon fill="#000000" stroke="#000000" points="635.0394,-381.5421 626.0224,-387.1048 636.5403,-388.3793 635.0394,-381.5421"/>
</g>
<!-- TrafficLights -->
<g id="node10" class="node">
<title>TrafficLights</title>
<polygon fill="#2980b9" stroke="#2980b9" points="746,-495 671,-495 671,-459 746,-459 746,-495"/>
<text text-anchor="middle" x="708.5" y="-474.5" font-family="Sans" font-size="10.00" fill="#ffffff">TrafficLights</text>
</g>
<!-- TrafficLights&#45;&gt;LEDBoard -->
<g id="edge9" class="edge">
<title>TrafficLights&#45;&gt;LEDBoard</title>
<path fill="none" stroke="#000000" d="M670.9276,-477C657.4161,-477 642.079,-477 628.1655,-477"/>
<polygon fill="#000000" stroke="#000000" points="627.857,-473.5001 617.857,-477 627.857,-480.5001 627.857,-473.5001"/>
</g>
<!-- SnowPi -->
<g id="node11" class="node">
<title>SnowPi</title>
<polygon fill="#2980b9" stroke="#2980b9" points="735.5,-441 681.5,-441 681.5,-405 735.5,-405 735.5,-441"/>
<text text-anchor="middle" x="708.5" y="-420.5" font-family="Sans" font-size="10.00" fill="#ffffff">SnowPi</text>
</g>
<!-- SnowPi&#45;&gt;LEDBoard -->
<g id="edge10" class="edge">
<title>SnowPi&#45;&gt;LEDBoard</title>
<path fill="none" stroke="#000000" d="M681.2023,-434.9844C665.3178,-441.9581 644.9697,-450.8914 627.1236,-458.7262"/>
<polygon fill="#000000" stroke="#000000" points="625.2602,-455.7218 617.5107,-462.9465 628.0742,-462.1313 625.2602,-455.7218"/>
</g>
<!-- PiTraffic -->
<g id="node12" class="node">
<title>PiTraffic</title>
<polygon fill="#2980b9" stroke="#2980b9" points="846,-522 791,-522 791,-486 846,-486 846,-522"/>
<text text-anchor="middle" x="818.5" y="-501.5" font-family="Sans" font-size="10.00" fill="#ffffff">PiTraffic</text>
</g>
<!-- PiTraffic&#45;&gt;TrafficLights -->
<g id="edge11" class="edge">
<title>PiTraffic&#45;&gt;TrafficLights</title>
<path fill="none" stroke="#000000" d="M790.7424,-497.1868C780.201,-494.5993 767.8735,-491.5735 756.0186,-488.6636"/>
<polygon fill="#000000" stroke="#000000" points="756.7672,-485.2436 746.2211,-486.2588 755.0985,-492.0418 756.7672,-485.2436"/>
</g>
<!-- PiStop -->
<g id="node13" class="node">
<title>PiStop</title>
<polygon fill="#2980b9" stroke="#2980b9" points="845.5,-468 791.5,-468 791.5,-432 845.5,-432 845.5,-468"/>
<text text-anchor="middle" x="818.5" y="-447.5" font-family="Sans" font-size="10.00" fill="#ffffff">PiStop</text>
</g>
<!-- PiStop&#45;&gt;TrafficLights -->
<g id="edge12" class="edge">
<title>PiStop&#45;&gt;TrafficLights</title>
<path fill="none" stroke="#000000" d="M791.309,-456.6742C780.6723,-459.285 768.1525,-462.358 756.1135,-465.313"/>
<polygon fill="#000000" stroke="#000000" points="755.0432,-461.9718 746.1658,-467.7548 756.7119,-468.77 755.0432,-461.9718"/>
</g>
<!-- TrafficLightsBuzzer -->
<g id="node14" class="node">
<title>TrafficLightsBuzzer</title>
<polygon fill="#2980b9" stroke="#2980b9" points="509,-360 401,-360 401,-324 509,-324 509,-360"/>
<text text-anchor="middle" x="455" y="-339.5" font-family="Sans" font-size="10.00" fill="#ffffff">TrafficLightsBuzzer</text>
</g>
<!-- TrafficLightsBuzzer&#45;&gt;CompositeOutputDevice -->
<g id="edge13" class="edge">
<title>TrafficLightsBuzzer&#45;&gt;CompositeOutputDevice</title>
<path fill="none" stroke="#000000" d="M400.6254,-332.7081C392.413,-331.3047 383.8061,-329.834 375.2117,-328.3653"/>
<polygon fill="#000000" stroke="#000000" points="375.5993,-324.8809 365.1526,-326.6463 374.4202,-331.7808 375.5993,-324.8809"/>
</g>
<!-- JamHat -->
<g id="node15" class="node">
<title>JamHat</title>
<polygon fill="#2980b9" stroke="#2980b9" points="482,-306 428,-306 428,-270 482,-270 482,-306"/>
<text text-anchor="middle" x="455" y="-285.5" font-family="Sans" font-size="10.00" fill="#ffffff">JamHat</text>
</g>
<!-- JamHat&#45;&gt;CompositeOutputDevice -->
<g id="edge14" class="edge">
<title>JamHat&#45;&gt;CompositeOutputDevice</title>
<path fill="none" stroke="#000000" d="M427.8388,-292.6415C413.1124,-295.158 394.0833,-298.4098 375.1216,-301.6501"/>
<polygon fill="#000000" stroke="#000000" points="374.5026,-298.2051 365.2351,-303.3396 375.6818,-305.105 374.5026,-298.2051"/>
</g>
<!-- FishDish -->
<g id="node16" class="node">
<title>FishDish</title>
<polygon fill="#2980b9" stroke="#2980b9" points="614,-360 557,-360 557,-324 614,-324 614,-360"/>
<text text-anchor="middle" x="585.5" y="-339.5" font-family="Sans" font-size="10.00" fill="#ffffff">FishDish</text>
</g>
<!-- FishDish&#45;&gt;TrafficLightsBuzzer -->
<g id="edge15" class="edge">
<title>FishDish&#45;&gt;TrafficLightsBuzzer</title>
<path fill="none" stroke="#000000" d="M556.8612,-342C545.6807,-342 532.3799,-342 519.14,-342"/>
<polygon fill="#000000" stroke="#000000" points="519.0634,-338.5001 509.0634,-342 519.0633,-345.5001 519.0634,-338.5001"/>
</g>
<!-- TrafficHat -->
<g id="node17" class="node">
<title>TrafficHat</title>
<polygon fill="#2980b9" stroke="#2980b9" points="617,-306 554,-306 554,-270 617,-270 617,-306"/>
<text text-anchor="middle" x="585.5" y="-285.5" font-family="Sans" font-size="10.00" fill="#ffffff">TrafficHat</text>
</g>
<!-- TrafficHat&#45;&gt;TrafficLightsBuzzer -->
<g id="edge16" class="edge">
<title>TrafficHat&#45;&gt;TrafficLightsBuzzer</title>
<path fill="none" stroke="#000000" d="M553.9096,-301.0719C540.1666,-306.7587 523.6803,-313.5806 508.1431,-320.0097"/>
<polygon fill="#000000" stroke="#000000" points="506.5266,-316.8908 498.6247,-323.9484 509.2031,-323.3589 506.5266,-316.8908"/>
</g>
<!-- Robot -->
<g id="node18" class="node">
<title>Robot</title>
<polygon fill="#2980b9" stroke="#2980b9" points="324,-252 270,-252 270,-216 324,-216 324,-252"/>
<text text-anchor="middle" x="297" y="-231.5" font-family="Sans" font-size="10.00" fill="#ffffff">Robot</text>
</g>
<!-- Robot&#45;&gt;CompositeDevice -->
<g id="edge17" class="edge">
<title>Robot&#45;&gt;CompositeDevice</title>
<path fill="none" stroke="#000000" d="M269.7179,-224.4171C257.1015,-219.6706 242.0535,-213.5562 229,-207 211.2647,-198.0924 192.4305,-186.7367 176.797,-176.7395"/>
<polygon fill="#000000" stroke="#000000" points="178.2907,-173.5371 167.9946,-171.039 174.4857,-179.4126 178.2907,-173.5371"/>
</g>
<!-- RyanteckRobot -->
<g id="node19" class="node">
<title>RyanteckRobot</title>
<polygon fill="#2980b9" stroke="#2980b9" points="499.5,-252 410.5,-252 410.5,-216 499.5,-216 499.5,-252"/>
<text text-anchor="middle" x="455" y="-231.5" font-family="Sans" font-size="10.00" fill="#ffffff">RyanteckRobot</text>
</g>
<!-- RyanteckRobot&#45;&gt;Robot -->
<g id="edge18" class="edge">
<title>RyanteckRobot&#45;&gt;Robot</title>
<path fill="none" stroke="#000000" d="M410.1462,-234C386.203,-234 357.078,-234 334.374,-234"/>
<polygon fill="#000000" stroke="#000000" points="334.1163,-230.5001 324.1162,-234 334.1162,-237.5001 334.1163,-230.5001"/>
</g>
<!-- CamJamKitRobot -->
<g id="node20" class="node">
<title>CamJamKitRobot</title>
<polygon fill="#2980b9" stroke="#2980b9" points="504.5,-198 405.5,-198 405.5,-162 504.5,-162 504.5,-198"/>
<text text-anchor="middle" x="455" y="-177.5" font-family="Sans" font-size="10.00" fill="#ffffff">CamJamKitRobot</text>
</g>
<!-- CamJamKitRobot&#45;&gt;Robot -->
<g id="edge19" class="edge">
<title>CamJamKitRobot&#45;&gt;Robot</title>
<path fill="none" stroke="#000000" d="M405.4413,-196.9378C382.3156,-204.8415 355.2621,-214.0876 333.9617,-221.3675"/>
<polygon fill="#000000" stroke="#000000" points="332.6436,-218.1192 324.313,-224.6652 334.9075,-224.743 332.6436,-218.1192"/>
</g>
<!-- Motor -->
<g id="node21" class="node">
<title>Motor</title>
<polygon fill="#2980b9" stroke="#2980b9" points="324,-198 270,-198 270,-162 324,-162 324,-198"/>
<text text-anchor="middle" x="297" y="-177.5" font-family="Sans" font-size="10.00" fill="#ffffff">Motor</text>
</g>
<!-- Motor&#45;&gt;CompositeDevice -->
<g id="edge20" class="edge">
<title>Motor&#45;&gt;CompositeDevice</title>
<path fill="none" stroke="#000000" d="M269.914,-175.297C251.495,-172.0988 226.3569,-167.734 203.2037,-163.7138"/>
<polygon fill="#000000" stroke="#000000" points="203.5349,-160.219 193.0835,-161.9566 202.3373,-167.1158 203.5349,-160.219"/>
</g>
<!-- Servo -->
<g id="node22" class="node">
<title>Servo</title>
<polygon fill="#2980b9" stroke="#2980b9" points="324,-144 270,-144 270,-108 324,-108 324,-144"/>
<text text-anchor="middle" x="297" y="-123.5" font-family="Sans" font-size="10.00" fill="#ffffff">Servo</text>
</g>
<!-- Servo&#45;&gt;CompositeDevice -->
<g id="edge21" class="edge">
<title>Servo&#45;&gt;CompositeDevice</title>
<path fill="none" stroke="#000000" d="M269.914,-130.703C251.495,-133.9012 226.3569,-138.266 203.2037,-142.2862"/>
<polygon fill="#000000" stroke="#000000" points="202.3373,-138.8842 193.0835,-144.0434 203.5349,-145.781 202.3373,-138.8842"/>
</g>
<!-- TonalBuzzer -->
<g id="node23" class="node">
<title>TonalBuzzer</title>
<polygon fill="#2980b9" stroke="#2980b9" points="334.5,-90 259.5,-90 259.5,-54 334.5,-54 334.5,-90"/>
<text text-anchor="middle" x="297" y="-69.5" font-family="Sans" font-size="10.00" fill="#ffffff">TonalBuzzer</text>
</g>
<!-- TonalBuzzer&#45;&gt;CompositeDevice -->
<g id="edge22" class="edge">
<title>TonalBuzzer&#45;&gt;CompositeDevice</title>
<path fill="none" stroke="#000000" d="M259.4735,-84.8419C249.3308,-88.8611 238.5298,-93.6602 229,-99 211.5523,-108.7764 209.9111,-115.3223 193,-126 190.8713,-127.3441 188.6687,-128.6825 186.4266,-130.0036"/>
<polygon fill="#000000" stroke="#000000" points="184.621,-127.0039 177.6572,-134.9887 188.0804,-133.0894 184.621,-127.0039"/>
</g>
<!-- AngularServo -->
<g id="node24" class="node">
<title>AngularServo</title>
<polygon fill="#2980b9" stroke="#2980b9" points="496,-144 414,-144 414,-108 496,-108 496,-144"/>
<text text-anchor="middle" x="455" y="-123.5" font-family="Sans" font-size="10.00" fill="#ffffff">AngularServo</text>
</g>
<!-- AngularServo&#45;&gt;Servo -->
<g id="edge23" class="edge">
<title>AngularServo&#45;&gt;Servo</title>
<path fill="none" stroke="#000000" d="M413.8998,-126C389.3681,-126 358.4465,-126 334.568,-126"/>
<polygon fill="#000000" stroke="#000000" points="334.4736,-122.5001 324.4735,-126 334.4735,-129.5001 334.4736,-122.5001"/>
</g>
<!-- Energenie -->
<g id="node25" class="node">
<title>Energenie</title>
<polygon fill="#2980b9" stroke="#2980b9" points="174,-117 109,-117 109,-81 174,-81 174,-117"/>
<text text-anchor="middle" x="141.5" y="-96.5" font-family="Sans" font-size="10.00" fill="#ffffff">Energenie</text>
</g>
<!-- Energenie&#45;&gt;Device -->
<g id="edge24" class="edge">
<title>Energenie&#45;&gt;Device</title>
<path fill="none" stroke="#000000" d="M108.9952,-106.6649C95.0561,-109.9518 78.6936,-113.8102 64.267,-117.2121"/>
<polygon fill="#000000" stroke="#000000" points="63.0964,-113.8921 54.1667,-119.5939 64.703,-120.7053 63.0964,-113.8921"/>
</g>
<!-- ButtonBoard -->
<g id="node26" class="node">
<title>ButtonBoard</title>
<polygon fill="#2980b9" stroke="#2980b9" points="335.5,-36 258.5,-36 258.5,0 335.5,0 335.5,-36"/>
<text text-anchor="middle" x="297" y="-15.5" font-family="Sans" font-size="10.00" fill="#ffffff">ButtonBoard</text>
</g>
<!-- ButtonBoard&#45;&gt;CompositeDevice -->
<g id="edge25" class="edge">
<title>ButtonBoard&#45;&gt;CompositeDevice</title>
<path fill="none" stroke="#000000" d="M258.3504,-27.4812C247.856,-31.5193 237.153,-37.1687 229,-45 200.5882,-72.2905 219.9419,-97.2574 193,-126 192.1262,-126.9322 191.213,-127.8382 190.2663,-128.7183"/>
<polygon fill="#000000" stroke="#000000" points="188.0789,-125.986 182.4539,-134.9644 192.4501,-131.4534 188.0789,-125.986"/>
</g>
</g>
</svg>
