<?xml version="1.0" encoding="UTF-8" standalone="no"?>
<!DOCTYPE svg PUBLIC "-//W3C//DTD SVG 1.1//EN"
 "http://www.w3.org/Graphics/SVG/1.1/DTD/svg11.dtd">
<!-- Generated by graphviz version 2.36.0 (20140111.2315)
 -->
<!-- Title: classes Pages: 1 -->
<svg width="563pt" height="188pt"
 viewBox="0.00 0.00 563.00 188.00" xmlns="http://www.w3.org/2000/svg" xmlns:xlink="http://www.w3.org/1999/xlink">
<g id="graph0" class="graph" transform="scale(1 1) rotate(0) translate(4 184)">
<title>classes</title>
<polygon fill="white" stroke="none" points="-4,4 -4,-184 559,-184 559,4 -4,4"/>
<!-- RGBLED -->
<g id="node1" class="node"><title>RGBLED</title>
<polygon fill="#298029" stroke="#298029" points="55.5,-180 0.5,-180 0.5,-144 55.5,-144 55.5,-180"/>
<text text-anchor="middle" x="28" y="-159.5" font-family="Sans" font-size="10.00" fill="#ffffff">RGBLED</text>
</g>
<!-- PWMLED -->
<g id="node2" class="node"><title>PWMLED</title>
<polygon fill="#298029" stroke="#298029" points="143.5,-108 86.5,-108 86.5,-72 143.5,-72 143.5,-108"/>
<text text-anchor="middle" x="115" y="-87.5" font-family="Sans" font-size="10.00" fill="#ffffff">PWMLED</text>
</g>
<!-- RGBLED&#45;&gt;PWMLED -->
<g id="edge1" class="edge"><title>RGBLED&#45;&gt;PWMLED</title>
<path fill="none" stroke="black" stroke-dasharray="5,2" d="M49.5056,-143.697C60.4625,-134.881 73.9459,-124.032 85.8249,-114.474"/>
<polygon fill="none" stroke="black" points="88.1446,-117.1 93.7418,-108.104 83.7565,-111.646 88.1446,-117.1"/>
</g>
<!-- LEDBoard -->
<g id="node3" class="node"><title>LEDBoard</title>
<polygon fill="#298029" stroke="#298029" points="238,-180 174,-180 174,-144 238,-144 238,-180"/>
<text text-anchor="middle" x="206" y="-159.5" font-family="Sans" font-size="10.00" fill="#ffffff">LEDBoard</text>
</g>
<!-- LEDBoard&#45;&gt;PWMLED -->
<g id="edge3" class="edge"><title>LEDBoard&#45;&gt;PWMLED</title>
<path fill="none" stroke="black" stroke-dasharray="5,2" d="M183.506,-143.697C172.045,-134.881 157.942,-124.032 145.516,-114.474"/>
<polygon fill="none" stroke="black" points="147.296,-111.427 137.236,-108.104 143.028,-116.976 147.296,-111.427"/>
</g>
<!-- LED -->
<g id="node4" class="node"><title>LED</title>
<polygon fill="#298029" stroke="#298029" points="224,-108 170,-108 170,-72 224,-72 224,-108"/>
<text text-anchor="middle" x="197" y="-87.5" font-family="Sans" font-size="10.00" fill="#ffffff">LED</text>
</g>
<!-- LEDBoard&#45;&gt;LED -->
<g id="edge2" class="edge"><title>LEDBoard&#45;&gt;LED</title>
<path fill="none" stroke="black" stroke-dasharray="5,2" d="M203.775,-143.697C202.783,-135.983 201.592,-126.712 200.486,-118.112"/>
<polygon fill="none" stroke="black" points="203.946,-117.576 199.199,-108.104 197.003,-118.469 203.946,-117.576"/>
</g>
<!-- LEDBarGraph -->
<g id="node5" class="node"><title>LEDBarGraph</title>
<polygon fill="#298029" stroke="#298029" points="155.25,-180 74.75,-180 74.75,-144 155.25,-144 155.25,-180"/>
<text text-anchor="middle" x="115" y="-159.5" font-family="Sans" font-size="10.00" fill="#ffffff">LEDBarGraph</text>
</g>
<!-- LEDBarGraph&#45;&gt;PWMLED -->
<g id="edge5" class="edge"><title>LEDBarGraph&#45;&gt;PWMLED</title>
<path fill="none" stroke="black" stroke-dasharray="5,2" d="M115,-143.697C115,-135.983 115,-126.712 115,-118.112"/>
<polygon fill="none" stroke="black" points="118.5,-118.104 115,-108.104 111.5,-118.104 118.5,-118.104"/>
</g>
<!-- LEDBarGraph&#45;&gt;LED -->
<g id="edge4" class="edge"><title>LEDBarGraph&#45;&gt;LED</title>
<path fill="none" stroke="black" stroke-dasharray="5,2" d="M135.27,-143.697C145.498,-134.965 158.061,-124.24 169.178,-114.75"/>
<polygon fill="none" stroke="black" points="171.63,-117.259 176.963,-108.104 167.085,-111.935 171.63,-117.259"/>
</g>
<!-- TrafficLightsBuzzer -->
<g id="node6" class="node"><title>TrafficLightsBuzzer</title>
<polygon fill="#298029" stroke="#298029" points="411.25,-180 306.75,-180 306.75,-144 411.25,-144 411.25,-180"/>
<text text-anchor="middle" x="359" y="-159.5" font-family="Sans" font-size="10.00" fill="#ffffff">TrafficLightsBuzzer</text>
</g>
<!-- TrafficLights -->
<g id="node7" class="node"><title>TrafficLights</title>
<polygon fill="#298029" stroke="#298029" points="314,-108 242,-108 242,-72 314,-72 314,-108"/>
<text text-anchor="middle" x="278" y="-87.5" font-family="Sans" font-size="10.00" fill="#ffffff">TrafficLights</text>
</g>
<!-- TrafficLightsBuzzer&#45;&gt;TrafficLights -->
<g id="edge6" class="edge"><title>TrafficLightsBuzzer&#45;&gt;TrafficLights</title>
<path fill="none" stroke="black" stroke-dasharray="5,2" d="M338.978,-143.697C328.874,-134.965 316.464,-124.24 305.482,-114.75"/>
<polygon fill="none" stroke="black" points="307.647,-111.995 297.792,-108.104 303.07,-117.291 307.647,-111.995"/>
</g>
<!-- Buzzer -->
<g id="node8" class="node"><title>Buzzer</title>
<polygon fill="#298029" stroke="#298029" points="386,-108 332,-108 332,-72 386,-72 386,-108"/>
<text text-anchor="middle" x="359" y="-87.5" font-family="Sans" font-size="10.00" fill="#ffffff">Buzzer</text>
</g>
<!-- TrafficLightsBuzzer&#45;&gt;Buzzer -->
<g id="edge7" class="edge"><title>TrafficLightsBuzzer&#45;&gt;Buzzer</title>
<path fill="none" stroke="black" stroke-dasharray="5,2" d="M359,-143.697C359,-135.983 359,-126.712 359,-118.112"/>
<polygon fill="none" stroke="black" points="362.5,-118.104 359,-108.104 355.5,-118.104 362.5,-118.104"/>
</g>
<!-- Button -->
<g id="node9" class="node"><title>Button</title>
<polygon fill="#298029" stroke="#298029" points="458,-108 404,-108 404,-72 458,-72 458,-108"/>
<text text-anchor="middle" x="431" y="-87.5" font-family="Sans" font-size="10.00" fill="#ffffff">Button</text>
</g>
<!-- TrafficLightsBuzzer&#45;&gt;Button -->
<g id="edge8" class="edge"><title>TrafficLightsBuzzer&#45;&gt;Button</title>
<path fill="none" stroke="black" stroke-dasharray="5,2" d="M376.798,-143.697C385.604,-135.135 396.382,-124.656 406.001,-115.304"/>
<polygon fill="none" stroke="black" points="408.677,-117.585 413.407,-108.104 403.797,-112.566 408.677,-117.585"/>
</g>
<!-- Robot -->
<g id="node10" class="node"><title>Robot</title>
<polygon fill="#298029" stroke="#298029" points="530,-180 476,-180 476,-144 530,-144 530,-180"/>
<text text-anchor="middle" x="503" y="-159.5" font-family="Sans" font-size="10.00" fill="#ffffff">Robot</text>
</g>
<!-- Motor -->
<g id="node11" class="node"><title>Motor</title>
<polygon fill="#298029" stroke="#298029" points="530,-108 476,-108 476,-72 530,-72 530,-108"/>
<text text-anchor="middle" x="503" y="-87.5" font-family="Sans" font-size="10.00" fill="#ffffff">Motor</text>
</g>
<!-- Robot&#45;&gt;Motor -->
<g id="edge9" class="edge"><title>Robot&#45;&gt;Motor</title>
<path fill="none" stroke="black" stroke-dasharray="5,2" d="M503,-143.697C503,-135.983 503,-126.712 503,-118.112"/>
<polygon fill="none" stroke="black" points="506.5,-118.104 503,-108.104 499.5,-118.104 506.5,-118.104"/>
</g>
<!-- PWMOutputDevice -->
<g id="node12" class="node"><title>PWMOutputDevice</title>
<polygon fill="#298029" stroke="#298029" points="555,-36 451,-36 451,-0 555,-0 555,-36"/>
<text text-anchor="middle" x="503" y="-15.5" font-family="Sans" font-size="10.00" fill="#ffffff">PWMOutputDevice</text>
</g>
<!-- Motor&#45;&gt;PWMOutputDevice -->
<g id="edge10" class="edge"><title>Motor&#45;&gt;PWMOutputDevice</title>
<path fill="none" stroke="black" stroke-dasharray="5,2" d="M503,-71.6966C503,-63.9827 503,-54.7125 503,-46.1124"/>
<polygon fill="none" stroke="black" points="506.5,-46.1043 503,-36.1043 499.5,-46.1044 506.5,-46.1043"/>
</g>
</g>
</svg>
