<?xml version="1.0" encoding="UTF-8" standalone="no"?>
<!DOCTYPE svg PUBLIC "-//W3C//DTD SVG 1.1//EN"
 "http://www.w3.org/Graphics/SVG/1.1/DTD/svg11.dtd">
<!-- Generated by graphviz version 2.38.0 (20140413.2041)
 -->
<!-- Title: classes Pages: 1 -->
<svg width="856pt" height="651pt"
 viewBox="0.00 0.00 856.00 651.00" xmlns="http://www.w3.org/2000/svg" xmlns:xlink="http://www.w3.org/1999/xlink">
<g id="graph0" class="graph" transform="scale(1 1) rotate(0) translate(4 647)">
<title>classes</title>
<polygon fill="white" stroke="none" points="-4,4 -4,-647 852,-647 852,4 -4,4"/>
<!-- CompositeDevice -->
<g id="node1" class="node"><title>CompositeDevice</title>
<polygon fill="#9ec6e0" stroke="#9ec6e0" points="191,-144 90,-144 90,-108 191,-108 191,-144"/>
<text text-anchor="middle" x="140.5" y="-123.5" font-family="Sans" font-size="10.00" fill="#000000">CompositeDevice</text>
</g>
<!-- Device -->
<g id="node3" class="node"><title>Device</title>
<polygon fill="#9ec6e0" stroke="#9ec6e0" points="54,-171 0,-171 0,-135 54,-135 54,-171"/>
<text text-anchor="middle" x="27" y="-150.5" font-family="Sans" font-size="10.00" fill="#000000">Device</text>
</g>
<!-- CompositeDevice&#45;&gt;Device -->
<g id="edge25" class="edge"><title>CompositeDevice&#45;&gt;Device</title>
<path fill="none" stroke="black" d="M89.9451,-138C81.1791,-140.123 72.2061,-142.295 63.9077,-144.305"/>
<polygon fill="black" stroke="black" points="63.0746,-140.905 54.1792,-146.661 64.7221,-147.709 63.0746,-140.905"/>
</g>
<!-- CompositeOutputDevice -->
<g id="node2" class="node"><title>CompositeOutputDevice</title>
<polygon fill="#9ec6e0" stroke="#9ec6e0" points="361,-252 227,-252 227,-216 361,-216 361,-252"/>
<text text-anchor="middle" x="294" y="-231.5" font-family="Sans" font-size="10.00" fill="#000000">CompositeOutputDevice</text>
</g>
<!-- CompositeOutputDevice&#45;&gt;CompositeDevice -->
<g id="edge16" class="edge"><title>CompositeOutputDevice&#45;&gt;CompositeDevice</title>
<path fill="none" stroke="black" d="M240.184,-215.843C235.506,-213.23 231.025,-210.292 227,-207 204.672,-188.738 212.28,-172.472 191,-153 189.894,-151.988 188.744,-151.001 187.557,-150.038"/>
<polygon fill="black" stroke="black" points="189.463,-147.097 179.313,-144.06 185.354,-152.764 189.463,-147.097"/>
</g>
<!-- LEDCollection -->
<g id="node4" class="node"><title>LEDCollection</title>
<polygon fill="#9ec6e0" stroke="#9ec6e0" points="496,-360 414,-360 414,-324 496,-324 496,-360"/>
<text text-anchor="middle" x="455" y="-339.5" font-family="Sans" font-size="10.00" fill="#000000">LEDCollection</text>
</g>
<!-- LEDCollection&#45;&gt;CompositeOutputDevice -->
<g id="edge5" class="edge"><title>LEDCollection&#45;&gt;CompositeOutputDevice</title>
<path fill="none" stroke="black" d="M413.825,-324.399C408.064,-321.466 402.299,-318.298 397,-315 370.341,-298.406 342.59,-275.981 322.777,-258.933"/>
<polygon fill="black" stroke="black" points="324.905,-256.145 315.063,-252.222 320.311,-261.426 324.905,-256.145"/>
</g>
<!-- StatusBoard -->
<g id="node5" class="node"><title>StatusBoard</title>
<polygon fill="#2980b9" stroke="#2980b9" points="493.5,-306 416.5,-306 416.5,-270 493.5,-270 493.5,-306"/>
<text text-anchor="middle" x="455" y="-285.5" font-family="Sans" font-size="10.00" fill="#ffffff">StatusBoard</text>
</g>
<!-- StatusBoard&#45;&gt;CompositeOutputDevice -->
<g id="edge1" class="edge"><title>StatusBoard&#45;&gt;CompositeOutputDevice</title>
<path fill="none" stroke="black" d="M416.319,-275.203C398.799,-269.253 377.491,-262.016 357.651,-255.278"/>
<polygon fill="black" stroke="black" points="358.646,-251.919 348.052,-252.018 356.395,-258.548 358.646,-251.919"/>
</g>
<!-- FishDish -->
<g id="node6" class="node"><title>FishDish</title>
<polygon fill="#2980b9" stroke="#2980b9" points="617.5,-265 561.5,-265 561.5,-229 617.5,-229 617.5,-265"/>
<text text-anchor="middle" x="589.5" y="-244.5" font-family="Sans" font-size="10.00" fill="#ffffff">FishDish</text>
</g>
<!-- TrafficLightsBuzzer -->
<g id="node7" class="node"><title>TrafficLightsBuzzer</title>
<polygon fill="#2980b9" stroke="#2980b9" points="507.5,-252 402.5,-252 402.5,-216 507.5,-216 507.5,-252"/>
<text text-anchor="middle" x="455" y="-231.5" font-family="Sans" font-size="10.00" fill="#ffffff">TrafficLightsBuzzer</text>
</g>
<!-- FishDish&#45;&gt;TrafficLightsBuzzer -->
<g id="edge2" class="edge"><title>FishDish&#45;&gt;TrafficLightsBuzzer</title>
<path fill="none" stroke="black" d="M561.367,-244.338C548.697,-243.095 533.053,-241.56 517.733,-240.057"/>
<polygon fill="black" stroke="black" points="518.041,-236.57 507.747,-239.077 517.357,-243.537 518.041,-236.57"/>
</g>
<!-- TrafficLightsBuzzer&#45;&gt;CompositeOutputDevice -->
<g id="edge10" class="edge"><title>TrafficLightsBuzzer&#45;&gt;CompositeOutputDevice</title>
<path fill="none" stroke="black" d="M402.377,-234C392.413,-234 381.78,-234 371.225,-234"/>
<polygon fill="black" stroke="black" points="371.152,-230.5 361.152,-234 371.152,-237.5 371.152,-230.5"/>
</g>
<!-- TrafficLights -->
<g id="node8" class="node"><title>TrafficLights</title>
<polygon fill="#2980b9" stroke="#2980b9" points="748,-616 676,-616 676,-580 748,-580 748,-616"/>
<text text-anchor="middle" x="712" y="-595.5" font-family="Sans" font-size="10.00" fill="#ffffff">TrafficLights</text>
</g>
<!-- LEDBoard -->
<g id="node9" class="node"><title>LEDBoard</title>
<polygon fill="#2980b9" stroke="#2980b9" points="621.5,-454 557.5,-454 557.5,-418 621.5,-418 621.5,-454"/>
<text text-anchor="middle" x="589.5" y="-433.5" font-family="Sans" font-size="10.00" fill="#ffffff">LEDBoard</text>
</g>
<!-- TrafficLights&#45;&gt;LEDBoard -->
<g id="edge3" class="edge"><title>TrafficLights&#45;&gt;LEDBoard</title>
<path fill="none" stroke="black" d="M676.183,-579.709C672.53,-577.05 669.045,-574.139 666,-571 635.394,-539.446 613.058,-493.045 600.931,-463.688"/>
<polygon fill="black" stroke="black" points="604.042,-462.044 597.07,-454.067 597.546,-464.651 604.042,-462.044"/>
</g>
<!-- LEDBoard&#45;&gt;LEDCollection -->
<g id="edge18" class="edge"><title>LEDBoard&#45;&gt;LEDCollection</title>
<path fill="none" stroke="black" d="M562.953,-417.876C542.148,-403.116 512.599,-382.154 489.831,-366.001"/>
<polygon fill="black" stroke="black" points="491.65,-363 481.469,-360.069 487.6,-368.709 491.65,-363"/>
</g>
<!-- ButtonBoard -->
<g id="node10" class="node"><title>ButtonBoard</title>
<polygon fill="#2980b9" stroke="#2980b9" points="332.5,-198 255.5,-198 255.5,-162 332.5,-162 332.5,-198"/>
<text text-anchor="middle" x="294" y="-177.5" font-family="Sans" font-size="10.00" fill="#ffffff">ButtonBoard</text>
</g>
<!-- ButtonBoard&#45;&gt;CompositeDevice -->
<g id="edge4" class="edge"><title>ButtonBoard&#45;&gt;CompositeDevice</title>
<path fill="none" stroke="black" d="M255.161,-166.513C238.667,-160.634 218.942,-153.603 200.59,-147.062"/>
<polygon fill="black" stroke="black" points="201.737,-143.755 191.142,-143.694 199.386,-150.349 201.737,-143.755"/>
</g>
<!-- Energenie -->
<g id="node11" class="node"><title>Energenie</title>
<polygon fill="#2980b9" stroke="#2980b9" points="173,-198 108,-198 108,-162 173,-162 173,-198"/>
<text text-anchor="middle" x="140.5" y="-177.5" font-family="Sans" font-size="10.00" fill="#ffffff">Energenie</text>
</g>
<!-- Energenie&#45;&gt;Device -->
<g id="edge6" class="edge"><title>Energenie&#45;&gt;Device</title>
<path fill="none" stroke="black" d="M107.847,-172.335C94.1694,-169.023 78.0958,-165.131 63.9692,-161.71"/>
<polygon fill="black" stroke="black" points="64.6319,-158.269 54.089,-159.318 62.9844,-165.073 64.6319,-158.269"/>
</g>
<!-- PololuDRV8835Robot -->
<g id="node12" class="node"><title>PololuDRV8835Robot</title>
<polygon fill="#2980b9" stroke="#2980b9" points="513,-144 397,-144 397,-108 513,-108 513,-144"/>
<text text-anchor="middle" x="455" y="-123.5" font-family="Sans" font-size="10.00" fill="#ffffff">PololuDRV8835Robot</text>
</g>
<!-- PhaseEnableRobot -->
<g id="node13" class="node"><title>PhaseEnableRobot</title>
<polygon fill="#2980b9" stroke="#2980b9" points="346.5,-144 241.5,-144 241.5,-108 346.5,-108 346.5,-144"/>
<text text-anchor="middle" x="294" y="-123.5" font-family="Sans" font-size="10.00" fill="#ffffff">PhaseEnableRobot</text>
</g>
<!-- PololuDRV8835Robot&#45;&gt;PhaseEnableRobot -->
<g id="edge7" class="edge"><title>PololuDRV8835Robot&#45;&gt;PhaseEnableRobot</title>
<path fill="none" stroke="black" d="M396.597,-126C383.683,-126 369.923,-126 356.835,-126"/>
<polygon fill="black" stroke="black" points="356.513,-122.5 346.513,-126 356.513,-129.5 356.513,-122.5"/>
</g>
<!-- PhaseEnableRobot&#45;&gt;CompositeDevice -->
<g id="edge19" class="edge"><title>PhaseEnableRobot&#45;&gt;CompositeDevice</title>
<path fill="none" stroke="black" d="M241.286,-126C228.502,-126 214.7,-126 201.557,-126"/>
<polygon fill="black" stroke="black" points="201.19,-122.5 191.19,-126 201.189,-129.5 201.19,-122.5"/>
</g>
<!-- RyanteckRobot -->
<g id="node14" class="node"><title>RyanteckRobot</title>
<polygon fill="#2980b9" stroke="#2980b9" points="498,-90 412,-90 412,-54 498,-54 498,-90"/>
<text text-anchor="middle" x="455" y="-69.5" font-family="Sans" font-size="10.00" fill="#ffffff">RyanteckRobot</text>
</g>
<!-- Robot -->
<g id="node15" class="node"><title>Robot</title>
<polygon fill="#2980b9" stroke="#2980b9" points="321,-90 267,-90 267,-54 321,-54 321,-90"/>
<text text-anchor="middle" x="294" y="-69.5" font-family="Sans" font-size="10.00" fill="#ffffff">Robot</text>
</g>
<!-- RyanteckRobot&#45;&gt;Robot -->
<g id="edge8" class="edge"><title>RyanteckRobot&#45;&gt;Robot</title>
<path fill="none" stroke="black" d="M411.808,-72C386.804,-72 355.432,-72 331.498,-72"/>
<polygon fill="black" stroke="black" points="331.406,-68.5001 321.406,-72 331.406,-75.5001 331.406,-68.5001"/>
</g>
<!-- Robot&#45;&gt;CompositeDevice -->
<g id="edge11" class="edge"><title>Robot&#45;&gt;CompositeDevice</title>
<path fill="none" stroke="black" d="M266.956,-81.2829C248.746,-87.7738 223.673,-96.7105 200.727,-104.889"/>
<polygon fill="black" stroke="black" points="199.294,-101.684 191.049,-108.339 201.644,-108.278 199.294,-101.684"/>
</g>
<!-- JamHat -->
<g id="node16" class="node"><title>JamHat</title>
<polygon fill="#2980b9" stroke="#2980b9" points="482,-198 428,-198 428,-162 482,-162 482,-198"/>
<text text-anchor="middle" x="455" y="-177.5" font-family="Sans" font-size="10.00" fill="#ffffff">JamHat</text>
</g>
<!-- JamHat&#45;&gt;CompositeOutputDevice -->
<g id="edge9" class="edge"><title>JamHat&#45;&gt;CompositeOutputDevice</title>
<path fill="none" stroke="black" d="M427.744,-188.917C408.667,-195.396 382.019,-204.447 357.6,-212.739"/>
<polygon fill="black" stroke="black" points="356.36,-209.464 348.017,-215.994 358.612,-216.092 356.36,-209.464"/>
</g>
<!-- LEDBarGraph -->
<g id="node17" class="node"><title>LEDBarGraph</title>
<polygon fill="#2980b9" stroke="#2980b9" points="630,-346 549,-346 549,-310 630,-310 630,-346"/>
<text text-anchor="middle" x="589.5" y="-325.5" font-family="Sans" font-size="10.00" fill="#ffffff">LEDBarGraph</text>
</g>
<!-- LEDBarGraph&#45;&gt;LEDCollection -->
<g id="edge12" class="edge"><title>LEDBarGraph&#45;&gt;LEDCollection</title>
<path fill="none" stroke="black" d="M548.746,-332.2C535.374,-333.613 520.277,-335.208 506.208,-336.695"/>
<polygon fill="black" stroke="black" points="505.761,-333.223 496.184,-337.754 506.497,-340.184 505.761,-333.223"/>
</g>
<!-- CamJamKitRobot -->
<g id="node18" class="node"><title>CamJamKitRobot</title>
<polygon fill="#2980b9" stroke="#2980b9" points="503,-36 407,-36 407,-0 503,-0 503,-36"/>
<text text-anchor="middle" x="455" y="-15.5" font-family="Sans" font-size="10.00" fill="#ffffff">CamJamKitRobot</text>
</g>
<!-- CamJamKitRobot&#45;&gt;Robot -->
<g id="edge13" class="edge"><title>CamJamKitRobot&#45;&gt;Robot</title>
<path fill="none" stroke="black" d="M406.725,-34.0556C382.325,-42.3426 353.049,-52.2854 330.587,-59.9138"/>
<polygon fill="black" stroke="black" points="329.444,-56.6055 321.101,-63.1354 331.696,-63.2336 329.444,-56.6055"/>
</g>
<!-- PumpkinPi -->
<g id="node19" class="node"><title>PumpkinPi</title>
<polygon fill="#2980b9" stroke="#2980b9" points="745,-562 679,-562 679,-526 745,-526 745,-562"/>
<text text-anchor="middle" x="712" y="-541.5" font-family="Sans" font-size="10.00" fill="#ffffff">PumpkinPi</text>
</g>
<!-- PumpkinPi&#45;&gt;LEDBoard -->
<g id="edge14" class="edge"><title>PumpkinPi&#45;&gt;LEDBoard</title>
<path fill="none" stroke="black" d="M678.779,-526.188C674.35,-523.308 669.966,-520.21 666,-517 645.711,-500.577 625.705,-478.789 611.389,-461.946"/>
<polygon fill="black" stroke="black" points="613.943,-459.545 604.842,-454.121 608.574,-464.037 613.943,-459.545"/>
</g>
<!-- PiHutXmasTree -->
<g id="node20" class="node"><title>PiHutXmasTree</title>
<polygon fill="#2980b9" stroke="#2980b9" points="756.5,-508 667.5,-508 667.5,-472 756.5,-472 756.5,-508"/>
<text text-anchor="middle" x="712" y="-487.5" font-family="Sans" font-size="10.00" fill="#ffffff">PiHutXmasTree</text>
</g>
<!-- PiHutXmasTree&#45;&gt;LEDBoard -->
<g id="edge15" class="edge"><title>PiHutXmasTree&#45;&gt;LEDBoard</title>
<path fill="none" stroke="black" d="M670.54,-471.869C657.791,-466.155 643.712,-459.846 630.962,-454.132"/>
<polygon fill="black" stroke="black" points="632.073,-450.795 621.516,-449.899 629.21,-457.183 632.073,-450.795"/>
</g>
<!-- PiStop -->
<g id="node21" class="node"><title>PiStop</title>
<polygon fill="#2980b9" stroke="#2980b9" points="848,-643 794,-643 794,-607 848,-607 848,-643"/>
<text text-anchor="middle" x="821" y="-622.5" font-family="Sans" font-size="10.00" fill="#ffffff">PiStop</text>
</g>
<!-- PiStop&#45;&gt;TrafficLights -->
<g id="edge17" class="edge"><title>PiStop&#45;&gt;TrafficLights</title>
<path fill="none" stroke="black" d="M793.825,-618.395C783.094,-615.687 770.359,-612.474 758.209,-609.408"/>
<polygon fill="black" stroke="black" points="758.749,-605.935 748.197,-606.881 757.036,-612.722 758.749,-605.935"/>
</g>
<!-- PiTraffic -->
<g id="node22" class="node"><title>PiTraffic</title>
<polygon fill="#2980b9" stroke="#2980b9" points="848,-589 794,-589 794,-553 848,-553 848,-589"/>
<text text-anchor="middle" x="821" y="-568.5" font-family="Sans" font-size="10.00" fill="#ffffff">PiTraffic</text>
</g>
<!-- PiTraffic&#45;&gt;TrafficLights -->
<g id="edge20" class="edge"><title>PiTraffic&#45;&gt;TrafficLights</title>
<path fill="none" stroke="black" d="M793.825,-577.605C783.094,-580.313 770.359,-583.526 758.209,-586.592"/>
<polygon fill="black" stroke="black" points="757.036,-583.278 748.197,-589.119 758.749,-590.065 757.036,-583.278"/>
</g>
<!-- TonalBuzzer -->
<g id="node23" class="node"><title>TonalBuzzer</title>
<polygon fill="#2980b9" stroke="#2980b9" points="331,-36 257,-36 257,-0 331,-0 331,-36"/>
<text text-anchor="middle" x="294" y="-15.5" font-family="Sans" font-size="10.00" fill="#ffffff">TonalBuzzer</text>
</g>
<!-- TonalBuzzer&#45;&gt;CompositeDevice -->
<g id="edge21" class="edge"><title>TonalBuzzer&#45;&gt;CompositeDevice</title>
<path fill="none" stroke="black" d="M256.86,-29.9869C246.811,-34.0531 236.152,-39.0903 227,-45 203.166,-60.3896 180.052,-82.8913 163.878,-100.275"/>
<polygon fill="black" stroke="black" points="161.114,-98.1121 156.958,-107.858 166.284,-102.831 161.114,-98.1121"/>
</g>
<!-- SnowPi -->
<g id="node24" class="node"><title>SnowPi</title>
<polygon fill="#2980b9" stroke="#2980b9" points="739,-454 685,-454 685,-418 739,-418 739,-454"/>
<text text-anchor="middle" x="712" y="-433.5" font-family="Sans" font-size="10.00" fill="#ffffff">SnowPi</text>
</g>
<!-- SnowPi&#45;&gt;LEDBoard -->
<g id="edge22" class="edge"><title>SnowPi&#45;&gt;LEDBoard</title>
<path fill="none" stroke="black" d="M684.853,-436C669.346,-436 649.345,-436 631.751,-436"/>
<polygon fill="black" stroke="black" points="631.723,-432.5 621.723,-436 631.723,-439.5 631.723,-432.5"/>
</g>
<!-- TrafficHat -->
<g id="node25" class="node"><title>TrafficHat</title>
<polygon fill="#2980b9" stroke="#2980b9" points="620,-211 559,-211 559,-175 620,-175 620,-211"/>
<text text-anchor="middle" x="589.5" y="-190.5" font-family="Sans" font-size="10.00" fill="#ffffff">TrafficHat</text>
</g>
<!-- TrafficHat&#45;&gt;TrafficLightsBuzzer -->
<g id="edge23" class="edge"><title>TrafficHat&#45;&gt;TrafficLightsBuzzer</title>
<path fill="none" stroke="black" d="M558.764,-202.201C546.552,-205.98 531.931,-210.504 517.603,-214.938"/>
<polygon fill="black" stroke="black" points="516.281,-211.683 507.762,-217.983 518.35,-218.37 516.281,-211.683"/>
</g>
<!-- PiLiter -->
<g id="node26" class="node"><title>PiLiter</title>
<polygon fill="#2980b9" stroke="#2980b9" points="739,-400 685,-400 685,-364 739,-364 739,-400"/>
<text text-anchor="middle" x="712" y="-379.5" font-family="Sans" font-size="10.00" fill="#ffffff">PiLiter</text>
</g>
<!-- PiLiter&#45;&gt;LEDBoard -->
<g id="edge24" class="edge"><title>PiLiter&#45;&gt;LEDBoard</title>
<path fill="none" stroke="black" d="M684.853,-393.717C669.201,-400.731 648.971,-409.797 631.259,-417.735"/>
<polygon fill="black" stroke="black" points="629.417,-414.725 621.723,-422.008 632.28,-421.112 629.417,-414.725"/>
</g>
<!-- StatusZero -->
<g id="node27" class="node"><title>StatusZero</title>
<polygon fill="#2980b9" stroke="#2980b9" points="747.5,-346 676.5,-346 676.5,-310 747.5,-310 747.5,-346"/>
<text text-anchor="middle" x="712" y="-325.5" font-family="Sans" font-size="10.00" fill="#ffffff">StatusZero</text>
</g>
<!-- StatusZero&#45;&gt;LEDBoard -->
<g id="edge26" class="edge"><title>StatusZero&#45;&gt;LEDBoard</title>
<path fill="none" stroke="black" d="M678.305,-346.121C674.037,-348.914 669.824,-351.905 666,-355 645.711,-371.423 625.705,-393.211 611.389,-410.054"/>
<polygon fill="black" stroke="black" points="608.574,-407.963 604.842,-417.879 613.943,-412.455 608.574,-407.963"/>
</g>
<!-- PiLiterBarGraph -->
<g id="node28" class="node"><title>PiLiterBarGraph</title>
<polygon fill="#2980b9" stroke="#2980b9" points="758,-292 666,-292 666,-256 758,-256 758,-292"/>
<text text-anchor="middle" x="712" y="-271.5" font-family="Sans" font-size="10.00" fill="#ffffff">PiLiterBarGraph</text>
</g>
<!-- PiLiterBarGraph&#45;&gt;LEDBarGraph -->
<g id="edge27" class="edge"><title>PiLiterBarGraph&#45;&gt;LEDBarGraph</title>
<path fill="none" stroke="black" d="M670.54,-292.131C660.594,-296.589 649.839,-301.408 639.537,-306.025"/>
<polygon fill="black" stroke="black" points="637.933,-302.908 630.239,-310.192 640.796,-309.296 637.933,-302.908"/>
</g>
</g>
</svg>
