<?xml version="1.0" encoding="UTF-8" standalone="no"?>
<!DOCTYPE svg PUBLIC "-//W3C//DTD SVG 1.1//EN"
 "http://www.w3.org/Graphics/SVG/1.1/DTD/svg11.dtd">
<!-- Generated by graphviz version 2.40.1 (20161225.0304)
 -->
<!-- Title: classes Pages: 1 -->
<svg width="879pt" height="665pt"
 viewBox="0.00 0.00 879.00 665.00" xmlns="http://www.w3.org/2000/svg" xmlns:xlink="http://www.w3.org/1999/xlink">
<g id="graph0" class="graph" transform="scale(1 1) rotate(0) translate(4 661)">
<title>classes</title>
<polygon fill="#ffffff" stroke="transparent" points="-4,4 -4,-661 875,-661 875,4 -4,4"/>
<!-- CompositeDevice -->
<g id="node1" class="node">
<title>CompositeDevice</title>
<polygon fill="#9ec6e0" stroke="#9ec6e0" points="193,-144 90,-144 90,-108 193,-108 193,-144"/>
<text text-anchor="middle" x="141.5" y="-123.5" font-family="Sans" font-size="10.00" fill="#000000">CompositeDevice</text>
</g>
<!-- Device -->
<g id="node3" class="node">
<title>Device</title>
<polygon fill="#9ec6e0" stroke="#9ec6e0" points="54,-171 0,-171 0,-135 54,-135 54,-171"/>
<text text-anchor="middle" x="27" y="-150.5" font-family="Sans" font-size="10.00" fill="#000000">Device</text>
</g>
<!-- CompositeDevice&#45;&gt;Device -->
<g id="edge3" class="edge">
<title>CompositeDevice&#45;&gt;Device</title>
<path fill="none" stroke="#000000" d="M89.9443,-138.1573C81.1667,-140.2271 72.2088,-142.3394 63.907,-144.297"/>
<polygon fill="#000000" stroke="#000000" points="63.0918,-140.8932 54.1621,-146.595 64.6985,-147.7063 63.0918,-140.8932"/>
</g>
<!-- CompositeOutputDevice -->
<g id="node2" class="node">
<title>CompositeOutputDevice</title>
<polygon fill="#9ec6e0" stroke="#9ec6e0" points="365,-360 229,-360 229,-324 365,-324 365,-360"/>
<text text-anchor="middle" x="297" y="-339.5" font-family="Sans" font-size="10.00" fill="#000000">CompositeOutputDevice</text>
</g>
<!-- CompositeOutputDevice&#45;&gt;CompositeDevice -->
<g id="edge4" class="edge">
<title>CompositeOutputDevice&#45;&gt;CompositeDevice</title>
<path fill="none" stroke="#000000" d="M287.727,-323.7581C264.8672,-278.9981 206.6751,-166.402 193,-153 192.0672,-152.0858 191.0972,-151.1951 190.096,-150.3278"/>
<polygon fill="#000000" stroke="#000000" points="192,-147.3795 181.9138,-144.1363 187.7761,-152.9615 192,-147.3795"/>
</g>
<!-- LEDCollection -->
<g id="node4" class="node">
<title>LEDCollection</title>
<polygon fill="#9ec6e0" stroke="#9ec6e0" points="502.5,-549 418.5,-549 418.5,-513 502.5,-513 502.5,-549"/>
<text text-anchor="middle" x="460.5" y="-528.5" font-family="Sans" font-size="10.00" fill="#000000">LEDCollection</text>
</g>
<!-- LEDCollection&#45;&gt;CompositeOutputDevice -->
<g id="edge10" class="edge">
<title>LEDCollection&#45;&gt;CompositeOutputDevice</title>
<path fill="none" stroke="#000000" d="M418.3263,-515.5836C412.1514,-512.3005 406.1481,-508.4522 401,-504 356.981,-465.9313 324.7281,-404.6997 308.6006,-369.4284"/>
<polygon fill="#000000" stroke="#000000" points="311.757,-367.9127 304.4831,-360.2093 305.3655,-370.7674 311.757,-367.9127"/>
</g>
<!-- ButtonBoard -->
<g id="node5" class="node">
<title>ButtonBoard</title>
<polygon fill="#2980b9" stroke="#2980b9" points="335.5,-198 258.5,-198 258.5,-162 335.5,-162 335.5,-198"/>
<text text-anchor="middle" x="297" y="-177.5" font-family="Sans" font-size="10.00" fill="#ffffff">ButtonBoard</text>
</g>
<!-- ButtonBoard&#45;&gt;CompositeDevice -->
<g id="edge1" class="edge">
<title>ButtonBoard&#45;&gt;CompositeDevice</title>
<path fill="none" stroke="#000000" d="M258.1619,-166.5128C241.3856,-160.687 221.3528,-153.7302 202.6615,-147.2393"/>
<polygon fill="#000000" stroke="#000000" points="203.6286,-143.8702 193.0337,-143.896 201.3322,-150.4828 203.6286,-143.8702"/>
</g>
<!-- CamJamKitRobot -->
<g id="node6" class="node">
<title>CamJamKitRobot</title>
<polygon fill="#2980b9" stroke="#2980b9" points="510,-171 411,-171 411,-135 510,-135 510,-171"/>
<text text-anchor="middle" x="460.5" y="-150.5" font-family="Sans" font-size="10.00" fill="#ffffff">CamJamKitRobot</text>
</g>
<!-- Robot -->
<g id="node7" class="node">
<title>Robot</title>
<polygon fill="#2980b9" stroke="#2980b9" points="324,-144 270,-144 270,-108 324,-108 324,-144"/>
<text text-anchor="middle" x="297" y="-123.5" font-family="Sans" font-size="10.00" fill="#ffffff">Robot</text>
</g>
<!-- CamJamKitRobot&#45;&gt;Robot -->
<g id="edge2" class="edge">
<title>CamJamKitRobot&#45;&gt;Robot</title>
<path fill="none" stroke="#000000" d="M410.5562,-144.7524C385.9618,-140.6909 356.8172,-135.8781 334.2121,-132.1451"/>
<polygon fill="#000000" stroke="#000000" points="334.7626,-128.6887 324.3259,-130.5125 333.622,-135.5952 334.7626,-128.6887"/>
</g>
<!-- Robot&#45;&gt;CompositeDevice -->
<g id="edge20" class="edge">
<title>Robot&#45;&gt;CompositeDevice</title>
<path fill="none" stroke="#000000" d="M269.914,-126C251.495,-126 226.3569,-126 203.2037,-126"/>
<polygon fill="#000000" stroke="#000000" points="203.0835,-122.5001 193.0835,-126 203.0835,-129.5001 203.0835,-122.5001"/>
</g>
<!-- Energenie -->
<g id="node8" class="node">
<title>Energenie</title>
<polygon fill="#2980b9" stroke="#2980b9" points="174,-198 109,-198 109,-162 174,-162 174,-198"/>
<text text-anchor="middle" x="141.5" y="-177.5" font-family="Sans" font-size="10.00" fill="#ffffff">Energenie</text>
</g>
<!-- Energenie&#45;&gt;Device -->
<g id="edge5" class="edge">
<title>Energenie&#45;&gt;Device</title>
<path fill="none" stroke="#000000" d="M108.9952,-172.3351C95.0561,-169.0482 78.6936,-165.1898 64.267,-161.7879"/>
<polygon fill="#000000" stroke="#000000" points="64.703,-158.2947 54.1667,-159.4061 63.0964,-165.1079 64.703,-158.2947"/>
</g>
<!-- FishDish -->
<g id="node9" class="node">
<title>FishDish</title>
<polygon fill="#2980b9" stroke="#2980b9" points="489,-495 432,-495 432,-459 489,-459 489,-495"/>
<text text-anchor="middle" x="460.5" y="-474.5" font-family="Sans" font-size="10.00" fill="#ffffff">FishDish</text>
</g>
<!-- FishDish&#45;&gt;CompositeOutputDevice -->
<g id="edge6" class="edge">
<title>FishDish&#45;&gt;CompositeOutputDevice</title>
<path fill="none" stroke="#000000" d="M431.7671,-466.563C421.5922,-462.2088 410.357,-456.6115 401,-450 367.9111,-426.62 336.6131,-391.7462 317.1602,-367.9979"/>
<polygon fill="#000000" stroke="#000000" points="319.792,-365.6859 310.7899,-360.0989 314.3431,-370.0802 319.792,-365.6859"/>
</g>
<!-- JamHat -->
<g id="node10" class="node">
<title>JamHat</title>
<polygon fill="#2980b9" stroke="#2980b9" points="487.5,-441 433.5,-441 433.5,-405 487.5,-405 487.5,-441"/>
<text text-anchor="middle" x="460.5" y="-420.5" font-family="Sans" font-size="10.00" fill="#ffffff">JamHat</text>
</g>
<!-- JamHat&#45;&gt;CompositeOutputDevice -->
<g id="edge7" class="edge">
<title>JamHat&#45;&gt;CompositeOutputDevice</title>
<path fill="none" stroke="#000000" d="M433.4055,-411.0688C423.1926,-406.4763 411.5083,-401.1079 401,-396 380.7158,-386.1401 358.4966,-374.6933 339.8222,-364.883"/>
<polygon fill="#000000" stroke="#000000" points="341.4418,-361.7802 330.9636,-360.2126 338.1772,-367.9724 341.4418,-361.7802"/>
</g>
<!-- LEDBarGraph -->
<g id="node11" class="node">
<title>LEDBarGraph</title>
<polygon fill="#2980b9" stroke="#2980b9" points="637,-603 556,-603 556,-567 637,-567 637,-603"/>
<text text-anchor="middle" x="596.5" y="-582.5" font-family="Sans" font-size="10.00" fill="#ffffff">LEDBarGraph</text>
</g>
<!-- LEDBarGraph&#45;&gt;LEDCollection -->
<g id="edge8" class="edge">
<title>LEDBarGraph&#45;&gt;LEDCollection</title>
<path fill="none" stroke="#000000" d="M555.6955,-568.7982C541.9605,-563.3446 526.4531,-557.1873 512.0034,-551.4499"/>
<polygon fill="#000000" stroke="#000000" points="513.2757,-548.1893 502.6899,-547.7519 510.6924,-554.6952 513.2757,-548.1893"/>
</g>
<!-- LEDBoard -->
<g id="node12" class="node">
<title>LEDBoard</title>
<polygon fill="#2980b9" stroke="#2980b9" points="628.5,-495 564.5,-495 564.5,-459 628.5,-459 628.5,-495"/>
<text text-anchor="middle" x="596.5" y="-474.5" font-family="Sans" font-size="10.00" fill="#ffffff">LEDBoard</text>
</g>
<!-- LEDBoard&#45;&gt;LEDCollection -->
<g id="edge9" class="edge">
<title>LEDBoard&#45;&gt;LEDCollection</title>
<path fill="none" stroke="#000000" d="M564.2699,-489.7972C548.6951,-495.9813 529.6205,-503.5551 512.0927,-510.5147"/>
<polygon fill="#000000" stroke="#000000" points="510.5487,-507.3618 502.5462,-514.3052 513.132,-513.8678 510.5487,-507.3618"/>
</g>
<!-- PhaseEnableRobot -->
<g id="node13" class="node">
<title>PhaseEnableRobot</title>
<polygon fill="#2980b9" stroke="#2980b9" points="350.5,-90 243.5,-90 243.5,-54 350.5,-54 350.5,-90"/>
<text text-anchor="middle" x="297" y="-69.5" font-family="Sans" font-size="10.00" fill="#ffffff">PhaseEnableRobot</text>
</g>
<!-- PhaseEnableRobot&#45;&gt;CompositeDevice -->
<g id="edge11" class="edge">
<title>PhaseEnableRobot&#45;&gt;CompositeDevice</title>
<path fill="none" stroke="#000000" d="M244.7882,-90.1314C231.2392,-94.8366 216.5262,-99.9459 202.5662,-104.7937"/>
<polygon fill="#000000" stroke="#000000" points="201.344,-101.5131 193.0455,-108.0999 203.6404,-108.1257 201.344,-101.5131"/>
</g>
<!-- PiHutXmasTree -->
<g id="node14" class="node">
<title>PiHutXmasTree</title>
<polygon fill="#2980b9" stroke="#2980b9" points="765,-603 674,-603 674,-567 765,-567 765,-603"/>
<text text-anchor="middle" x="719.5" y="-582.5" font-family="Sans" font-size="10.00" fill="#ffffff">PiHutXmasTree</text>
</g>
<!-- PiHutXmasTree&#45;&gt;LEDBoard -->
<g id="edge12" class="edge">
<title>PiHutXmasTree&#45;&gt;LEDBoard</title>
<path fill="none" stroke="#000000" d="M685.7144,-566.9444C681.3045,-564.1416 676.9512,-561.1304 673,-558 652.414,-541.6902 632.1445,-519.8948 617.647,-503.0211"/>
<polygon fill="#000000" stroke="#000000" points="620.1463,-500.5562 611.0176,-495.1787 614.8004,-505.0752 620.1463,-500.5562"/>
</g>
<!-- PiLiter -->
<g id="node15" class="node">
<title>PiLiter</title>
<polygon fill="#2980b9" stroke="#2980b9" points="746.5,-549 692.5,-549 692.5,-513 746.5,-513 746.5,-549"/>
<text text-anchor="middle" x="719.5" y="-528.5" font-family="Sans" font-size="10.00" fill="#ffffff">PiLiter</text>
</g>
<!-- PiLiter&#45;&gt;LEDBoard -->
<g id="edge13" class="edge">
<title>PiLiter&#45;&gt;LEDBoard</title>
<path fill="none" stroke="#000000" d="M692.2023,-519.0156C676.3178,-512.0419 655.9697,-503.1086 638.1236,-495.2738"/>
<polygon fill="#000000" stroke="#000000" points="639.0742,-491.8687 628.5107,-491.0535 636.2602,-498.2782 639.0742,-491.8687"/>
</g>
<!-- PiLiterBarGraph -->
<g id="node16" class="node">
<title>PiLiterBarGraph</title>
<polygon fill="#2980b9" stroke="#2980b9" points="766,-657 673,-657 673,-621 766,-621 766,-657"/>
<text text-anchor="middle" x="719.5" y="-636.5" font-family="Sans" font-size="10.00" fill="#ffffff">PiLiterBarGraph</text>
</g>
<!-- PiLiterBarGraph&#45;&gt;LEDBarGraph -->
<g id="edge14" class="edge">
<title>PiLiterBarGraph&#45;&gt;LEDBarGraph</title>
<path fill="none" stroke="#000000" d="M678.2006,-620.8686C667.9447,-616.3659 656.8456,-611.4932 646.2322,-606.8336"/>
<polygon fill="#000000" stroke="#000000" points="647.6271,-603.6237 637.0637,-602.8085 644.8132,-610.0332 647.6271,-603.6237"/>
</g>
<!-- PiStop -->
<g id="node17" class="node">
<title>PiStop</title>
<polygon fill="#2980b9" stroke="#2980b9" points="863.5,-549 809.5,-549 809.5,-513 863.5,-513 863.5,-549"/>
<text text-anchor="middle" x="836.5" y="-528.5" font-family="Sans" font-size="10.00" fill="#ffffff">PiStop</text>
</g>
<!-- TrafficLights -->
<g id="node18" class="node">
<title>TrafficLights</title>
<polygon fill="#2980b9" stroke="#2980b9" points="757,-495 682,-495 682,-459 757,-459 757,-495"/>
<text text-anchor="middle" x="719.5" y="-474.5" font-family="Sans" font-size="10.00" fill="#ffffff">TrafficLights</text>
</g>
<!-- PiStop&#45;&gt;TrafficLights -->
<g id="edge15" class="edge">
<title>PiStop&#45;&gt;TrafficLights</title>
<path fill="none" stroke="#000000" d="M809.3638,-518.4756C796.6273,-512.5972 781.0748,-505.4192 766.5112,-498.6975"/>
<polygon fill="#000000" stroke="#000000" points="767.6696,-495.3773 757.1232,-494.3646 764.7361,-501.7331 767.6696,-495.3773"/>
</g>
<!-- TrafficLights&#45;&gt;LEDBoard -->
<g id="edge27" class="edge">
<title>TrafficLights&#45;&gt;LEDBoard</title>
<path fill="none" stroke="#000000" d="M681.9276,-477C668.4161,-477 653.079,-477 639.1655,-477"/>
<polygon fill="#000000" stroke="#000000" points="638.857,-473.5001 628.857,-477 638.857,-480.5001 638.857,-473.5001"/>
</g>
<!-- PiTraffic -->
<g id="node19" class="node">
<title>PiTraffic</title>
<polygon fill="#2980b9" stroke="#2980b9" points="864,-495 809,-495 809,-459 864,-459 864,-495"/>
<text text-anchor="middle" x="836.5" y="-474.5" font-family="Sans" font-size="10.00" fill="#ffffff">PiTraffic</text>
</g>
<!-- PiTraffic&#45;&gt;TrafficLights -->
<g id="edge16" class="edge">
<title>PiTraffic&#45;&gt;TrafficLights</title>
<path fill="none" stroke="#000000" d="M808.7726,-477C796.3747,-477 781.3989,-477 767.2848,-477"/>
<polygon fill="#000000" stroke="#000000" points="767.209,-473.5001 757.2089,-477 767.2089,-480.5001 767.209,-473.5001"/>
</g>
<!-- Pibrella -->
<g id="node20" class="node">
<title>Pibrella</title>
<polygon fill="#2980b9" stroke="#2980b9" points="487.5,-387 433.5,-387 433.5,-351 487.5,-351 487.5,-387"/>
<text text-anchor="middle" x="460.5" y="-366.5" font-family="Sans" font-size="10.00" fill="#ffffff">Pibrella</text>
</g>
<!-- Pibrella&#45;&gt;CompositeOutputDevice -->
<g id="edge17" class="edge">
<title>Pibrella&#45;&gt;CompositeOutputDevice</title>
<path fill="none" stroke="#000000" d="M433.1338,-364.4808C417.0457,-361.8241 395.8149,-358.3181 374.9186,-354.8673"/>
<polygon fill="#000000" stroke="#000000" points="375.4741,-351.4117 365.0375,-353.2355 374.3335,-358.3182 375.4741,-351.4117"/>
</g>
<!-- PololuDRV8835Robot -->
<g id="node21" class="node">
<title>PololuDRV8835Robot</title>
<polygon fill="#2980b9" stroke="#2980b9" points="520,-63 401,-63 401,-27 520,-27 520,-63"/>
<text text-anchor="middle" x="460.5" y="-42.5" font-family="Sans" font-size="10.00" fill="#ffffff">PololuDRV8835Robot</text>
</g>
<!-- PololuDRV8835Robot&#45;&gt;PhaseEnableRobot -->
<g id="edge18" class="edge">
<title>PololuDRV8835Robot&#45;&gt;PhaseEnableRobot</title>
<path fill="none" stroke="#000000" d="M400.547,-54.9005C387.547,-57.0473 373.7536,-59.3251 360.618,-61.4943"/>
<polygon fill="#000000" stroke="#000000" points="360.0214,-58.0453 350.7253,-63.1279 361.162,-64.9518 360.0214,-58.0453"/>
</g>
<!-- PumpkinPi -->
<g id="node22" class="node">
<title>PumpkinPi</title>
<polygon fill="#2980b9" stroke="#2980b9" points="753.5,-441 685.5,-441 685.5,-405 753.5,-405 753.5,-441"/>
<text text-anchor="middle" x="719.5" y="-420.5" font-family="Sans" font-size="10.00" fill="#ffffff">PumpkinPi</text>
</g>
<!-- PumpkinPi&#45;&gt;LEDBoard -->
<g id="edge19" class="edge">
<title>PumpkinPi&#45;&gt;LEDBoard</title>
<path fill="none" stroke="#000000" d="M685.2376,-438.042C670.6389,-444.4512 653.4741,-451.987 638.1507,-458.7143"/>
<polygon fill="#000000" stroke="#000000" points="636.6366,-455.5565 628.8872,-462.7812 639.4506,-461.966 636.6366,-455.5565"/>
</g>
<!-- RyanteckRobot -->
<g id="node23" class="node">
<title>RyanteckRobot</title>
<polygon fill="#2980b9" stroke="#2980b9" points="505,-117 416,-117 416,-81 505,-81 505,-117"/>
<text text-anchor="middle" x="460.5" y="-96.5" font-family="Sans" font-size="10.00" fill="#ffffff">RyanteckRobot</text>
</g>
<!-- RyanteckRobot&#45;&gt;Robot -->
<g id="edge21" class="edge">
<title>RyanteckRobot&#45;&gt;Robot</title>
<path fill="none" stroke="#000000" d="M415.8229,-106.3779C390.1764,-110.6131 358.3538,-115.8682 334.0975,-119.8738"/>
<polygon fill="#000000" stroke="#000000" points="333.5013,-116.4248 324.2052,-121.5074 334.6419,-123.3312 333.5013,-116.4248"/>
</g>
<!-- SnowPi -->
<g id="node24" class="node">
<title>SnowPi</title>
<polygon fill="#2980b9" stroke="#2980b9" points="746.5,-387 692.5,-387 692.5,-351 746.5,-351 746.5,-387"/>
<text text-anchor="middle" x="719.5" y="-366.5" font-family="Sans" font-size="10.00" fill="#ffffff">SnowPi</text>
</g>
<!-- SnowPi&#45;&gt;LEDBoard -->
<g id="edge22" class="edge">
<title>SnowPi&#45;&gt;LEDBoard</title>
<path fill="none" stroke="#000000" d="M692.0851,-383.1617C685.5897,-386.9865 678.8536,-391.3623 673,-396 652.414,-412.3098 632.1445,-434.1052 617.647,-450.9789"/>
<polygon fill="#000000" stroke="#000000" points="614.8004,-448.9248 611.0176,-458.8213 620.1463,-453.4438 614.8004,-448.9248"/>
</g>
<!-- StatusBoard -->
<g id="node25" class="node">
<title>StatusBoard</title>
<polygon fill="#2980b9" stroke="#2980b9" points="498.5,-333 422.5,-333 422.5,-297 498.5,-297 498.5,-333"/>
<text text-anchor="middle" x="460.5" y="-312.5" font-family="Sans" font-size="10.00" fill="#ffffff">StatusBoard</text>
</g>
<!-- StatusBoard&#45;&gt;CompositeOutputDevice -->
<g id="edge23" class="edge">
<title>StatusBoard&#45;&gt;CompositeOutputDevice</title>
<path fill="none" stroke="#000000" d="M422.1665,-321.3303C408.0971,-323.6537 391.6107,-326.3762 375.3072,-329.0685"/>
<polygon fill="#000000" stroke="#000000" points="374.4989,-325.6545 365.2028,-330.7371 375.6395,-332.561 374.4989,-325.6545"/>
</g>
<!-- StatusZero -->
<g id="node26" class="node">
<title>StatusZero</title>
<polygon fill="#2980b9" stroke="#2980b9" points="754.5,-333 684.5,-333 684.5,-297 754.5,-297 754.5,-333"/>
<text text-anchor="middle" x="719.5" y="-312.5" font-family="Sans" font-size="10.00" fill="#ffffff">StatusZero</text>
</g>
<!-- StatusZero&#45;&gt;LEDBoard -->
<g id="edge24" class="edge">
<title>StatusZero&#45;&gt;LEDBoard</title>
<path fill="none" stroke="#000000" d="M684.4808,-332.5372C680.3603,-335.3868 676.4144,-338.5495 673,-342 641.9818,-373.3462 619.3522,-419.8047 607.0663,-449.2311"/>
<polygon fill="#000000" stroke="#000000" points="603.6694,-448.2942 603.1551,-458.8766 610.1564,-450.9246 603.6694,-448.2942"/>
</g>
<!-- TonalBuzzer -->
<g id="node27" class="node">
<title>TonalBuzzer</title>
<polygon fill="#2980b9" stroke="#2980b9" points="334.5,-36 259.5,-36 259.5,0 334.5,0 334.5,-36"/>
<text text-anchor="middle" x="297" y="-15.5" font-family="Sans" font-size="10.00" fill="#ffffff">TonalBuzzer</text>
</g>
<!-- TonalBuzzer&#45;&gt;CompositeDevice -->
<g id="edge25" class="edge">
<title>TonalBuzzer&#45;&gt;CompositeDevice</title>
<path fill="none" stroke="#000000" d="M259.4455,-30.0605C249.1968,-34.1017 238.3487,-39.1074 229,-45 204.7017,-60.3153 181.0388,-82.8233 164.4602,-100.2282"/>
<polygon fill="#000000" stroke="#000000" points="161.6348,-98.1255 157.3648,-107.8218 166.7495,-102.9047 161.6348,-98.1255"/>
</g>
<!-- TrafficHat -->
<g id="node28" class="node">
<title>TrafficHat</title>
<polygon fill="#2980b9" stroke="#2980b9" points="492,-279 429,-279 429,-243 492,-243 492,-279"/>
<text text-anchor="middle" x="460.5" y="-258.5" font-family="Sans" font-size="10.00" fill="#ffffff">TrafficHat</text>
</g>
<!-- TrafficHat&#45;&gt;CompositeOutputDevice -->
<g id="edge26" class="edge">
<title>TrafficHat&#45;&gt;CompositeOutputDevice</title>
<path fill="none" stroke="#000000" d="M428.8581,-274.9838C419.8143,-279.0817 409.978,-283.6359 401,-288 380.7158,-297.8599 358.4966,-309.3067 339.8222,-319.117"/>
<polygon fill="#000000" stroke="#000000" points="338.1772,-316.0276 330.9636,-323.7874 341.4418,-322.2198 338.1772,-316.0276"/>
</g>
<!-- TrafficLightsBuzzer -->
<g id="node29" class="node">
<title>TrafficLightsBuzzer</title>
<polygon fill="#2980b9" stroke="#2980b9" points="514.5,-225 406.5,-225 406.5,-189 514.5,-189 514.5,-225"/>
<text text-anchor="middle" x="460.5" y="-204.5" font-family="Sans" font-size="10.00" fill="#ffffff">TrafficLightsBuzzer</text>
</g>
<!-- TrafficLightsBuzzer&#45;&gt;CompositeOutputDevice -->
<g id="edge28" class="edge">
<title>TrafficLightsBuzzer&#45;&gt;CompositeOutputDevice</title>
<path fill="none" stroke="#000000" d="M415.6093,-225.1196C410.5211,-227.8236 405.5395,-230.7925 401,-234 367.9111,-257.38 336.6131,-292.2538 317.1602,-316.0021"/>
<polygon fill="#000000" stroke="#000000" points="314.3431,-313.9198 310.7899,-323.9011 319.792,-318.3141 314.3431,-313.9198"/>
</g>
<!-- TrafficpHat -->
<g id="node30" class="node">
<title>TrafficpHat</title>
<polygon fill="#2980b9" stroke="#2980b9" points="871,-441 802,-441 802,-405 871,-405 871,-441"/>
<text text-anchor="middle" x="836.5" y="-420.5" font-family="Sans" font-size="10.00" fill="#ffffff">TrafficpHat</text>
</g>
<!-- TrafficpHat&#45;&gt;TrafficLights -->
<g id="edge29" class="edge">
<title>TrafficpHat&#45;&gt;TrafficLights</title>
<path fill="none" stroke="#000000" d="M801.7129,-439.0556C790.6574,-444.1581 778.2418,-449.8884 766.4742,-455.3196"/>
<polygon fill="#000000" stroke="#000000" points="764.8269,-452.225 757.214,-459.5935 767.7603,-458.5808 764.8269,-452.225"/>
</g>
</g>
</svg>
