<?xml version="1.0" encoding="UTF-8" standalone="no"?>
<!DOCTYPE svg PUBLIC "-//W3C//DTD SVG 1.1//EN"
 "http://www.w3.org/Graphics/SVG/1.1/DTD/svg11.dtd">
<!-- Generated by graphviz version 2.43.0 (0)
 -->
<!-- Title: classes Pages: 1 -->
<svg width="936pt" height="188pt"
 viewBox="0.00 0.00 935.50 188.00" xmlns="http://www.w3.org/2000/svg" xmlns:xlink="http://www.w3.org/1999/xlink">
<g id="graph0" class="graph" transform="scale(1 1) rotate(0) translate(4 184)">
<title>classes</title>
<polygon fill="white" stroke="transparent" points="-4,4 -4,-184 931.5,-184 931.5,4 -4,4"/>
<!-- RGBLED -->
<g id="node1" class="node">
<title>RGBLED</title>
<polygon fill="#298029" stroke="#298029" points="147.5,-108 89.5,-108 89.5,-72 147.5,-72 147.5,-108"/>
<text text-anchor="middle" x="118.5" y="-87.5" font-family="Arial" font-size="10.00" fill="#ffffff">RGBLED</text>
</g>
<!-- LED -->
<g id="node2" class="node">
<title>LED</title>
<polygon fill="#298029" stroke="#298029" points="261.5,-36 207.5,-36 207.5,0 261.5,0 261.5,-36"/>
<text text-anchor="middle" x="234.5" y="-15.5" font-family="Arial" font-size="10.00" fill="#ffffff">LED</text>
</g>
<!-- RGBLED&#45;&gt;LED -->
<g id="edge1" class="edge">
<title>RGBLED&#45;&gt;LED</title>
<path fill="none" stroke="black" stroke-dasharray="5,2" d="M146.88,-71.88C162.38,-62.52 181.75,-50.83 198.33,-40.83"/>
<polygon fill="none" stroke="black" points="200.46,-43.63 207.21,-35.47 196.84,-37.64 200.46,-43.63"/>
</g>
<!-- PWMLED -->
<g id="node3" class="node">
<title>PWMLED</title>
<polygon fill="#298029" stroke="#298029" points="189,-36 128,-36 128,0 189,0 189,-36"/>
<text text-anchor="middle" x="158.5" y="-15.5" font-family="Arial" font-size="10.00" fill="#ffffff">PWMLED</text>
</g>
<!-- RGBLED&#45;&gt;PWMLED -->
<g id="edge2" class="edge">
<title>RGBLED&#45;&gt;PWMLED</title>
<path fill="none" stroke="black" stroke-dasharray="5,2" d="M128.39,-71.7C132.99,-63.64 138.56,-53.89 143.65,-44.98"/>
<polygon fill="none" stroke="black" points="146.8,-46.52 148.73,-36.1 140.73,-43.05 146.8,-46.52"/>
</g>
<!-- LEDBoard -->
<g id="node4" class="node">
<title>LEDBoard</title>
<polygon fill="#298029" stroke="#298029" points="227.5,-108 165.5,-108 165.5,-72 227.5,-72 227.5,-108"/>
<text text-anchor="middle" x="196.5" y="-87.5" font-family="Arial" font-size="10.00" fill="#ffffff">LEDBoard</text>
</g>
<!-- LEDBoard&#45;&gt;LED -->
<g id="edge3" class="edge">
<title>LEDBoard&#45;&gt;LED</title>
<path fill="none" stroke="black" stroke-dasharray="5,2" d="M205.89,-71.7C210.26,-63.64 215.56,-53.89 220.4,-44.98"/>
<polygon fill="none" stroke="black" points="223.52,-46.56 225.21,-36.1 217.37,-43.22 223.52,-46.56"/>
</g>
<!-- LEDBoard&#45;&gt;PWMLED -->
<g id="edge4" class="edge">
<title>LEDBoard&#45;&gt;PWMLED</title>
<path fill="none" stroke="black" stroke-dasharray="5,2" d="M187.11,-71.7C182.74,-63.64 177.44,-53.89 172.6,-44.98"/>
<polygon fill="none" stroke="black" points="175.63,-43.22 167.79,-36.1 169.48,-46.56 175.63,-43.22"/>
</g>
<!-- LEDBarGraph -->
<g id="node5" class="node">
<title>LEDBarGraph</title>
<polygon fill="#298029" stroke="#298029" points="323,-108 246,-108 246,-72 323,-72 323,-108"/>
<text text-anchor="middle" x="284.5" y="-87.5" font-family="Arial" font-size="10.00" fill="#ffffff">LEDBarGraph</text>
</g>
<!-- LEDBarGraph&#45;&gt;LED -->
<g id="edge5" class="edge">
<title>LEDBarGraph&#45;&gt;LED</title>
<path fill="none" stroke="black" stroke-dasharray="5,2" d="M272.14,-71.7C266.27,-63.47 259.13,-53.48 252.66,-44.42"/>
<polygon fill="none" stroke="black" points="255.38,-42.21 246.72,-36.1 249.68,-46.28 255.38,-42.21"/>
</g>
<!-- LEDBarGraph&#45;&gt;PWMLED -->
<g id="edge6" class="edge">
<title>LEDBarGraph&#45;&gt;PWMLED</title>
<path fill="none" stroke="black" stroke-dasharray="5,2" d="M253.68,-71.88C236.93,-62.57 216.03,-50.96 198.08,-40.99"/>
<polygon fill="none" stroke="black" points="199.45,-37.74 189,-35.95 196.05,-43.86 199.45,-37.74"/>
</g>
<!-- ButtonBoard -->
<g id="node6" class="node">
<title>ButtonBoard</title>
<polygon fill="#298029" stroke="#298029" points="403,-180 332,-180 332,-144 403,-144 403,-180"/>
<text text-anchor="middle" x="367.5" y="-159.5" font-family="Arial" font-size="10.00" fill="#ffffff">ButtonBoard</text>
</g>
<!-- Button -->
<g id="node7" class="node">
<title>Button</title>
<polygon fill="#298029" stroke="#298029" points="395.5,-108 341.5,-108 341.5,-72 395.5,-72 395.5,-108"/>
<text text-anchor="middle" x="368.5" y="-87.5" font-family="Arial" font-size="10.00" fill="#ffffff">Button</text>
</g>
<!-- ButtonBoard&#45;&gt;Button -->
<g id="edge7" class="edge">
<title>ButtonBoard&#45;&gt;Button</title>
<path fill="none" stroke="black" stroke-dasharray="5,2" d="M367.75,-143.7C367.86,-135.98 367.99,-126.71 368.11,-118.11"/>
<polygon fill="none" stroke="black" points="371.61,-118.15 368.26,-108.1 364.61,-118.05 371.61,-118.15"/>
</g>
<!-- TrafficLightsBuzzer -->
<g id="node8" class="node">
<title>TrafficLightsBuzzer</title>
<polygon fill="#298029" stroke="#298029" points="522,-180 421,-180 421,-144 522,-144 522,-180"/>
<text text-anchor="middle" x="471.5" y="-159.5" font-family="Arial" font-size="10.00" fill="#ffffff">TrafficLightsBuzzer</text>
</g>
<!-- TrafficLightsBuzzer&#45;&gt;Button -->
<g id="edge10" class="edge">
<title>TrafficLightsBuzzer&#45;&gt;Button</title>
<path fill="none" stroke="black" stroke-dasharray="5,2" d="M446.3,-143.88C433.09,-134.89 416.71,-123.76 402.39,-114.03"/>
<polygon fill="none" stroke="black" points="404.03,-110.92 393.79,-108.19 400.1,-116.71 404.03,-110.92"/>
</g>
<!-- TrafficLights -->
<g id="node9" class="node">
<title>TrafficLights</title>
<polygon fill="#298029" stroke="#298029" points="570.5,-108 500.5,-108 500.5,-72 570.5,-72 570.5,-108"/>
<text text-anchor="middle" x="535.5" y="-87.5" font-family="Arial" font-size="10.00" fill="#ffffff">TrafficLights</text>
</g>
<!-- TrafficLightsBuzzer&#45;&gt;TrafficLights -->
<g id="edge8" class="edge">
<title>TrafficLightsBuzzer&#45;&gt;TrafficLights</title>
<path fill="none" stroke="black" stroke-dasharray="5,2" d="M487.32,-143.7C495.07,-135.22 504.54,-124.86 513.02,-115.58"/>
<polygon fill="none" stroke="black" points="515.7,-117.85 519.86,-108.1 510.53,-113.12 515.7,-117.85"/>
</g>
<!-- Buzzer -->
<g id="node10" class="node">
<title>Buzzer</title>
<polygon fill="#298029" stroke="#298029" points="482.5,-108 428.5,-108 428.5,-72 482.5,-72 482.5,-108"/>
<text text-anchor="middle" x="455.5" y="-87.5" font-family="Arial" font-size="10.00" fill="#ffffff">Buzzer</text>
</g>
<!-- TrafficLightsBuzzer&#45;&gt;Buzzer -->
<g id="edge9" class="edge">
<title>TrafficLightsBuzzer&#45;&gt;Buzzer</title>
<path fill="none" stroke="black" stroke-dasharray="5,2" d="M467.54,-143.7C465.78,-135.98 463.66,-126.71 461.7,-118.11"/>
<polygon fill="none" stroke="black" points="465.05,-117.07 459.41,-108.1 458.23,-118.63 465.05,-117.07"/>
</g>
<!-- StatusBoard -->
<g id="node11" class="node">
<title>StatusBoard</title>
<polygon fill="#298029" stroke="#298029" points="314,-180 243,-180 243,-144 314,-144 314,-180"/>
<text text-anchor="middle" x="278.5" y="-159.5" font-family="Arial" font-size="10.00" fill="#ffffff">StatusBoard</text>
</g>
<!-- StatusBoard&#45;&gt;LEDBoard -->
<g id="edge11" class="edge">
<title>StatusBoard&#45;&gt;LEDBoard</title>
<path fill="none" stroke="black" stroke-dasharray="5,2" d="M258.23,-143.7C248,-134.97 235.44,-124.24 224.32,-114.75"/>
<polygon fill="none" stroke="black" points="226.41,-111.94 216.54,-108.1 221.87,-117.26 226.41,-111.94"/>
</g>
<!-- StatusBoard&#45;&gt;Button -->
<g id="edge12" class="edge">
<title>StatusBoard&#45;&gt;Button</title>
<path fill="none" stroke="black" stroke-dasharray="5,2" d="M300.75,-143.7C312.08,-134.88 326.03,-124.03 338.32,-114.47"/>
<polygon fill="none" stroke="black" points="340.76,-117.01 346.51,-108.1 336.47,-111.48 340.76,-117.01"/>
</g>
<!-- JamHat -->
<g id="node12" class="node">
<title>JamHat</title>
<polygon fill="#298029" stroke="#298029" points="223.5,-180 169.5,-180 169.5,-144 223.5,-144 223.5,-180"/>
<text text-anchor="middle" x="196.5" y="-159.5" font-family="Arial" font-size="10.00" fill="#ffffff">JamHat</text>
</g>
<!-- JamHat&#45;&gt;LEDBoard -->
<g id="edge13" class="edge">
<title>JamHat&#45;&gt;LEDBoard</title>
<path fill="none" stroke="black" stroke-dasharray="5,2" d="M196.5,-143.7C196.5,-135.98 196.5,-126.71 196.5,-118.11"/>
<polygon fill="none" stroke="black" points="200,-118.1 196.5,-108.1 193,-118.1 200,-118.1"/>
</g>
<!-- JamHat&#45;&gt;Button -->
<g id="edge14" class="edge">
<title>JamHat&#45;&gt;Button</title>
<path fill="none" stroke="black" stroke-dasharray="5,2" d="M223.87,-148.13C227.1,-146.7 230.36,-145.29 233.5,-144 276.39,-126.3 288.61,-125.7 331.5,-108 331.6,-107.96 331.7,-107.92 331.79,-107.88"/>
<polygon fill="none" stroke="black" points="333.32,-111.03 341.13,-103.87 330.56,-104.6 333.32,-111.03"/>
</g>
<!-- TonalBuzzer -->
<g id="node13" class="node">
<title>TonalBuzzer</title>
<polygon fill="#298029" stroke="#298029" points="71,-108 0,-108 0,-72 71,-72 71,-108"/>
<text text-anchor="middle" x="35.5" y="-87.5" font-family="Arial" font-size="10.00" fill="#ffffff">TonalBuzzer</text>
</g>
<!-- JamHat&#45;&gt;TonalBuzzer -->
<g id="edge15" class="edge">
<title>JamHat&#45;&gt;TonalBuzzer</title>
<path fill="none" stroke="black" stroke-dasharray="5,2" d="M169.19,-149.13C144.93,-138.58 109,-122.96 80.5,-110.56"/>
<polygon fill="none" stroke="black" points="81.71,-107.27 71.14,-106.5 78.92,-113.69 81.71,-107.27"/>
</g>
<!-- Robot -->
<g id="node14" class="node">
<title>Robot</title>
<polygon fill="#298029" stroke="#298029" points="761.5,-180 707.5,-180 707.5,-144 761.5,-144 761.5,-180"/>
<text text-anchor="middle" x="734.5" y="-159.5" font-family="Arial" font-size="10.00" fill="#ffffff">Robot</text>
</g>
<!-- Motor -->
<g id="node15" class="node">
<title>Motor</title>
<polygon fill="#298029" stroke="#298029" points="761.5,-108 707.5,-108 707.5,-72 761.5,-72 761.5,-108"/>
<text text-anchor="middle" x="734.5" y="-87.5" font-family="Arial" font-size="10.00" fill="#ffffff">Motor</text>
</g>
<!-- Robot&#45;&gt;Motor -->
<g id="edge16" class="edge">
<title>Robot&#45;&gt;Motor</title>
<path fill="none" stroke="black" stroke-dasharray="5,2" d="M734.5,-143.7C734.5,-135.98 734.5,-126.71 734.5,-118.11"/>
<polygon fill="none" stroke="black" points="738,-118.1 734.5,-108.1 731,-118.1 738,-118.1"/>
</g>
<!-- DigitalOutputDevice -->
<g id="node16" class="node">
<title>DigitalOutputDevice</title>
<polygon fill="#298029" stroke="#298029" points="690.5,-36 586.5,-36 586.5,0 690.5,0 690.5,-36"/>
<text text-anchor="middle" x="638.5" y="-15.5" font-family="Arial" font-size="10.00" fill="#ffffff">DigitalOutputDevice</text>
</g>
<!-- Motor&#45;&gt;DigitalOutputDevice -->
<g id="edge17" class="edge">
<title>Motor&#45;&gt;DigitalOutputDevice</title>
<path fill="none" stroke="black" stroke-dasharray="5,2" d="M710.77,-71.7C698.56,-62.8 683.51,-51.82 670.32,-42.2"/>
<polygon fill="none" stroke="black" points="672.1,-39.17 661.96,-36.1 667.98,-44.82 672.1,-39.17"/>
</g>
<!-- PWMOutputDevice -->
<g id="node17" class="node">
<title>PWMOutputDevice</title>
<polygon fill="#298029" stroke="#298029" points="810,-36 709,-36 709,0 810,0 810,-36"/>
<text text-anchor="middle" x="759.5" y="-15.5" font-family="Arial" font-size="10.00" fill="#ffffff">PWMOutputDevice</text>
</g>
<!-- Motor&#45;&gt;PWMOutputDevice -->
<g id="edge18" class="edge">
<title>Motor&#45;&gt;PWMOutputDevice</title>
<path fill="none" stroke="black" stroke-dasharray="5,2" d="M740.68,-71.7C743.5,-63.81 746.89,-54.3 750.02,-45.55"/>
<polygon fill="none" stroke="black" points="753.32,-46.7 753.39,-36.1 746.73,-44.34 753.32,-46.7"/>
</g>
<!-- PhaseEnableRobot -->
<g id="node18" class="node">
<title>PhaseEnableRobot</title>
<polygon fill="#298029" stroke="#298029" points="689,-180 588,-180 588,-144 689,-144 689,-180"/>
<text text-anchor="middle" x="638.5" y="-159.5" font-family="Arial" font-size="10.00" fill="#ffffff">PhaseEnableRobot</text>
</g>
<!-- PhaseEnableMotor -->
<g id="node19" class="node">
<title>PhaseEnableMotor</title>
<polygon fill="#298029" stroke="#298029" points="688,-108 589,-108 589,-72 688,-72 688,-108"/>
<text text-anchor="middle" x="638.5" y="-87.5" font-family="Arial" font-size="10.00" fill="#ffffff">PhaseEnableMotor</text>
</g>
<!-- PhaseEnableRobot&#45;&gt;PhaseEnableMotor -->
<g id="edge19" class="edge">
<title>PhaseEnableRobot&#45;&gt;PhaseEnableMotor</title>
<path fill="none" stroke="black" stroke-dasharray="5,2" d="M638.5,-143.7C638.5,-135.98 638.5,-126.71 638.5,-118.11"/>
<polygon fill="none" stroke="black" points="642,-118.1 638.5,-108.1 635,-118.1 642,-118.1"/>
</g>
<!-- PhaseEnableMotor&#45;&gt;DigitalOutputDevice -->
<g id="edge20" class="edge">
<title>PhaseEnableMotor&#45;&gt;DigitalOutputDevice</title>
<path fill="none" stroke="black" stroke-dasharray="5,2" d="M638.5,-71.7C638.5,-63.98 638.5,-54.71 638.5,-46.11"/>
<polygon fill="none" stroke="black" points="642,-46.1 638.5,-36.1 635,-46.1 642,-46.1"/>
</g>
<!-- PhaseEnableMotor&#45;&gt;PWMOutputDevice -->
<g id="edge21" class="edge">
<title>PhaseEnableMotor&#45;&gt;PWMOutputDevice</title>
<path fill="none" stroke="black" stroke-dasharray="5,2" d="M668.1,-71.88C684.07,-62.64 703.96,-51.13 721.11,-41.21"/>
<polygon fill="none" stroke="black" points="722.88,-44.23 729.79,-36.19 719.38,-38.17 722.88,-44.23"/>
</g>
<!-- Servo -->
<g id="node20" class="node">
<title>Servo</title>
<polygon fill="#298029" stroke="#298029" points="833.5,-108 779.5,-108 779.5,-72 833.5,-72 833.5,-108"/>
<text text-anchor="middle" x="806.5" y="-87.5" font-family="Arial" font-size="10.00" fill="#ffffff">Servo</text>
</g>
<!-- Servo&#45;&gt;PWMOutputDevice -->
<g id="edge22" class="edge">
<title>Servo&#45;&gt;PWMOutputDevice</title>
<path fill="none" stroke="black" stroke-dasharray="5,2" d="M794.88,-71.7C789.36,-63.47 782.65,-53.48 776.57,-44.42"/>
<polygon fill="none" stroke="black" points="779.46,-42.46 770.98,-36.1 773.65,-46.36 779.46,-42.46"/>
</g>
<!-- RotaryEncoder -->
<g id="node21" class="node">
<title>RotaryEncoder</title>
<polygon fill="#298029" stroke="#298029" points="927.5,-180 845.5,-180 845.5,-144 927.5,-144 927.5,-180"/>
<text text-anchor="middle" x="886.5" y="-159.5" font-family="Arial" font-size="10.00" fill="#ffffff">RotaryEncoder</text>
</g>
<!-- InputDevice -->
<g id="node22" class="node">
<title>InputDevice</title>
<polygon fill="#298029" stroke="#298029" points="921,-108 852,-108 852,-72 921,-72 921,-108"/>
<text text-anchor="middle" x="886.5" y="-87.5" font-family="Arial" font-size="10.00" fill="#ffffff">InputDevice</text>
</g>
<!-- RotaryEncoder&#45;&gt;InputDevice -->
<g id="edge23" class="edge">
<title>RotaryEncoder&#45;&gt;InputDevice</title>
<path fill="none" stroke="black" stroke-dasharray="5,2" d="M886.5,-143.7C886.5,-135.98 886.5,-126.71 886.5,-118.11"/>
<polygon fill="none" stroke="black" points="890,-118.1 886.5,-108.1 883,-118.1 890,-118.1"/>
</g>
</g>
</svg>
