<?xml version="1.0" encoding="UTF-8" standalone="no"?>
<!DOCTYPE svg PUBLIC "-//W3C//DTD SVG 1.1//EN"
 "http://www.w3.org/Graphics/SVG/1.1/DTD/svg11.dtd">
<!-- Generated by graphviz version 2.36.0 (20140111.2315)
 -->
<!-- Title: classes Pages: 1 -->
<svg width="587pt" height="476pt"
 viewBox="0.00 0.00 587.00 476.00" xmlns="http://www.w3.org/2000/svg" xmlns:xlink="http://www.w3.org/1999/xlink">
<g id="graph0" class="graph" transform="scale(1 1) rotate(0) translate(4 472)">
<title>classes</title>
<polygon fill="white" stroke="none" points="-4,4 -4,-472 583,-472 583,4 -4,4"/>
<!-- Device -->
<g id="node1" class="node"><title>Device</title>
<polygon fill="#9ec6e0" stroke="#9ec6e0" points="449,-468 395,-468 395,-432 449,-432 449,-468"/>
<text text-anchor="middle" x="422" y="-447.5" font-family="Sans" font-size="10.00" fill="#000000">Device</text>
</g>
<!-- CompositeDevice -->
<g id="node2" class="node"><title>CompositeDevice</title>
<polygon fill="#9ec6e0" stroke="#9ec6e0" points="472.5,-396 371.5,-396 371.5,-360 472.5,-360 472.5,-396"/>
<text text-anchor="middle" x="422" y="-375.5" font-family="Sans" font-size="10.00" fill="#000000">CompositeDevice</text>
</g>
<!-- CompositeDevice&#45;&gt;Device -->
<g id="edge1" class="edge"><title>CompositeDevice&#45;&gt;Device</title>
<path fill="none" stroke="black" d="M422,-396.303C422,-404.017 422,-413.288 422,-421.888"/>
<polygon fill="black" stroke="black" points="418.5,-421.896 422,-431.896 425.5,-421.896 418.5,-421.896"/>
</g>
<!-- CompositeOutputDevice -->
<g id="node3" class="node"><title>CompositeOutputDevice</title>
<polygon fill="#9ec6e0" stroke="#9ec6e0" points="375,-324 241,-324 241,-288 375,-288 375,-324"/>
<text text-anchor="middle" x="308" y="-303.5" font-family="Sans" font-size="10.00" fill="#000000">CompositeOutputDevice</text>
</g>
<!-- CompositeOutputDevice&#45;&gt;CompositeDevice -->
<g id="edge2" class="edge"><title>CompositeOutputDevice&#45;&gt;CompositeDevice</title>
<path fill="none" stroke="black" d="M335.888,-324.124C350.793,-333.276 369.329,-344.658 385.382,-354.515"/>
<polygon fill="black" stroke="black" points="383.652,-357.56 394.005,-359.81 387.315,-351.595 383.652,-357.56"/>
</g>
<!-- LEDCollection -->
<g id="node4" class="node"><title>LEDCollection</title>
<polygon fill="#9ec6e0" stroke="#9ec6e0" points="237,-252 155,-252 155,-216 237,-216 237,-252"/>
<text text-anchor="middle" x="196" y="-231.5" font-family="Sans" font-size="10.00" fill="#000000">LEDCollection</text>
</g>
<!-- LEDCollection&#45;&gt;CompositeOutputDevice -->
<g id="edge3" class="edge"><title>LEDCollection&#45;&gt;CompositeOutputDevice</title>
<path fill="none" stroke="black" d="M223.398,-252.124C237.907,-261.192 255.916,-272.448 271.585,-282.241"/>
<polygon fill="black" stroke="black" points="270.161,-285.478 280.496,-287.81 273.871,-279.542 270.161,-285.478"/>
</g>
<!-- LEDBoard -->
<g id="node5" class="node"><title>LEDBoard</title>
<polygon fill="#2980b9" stroke="#2980b9" points="140,-180 76,-180 76,-144 140,-144 140,-180"/>
<text text-anchor="middle" x="108" y="-159.5" font-family="Sans" font-size="10.00" fill="#ffffff">LEDBoard</text>
</g>
<!-- LEDBoard&#45;&gt;LEDCollection -->
<g id="edge4" class="edge"><title>LEDBoard&#45;&gt;LEDCollection</title>
<path fill="none" stroke="black" d="M129.753,-180.303C140.836,-189.119 154.474,-199.968 166.49,-209.526"/>
<polygon fill="black" stroke="black" points="164.493,-212.41 174.497,-215.896 168.85,-206.931 164.493,-212.41"/>
</g>
<!-- LEDBarGraph -->
<g id="node6" class="node"><title>LEDBarGraph</title>
<polygon fill="#2980b9" stroke="#2980b9" points="243.5,-180 162.5,-180 162.5,-144 243.5,-144 243.5,-180"/>
<text text-anchor="middle" x="203" y="-159.5" font-family="Sans" font-size="10.00" fill="#ffffff">LEDBarGraph</text>
</g>
<!-- LEDBarGraph&#45;&gt;LEDCollection -->
<g id="edge5" class="edge"><title>LEDBarGraph&#45;&gt;LEDCollection</title>
<path fill="none" stroke="black" d="M201.27,-180.303C200.498,-188.017 199.571,-197.288 198.711,-205.888"/>
<polygon fill="black" stroke="black" points="195.223,-205.597 197.71,-215.896 202.188,-206.294 195.223,-205.597"/>
</g>
<!-- PiLiter -->
<g id="node7" class="node"><title>PiLiter</title>
<polygon fill="#2980b9" stroke="#2980b9" points="54,-108 0,-108 0,-72 54,-72 54,-108"/>
<text text-anchor="middle" x="27" y="-87.5" font-family="Sans" font-size="10.00" fill="#ffffff">PiLiter</text>
</g>
<!-- PiLiter&#45;&gt;LEDBoard -->
<g id="edge6" class="edge"><title>PiLiter&#45;&gt;LEDBoard</title>
<path fill="none" stroke="black" d="M47.0225,-108.303C57.1256,-117.035 69.536,-127.76 80.5175,-137.25"/>
<polygon fill="black" stroke="black" points="78.3532,-140.005 88.2078,-143.896 82.9302,-134.709 78.3532,-140.005"/>
</g>
<!-- PiLiterBarGraph -->
<g id="node8" class="node"><title>PiLiterBarGraph</title>
<polygon fill="#2980b9" stroke="#2980b9" points="254,-108 162,-108 162,-72 254,-72 254,-108"/>
<text text-anchor="middle" x="208" y="-87.5" font-family="Sans" font-size="10.00" fill="#ffffff">PiLiterBarGraph</text>
</g>
<!-- PiLiterBarGraph&#45;&gt;LEDBarGraph -->
<g id="edge7" class="edge"><title>PiLiterBarGraph&#45;&gt;LEDBarGraph</title>
<path fill="none" stroke="black" d="M206.764,-108.303C206.213,-116.017 205.551,-125.288 204.937,-133.888"/>
<polygon fill="black" stroke="black" points="201.443,-133.672 204.222,-143.896 208.425,-134.17 201.443,-133.672"/>
</g>
<!-- TrafficLights -->
<g id="node9" class="node"><title>TrafficLights</title>
<polygon fill="#2980b9" stroke="#2980b9" points="144,-108 72,-108 72,-72 144,-72 144,-108"/>
<text text-anchor="middle" x="108" y="-87.5" font-family="Sans" font-size="10.00" fill="#ffffff">TrafficLights</text>
</g>
<!-- TrafficLights&#45;&gt;LEDBoard -->
<g id="edge8" class="edge"><title>TrafficLights&#45;&gt;LEDBoard</title>
<path fill="none" stroke="black" d="M108,-108.303C108,-116.017 108,-125.288 108,-133.888"/>
<polygon fill="black" stroke="black" points="104.5,-133.896 108,-143.896 111.5,-133.896 104.5,-133.896"/>
</g>
<!-- PiTraffic -->
<g id="node10" class="node"><title>PiTraffic</title>
<polygon fill="#2980b9" stroke="#2980b9" points="135,-36 81,-36 81,-0 135,-0 135,-36"/>
<text text-anchor="middle" x="108" y="-15.5" font-family="Sans" font-size="10.00" fill="#ffffff">PiTraffic</text>
</g>
<!-- PiTraffic&#45;&gt;TrafficLights -->
<g id="edge9" class="edge"><title>PiTraffic&#45;&gt;TrafficLights</title>
<path fill="none" stroke="black" d="M108,-36.3034C108,-44.0173 108,-53.2875 108,-61.8876"/>
<polygon fill="black" stroke="black" points="104.5,-61.8956 108,-71.8957 111.5,-61.8957 104.5,-61.8956"/>
</g>
<!-- TrafficLightsBuzzer -->
<g id="node11" class="node"><title>TrafficLightsBuzzer</title>
<polygon fill="#2980b9" stroke="#2980b9" points="360.5,-252 255.5,-252 255.5,-216 360.5,-216 360.5,-252"/>
<text text-anchor="middle" x="308" y="-231.5" font-family="Sans" font-size="10.00" fill="#ffffff">TrafficLightsBuzzer</text>
</g>
<!-- TrafficLightsBuzzer&#45;&gt;CompositeOutputDevice -->
<g id="edge10" class="edge"><title>TrafficLightsBuzzer&#45;&gt;CompositeOutputDevice</title>
<path fill="none" stroke="black" d="M308,-252.303C308,-260.017 308,-269.288 308,-277.888"/>
<polygon fill="black" stroke="black" points="304.5,-277.896 308,-287.896 311.5,-277.896 304.5,-277.896"/>
</g>
<!-- FishDish -->
<g id="node12" class="node"><title>FishDish</title>
<polygon fill="#2980b9" stroke="#2980b9" points="324,-180 268,-180 268,-144 324,-144 324,-180"/>
<text text-anchor="middle" x="296" y="-159.5" font-family="Sans" font-size="10.00" fill="#ffffff">FishDish</text>
</g>
<!-- FishDish&#45;&gt;TrafficLightsBuzzer -->
<g id="edge11" class="edge"><title>FishDish&#45;&gt;TrafficLightsBuzzer</title>
<path fill="none" stroke="black" d="M298.966,-180.303C300.289,-188.017 301.878,-197.288 303.352,-205.888"/>
<polygon fill="black" stroke="black" points="299.928,-206.631 305.068,-215.896 306.828,-205.448 299.928,-206.631"/>
</g>
<!-- TrafficHat -->
<g id="node13" class="node"><title>TrafficHat</title>
<polygon fill="#2980b9" stroke="#2980b9" points="403.5,-180 342.5,-180 342.5,-144 403.5,-144 403.5,-180"/>
<text text-anchor="middle" x="373" y="-159.5" font-family="Sans" font-size="10.00" fill="#ffffff">TrafficHat</text>
</g>
<!-- TrafficHat&#45;&gt;TrafficLightsBuzzer -->
<g id="edge12" class="edge"><title>TrafficHat&#45;&gt;TrafficLightsBuzzer</title>
<path fill="none" stroke="black" d="M356.933,-180.303C349.061,-188.78 339.445,-199.136 330.827,-208.417"/>
<polygon fill="black" stroke="black" points="328.122,-206.186 323.883,-215.896 333.252,-210.949 328.122,-206.186"/>
</g>
<!-- Robot -->
<g id="node14" class="node"><title>Robot</title>
<polygon fill="#2980b9" stroke="#2980b9" points="449,-324 395,-324 395,-288 449,-288 449,-324"/>
<text text-anchor="middle" x="422" y="-303.5" font-family="Sans" font-size="10.00" fill="#ffffff">Robot</text>
</g>
<!-- Robot&#45;&gt;CompositeDevice -->
<g id="edge13" class="edge"><title>Robot&#45;&gt;CompositeDevice</title>
<path fill="none" stroke="black" d="M422,-324.303C422,-332.017 422,-341.288 422,-349.888"/>
<polygon fill="black" stroke="black" points="418.5,-349.896 422,-359.896 425.5,-349.896 418.5,-349.896"/>
</g>
<!-- RyanteckRobot -->
<g id="node15" class="node"><title>RyanteckRobot</title>
<polygon fill="#2980b9" stroke="#2980b9" points="465,-252 379,-252 379,-216 465,-216 465,-252"/>
<text text-anchor="middle" x="422" y="-231.5" font-family="Sans" font-size="10.00" fill="#ffffff">RyanteckRobot</text>
</g>
<!-- RyanteckRobot&#45;&gt;Robot -->
<g id="edge14" class="edge"><title>RyanteckRobot&#45;&gt;Robot</title>
<path fill="none" stroke="black" d="M422,-252.303C422,-260.017 422,-269.288 422,-277.888"/>
<polygon fill="black" stroke="black" points="418.5,-277.896 422,-287.896 425.5,-277.896 418.5,-277.896"/>
</g>
<!-- CamJamKitRobot -->
<g id="node16" class="node"><title>CamJamKitRobot</title>
<polygon fill="#2980b9" stroke="#2980b9" points="579,-252 483,-252 483,-216 579,-216 579,-252"/>
<text text-anchor="middle" x="531" y="-231.5" font-family="Sans" font-size="10.00" fill="#ffffff">CamJamKitRobot</text>
</g>
<!-- CamJamKitRobot&#45;&gt;Robot -->
<g id="edge15" class="edge"><title>CamJamKitRobot&#45;&gt;Robot</title>
<path fill="none" stroke="black" d="M504.336,-252.124C490.216,-261.192 472.689,-272.448 457.439,-282.241"/>
<polygon fill="black" stroke="black" points="455.29,-279.462 448.767,-287.81 459.073,-285.352 455.29,-279.462"/>
</g>
<!-- Motor -->
<g id="node17" class="node"><title>Motor</title>
<polygon fill="#2980b9" stroke="#2980b9" points="521,-324 467,-324 467,-288 521,-288 521,-324"/>
<text text-anchor="middle" x="494" y="-303.5" font-family="Sans" font-size="10.00" fill="#ffffff">Motor</text>
</g>
<!-- Motor&#45;&gt;CompositeDevice -->
<g id="edge16" class="edge"><title>Motor&#45;&gt;CompositeDevice</title>
<path fill="none" stroke="black" d="M476.202,-324.303C467.396,-332.865 456.618,-343.344 446.999,-352.696"/>
<polygon fill="black" stroke="black" points="444.323,-350.415 439.593,-359.896 449.203,-355.434 444.323,-350.415"/>
</g>
</g>
</svg>
