<?xml version="1.0" encoding="UTF-8" standalone="no"?>
<!DOCTYPE svg PUBLIC "-//W3C//DTD SVG 1.1//EN"
 "http://www.w3.org/Graphics/SVG/1.1/DTD/svg11.dtd">
<!-- Generated by graphviz version 2.43.0 (0)
 -->
<!-- Title: classes Pages: 1 -->
<svg width="894pt" height="746pt"
 viewBox="0.00 0.00 894.00 746.00" xmlns="http://www.w3.org/2000/svg" xmlns:xlink="http://www.w3.org/1999/xlink">
<g id="graph0" class="graph" transform="scale(1 1) rotate(0) translate(4 742)">
<title>classes</title>
<polygon fill="white" stroke="transparent" points="-4,4 -4,-742 890,-742 890,4 -4,4"/>
<!-- EventsMixin -->
<g id="node1" class="node">
<title>EventsMixin</title>
<polygon fill="#c69ee0" stroke="#c69ee0" points="180,-578 103,-578 103,-542 180,-542 180,-578"/>
<text text-anchor="middle" x="141.5" y="-557.5" font-family="Sans" font-size="10.00" fill="#000000">EventsMixin</text>
</g>
<!-- HoldMixin -->
<g id="node2" class="node">
<title>HoldMixin</title>
<polygon fill="#c69ee0" stroke="#c69ee0" points="330,-617 264,-617 264,-581 330,-581 330,-617"/>
<text text-anchor="middle" x="297" y="-596.5" font-family="Sans" font-size="10.00" fill="#000000">HoldMixin</text>
</g>
<!-- HoldMixin&#45;&gt;EventsMixin -->
<g id="edge8" class="edge">
<title>HoldMixin&#45;&gt;EventsMixin</title>
<path fill="none" stroke="black" d="M263.82,-590.82C242.44,-585.39 213.99,-578.16 190.01,-572.07"/>
<polygon fill="black" stroke="black" points="190.6,-568.61 180.05,-569.54 188.88,-575.39 190.6,-568.61"/>
</g>
<!-- CompositeDevice -->
<g id="node3" class="node">
<title>CompositeDevice</title>
<polygon fill="#9ec6e0" stroke="#9ec6e0" points="193,-387 90,-387 90,-351 193,-351 193,-387"/>
<text text-anchor="middle" x="141.5" y="-366.5" font-family="Sans" font-size="10.00" fill="#000000">CompositeDevice</text>
</g>
<!-- Device -->
<g id="node5" class="node">
<title>Device</title>
<polygon fill="#9ec6e0" stroke="#9ec6e0" points="54,-360 0,-360 0,-324 54,-324 54,-360"/>
<text text-anchor="middle" x="27" y="-339.5" font-family="Sans" font-size="10.00" fill="#000000">Device</text>
</g>
<!-- CompositeDevice&#45;&gt;Device -->
<g id="edge4" class="edge">
<title>CompositeDevice&#45;&gt;Device</title>
<path fill="none" stroke="black" d="M89.84,-356.84C81.15,-354.76 72.28,-352.63 64.07,-350.66"/>
<polygon fill="black" stroke="black" points="64.62,-347.19 54.08,-348.26 62.99,-354 64.62,-347.19"/>
</g>
<!-- CompositeOutputDevice -->
<g id="node4" class="node">
<title>CompositeOutputDevice</title>
<polygon fill="#9ec6e0" stroke="#9ec6e0" points="365,-387 229,-387 229,-351 365,-351 365,-387"/>
<text text-anchor="middle" x="297" y="-366.5" font-family="Sans" font-size="10.00" fill="#000000">CompositeOutputDevice</text>
</g>
<!-- CompositeOutputDevice&#45;&gt;CompositeDevice -->
<g id="edge5" class="edge">
<title>CompositeOutputDevice&#45;&gt;CompositeDevice</title>
<path fill="none" stroke="black" d="M228.67,-369C220.2,-369 211.57,-369 203.2,-369"/>
<polygon fill="black" stroke="black" points="203.16,-365.5 193.16,-369 203.16,-372.5 203.16,-365.5"/>
</g>
<!-- LEDCollection -->
<g id="node6" class="node">
<title>LEDCollection</title>
<polygon fill="#9ec6e0" stroke="#9ec6e0" points="503,-576 419,-576 419,-540 503,-540 503,-576"/>
<text text-anchor="middle" x="461" y="-555.5" font-family="Sans" font-size="10.00" fill="#000000">LEDCollection</text>
</g>
<!-- LEDCollection&#45;&gt;CompositeOutputDevice -->
<g id="edge13" class="edge">
<title>LEDCollection&#45;&gt;CompositeOutputDevice</title>
<path fill="none" stroke="black" d="M418.75,-543.89C412.27,-540.39 406.06,-536.14 401,-531 373.07,-502.64 385.99,-482.82 365,-449 352.88,-429.47 336.31,-409.65 322.69,-394.62"/>
<polygon fill="black" stroke="black" points="325.22,-392.2 315.87,-387.22 320.08,-396.95 325.22,-392.2"/>
</g>
<!-- ButtonBoard -->
<g id="node7" class="node">
<title>ButtonBoard</title>
<polygon fill="#2980b9" stroke="#2980b9" points="499.5,-630 422.5,-630 422.5,-594 499.5,-594 499.5,-630"/>
<text text-anchor="middle" x="461" y="-609.5" font-family="Sans" font-size="10.00" fill="#ffffff">ButtonBoard</text>
</g>
<!-- ButtonBoard&#45;&gt;HoldMixin -->
<g id="edge2" class="edge">
<title>ButtonBoard&#45;&gt;HoldMixin</title>
<path fill="none" stroke="black" d="M422.43,-608.98C397.86,-607.01 365.74,-604.44 340.28,-602.39"/>
<polygon fill="black" stroke="black" points="340.42,-598.89 330.18,-601.58 339.86,-605.87 340.42,-598.89"/>
</g>
<!-- ButtonBoard&#45;&gt;CompositeDevice -->
<g id="edge1" class="edge">
<title>ButtonBoard&#45;&gt;CompositeDevice</title>
<path fill="none" stroke="black" d="M422.48,-599.71C414.71,-595.9 407.05,-591.06 401,-585 373.74,-557.69 390.54,-534.93 365,-506 318.32,-453.12 246.27,-413.94 196.88,-391.32"/>
<polygon fill="black" stroke="black" points="198.19,-388.07 187.63,-387.16 195.31,-394.45 198.19,-388.07"/>
</g>
<!-- CamJamKitRobot -->
<g id="node8" class="node">
<title>CamJamKitRobot</title>
<polygon fill="#2980b9" stroke="#2980b9" points="511,-144 411,-144 411,-108 511,-108 511,-144"/>
<text text-anchor="middle" x="461" y="-123.5" font-family="Sans" font-size="10.00" fill="#ffffff">CamJamKitRobot</text>
</g>
<!-- Robot -->
<g id="node24" class="node">
<title>Robot</title>
<polygon fill="#2980b9" stroke="#2980b9" points="324,-144 270,-144 270,-108 324,-108 324,-144"/>
<text text-anchor="middle" x="297" y="-123.5" font-family="Sans" font-size="10.00" fill="#ffffff">Robot</text>
</g>
<!-- CamJamKitRobot&#45;&gt;Robot -->
<g id="edge3" class="edge">
<title>CamJamKitRobot&#45;&gt;Robot</title>
<path fill="none" stroke="black" d="M410.96,-126C386.35,-126 357.07,-126 334.48,-126"/>
<polygon fill="black" stroke="black" points="334.3,-122.5 324.3,-126 334.3,-129.5 334.3,-122.5"/>
</g>
<!-- Energenie -->
<g id="node9" class="node">
<title>Energenie</title>
<polygon fill="#2980b9" stroke="#2980b9" points="174,-333 109,-333 109,-297 174,-297 174,-333"/>
<text text-anchor="middle" x="141.5" y="-312.5" font-family="Sans" font-size="10.00" fill="#ffffff">Energenie</text>
</g>
<!-- Energenie&#45;&gt;Device -->
<g id="edge6" class="edge">
<title>Energenie&#45;&gt;Device</title>
<path fill="none" stroke="black" d="M108.86,-322.59C94.95,-325.93 78.54,-329.87 64.15,-333.32"/>
<polygon fill="black" stroke="black" points="63,-330 54.09,-335.74 64.63,-336.81 63,-330"/>
</g>
<!-- FishDish -->
<g id="node10" class="node">
<title>FishDish</title>
<polygon fill="#2980b9" stroke="#2980b9" points="490,-522 432,-522 432,-486 490,-486 490,-522"/>
<text text-anchor="middle" x="461" y="-501.5" font-family="Sans" font-size="10.00" fill="#ffffff">FishDish</text>
</g>
<!-- FishDish&#45;&gt;CompositeOutputDevice -->
<g id="edge7" class="edge">
<title>FishDish&#45;&gt;CompositeOutputDevice</title>
<path fill="none" stroke="black" d="M431.79,-493.68C421.62,-489.31 410.36,-483.67 401,-477 368.16,-453.6 337.18,-418.73 317.93,-394.99"/>
<polygon fill="black" stroke="black" points="320.61,-392.72 311.63,-387.09 315.13,-397.09 320.61,-392.72"/>
</g>
<!-- JamHat -->
<g id="node11" class="node">
<title>JamHat</title>
<polygon fill="#2980b9" stroke="#2980b9" points="488,-468 434,-468 434,-432 488,-432 488,-468"/>
<text text-anchor="middle" x="461" y="-447.5" font-family="Sans" font-size="10.00" fill="#ffffff">JamHat</text>
</g>
<!-- JamHat&#45;&gt;CompositeOutputDevice -->
<g id="edge9" class="edge">
<title>JamHat&#45;&gt;CompositeOutputDevice</title>
<path fill="none" stroke="black" d="M433.72,-438.34C423.45,-433.69 411.62,-428.21 401,-423 381,-413.19 359.1,-401.8 340.66,-392.02"/>
<polygon fill="black" stroke="black" points="342.1,-388.82 331.63,-387.21 338.81,-395 342.1,-388.82"/>
</g>
<!-- LEDBarGraph -->
<g id="node12" class="node">
<title>LEDBarGraph</title>
<polygon fill="#2980b9" stroke="#2980b9" points="645,-684 564,-684 564,-648 645,-648 645,-684"/>
<text text-anchor="middle" x="604.5" y="-663.5" font-family="Sans" font-size="10.00" fill="#ffffff">LEDBarGraph</text>
</g>
<!-- LEDBarGraph&#45;&gt;LEDCollection -->
<g id="edge10" class="edge">
<title>LEDBarGraph&#45;&gt;LEDCollection</title>
<path fill="none" stroke="black" d="M588.27,-647.72C572.75,-629.96 547.29,-603.09 521,-585 518.13,-583.02 515.09,-581.13 511.97,-579.33"/>
<polygon fill="black" stroke="black" points="513.47,-576.17 503,-574.51 510.15,-582.33 513.47,-576.17"/>
</g>
<!-- LEDBoard -->
<g id="node13" class="node">
<title>LEDBoard</title>
<polygon fill="#2980b9" stroke="#2980b9" points="636.5,-576 572.5,-576 572.5,-540 636.5,-540 636.5,-576"/>
<text text-anchor="middle" x="604.5" y="-555.5" font-family="Sans" font-size="10.00" fill="#ffffff">LEDBoard</text>
</g>
<!-- LEDBoard&#45;&gt;LEDCollection -->
<g id="edge11" class="edge">
<title>LEDBoard&#45;&gt;LEDCollection</title>
<path fill="none" stroke="black" d="M572.45,-558C555.13,-558 533.12,-558 513.31,-558"/>
<polygon fill="black" stroke="black" points="513.19,-554.5 503.19,-558 513.19,-561.5 513.19,-554.5"/>
</g>
<!-- LEDCharDisplay -->
<g id="node14" class="node">
<title>LEDCharDisplay</title>
<polygon fill="#2980b9" stroke="#2980b9" points="652,-522 557,-522 557,-486 652,-486 652,-522"/>
<text text-anchor="middle" x="604.5" y="-501.5" font-family="Sans" font-size="10.00" fill="#ffffff">LEDCharDisplay</text>
</g>
<!-- LEDCharDisplay&#45;&gt;LEDCollection -->
<g id="edge12" class="edge">
<title>LEDCharDisplay&#45;&gt;LEDCollection</title>
<path fill="none" stroke="black" d="M556.78,-521.83C542.78,-527.17 527.36,-533.06 513.1,-538.5"/>
<polygon fill="black" stroke="black" points="511.53,-535.35 503.44,-542.19 514.03,-541.89 511.53,-535.35"/>
</g>
<!-- LEDMultiCharDisplay -->
<g id="node15" class="node">
<title>LEDMultiCharDisplay</title>
<polygon fill="#2980b9" stroke="#2980b9" points="520.5,-414 401.5,-414 401.5,-378 520.5,-378 520.5,-414"/>
<text text-anchor="middle" x="461" y="-393.5" font-family="Sans" font-size="10.00" fill="#ffffff">LEDMultiCharDisplay</text>
</g>
<!-- LEDMultiCharDisplay&#45;&gt;CompositeOutputDevice -->
<g id="edge14" class="edge">
<title>LEDMultiCharDisplay&#45;&gt;CompositeOutputDevice</title>
<path fill="none" stroke="black" d="M401.06,-386.18C392.67,-384.78 383.94,-383.32 375.27,-381.88"/>
<polygon fill="black" stroke="black" points="375.57,-378.38 365.14,-380.19 374.42,-385.29 375.57,-378.38"/>
</g>
<!-- PiHutXmasTree -->
<g id="node16" class="node">
<title>PiHutXmasTree</title>
<polygon fill="#2980b9" stroke="#2980b9" points="780,-684 689,-684 689,-648 780,-648 780,-684"/>
<text text-anchor="middle" x="734.5" y="-663.5" font-family="Sans" font-size="10.00" fill="#ffffff">PiHutXmasTree</text>
</g>
<!-- PiHutXmasTree&#45;&gt;LEDBoard -->
<g id="edge15" class="edge">
<title>PiHutXmasTree&#45;&gt;LEDBoard</title>
<path fill="none" stroke="black" d="M700.56,-647.75C696.23,-644.98 691.93,-642.03 688,-639 666.2,-622.23 644.11,-600.21 628.27,-583.36"/>
<polygon fill="black" stroke="black" points="630.83,-580.97 621.46,-576.02 625.7,-585.73 630.83,-580.97"/>
</g>
<!-- PiLiter -->
<g id="node17" class="node">
<title>PiLiter</title>
<polygon fill="#2980b9" stroke="#2980b9" points="761.5,-630 707.5,-630 707.5,-594 761.5,-594 761.5,-630"/>
<text text-anchor="middle" x="734.5" y="-609.5" font-family="Sans" font-size="10.00" fill="#ffffff">PiLiter</text>
</g>
<!-- PiLiter&#45;&gt;LEDBoard -->
<g id="edge16" class="edge">
<title>PiLiter&#45;&gt;LEDBoard</title>
<path fill="none" stroke="black" d="M707.29,-600.94C689.61,-593.48 665.94,-583.5 645.87,-575.03"/>
<polygon fill="black" stroke="black" points="647.22,-571.8 636.64,-571.14 644.5,-578.25 647.22,-571.8"/>
</g>
<!-- PiLiterBarGraph -->
<g id="node18" class="node">
<title>PiLiterBarGraph</title>
<polygon fill="#2980b9" stroke="#2980b9" points="781,-738 688,-738 688,-702 781,-702 781,-738"/>
<text text-anchor="middle" x="734.5" y="-717.5" font-family="Sans" font-size="10.00" fill="#ffffff">PiLiterBarGraph</text>
</g>
<!-- PiLiterBarGraph&#45;&gt;LEDBarGraph -->
<g id="edge17" class="edge">
<title>PiLiterBarGraph&#45;&gt;LEDBarGraph</title>
<path fill="none" stroke="black" d="M690.52,-701.87C678.95,-696.98 666.34,-691.67 654.46,-686.66"/>
<polygon fill="black" stroke="black" points="655.7,-683.38 645.13,-682.72 652.98,-689.83 655.7,-683.38"/>
</g>
<!-- PiStop -->
<g id="node19" class="node">
<title>PiStop</title>
<polygon fill="#2980b9" stroke="#2980b9" points="878.5,-468 824.5,-468 824.5,-432 878.5,-432 878.5,-468"/>
<text text-anchor="middle" x="851.5" y="-447.5" font-family="Sans" font-size="10.00" fill="#ffffff">PiStop</text>
</g>
<!-- TrafficLights -->
<g id="node32" class="node">
<title>TrafficLights</title>
<polygon fill="#2980b9" stroke="#2980b9" points="772,-414 697,-414 697,-378 772,-378 772,-414"/>
<text text-anchor="middle" x="734.5" y="-393.5" font-family="Sans" font-size="10.00" fill="#ffffff">TrafficLights</text>
</g>
<!-- PiStop&#45;&gt;TrafficLights -->
<g id="edge18" class="edge">
<title>PiStop&#45;&gt;TrafficLights</title>
<path fill="none" stroke="black" d="M824.4,-437.75C811.79,-431.82 796.27,-424.54 781.75,-417.72"/>
<polygon fill="black" stroke="black" points="782.93,-414.41 772.39,-413.32 779.96,-420.74 782.93,-414.41"/>
</g>
<!-- PiTraffic -->
<g id="node20" class="node">
<title>PiTraffic</title>
<polygon fill="#2980b9" stroke="#2980b9" points="879,-414 824,-414 824,-378 879,-378 879,-414"/>
<text text-anchor="middle" x="851.5" y="-393.5" font-family="Sans" font-size="10.00" fill="#ffffff">PiTraffic</text>
</g>
<!-- PiTraffic&#45;&gt;TrafficLights -->
<g id="edge19" class="edge">
<title>PiTraffic&#45;&gt;TrafficLights</title>
<path fill="none" stroke="black" d="M823.83,-396C811.44,-396 796.34,-396 782.16,-396"/>
<polygon fill="black" stroke="black" points="782.04,-392.5 772.04,-396 782.04,-399.5 782.04,-392.5"/>
</g>
<!-- Pibrella -->
<g id="node21" class="node">
<title>Pibrella</title>
<polygon fill="#2980b9" stroke="#2980b9" points="488,-360 434,-360 434,-324 488,-324 488,-360"/>
<text text-anchor="middle" x="461" y="-339.5" font-family="Sans" font-size="10.00" fill="#ffffff">Pibrella</text>
</g>
<!-- Pibrella&#45;&gt;CompositeOutputDevice -->
<g id="edge20" class="edge">
<title>Pibrella&#45;&gt;CompositeOutputDevice</title>
<path fill="none" stroke="black" d="M433.97,-346.34C417.91,-349.01 396.39,-352.6 375.22,-356.13"/>
<polygon fill="black" stroke="black" points="374.5,-352.7 365.21,-357.8 375.65,-359.61 374.5,-352.7"/>
</g>
<!-- PololuDRV8835Robot -->
<g id="node22" class="node">
<title>PololuDRV8835Robot</title>
<polygon fill="#2980b9" stroke="#2980b9" points="521,-90 401,-90 401,-54 521,-54 521,-90"/>
<text text-anchor="middle" x="461" y="-69.5" font-family="Sans" font-size="10.00" fill="#ffffff">PololuDRV8835Robot</text>
</g>
<!-- PololuDRV8835Robot&#45;&gt;Robot -->
<g id="edge21" class="edge">
<title>PololuDRV8835Robot&#45;&gt;Robot</title>
<path fill="none" stroke="black" d="M405.61,-90.13C381.96,-98.01 354.91,-107.03 333.84,-114.05"/>
<polygon fill="black" stroke="black" points="332.71,-110.74 324.33,-117.22 334.92,-117.38 332.71,-110.74"/>
</g>
<!-- PumpkinPi -->
<g id="node23" class="node">
<title>PumpkinPi</title>
<polygon fill="#2980b9" stroke="#2980b9" points="768.5,-576 700.5,-576 700.5,-540 768.5,-540 768.5,-576"/>
<text text-anchor="middle" x="734.5" y="-555.5" font-family="Sans" font-size="10.00" fill="#ffffff">PumpkinPi</text>
</g>
<!-- PumpkinPi&#45;&gt;LEDBoard -->
<g id="edge22" class="edge">
<title>PumpkinPi&#45;&gt;LEDBoard</title>
<path fill="none" stroke="black" d="M700.2,-558C684.01,-558 664.38,-558 647.2,-558"/>
<polygon fill="black" stroke="black" points="646.87,-554.5 636.87,-558 646.87,-561.5 646.87,-554.5"/>
</g>
<!-- Robot&#45;&gt;CompositeDevice -->
<g id="edge23" class="edge">
<title>Robot&#45;&gt;CompositeDevice</title>
<path fill="none" stroke="black" d="M291.53,-144.16C280.82,-184.36 250.24,-282.06 193,-342 192.11,-342.93 191.18,-343.84 190.22,-344.72"/>
<polygon fill="black" stroke="black" points="187.98,-342.03 182.32,-350.98 192.33,-347.51 187.98,-342.03"/>
</g>
<!-- RotaryEncoder -->
<g id="node25" class="node">
<title>RotaryEncoder</title>
<polygon fill="#2980b9" stroke="#2980b9" points="341,-551 253,-551 253,-515 341,-515 341,-551"/>
<text text-anchor="middle" x="297" y="-530.5" font-family="Sans" font-size="10.00" fill="#ffffff">RotaryEncoder</text>
</g>
<!-- RotaryEncoder&#45;&gt;EventsMixin -->
<g id="edge25" class="edge">
<title>RotaryEncoder&#45;&gt;EventsMixin</title>
<path fill="none" stroke="black" d="M252.83,-540.59C233.26,-544.04 210.06,-548.12 190,-551.65"/>
<polygon fill="black" stroke="black" points="189.37,-548.2 180.13,-553.38 190.58,-555.1 189.37,-548.2"/>
</g>
<!-- RotaryEncoder&#45;&gt;CompositeDevice -->
<g id="edge24" class="edge">
<title>RotaryEncoder&#45;&gt;CompositeDevice</title>
<path fill="none" stroke="black" d="M272.05,-514.9C258.8,-504.43 242.36,-490.65 229,-477 203.51,-450.98 177.87,-417.89 161.2,-395.24"/>
<polygon fill="black" stroke="black" points="163.99,-393.12 155.27,-387.11 158.33,-397.25 163.99,-393.12"/>
</g>
<!-- RyanteckRobot -->
<g id="node26" class="node">
<title>RyanteckRobot</title>
<polygon fill="#2980b9" stroke="#2980b9" points="506.5,-36 415.5,-36 415.5,0 506.5,0 506.5,-36"/>
<text text-anchor="middle" x="461" y="-15.5" font-family="Sans" font-size="10.00" fill="#ffffff">RyanteckRobot</text>
</g>
<!-- RyanteckRobot&#45;&gt;Robot -->
<g id="edge26" class="edge">
<title>RyanteckRobot&#45;&gt;Robot</title>
<path fill="none" stroke="black" d="M415.2,-35.21C410.15,-38.09 405.29,-41.35 401,-45 379.05,-63.71 387.38,-80.8 365,-99 355.91,-106.39 344.54,-111.98 333.75,-116.11"/>
<polygon fill="black" stroke="black" points="332.38,-112.88 324.1,-119.49 334.69,-119.49 332.38,-112.88"/>
</g>
<!-- SnowPi -->
<g id="node27" class="node">
<title>SnowPi</title>
<polygon fill="#2980b9" stroke="#2980b9" points="761.5,-522 707.5,-522 707.5,-486 761.5,-486 761.5,-522"/>
<text text-anchor="middle" x="734.5" y="-501.5" font-family="Sans" font-size="10.00" fill="#ffffff">SnowPi</text>
</g>
<!-- SnowPi&#45;&gt;LEDBoard -->
<g id="edge27" class="edge">
<title>SnowPi&#45;&gt;LEDBoard</title>
<path fill="none" stroke="black" d="M707.29,-515.06C689.61,-522.52 665.94,-532.5 645.87,-540.97"/>
<polygon fill="black" stroke="black" points="644.5,-537.75 636.64,-544.86 647.22,-544.2 644.5,-537.75"/>
</g>
<!-- StatusBoard -->
<g id="node28" class="node">
<title>StatusBoard</title>
<polygon fill="#2980b9" stroke="#2980b9" points="499,-306 423,-306 423,-270 499,-270 499,-306"/>
<text text-anchor="middle" x="461" y="-285.5" font-family="Sans" font-size="10.00" fill="#ffffff">StatusBoard</text>
</g>
<!-- StatusBoard&#45;&gt;CompositeOutputDevice -->
<g id="edge28" class="edge">
<title>StatusBoard&#45;&gt;CompositeOutputDevice</title>
<path fill="none" stroke="black" d="M422.72,-304.69C415.48,-308.04 407.98,-311.58 401,-315 381,-324.81 359.1,-336.2 340.66,-345.98"/>
<polygon fill="black" stroke="black" points="338.81,-343 331.63,-350.79 342.1,-349.18 338.81,-343"/>
</g>
<!-- StatusZero -->
<g id="node29" class="node">
<title>StatusZero</title>
<polygon fill="#2980b9" stroke="#2980b9" points="769.5,-468 699.5,-468 699.5,-432 769.5,-432 769.5,-468"/>
<text text-anchor="middle" x="734.5" y="-447.5" font-family="Sans" font-size="10.00" fill="#ffffff">StatusZero</text>
</g>
<!-- StatusZero&#45;&gt;LEDBoard -->
<g id="edge29" class="edge">
<title>StatusZero&#45;&gt;LEDBoard</title>
<path fill="none" stroke="black" d="M699.47,-467.85C695.4,-470.65 691.46,-473.71 688,-477 667.08,-496.85 673.02,-511.25 652,-531 649.9,-532.98 647.62,-534.87 645.25,-536.67"/>
<polygon fill="black" stroke="black" points="643.15,-533.87 636.9,-542.43 647.12,-539.63 643.15,-533.87"/>
</g>
<!-- TonalBuzzer -->
<g id="node30" class="node">
<title>TonalBuzzer</title>
<polygon fill="#2980b9" stroke="#2980b9" points="334.5,-90 259.5,-90 259.5,-54 334.5,-54 334.5,-90"/>
<text text-anchor="middle" x="297" y="-69.5" font-family="Sans" font-size="10.00" fill="#ffffff">TonalBuzzer</text>
</g>
<!-- TonalBuzzer&#45;&gt;CompositeDevice -->
<g id="edge30" class="edge">
<title>TonalBuzzer&#45;&gt;CompositeDevice</title>
<path fill="none" stroke="black" d="M259.28,-79.25C247.97,-83.26 236.53,-89.45 229,-99 161.42,-184.75 255.85,-252.73 193,-342 192.64,-342.51 192.27,-343.01 191.89,-343.5"/>
<polygon fill="black" stroke="black" points="189.31,-341.13 184.8,-350.72 194.3,-346.04 189.31,-341.13"/>
</g>
<!-- TrafficHat -->
<g id="node31" class="node">
<title>TrafficHat</title>
<polygon fill="#2980b9" stroke="#2980b9" points="492.5,-252 429.5,-252 429.5,-216 492.5,-216 492.5,-252"/>
<text text-anchor="middle" x="461" y="-231.5" font-family="Sans" font-size="10.00" fill="#ffffff">TrafficHat</text>
</g>
<!-- TrafficHat&#45;&gt;CompositeOutputDevice -->
<g id="edge31" class="edge">
<title>TrafficHat&#45;&gt;CompositeOutputDevice</title>
<path fill="none" stroke="black" d="M429.38,-245.37C419.87,-249.58 409.62,-254.86 401,-261 368.16,-284.4 337.18,-319.27 317.93,-343.01"/>
<polygon fill="black" stroke="black" points="315.13,-340.91 311.63,-350.91 320.61,-345.28 315.13,-340.91"/>
</g>
<!-- TrafficLights&#45;&gt;LEDBoard -->
<g id="edge32" class="edge">
<title>TrafficLights&#45;&gt;LEDBoard</title>
<path fill="none" stroke="black" d="M697.23,-414.06C693.82,-416.73 690.65,-419.71 688,-423 656.24,-462.39 683.94,-491.76 652,-531 649.94,-533.53 647.57,-535.88 645.02,-538.04"/>
<polygon fill="black" stroke="black" points="642.92,-535.24 636.94,-543.98 647.07,-540.88 642.92,-535.24"/>
</g>
<!-- TrafficLightsBuzzer -->
<g id="node33" class="node">
<title>TrafficLightsBuzzer</title>
<polygon fill="#2980b9" stroke="#2980b9" points="515,-198 407,-198 407,-162 515,-162 515,-198"/>
<text text-anchor="middle" x="461" y="-177.5" font-family="Sans" font-size="10.00" fill="#ffffff">TrafficLightsBuzzer</text>
</g>
<!-- TrafficLightsBuzzer&#45;&gt;CompositeOutputDevice -->
<g id="edge33" class="edge">
<title>TrafficLightsBuzzer&#45;&gt;CompositeOutputDevice</title>
<path fill="none" stroke="black" d="M413.62,-198C409.12,-200.68 404.82,-203.67 401,-207 357.25,-245.13 325.36,-306.34 309.44,-341.59"/>
<polygon fill="black" stroke="black" points="306.21,-340.24 305.38,-350.8 312.62,-343.07 306.21,-340.24"/>
</g>
<!-- TrafficpHat -->
<g id="node34" class="node">
<title>TrafficpHat</title>
<polygon fill="#2980b9" stroke="#2980b9" points="886,-360 817,-360 817,-324 886,-324 886,-360"/>
<text text-anchor="middle" x="851.5" y="-339.5" font-family="Sans" font-size="10.00" fill="#ffffff">TrafficpHat</text>
</g>
<!-- TrafficpHat&#45;&gt;TrafficLights -->
<g id="edge34" class="edge">
<title>TrafficpHat&#45;&gt;TrafficLights</title>
<path fill="none" stroke="black" d="M816.93,-357.76C805.84,-362.97 793.3,-368.86 781.45,-374.42"/>
<polygon fill="black" stroke="black" points="779.7,-371.38 772.13,-378.8 782.67,-377.72 779.7,-371.38"/>
</g>
</g>
</svg>
