<?xml version="1.0" encoding="UTF-8" standalone="no"?>
<!DOCTYPE svg PUBLIC "-//W3C//DTD SVG 1.1//EN"
 "http://www.w3.org/Graphics/SVG/1.1/DTD/svg11.dtd">
<!-- Generated by graphviz version 2.38.0 (20140413.2041)
 -->
<!-- Title: classes Pages: 1 -->
<svg width="856pt" height="719pt"
 viewBox="0.00 0.00 856.00 719.00" xmlns="http://www.w3.org/2000/svg" xmlns:xlink="http://www.w3.org/1999/xlink">
<g id="graph0" class="graph" transform="scale(1 1) rotate(0) translate(4 715)">
<title>classes</title>
<polygon fill="white" stroke="none" points="-4,4 -4,-715 852,-715 852,4 -4,4"/>
<!-- Device -->
<g id="node1" class="node"><title>Device</title>
<polygon fill="#9ec6e0" stroke="#9ec6e0" points="54,-117 0,-117 0,-81 54,-81 54,-117"/>
<text text-anchor="middle" x="27" y="-96.5" font-family="Sans" font-size="10.00" fill="#000000">Device</text>
</g>
<!-- CompositeOutputDevice -->
<g id="node2" class="node"><title>CompositeOutputDevice</title>
<polygon fill="#9ec6e0" stroke="#9ec6e0" points="361,-333 227,-333 227,-297 361,-297 361,-333"/>
<text text-anchor="middle" x="294" y="-312.5" font-family="Sans" font-size="10.00" fill="#000000">CompositeOutputDevice</text>
</g>
<!-- CompositeDevice -->
<g id="node3" class="node"><title>CompositeDevice</title>
<polygon fill="#9ec6e0" stroke="#9ec6e0" points="191,-144 90,-144 90,-108 191,-108 191,-144"/>
<text text-anchor="middle" x="140.5" y="-123.5" font-family="Sans" font-size="10.00" fill="#000000">CompositeDevice</text>
</g>
<!-- CompositeOutputDevice&#45;&gt;CompositeDevice -->
<g id="edge16" class="edge"><title>CompositeOutputDevice&#45;&gt;CompositeDevice</title>
<path fill="none" stroke="black" d="M278.474,-296.878C251.552,-263.292 193.814,-191.263 162.588,-152.307"/>
<polygon fill="black" stroke="black" points="164.968,-149.681 155.982,-144.067 159.506,-154.059 164.968,-149.681"/>
</g>
<!-- CompositeDevice&#45;&gt;Device -->
<g id="edge3" class="edge"><title>CompositeDevice&#45;&gt;Device</title>
<path fill="none" stroke="black" d="M89.9451,-114C81.1791,-111.877 72.2061,-109.705 63.9077,-107.695"/>
<polygon fill="black" stroke="black" points="64.7221,-104.291 54.1792,-105.339 63.0746,-111.095 64.7221,-104.291"/>
</g>
<!-- LEDCollection -->
<g id="node4" class="node"><title>LEDCollection</title>
<polygon fill="#9ec6e0" stroke="#9ec6e0" points="496,-441 414,-441 414,-405 496,-405 496,-441"/>
<text text-anchor="middle" x="455" y="-420.5" font-family="Sans" font-size="10.00" fill="#000000">LEDCollection</text>
</g>
<!-- LEDCollection&#45;&gt;CompositeOutputDevice -->
<g id="edge14" class="edge"><title>LEDCollection&#45;&gt;CompositeOutputDevice</title>
<path fill="none" stroke="black" d="M413.825,-405.399C408.064,-402.466 402.299,-399.298 397,-396 370.341,-379.406 342.59,-356.981 322.777,-339.933"/>
<polygon fill="black" stroke="black" points="324.905,-337.145 315.063,-333.222 320.311,-342.426 324.905,-337.145"/>
</g>
<!-- CamJamKitRobot -->
<g id="node5" class="node"><title>CamJamKitRobot</title>
<polygon fill="#2980b9" stroke="#2980b9" points="503,-225 407,-225 407,-189 503,-189 503,-225"/>
<text text-anchor="middle" x="455" y="-204.5" font-family="Sans" font-size="10.00" fill="#ffffff">CamJamKitRobot</text>
</g>
<!-- Robot -->
<g id="node6" class="node"><title>Robot</title>
<polygon fill="#2980b9" stroke="#2980b9" points="321,-198 267,-198 267,-162 321,-162 321,-198"/>
<text text-anchor="middle" x="294" y="-177.5" font-family="Sans" font-size="10.00" fill="#ffffff">Robot</text>
</g>
<!-- CamJamKitRobot&#45;&gt;Robot -->
<g id="edge1" class="edge"><title>CamJamKitRobot&#45;&gt;Robot</title>
<path fill="none" stroke="black" d="M406.725,-198.972C382.543,-194.866 353.573,-189.946 331.193,-186.146"/>
<polygon fill="black" stroke="black" points="331.546,-182.656 321.101,-184.432 330.374,-189.557 331.546,-182.656"/>
</g>
<!-- Robot&#45;&gt;CompositeDevice -->
<g id="edge19" class="edge"><title>Robot&#45;&gt;CompositeDevice</title>
<path fill="none" stroke="black" d="M266.956,-170.717C248.746,-164.226 223.673,-155.289 200.727,-147.111"/>
<polygon fill="black" stroke="black" points="201.644,-143.722 191.049,-143.661 199.294,-150.316 201.644,-143.722"/>
</g>
<!-- PhaseEnableRobot -->
<g id="node7" class="node"><title>PhaseEnableRobot</title>
<polygon fill="#2980b9" stroke="#2980b9" points="346.5,-144 241.5,-144 241.5,-108 346.5,-108 346.5,-144"/>
<text text-anchor="middle" x="294" y="-123.5" font-family="Sans" font-size="10.00" fill="#ffffff">PhaseEnableRobot</text>
</g>
<!-- PhaseEnableRobot&#45;&gt;CompositeDevice -->
<g id="edge2" class="edge"><title>PhaseEnableRobot&#45;&gt;CompositeDevice</title>
<path fill="none" stroke="black" d="M241.286,-126C228.502,-126 214.7,-126 201.557,-126"/>
<polygon fill="black" stroke="black" points="201.19,-122.5 191.19,-126 201.189,-129.5 201.19,-122.5"/>
</g>
<!-- Energenie -->
<g id="node8" class="node"><title>Energenie</title>
<polygon fill="#2980b9" stroke="#2980b9" points="173,-90 108,-90 108,-54 173,-54 173,-90"/>
<text text-anchor="middle" x="140.5" y="-69.5" font-family="Sans" font-size="10.00" fill="#ffffff">Energenie</text>
</g>
<!-- Energenie&#45;&gt;Device -->
<g id="edge4" class="edge"><title>Energenie&#45;&gt;Device</title>
<path fill="none" stroke="black" d="M107.847,-79.6649C94.1694,-82.9769 78.0958,-86.8692 63.9692,-90.29"/>
<polygon fill="black" stroke="black" points="62.9844,-86.9272 54.089,-92.6825 64.6319,-93.7306 62.9844,-86.9272"/>
</g>
<!-- StatusZero -->
<g id="node9" class="node"><title>StatusZero</title>
<polygon fill="#2980b9" stroke="#2980b9" points="747.5,-711 676.5,-711 676.5,-675 747.5,-675 747.5,-711"/>
<text text-anchor="middle" x="712" y="-690.5" font-family="Sans" font-size="10.00" fill="#ffffff">StatusZero</text>
</g>
<!-- LEDBoard -->
<g id="node10" class="node"><title>LEDBoard</title>
<polygon fill="#2980b9" stroke="#2980b9" points="621.5,-549 557.5,-549 557.5,-513 621.5,-513 621.5,-549"/>
<text text-anchor="middle" x="589.5" y="-528.5" font-family="Sans" font-size="10.00" fill="#ffffff">LEDBoard</text>
</g>
<!-- StatusZero&#45;&gt;LEDBoard -->
<g id="edge5" class="edge"><title>StatusZero&#45;&gt;LEDBoard</title>
<path fill="none" stroke="black" d="M676.183,-674.709C672.53,-672.05 669.045,-669.139 666,-666 635.394,-634.446 613.058,-588.045 600.931,-558.688"/>
<polygon fill="black" stroke="black" points="604.042,-557.044 597.07,-549.067 597.546,-559.651 604.042,-557.044"/>
</g>
<!-- LEDBoard&#45;&gt;LEDCollection -->
<g id="edge26" class="edge"><title>LEDBoard&#45;&gt;LEDCollection</title>
<path fill="none" stroke="black" d="M566.322,-512.923C544.348,-495.012 510.534,-467.45 486.133,-447.561"/>
<polygon fill="black" stroke="black" points="488.213,-444.741 478.25,-441.136 483.79,-450.167 488.213,-444.741"/>
</g>
<!-- FishDish -->
<g id="node11" class="node"><title>FishDish</title>
<polygon fill="#2980b9" stroke="#2980b9" points="617.5,-387 561.5,-387 561.5,-351 617.5,-351 617.5,-387"/>
<text text-anchor="middle" x="589.5" y="-366.5" font-family="Sans" font-size="10.00" fill="#ffffff">FishDish</text>
</g>
<!-- TrafficLightsBuzzer -->
<g id="node12" class="node"><title>TrafficLightsBuzzer</title>
<polygon fill="#2980b9" stroke="#2980b9" points="507.5,-387 402.5,-387 402.5,-351 507.5,-351 507.5,-387"/>
<text text-anchor="middle" x="455" y="-366.5" font-family="Sans" font-size="10.00" fill="#ffffff">TrafficLightsBuzzer</text>
</g>
<!-- FishDish&#45;&gt;TrafficLightsBuzzer -->
<g id="edge6" class="edge"><title>FishDish&#45;&gt;TrafficLightsBuzzer</title>
<path fill="none" stroke="black" d="M561.367,-369C548.818,-369 533.351,-369 518.171,-369"/>
<polygon fill="black" stroke="black" points="517.747,-365.5 507.747,-369 517.747,-372.5 517.747,-365.5"/>
</g>
<!-- TrafficLightsBuzzer&#45;&gt;CompositeOutputDevice -->
<g id="edge8" class="edge"><title>TrafficLightsBuzzer&#45;&gt;CompositeOutputDevice</title>
<path fill="none" stroke="black" d="M402.377,-351.468C388.17,-346.643 372.603,-341.356 357.838,-336.341"/>
<polygon fill="black" stroke="black" points="358.868,-332.995 348.274,-333.093 356.617,-339.623 358.868,-332.995"/>
</g>
<!-- LEDBarGraph -->
<g id="node13" class="node"><title>LEDBarGraph</title>
<polygon fill="#2980b9" stroke="#2980b9" points="630,-441 549,-441 549,-405 630,-405 630,-441"/>
<text text-anchor="middle" x="589.5" y="-420.5" font-family="Sans" font-size="10.00" fill="#ffffff">LEDBarGraph</text>
</g>
<!-- LEDBarGraph&#45;&gt;LEDCollection -->
<g id="edge7" class="edge"><title>LEDBarGraph&#45;&gt;LEDCollection</title>
<path fill="none" stroke="black" d="M548.746,-423C535.374,-423 520.277,-423 506.208,-423"/>
<polygon fill="black" stroke="black" points="506.184,-419.5 496.184,-423 506.184,-426.5 506.184,-419.5"/>
</g>
<!-- TrafficLights -->
<g id="node14" class="node"><title>TrafficLights</title>
<polygon fill="#2980b9" stroke="#2980b9" points="748,-657 676,-657 676,-621 748,-621 748,-657"/>
<text text-anchor="middle" x="712" y="-636.5" font-family="Sans" font-size="10.00" fill="#ffffff">TrafficLights</text>
</g>
<!-- TrafficLights&#45;&gt;LEDBoard -->
<g id="edge9" class="edge"><title>TrafficLights&#45;&gt;LEDBoard</title>
<path fill="none" stroke="black" d="M678.305,-620.879C674.037,-618.086 669.824,-615.095 666,-612 645.711,-595.577 625.705,-573.789 611.389,-556.946"/>
<polygon fill="black" stroke="black" points="613.943,-554.545 604.842,-549.121 608.574,-559.037 613.943,-554.545"/>
</g>
<!-- PiTraffic -->
<g id="node15" class="node"><title>PiTraffic</title>
<polygon fill="#2980b9" stroke="#2980b9" points="848,-684 794,-684 794,-648 848,-648 848,-684"/>
<text text-anchor="middle" x="821" y="-663.5" font-family="Sans" font-size="10.00" fill="#ffffff">PiTraffic</text>
</g>
<!-- PiTraffic&#45;&gt;TrafficLights -->
<g id="edge10" class="edge"><title>PiTraffic&#45;&gt;TrafficLights</title>
<path fill="none" stroke="black" d="M793.825,-659.395C783.094,-656.687 770.359,-653.474 758.209,-650.408"/>
<polygon fill="black" stroke="black" points="758.749,-646.935 748.197,-647.881 757.036,-653.722 758.749,-646.935"/>
</g>
<!-- PumpkinPi -->
<g id="node16" class="node"><title>PumpkinPi</title>
<polygon fill="#2980b9" stroke="#2980b9" points="745,-603 679,-603 679,-567 745,-567 745,-603"/>
<text text-anchor="middle" x="712" y="-582.5" font-family="Sans" font-size="10.00" fill="#ffffff">PumpkinPi</text>
</g>
<!-- PumpkinPi&#45;&gt;LEDBoard -->
<g id="edge11" class="edge"><title>PumpkinPi&#45;&gt;LEDBoard</title>
<path fill="none" stroke="black" d="M678.708,-570.529C664.044,-563.958 646.541,-556.114 631.007,-549.153"/>
<polygon fill="black" stroke="black" points="632.189,-545.847 621.632,-544.951 629.326,-552.235 632.189,-545.847"/>
</g>
<!-- TrafficHat -->
<g id="node17" class="node"><title>TrafficHat</title>
<polygon fill="#2980b9" stroke="#2980b9" points="620,-333 559,-333 559,-297 620,-297 620,-333"/>
<text text-anchor="middle" x="589.5" y="-312.5" font-family="Sans" font-size="10.00" fill="#ffffff">TrafficHat</text>
</g>
<!-- TrafficHat&#45;&gt;TrafficLightsBuzzer -->
<g id="edge12" class="edge"><title>TrafficHat&#45;&gt;TrafficLightsBuzzer</title>
<path fill="none" stroke="black" d="M558.764,-327.119C544.35,-332.993 526.581,-340.235 509.896,-347.035"/>
<polygon fill="black" stroke="black" points="508.171,-343.958 500.231,-350.974 510.813,-350.441 508.171,-343.958"/>
</g>
<!-- PiLiter -->
<g id="node18" class="node"><title>PiLiter</title>
<polygon fill="#2980b9" stroke="#2980b9" points="739,-549 685,-549 685,-513 739,-513 739,-549"/>
<text text-anchor="middle" x="712" y="-528.5" font-family="Sans" font-size="10.00" fill="#ffffff">PiLiter</text>
</g>
<!-- PiLiter&#45;&gt;LEDBoard -->
<g id="edge13" class="edge"><title>PiLiter&#45;&gt;LEDBoard</title>
<path fill="none" stroke="black" d="M684.853,-531C669.346,-531 649.345,-531 631.751,-531"/>
<polygon fill="black" stroke="black" points="631.723,-527.5 621.723,-531 631.723,-534.5 631.723,-527.5"/>
</g>
<!-- PiStop -->
<g id="node19" class="node"><title>PiStop</title>
<polygon fill="#2980b9" stroke="#2980b9" points="848,-630 794,-630 794,-594 848,-594 848,-630"/>
<text text-anchor="middle" x="821" y="-609.5" font-family="Sans" font-size="10.00" fill="#ffffff">PiStop</text>
</g>
<!-- PiStop&#45;&gt;TrafficLights -->
<g id="edge15" class="edge"><title>PiStop&#45;&gt;TrafficLights</title>
<path fill="none" stroke="black" d="M793.825,-618.605C783.094,-621.313 770.359,-624.526 758.209,-627.592"/>
<polygon fill="black" stroke="black" points="757.036,-624.278 748.197,-630.119 758.749,-631.065 757.036,-624.278"/>
</g>
<!-- JamHat -->
<g id="node20" class="node"><title>JamHat</title>
<polygon fill="#2980b9" stroke="#2980b9" points="482,-333 428,-333 428,-297 482,-297 482,-333"/>
<text text-anchor="middle" x="455" y="-312.5" font-family="Sans" font-size="10.00" fill="#ffffff">JamHat</text>
</g>
<!-- JamHat&#45;&gt;CompositeOutputDevice -->
<g id="edge17" class="edge"><title>JamHat&#45;&gt;CompositeOutputDevice</title>
<path fill="none" stroke="black" d="M427.744,-315C412.2,-315 391.631,-315 371.336,-315"/>
<polygon fill="black" stroke="black" points="371.099,-311.5 361.099,-315 371.099,-318.5 371.099,-311.5"/>
</g>
<!-- PololuDRV8835Robot -->
<g id="node21" class="node"><title>PololuDRV8835Robot</title>
<polygon fill="#2980b9" stroke="#2980b9" points="513,-117 397,-117 397,-81 513,-81 513,-117"/>
<text text-anchor="middle" x="455" y="-96.5" font-family="Sans" font-size="10.00" fill="#ffffff">PololuDRV8835Robot</text>
</g>
<!-- PololuDRV8835Robot&#45;&gt;PhaseEnableRobot -->
<g id="edge18" class="edge"><title>PololuDRV8835Robot&#45;&gt;PhaseEnableRobot</title>
<path fill="none" stroke="black" d="M396.597,-108.748C383.555,-110.962 369.65,-113.324 356.447,-115.566"/>
<polygon fill="black" stroke="black" points="355.786,-112.128 346.513,-117.253 356.958,-119.029 355.786,-112.128"/>
</g>
<!-- SnowPi -->
<g id="node22" class="node"><title>SnowPi</title>
<polygon fill="#2980b9" stroke="#2980b9" points="739,-495 685,-495 685,-459 739,-459 739,-495"/>
<text text-anchor="middle" x="712" y="-474.5" font-family="Sans" font-size="10.00" fill="#ffffff">SnowPi</text>
</g>
<!-- SnowPi&#45;&gt;LEDBoard -->
<g id="edge20" class="edge"><title>SnowPi&#45;&gt;LEDBoard</title>
<path fill="none" stroke="black" d="M684.853,-488.717C669.201,-495.731 648.971,-504.797 631.259,-512.735"/>
<polygon fill="black" stroke="black" points="629.417,-509.725 621.723,-517.008 632.28,-516.112 629.417,-509.725"/>
</g>
<!-- ButtonBoard -->
<g id="node23" class="node"><title>ButtonBoard</title>
<polygon fill="#2980b9" stroke="#2980b9" points="332.5,-90 255.5,-90 255.5,-54 332.5,-54 332.5,-90"/>
<text text-anchor="middle" x="294" y="-69.5" font-family="Sans" font-size="10.00" fill="#ffffff">ButtonBoard</text>
</g>
<!-- ButtonBoard&#45;&gt;CompositeDevice -->
<g id="edge21" class="edge"><title>ButtonBoard&#45;&gt;CompositeDevice</title>
<path fill="none" stroke="black" d="M255.161,-85.4872C238.667,-91.3662 218.942,-98.3969 200.59,-104.938"/>
<polygon fill="black" stroke="black" points="199.386,-101.651 191.142,-108.306 201.737,-108.245 199.386,-101.651"/>
</g>
<!-- RyanteckRobot -->
<g id="node24" class="node"><title>RyanteckRobot</title>
<polygon fill="#2980b9" stroke="#2980b9" points="498,-171 412,-171 412,-135 498,-135 498,-171"/>
<text text-anchor="middle" x="455" y="-150.5" font-family="Sans" font-size="10.00" fill="#ffffff">RyanteckRobot</text>
</g>
<!-- RyanteckRobot&#45;&gt;Robot -->
<g id="edge22" class="edge"><title>RyanteckRobot&#45;&gt;Robot</title>
<path fill="none" stroke="black" d="M411.808,-160.165C386.804,-164.411 355.432,-169.738 331.498,-173.802"/>
<polygon fill="black" stroke="black" points="330.679,-170.391 321.406,-175.516 331.851,-177.292 330.679,-170.391"/>
</g>
<!-- PiLiterBarGraph -->
<g id="node25" class="node"><title>PiLiterBarGraph</title>
<polygon fill="#2980b9" stroke="#2980b9" points="758,-387 666,-387 666,-351 758,-351 758,-387"/>
<text text-anchor="middle" x="712" y="-366.5" font-family="Sans" font-size="10.00" fill="#ffffff">PiLiterBarGraph</text>
</g>
<!-- PiLiterBarGraph&#45;&gt;LEDBarGraph -->
<g id="edge23" class="edge"><title>PiLiterBarGraph&#45;&gt;LEDBarGraph</title>
<path fill="none" stroke="black" d="M670.54,-387.131C660.594,-391.589 649.839,-396.408 639.537,-401.025"/>
<polygon fill="black" stroke="black" points="637.933,-397.908 630.239,-405.192 640.796,-404.296 637.933,-397.908"/>
</g>
<!-- StatusBoard -->
<g id="node26" class="node"><title>StatusBoard</title>
<polygon fill="#2980b9" stroke="#2980b9" points="493.5,-279 416.5,-279 416.5,-243 493.5,-243 493.5,-279"/>
<text text-anchor="middle" x="455" y="-258.5" font-family="Sans" font-size="10.00" fill="#ffffff">StatusBoard</text>
</g>
<!-- StatusBoard&#45;&gt;CompositeOutputDevice -->
<g id="edge24" class="edge"><title>StatusBoard&#45;&gt;CompositeOutputDevice</title>
<path fill="none" stroke="black" d="M416.319,-273.797C398.799,-279.747 377.491,-286.984 357.651,-293.722"/>
<polygon fill="black" stroke="black" points="356.395,-290.452 348.052,-296.982 358.646,-297.081 356.395,-290.452"/>
</g>
<!-- PiHutXmasTree -->
<g id="node27" class="node"><title>PiHutXmasTree</title>
<polygon fill="#2980b9" stroke="#2980b9" points="756.5,-441 667.5,-441 667.5,-405 756.5,-405 756.5,-441"/>
<text text-anchor="middle" x="712" y="-420.5" font-family="Sans" font-size="10.00" fill="#ffffff">PiHutXmasTree</text>
</g>
<!-- PiHutXmasTree&#45;&gt;LEDBoard -->
<g id="edge25" class="edge"><title>PiHutXmasTree&#45;&gt;LEDBoard</title>
<path fill="none" stroke="black" d="M678.305,-441.121C674.037,-443.914 669.824,-446.905 666,-450 645.711,-466.423 625.705,-488.211 611.389,-505.054"/>
<polygon fill="black" stroke="black" points="608.574,-502.963 604.842,-512.879 613.943,-507.455 608.574,-502.963"/>
</g>
<!-- TonalBuzzer -->
<g id="node28" class="node"><title>TonalBuzzer</title>
<polygon fill="#2980b9" stroke="#2980b9" points="331,-36 257,-36 257,-0 331,-0 331,-36"/>
<text text-anchor="middle" x="294" y="-15.5" font-family="Sans" font-size="10.00" fill="#ffffff">TonalBuzzer</text>
</g>
<!-- TonalBuzzer&#45;&gt;CompositeDevice -->
<g id="edge27" class="edge"><title>TonalBuzzer&#45;&gt;CompositeDevice</title>
<path fill="none" stroke="black" d="M256.958,-28.3016C246.581,-32.3941 235.721,-37.8675 227,-45 204.672,-63.2615 212.28,-79.5278 191,-99 189.894,-100.012 188.744,-100.999 187.557,-101.962"/>
<polygon fill="black" stroke="black" points="185.354,-99.2363 179.313,-107.94 189.463,-104.903 185.354,-99.2363"/>
</g>
</g>
</svg>
