<?xml version="1.0" encoding="UTF-8" standalone="no"?>
<!DOCTYPE svg PUBLIC "-//W3C//DTD SVG 1.1//EN"
 "http://www.w3.org/Graphics/SVG/1.1/DTD/svg11.dtd">
<!-- Generated by graphviz version 2.38.0 (20140413.2041)
 -->
<!-- Title: classes Pages: 1 -->
<svg width="856pt" height="746pt"
 viewBox="0.00 0.00 856.00 746.00" xmlns="http://www.w3.org/2000/svg" xmlns:xlink="http://www.w3.org/1999/xlink">
<g id="graph0" class="graph" transform="scale(1 1) rotate(0) translate(4 742)">
<title>classes</title>
<polygon fill="white" stroke="none" points="-4,4 -4,-742 852,-742 852,4 -4,4"/>
<!-- Device -->
<g id="node1" class="node"><title>Device</title>
<polygon fill="#9ec6e0" stroke="#9ec6e0" points="54,-198 0,-198 0,-162 54,-162 54,-198"/>
<text text-anchor="middle" x="27" y="-177.5" font-family="Sans" font-size="10.00" fill="#000000">Device</text>
</g>
<!-- LEDCollection -->
<g id="node2" class="node"><title>LEDCollection</title>
<polygon fill="#9ec6e0" stroke="#9ec6e0" points="496,-576 414,-576 414,-540 496,-540 496,-576"/>
<text text-anchor="middle" x="455" y="-555.5" font-family="Sans" font-size="10.00" fill="#000000">LEDCollection</text>
</g>
<!-- CompositeOutputDevice -->
<g id="node3" class="node"><title>CompositeOutputDevice</title>
<polygon fill="#9ec6e0" stroke="#9ec6e0" points="361,-468 227,-468 227,-432 361,-432 361,-468"/>
<text text-anchor="middle" x="294" y="-447.5" font-family="Sans" font-size="10.00" fill="#000000">CompositeOutputDevice</text>
</g>
<!-- LEDCollection&#45;&gt;CompositeOutputDevice -->
<g id="edge7" class="edge"><title>LEDCollection&#45;&gt;CompositeOutputDevice</title>
<path fill="none" stroke="black" d="M413.825,-540.399C408.064,-537.466 402.299,-534.298 397,-531 370.341,-514.406 342.59,-491.981 322.777,-474.933"/>
<polygon fill="black" stroke="black" points="324.905,-472.145 315.063,-468.222 320.311,-477.426 324.905,-472.145"/>
</g>
<!-- CompositeDevice -->
<g id="node4" class="node"><title>CompositeDevice</title>
<polygon fill="#9ec6e0" stroke="#9ec6e0" points="191,-225 90,-225 90,-189 191,-189 191,-225"/>
<text text-anchor="middle" x="140.5" y="-204.5" font-family="Sans" font-size="10.00" fill="#000000">CompositeDevice</text>
</g>
<!-- CompositeOutputDevice&#45;&gt;CompositeDevice -->
<g id="edge21" class="edge"><title>CompositeOutputDevice&#45;&gt;CompositeDevice</title>
<path fill="none" stroke="black" d="M276.428,-431.826C262.364,-415.918 242.118,-391.841 227,-369 197.255,-324.058 169.423,-267.625 154.007,-234.61"/>
<polygon fill="black" stroke="black" points="157.008,-232.761 149.632,-225.154 150.654,-235.7 157.008,-232.761"/>
</g>
<!-- CompositeDevice&#45;&gt;Device -->
<g id="edge31" class="edge"><title>CompositeDevice&#45;&gt;Device</title>
<path fill="none" stroke="black" d="M89.9451,-195C81.1791,-192.877 72.2061,-190.705 63.9077,-188.695"/>
<polygon fill="black" stroke="black" points="64.7221,-185.291 54.1792,-186.339 63.0746,-192.095 64.7221,-185.291"/>
</g>
<!-- PololuDRV8835Robot -->
<g id="node5" class="node"><title>PololuDRV8835Robot</title>
<polygon fill="#2980b9" stroke="#2980b9" points="513,-360 397,-360 397,-324 513,-324 513,-360"/>
<text text-anchor="middle" x="455" y="-339.5" font-family="Sans" font-size="10.00" fill="#ffffff">PololuDRV8835Robot</text>
</g>
<!-- PhaseEnableRobot -->
<g id="node6" class="node"><title>PhaseEnableRobot</title>
<polygon fill="#2980b9" stroke="#2980b9" points="346.5,-360 241.5,-360 241.5,-324 346.5,-324 346.5,-360"/>
<text text-anchor="middle" x="294" y="-339.5" font-family="Sans" font-size="10.00" fill="#ffffff">PhaseEnableRobot</text>
</g>
<!-- PololuDRV8835Robot&#45;&gt;PhaseEnableRobot -->
<g id="edge1" class="edge"><title>PololuDRV8835Robot&#45;&gt;PhaseEnableRobot</title>
<path fill="none" stroke="black" d="M396.597,-342C383.683,-342 369.923,-342 356.835,-342"/>
<polygon fill="black" stroke="black" points="356.513,-338.5 346.513,-342 356.513,-345.5 356.513,-338.5"/>
</g>
<!-- PhaseEnableRobot&#45;&gt;CompositeDevice -->
<g id="edge8" class="edge"><title>PhaseEnableRobot&#45;&gt;CompositeDevice</title>
<path fill="none" stroke="black" d="M241.476,-324.033C236.379,-321.353 231.453,-318.348 227,-315 197.34,-292.698 172.222,-257.751 157.038,-233.683"/>
<polygon fill="black" stroke="black" points="159.94,-231.72 151.716,-225.041 153.979,-235.391 159.94,-231.72"/>
</g>
<!-- LEDBarGraph -->
<g id="node7" class="node"><title>LEDBarGraph</title>
<polygon fill="#2980b9" stroke="#2980b9" points="630,-684 549,-684 549,-648 630,-648 630,-684"/>
<text text-anchor="middle" x="589.5" y="-663.5" font-family="Sans" font-size="10.00" fill="#ffffff">LEDBarGraph</text>
</g>
<!-- LEDBarGraph&#45;&gt;LEDCollection -->
<g id="edge2" class="edge"><title>LEDBarGraph&#45;&gt;LEDCollection</title>
<path fill="none" stroke="black" d="M566.322,-647.923C544.348,-630.012 510.534,-602.45 486.133,-582.561"/>
<polygon fill="black" stroke="black" points="488.213,-579.741 478.25,-576.136 483.79,-585.167 488.213,-579.741"/>
</g>
<!-- LEDBoard -->
<g id="node8" class="node"><title>LEDBoard</title>
<polygon fill="#2980b9" stroke="#2980b9" points="621.5,-576 557.5,-576 557.5,-540 621.5,-540 621.5,-576"/>
<text text-anchor="middle" x="589.5" y="-555.5" font-family="Sans" font-size="10.00" fill="#ffffff">LEDBoard</text>
</g>
<!-- LEDBoard&#45;&gt;LEDCollection -->
<g id="edge3" class="edge"><title>LEDBoard&#45;&gt;LEDCollection</title>
<path fill="none" stroke="black" d="M557.435,-558C542.359,-558 523.859,-558 506.805,-558"/>
<polygon fill="black" stroke="black" points="506.417,-554.5 496.417,-558 506.417,-561.5 506.417,-554.5"/>
</g>
<!-- TrafficHat -->
<g id="node9" class="node"><title>TrafficHat</title>
<polygon fill="#2980b9" stroke="#2980b9" points="620,-522 559,-522 559,-486 620,-486 620,-522"/>
<text text-anchor="middle" x="589.5" y="-501.5" font-family="Sans" font-size="10.00" fill="#ffffff">TrafficHat</text>
</g>
<!-- TrafficLightsBuzzer -->
<g id="node10" class="node"><title>TrafficLightsBuzzer</title>
<polygon fill="#2980b9" stroke="#2980b9" points="507.5,-522 402.5,-522 402.5,-486 507.5,-486 507.5,-522"/>
<text text-anchor="middle" x="455" y="-501.5" font-family="Sans" font-size="10.00" fill="#ffffff">TrafficLightsBuzzer</text>
</g>
<!-- TrafficHat&#45;&gt;TrafficLightsBuzzer -->
<g id="edge4" class="edge"><title>TrafficHat&#45;&gt;TrafficLightsBuzzer</title>
<path fill="none" stroke="black" d="M558.764,-504C546.669,-504 532.212,-504 518.016,-504"/>
<polygon fill="black" stroke="black" points="517.762,-500.5 507.762,-504 517.762,-507.5 517.762,-500.5"/>
</g>
<!-- TrafficLightsBuzzer&#45;&gt;CompositeOutputDevice -->
<g id="edge26" class="edge"><title>TrafficLightsBuzzer&#45;&gt;CompositeOutputDevice</title>
<path fill="none" stroke="black" d="M402.377,-486.468C388.17,-481.643 372.603,-476.356 357.838,-471.341"/>
<polygon fill="black" stroke="black" points="358.868,-467.995 348.274,-468.093 356.617,-474.623 358.868,-467.995"/>
</g>
<!-- RyanteckRobot -->
<g id="node11" class="node"><title>RyanteckRobot</title>
<polygon fill="#2980b9" stroke="#2980b9" points="498,-306 412,-306 412,-270 498,-270 498,-306"/>
<text text-anchor="middle" x="455" y="-285.5" font-family="Sans" font-size="10.00" fill="#ffffff">RyanteckRobot</text>
</g>
<!-- Robot -->
<g id="node12" class="node"><title>Robot</title>
<polygon fill="#2980b9" stroke="#2980b9" points="321,-306 267,-306 267,-270 321,-270 321,-306"/>
<text text-anchor="middle" x="294" y="-285.5" font-family="Sans" font-size="10.00" fill="#ffffff">Robot</text>
</g>
<!-- RyanteckRobot&#45;&gt;Robot -->
<g id="edge5" class="edge"><title>RyanteckRobot&#45;&gt;Robot</title>
<path fill="none" stroke="black" d="M411.808,-288C386.804,-288 355.432,-288 331.498,-288"/>
<polygon fill="black" stroke="black" points="331.406,-284.5 321.406,-288 331.406,-291.5 331.406,-284.5"/>
</g>
<!-- Robot&#45;&gt;CompositeDevice -->
<g id="edge6" class="edge"><title>Robot&#45;&gt;CompositeDevice</title>
<path fill="none" stroke="black" d="M266.827,-278.509C254.514,-273.739 239.766,-267.578 227,-261 209.649,-252.059 191.243,-240.699 175.97,-230.707"/>
<polygon fill="black" stroke="black" points="177.641,-227.616 167.372,-225.011 173.775,-233.452 177.641,-227.616"/>
</g>
<!-- CamJamKitRobot -->
<g id="node13" class="node"><title>CamJamKitRobot</title>
<polygon fill="#2980b9" stroke="#2980b9" points="503,-252 407,-252 407,-216 503,-216 503,-252"/>
<text text-anchor="middle" x="455" y="-231.5" font-family="Sans" font-size="10.00" fill="#ffffff">CamJamKitRobot</text>
</g>
<!-- CamJamKitRobot&#45;&gt;Robot -->
<g id="edge9" class="edge"><title>CamJamKitRobot&#45;&gt;Robot</title>
<path fill="none" stroke="black" d="M406.725,-250.056C382.325,-258.343 353.049,-268.285 330.587,-275.914"/>
<polygon fill="black" stroke="black" points="329.444,-272.605 321.101,-279.135 331.696,-279.234 329.444,-272.605"/>
</g>
<!-- Energenie -->
<g id="node14" class="node"><title>Energenie</title>
<polygon fill="#2980b9" stroke="#2980b9" points="173,-171 108,-171 108,-135 173,-135 173,-171"/>
<text text-anchor="middle" x="140.5" y="-150.5" font-family="Sans" font-size="10.00" fill="#ffffff">Energenie</text>
</g>
<!-- Energenie&#45;&gt;Device -->
<g id="edge10" class="edge"><title>Energenie&#45;&gt;Device</title>
<path fill="none" stroke="black" d="M107.847,-160.665C94.1694,-163.977 78.0958,-167.869 63.9692,-171.29"/>
<polygon fill="black" stroke="black" points="62.9844,-167.927 54.089,-173.682 64.6319,-174.731 62.9844,-167.927"/>
</g>
<!-- TrafficLights -->
<g id="node15" class="node"><title>TrafficLights</title>
<polygon fill="#2980b9" stroke="#2980b9" points="748,-684 676,-684 676,-648 748,-648 748,-684"/>
<text text-anchor="middle" x="712" y="-663.5" font-family="Sans" font-size="10.00" fill="#ffffff">TrafficLights</text>
</g>
<!-- TrafficLights&#45;&gt;LEDBoard -->
<g id="edge11" class="edge"><title>TrafficLights&#45;&gt;LEDBoard</title>
<path fill="none" stroke="black" d="M678.305,-647.879C674.037,-645.086 669.824,-642.095 666,-639 645.711,-622.577 625.705,-600.789 611.389,-583.946"/>
<polygon fill="black" stroke="black" points="613.943,-581.545 604.842,-576.121 608.574,-586.037 613.943,-581.545"/>
</g>
<!-- JamHat -->
<g id="node16" class="node"><title>JamHat</title>
<polygon fill="#2980b9" stroke="#2980b9" points="482,-468 428,-468 428,-432 482,-432 482,-468"/>
<text text-anchor="middle" x="455" y="-447.5" font-family="Sans" font-size="10.00" fill="#ffffff">JamHat</text>
</g>
<!-- JamHat&#45;&gt;CompositeOutputDevice -->
<g id="edge12" class="edge"><title>JamHat&#45;&gt;CompositeOutputDevice</title>
<path fill="none" stroke="black" d="M427.744,-450C412.2,-450 391.631,-450 371.336,-450"/>
<polygon fill="black" stroke="black" points="371.099,-446.5 361.099,-450 371.099,-453.5 371.099,-446.5"/>
</g>
<!-- StatusBoard -->
<g id="node17" class="node"><title>StatusBoard</title>
<polygon fill="#2980b9" stroke="#2980b9" points="493.5,-414 416.5,-414 416.5,-378 493.5,-378 493.5,-414"/>
<text text-anchor="middle" x="455" y="-393.5" font-family="Sans" font-size="10.00" fill="#ffffff">StatusBoard</text>
</g>
<!-- StatusBoard&#45;&gt;CompositeOutputDevice -->
<g id="edge13" class="edge"><title>StatusBoard&#45;&gt;CompositeOutputDevice</title>
<path fill="none" stroke="black" d="M416.319,-408.797C398.799,-414.747 377.491,-421.984 357.651,-428.722"/>
<polygon fill="black" stroke="black" points="356.395,-425.452 348.052,-431.982 358.646,-432.081 356.395,-425.452"/>
</g>
<!-- SnowPi -->
<g id="node18" class="node"><title>SnowPi</title>
<polygon fill="#2980b9" stroke="#2980b9" points="739,-630 685,-630 685,-594 739,-594 739,-630"/>
<text text-anchor="middle" x="712" y="-609.5" font-family="Sans" font-size="10.00" fill="#ffffff">SnowPi</text>
</g>
<!-- SnowPi&#45;&gt;LEDBoard -->
<g id="edge14" class="edge"><title>SnowPi&#45;&gt;LEDBoard</title>
<path fill="none" stroke="black" d="M684.853,-600.283C669.201,-593.269 648.971,-584.203 631.259,-576.265"/>
<polygon fill="black" stroke="black" points="632.28,-572.888 621.723,-571.992 629.417,-579.275 632.28,-572.888"/>
</g>
<!-- PiTraffic -->
<g id="node19" class="node"><title>PiTraffic</title>
<polygon fill="#2980b9" stroke="#2980b9" points="848,-711 794,-711 794,-675 848,-675 848,-711"/>
<text text-anchor="middle" x="821" y="-690.5" font-family="Sans" font-size="10.00" fill="#ffffff">PiTraffic</text>
</g>
<!-- PiTraffic&#45;&gt;TrafficLights -->
<g id="edge15" class="edge"><title>PiTraffic&#45;&gt;TrafficLights</title>
<path fill="none" stroke="black" d="M793.825,-686.395C783.094,-683.687 770.359,-680.474 758.209,-677.408"/>
<polygon fill="black" stroke="black" points="758.749,-673.935 748.197,-674.881 757.036,-680.722 758.749,-673.935"/>
</g>
<!-- StatusZero -->
<g id="node20" class="node"><title>StatusZero</title>
<polygon fill="#2980b9" stroke="#2980b9" points="747.5,-576 676.5,-576 676.5,-540 747.5,-540 747.5,-576"/>
<text text-anchor="middle" x="712" y="-555.5" font-family="Sans" font-size="10.00" fill="#ffffff">StatusZero</text>
</g>
<!-- StatusZero&#45;&gt;LEDBoard -->
<g id="edge16" class="edge"><title>StatusZero&#45;&gt;LEDBoard</title>
<path fill="none" stroke="black" d="M676.47,-558C662.591,-558 646.47,-558 631.965,-558"/>
<polygon fill="black" stroke="black" points="631.742,-554.5 621.742,-558 631.742,-561.5 631.742,-554.5"/>
</g>
<!-- TonalBuzzer -->
<g id="node21" class="node"><title>TonalBuzzer</title>
<polygon fill="#2980b9" stroke="#2980b9" points="331,-252 257,-252 257,-216 331,-216 331,-252"/>
<text text-anchor="middle" x="294" y="-231.5" font-family="Sans" font-size="10.00" fill="#ffffff">TonalBuzzer</text>
</g>
<!-- TonalBuzzer&#45;&gt;CompositeDevice -->
<g id="edge17" class="edge"><title>TonalBuzzer&#45;&gt;CompositeDevice</title>
<path fill="none" stroke="black" d="M256.712,-227.533C240.091,-224.571 219.952,-220.982 201.191,-217.638"/>
<polygon fill="black" stroke="black" points="201.697,-214.173 191.238,-215.864 200.469,-221.065 201.697,-214.173"/>
</g>
<!-- PhaseEnableMotor -->
<g id="node22" class="node"><title>PhaseEnableMotor</title>
<polygon fill="#2980b9" stroke="#2980b9" points="347,-198 241,-198 241,-162 347,-162 347,-198"/>
<text text-anchor="middle" x="294" y="-177.5" font-family="Sans" font-size="10.00" fill="#ffffff">PhaseEnableMotor</text>
</g>
<!-- PhaseEnableMotor&#45;&gt;CompositeDevice -->
<g id="edge18" class="edge"><title>PhaseEnableMotor&#45;&gt;CompositeDevice</title>
<path fill="none" stroke="black" d="M240.862,-189.292C228.039,-191.577 214.214,-194.041 201.069,-196.384"/>
<polygon fill="black" stroke="black" points="200.41,-192.946 191.179,-198.146 201.638,-199.837 200.41,-192.946"/>
</g>
<!-- ButtonBoard -->
<g id="node23" class="node"><title>ButtonBoard</title>
<polygon fill="#2980b9" stroke="#2980b9" points="332.5,-144 255.5,-144 255.5,-108 332.5,-108 332.5,-144"/>
<text text-anchor="middle" x="294" y="-123.5" font-family="Sans" font-size="10.00" fill="#ffffff">ButtonBoard</text>
</g>
<!-- ButtonBoard&#45;&gt;CompositeDevice -->
<g id="edge19" class="edge"><title>ButtonBoard&#45;&gt;CompositeDevice</title>
<path fill="none" stroke="black" d="M255.215,-139.523C245.775,-143.422 235.83,-147.992 227,-153 209.603,-162.867 207.823,-169.183 191,-180 189.093,-181.226 187.127,-182.451 185.126,-183.665"/>
<polygon fill="black" stroke="black" points="183.076,-180.81 176.223,-188.89 186.619,-186.848 183.076,-180.81"/>
</g>
<!-- Motor -->
<g id="node24" class="node"><title>Motor</title>
<polygon fill="#2980b9" stroke="#2980b9" points="321,-90 267,-90 267,-54 321,-54 321,-90"/>
<text text-anchor="middle" x="294" y="-69.5" font-family="Sans" font-size="10.00" fill="#ffffff">Motor</text>
</g>
<!-- Motor&#45;&gt;CompositeDevice -->
<g id="edge20" class="edge"><title>Motor&#45;&gt;CompositeDevice</title>
<path fill="none" stroke="black" d="M266.916,-77.7031C253.59,-81.7475 237.927,-88.3947 227,-99 198.73,-126.437 217.704,-151.037 191,-180 190.237,-180.828 189.442,-181.635 188.621,-182.423"/>
<polygon fill="black" stroke="black" points="186.132,-179.938 180.618,-188.985 190.57,-185.352 186.132,-179.938"/>
</g>
<!-- PiLiterBarGraph -->
<g id="node25" class="node"><title>PiLiterBarGraph</title>
<polygon fill="#2980b9" stroke="#2980b9" points="758,-738 666,-738 666,-702 758,-702 758,-738"/>
<text text-anchor="middle" x="712" y="-717.5" font-family="Sans" font-size="10.00" fill="#ffffff">PiLiterBarGraph</text>
</g>
<!-- PiLiterBarGraph&#45;&gt;LEDBarGraph -->
<g id="edge22" class="edge"><title>PiLiterBarGraph&#45;&gt;LEDBarGraph</title>
<path fill="none" stroke="black" d="M670.54,-701.869C660.594,-697.411 649.839,-692.592 639.537,-687.975"/>
<polygon fill="black" stroke="black" points="640.796,-684.704 630.239,-683.808 637.933,-691.092 640.796,-684.704"/>
</g>
<!-- PiLiter -->
<g id="node26" class="node"><title>PiLiter</title>
<polygon fill="#2980b9" stroke="#2980b9" points="739,-522 685,-522 685,-486 739,-486 739,-522"/>
<text text-anchor="middle" x="712" y="-501.5" font-family="Sans" font-size="10.00" fill="#ffffff">PiLiter</text>
</g>
<!-- PiLiter&#45;&gt;LEDBoard -->
<g id="edge23" class="edge"><title>PiLiter&#45;&gt;LEDBoard</title>
<path fill="none" stroke="black" d="M684.853,-515.717C669.201,-522.731 648.971,-531.797 631.259,-539.735"/>
<polygon fill="black" stroke="black" points="629.417,-536.725 621.723,-544.008 632.28,-543.112 629.417,-536.725"/>
</g>
<!-- FishDish -->
<g id="node27" class="node"><title>FishDish</title>
<polygon fill="#2980b9" stroke="#2980b9" points="617.5,-468 561.5,-468 561.5,-432 617.5,-432 617.5,-468"/>
<text text-anchor="middle" x="589.5" y="-447.5" font-family="Sans" font-size="10.00" fill="#ffffff">FishDish</text>
</g>
<!-- FishDish&#45;&gt;TrafficLightsBuzzer -->
<g id="edge24" class="edge"><title>FishDish&#45;&gt;TrafficLightsBuzzer</title>
<path fill="none" stroke="black" d="M561.367,-461.058C546.546,-467.098 527.657,-474.797 509.975,-482.002"/>
<polygon fill="black" stroke="black" points="508.25,-478.926 500.311,-485.941 510.892,-485.408 508.25,-478.926"/>
</g>
<!-- PiStop -->
<g id="node28" class="node"><title>PiStop</title>
<polygon fill="#2980b9" stroke="#2980b9" points="848,-657 794,-657 794,-621 848,-621 848,-657"/>
<text text-anchor="middle" x="821" y="-636.5" font-family="Sans" font-size="10.00" fill="#ffffff">PiStop</text>
</g>
<!-- PiStop&#45;&gt;TrafficLights -->
<g id="edge25" class="edge"><title>PiStop&#45;&gt;TrafficLights</title>
<path fill="none" stroke="black" d="M793.825,-645.605C783.094,-648.313 770.359,-651.526 758.209,-654.592"/>
<polygon fill="black" stroke="black" points="757.036,-651.278 748.197,-657.119 758.749,-658.065 757.036,-651.278"/>
</g>
<!-- PumpkinPi -->
<g id="node29" class="node"><title>PumpkinPi</title>
<polygon fill="#2980b9" stroke="#2980b9" points="745,-468 679,-468 679,-432 745,-432 745,-468"/>
<text text-anchor="middle" x="712" y="-447.5" font-family="Sans" font-size="10.00" fill="#ffffff">PumpkinPi</text>
</g>
<!-- PumpkinPi&#45;&gt;LEDBoard -->
<g id="edge27" class="edge"><title>PumpkinPi&#45;&gt;LEDBoard</title>
<path fill="none" stroke="black" d="M678.746,-466.926C674.226,-469.973 669.824,-473.353 666,-477 645.124,-496.905 650.278,-510.486 630,-531 629.241,-531.768 628.457,-532.528 627.653,-533.278"/>
<polygon fill="black" stroke="black" points="625.376,-530.619 619.988,-539.742 629.889,-535.97 625.376,-530.619"/>
</g>
<!-- PiHutXmasTree -->
<g id="node30" class="node"><title>PiHutXmasTree</title>
<polygon fill="#2980b9" stroke="#2980b9" points="756.5,-414 667.5,-414 667.5,-378 756.5,-378 756.5,-414"/>
<text text-anchor="middle" x="712" y="-393.5" font-family="Sans" font-size="10.00" fill="#ffffff">PiHutXmasTree</text>
</g>
<!-- PiHutXmasTree&#45;&gt;LEDBoard -->
<g id="edge28" class="edge"><title>PiHutXmasTree&#45;&gt;LEDBoard</title>
<path fill="none" stroke="black" d="M675.131,-414.098C671.755,-416.765 668.622,-419.731 666,-423 634.34,-462.467 660.478,-490.613 630,-531 629.625,-531.497 629.238,-531.989 628.839,-532.474"/>
<polygon fill="black" stroke="black" points="626.142,-530.224 621.598,-539.795 631.119,-535.146 626.142,-530.224"/>
</g>
<!-- AngularServo -->
<g id="node31" class="node"><title>AngularServo</title>
<polygon fill="#2980b9" stroke="#2980b9" points="495.5,-36 414.5,-36 414.5,-0 495.5,-0 495.5,-36"/>
<text text-anchor="middle" x="455" y="-15.5" font-family="Sans" font-size="10.00" fill="#ffffff">AngularServo</text>
</g>
<!-- Servo -->
<g id="node32" class="node"><title>Servo</title>
<polygon fill="#2980b9" stroke="#2980b9" points="321,-36 267,-36 267,-0 321,-0 321,-36"/>
<text text-anchor="middle" x="294" y="-15.5" font-family="Sans" font-size="10.00" fill="#ffffff">Servo</text>
</g>
<!-- AngularServo&#45;&gt;Servo -->
<g id="edge29" class="edge"><title>AngularServo&#45;&gt;Servo</title>
<path fill="none" stroke="black" d="M414.288,-18C388.855,-18 356.102,-18 331.353,-18"/>
<polygon fill="black" stroke="black" points="331.281,-14.5001 321.281,-18 331.281,-21.5001 331.281,-14.5001"/>
</g>
<!-- Servo&#45;&gt;CompositeDevice -->
<g id="edge30" class="edge"><title>Servo&#45;&gt;CompositeDevice</title>
<path fill="none" stroke="black" d="M266.87,-22.8474C253.197,-26.6719 237.222,-33.3815 227,-45 185.983,-91.6215 229.367,-131.174 191,-180 190.524,-180.606 190.03,-181.201 189.52,-181.783"/>
<polygon fill="black" stroke="black" points="187.021,-179.328 182.115,-188.719 191.806,-184.438 187.021,-179.328"/>
</g>
</g>
</svg>
