<?xml version="1.0" encoding="UTF-8" standalone="no"?>
<!DOCTYPE svg PUBLIC "-//W3C//DTD SVG 1.1//EN"
 "http://www.w3.org/Graphics/SVG/1.1/DTD/svg11.dtd">
<!-- Generated by graphviz version 2.36.0 (20140111.2315)
 -->
<!-- Title: classes Pages: 1 -->
<svg width="538pt" height="116pt"
 viewBox="0.00 0.00 538.00 116.00" xmlns="http://www.w3.org/2000/svg" xmlns:xlink="http://www.w3.org/1999/xlink">
<g id="graph0" class="graph" transform="scale(1 1) rotate(0) translate(4 112)">
<title>classes</title>
<polygon fill="white" stroke="none" points="-4,4 -4,-112 534,-112 534,4 -4,4"/>
<!-- RGBLED -->
<g id="node1" class="node"><title>RGBLED</title>
<polygon fill="#298029" stroke="#298029" points="55.5,-108 0.5,-108 0.5,-72 55.5,-72 55.5,-108"/>
<text text-anchor="middle" x="28" y="-87.5" font-family="Sans" font-size="10.00" fill="#ffffff">RGBLED</text>
</g>
<!-- PWMLED -->
<g id="node2" class="node"><title>PWMLED</title>
<polygon fill="#298029" stroke="#298029" points="143.5,-36 86.5,-36 86.5,-0 143.5,-0 143.5,-36"/>
<text text-anchor="middle" x="115" y="-15.5" font-family="Sans" font-size="10.00" fill="#ffffff">PWMLED</text>
</g>
<!-- RGBLED&#45;&gt;PWMLED -->
<g id="edge1" class="edge"><title>RGBLED&#45;&gt;PWMLED</title>
<path fill="none" stroke="black" stroke-dasharray="5,2" d="M49.5056,-71.6966C60.4625,-62.8807 73.9459,-52.0321 85.8249,-42.4742"/>
<polygon fill="none" stroke="black" points="88.1446,-45.1001 93.7418,-36.1043 83.7565,-39.6462 88.1446,-45.1001"/>
</g>
<!-- LEDBoard -->
<g id="node3" class="node"><title>LEDBoard</title>
<polygon fill="#298029" stroke="#298029" points="238,-108 174,-108 174,-72 238,-72 238,-108"/>
<text text-anchor="middle" x="206" y="-87.5" font-family="Sans" font-size="10.00" fill="#ffffff">LEDBoard</text>
</g>
<!-- LEDBoard&#45;&gt;PWMLED -->
<g id="edge3" class="edge"><title>LEDBoard&#45;&gt;PWMLED</title>
<path fill="none" stroke="black" stroke-dasharray="5,2" d="M183.506,-71.6966C172.045,-62.8807 157.942,-52.0321 145.516,-42.4742"/>
<polygon fill="none" stroke="black" points="147.296,-39.4273 137.236,-36.1043 143.028,-44.9757 147.296,-39.4273"/>
</g>
<!-- LED -->
<g id="node4" class="node"><title>LED</title>
<polygon fill="#298029" stroke="#298029" points="224,-36 170,-36 170,-0 224,-0 224,-36"/>
<text text-anchor="middle" x="197" y="-15.5" font-family="Sans" font-size="10.00" fill="#ffffff">LED</text>
</g>
<!-- LEDBoard&#45;&gt;LED -->
<g id="edge2" class="edge"><title>LEDBoard&#45;&gt;LED</title>
<path fill="none" stroke="black" stroke-dasharray="5,2" d="M203.775,-71.6966C202.783,-63.9827 201.592,-54.7125 200.486,-46.1124"/>
<polygon fill="none" stroke="black" points="203.946,-45.5763 199.199,-36.1043 197.003,-46.469 203.946,-45.5763"/>
</g>
<!-- LEDBarGraph -->
<g id="node5" class="node"><title>LEDBarGraph</title>
<polygon fill="#298029" stroke="#298029" points="155.25,-108 74.75,-108 74.75,-72 155.25,-72 155.25,-108"/>
<text text-anchor="middle" x="115" y="-87.5" font-family="Sans" font-size="10.00" fill="#ffffff">LEDBarGraph</text>
</g>
<!-- LEDBarGraph&#45;&gt;PWMLED -->
<g id="edge5" class="edge"><title>LEDBarGraph&#45;&gt;PWMLED</title>
<path fill="none" stroke="black" stroke-dasharray="5,2" d="M115,-71.6966C115,-63.9827 115,-54.7125 115,-46.1124"/>
<polygon fill="none" stroke="black" points="118.5,-46.1043 115,-36.1043 111.5,-46.1044 118.5,-46.1043"/>
</g>
<!-- LEDBarGraph&#45;&gt;LED -->
<g id="edge4" class="edge"><title>LEDBarGraph&#45;&gt;LED</title>
<path fill="none" stroke="black" stroke-dasharray="5,2" d="M135.27,-71.6966C145.498,-62.9655 158.061,-52.2405 169.178,-42.7503"/>
<polygon fill="none" stroke="black" points="171.63,-45.259 176.963,-36.1043 167.085,-39.935 171.63,-45.259"/>
</g>
<!-- TrafficLightsBuzzer -->
<g id="node6" class="node"><title>TrafficLightsBuzzer</title>
<polygon fill="#298029" stroke="#298029" points="411.25,-108 306.75,-108 306.75,-72 411.25,-72 411.25,-108"/>
<text text-anchor="middle" x="359" y="-87.5" font-family="Sans" font-size="10.00" fill="#ffffff">TrafficLightsBuzzer</text>
</g>
<!-- TrafficLights -->
<g id="node7" class="node"><title>TrafficLights</title>
<polygon fill="#298029" stroke="#298029" points="314,-36 242,-36 242,-0 314,-0 314,-36"/>
<text text-anchor="middle" x="278" y="-15.5" font-family="Sans" font-size="10.00" fill="#ffffff">TrafficLights</text>
</g>
<!-- TrafficLightsBuzzer&#45;&gt;TrafficLights -->
<g id="edge6" class="edge"><title>TrafficLightsBuzzer&#45;&gt;TrafficLights</title>
<path fill="none" stroke="black" stroke-dasharray="5,2" d="M338.978,-71.6966C328.874,-62.9655 316.464,-52.2405 305.482,-42.7503"/>
<polygon fill="none" stroke="black" points="307.647,-39.9948 297.792,-36.1043 303.07,-45.2912 307.647,-39.9948"/>
</g>
<!-- Buzzer -->
<g id="node8" class="node"><title>Buzzer</title>
<polygon fill="#298029" stroke="#298029" points="386,-36 332,-36 332,-0 386,-0 386,-36"/>
<text text-anchor="middle" x="359" y="-15.5" font-family="Sans" font-size="10.00" fill="#ffffff">Buzzer</text>
</g>
<!-- TrafficLightsBuzzer&#45;&gt;Buzzer -->
<g id="edge7" class="edge"><title>TrafficLightsBuzzer&#45;&gt;Buzzer</title>
<path fill="none" stroke="black" stroke-dasharray="5,2" d="M359,-71.6966C359,-63.9827 359,-54.7125 359,-46.1124"/>
<polygon fill="none" stroke="black" points="362.5,-46.1043 359,-36.1043 355.5,-46.1044 362.5,-46.1043"/>
</g>
<!-- Button -->
<g id="node9" class="node"><title>Button</title>
<polygon fill="#298029" stroke="#298029" points="458,-36 404,-36 404,-0 458,-0 458,-36"/>
<text text-anchor="middle" x="431" y="-15.5" font-family="Sans" font-size="10.00" fill="#ffffff">Button</text>
</g>
<!-- TrafficLightsBuzzer&#45;&gt;Button -->
<g id="edge8" class="edge"><title>TrafficLightsBuzzer&#45;&gt;Button</title>
<path fill="none" stroke="black" stroke-dasharray="5,2" d="M376.798,-71.6966C385.604,-63.135 396.382,-52.6562 406.001,-43.3045"/>
<polygon fill="none" stroke="black" points="408.677,-45.5846 413.407,-36.1043 403.797,-40.5657 408.677,-45.5846"/>
</g>
<!-- Robot -->
<g id="node10" class="node"><title>Robot</title>
<polygon fill="#298029" stroke="#298029" points="530,-108 476,-108 476,-72 530,-72 530,-108"/>
<text text-anchor="middle" x="503" y="-87.5" font-family="Sans" font-size="10.00" fill="#ffffff">Robot</text>
</g>
<!-- Motor -->
<g id="node11" class="node"><title>Motor</title>
<polygon fill="#298029" stroke="#298029" points="530,-36 476,-36 476,-0 530,-0 530,-36"/>
<text text-anchor="middle" x="503" y="-15.5" font-family="Sans" font-size="10.00" fill="#ffffff">Motor</text>
</g>
<!-- Robot&#45;&gt;Motor -->
<g id="edge9" class="edge"><title>Robot&#45;&gt;Motor</title>
<path fill="none" stroke="black" stroke-dasharray="5,2" d="M503,-71.6966C503,-63.9827 503,-54.7125 503,-46.1124"/>
<polygon fill="none" stroke="black" points="506.5,-46.1043 503,-36.1043 499.5,-46.1044 506.5,-46.1043"/>
</g>
</g>
</svg>
