<?xml version="1.0" encoding="UTF-8" standalone="no"?>
<!DOCTYPE svg PUBLIC "-//W3C//DTD SVG 1.1//EN"
 "http://www.w3.org/Graphics/SVG/1.1/DTD/svg11.dtd">
<!-- Generated by graphviz version 2.38.0 (20140413.2041)
 -->
<!-- Title: classes Pages: 1 -->
<svg width="818pt" height="557pt"
 viewBox="0.00 0.00 818.00 557.00" xmlns="http://www.w3.org/2000/svg" xmlns:xlink="http://www.w3.org/1999/xlink">
<g id="graph0" class="graph" transform="scale(1 1) rotate(0) translate(4 553)">
<title>classes</title>
<polygon fill="white" stroke="none" points="-4,4 -4,-553 814,-553 814,4 -4,4"/>
<!-- CompositeDevice -->
<g id="node1" class="node"><title>CompositeDevice</title>
<polygon fill="#9ec6e0" stroke="#9ec6e0" points="182,-144 90,-144 90,-108 182,-108 182,-144"/>
<text text-anchor="middle" x="136" y="-123.5" font-family="Arial" font-size="10.00" fill="#000000">CompositeDevice</text>
</g>
<!-- Device -->
<g id="node3" class="node"><title>Device</title>
<polygon fill="#9ec6e0" stroke="#9ec6e0" points="54,-171 0,-171 0,-135 54,-135 54,-171"/>
<text text-anchor="middle" x="27" y="-150.5" font-family="Arial" font-size="10.00" fill="#000000">Device</text>
</g>
<!-- CompositeDevice&#45;&gt;Device -->
<g id="edge3" class="edge"><title>CompositeDevice&#45;&gt;Device</title>
<path fill="none" stroke="black" d="M89.9325,-137.372C81.2431,-139.565 72.2493,-141.834 63.8993,-143.941"/>
<polygon fill="black" stroke="black" points="62.9368,-140.574 54.0971,-146.415 64.6495,-147.362 62.9368,-140.574"/>
</g>
<!-- CompositeOutputDevice -->
<g id="node2" class="node"><title>CompositeOutputDevice</title>
<polygon fill="#9ec6e0" stroke="#9ec6e0" points="339,-279 218,-279 218,-243 339,-243 339,-279"/>
<text text-anchor="middle" x="278.5" y="-258.5" font-family="Arial" font-size="10.00" fill="#000000">CompositeOutputDevice</text>
</g>
<!-- CompositeOutputDevice&#45;&gt;CompositeDevice -->
<g id="edge4" class="edge"><title>CompositeOutputDevice&#45;&gt;CompositeDevice</title>
<path fill="none" stroke="black" d="M255.074,-242.947C243.369,-232.976 229.196,-220.002 218,-207 199.178,-185.143 202.876,-172.905 182,-153 181.073,-152.116 180.112,-151.247 179.123,-150.395"/>
<polygon fill="black" stroke="black" points="181.169,-147.553 171.116,-144.206 176.887,-153.091 181.169,-147.553"/>
</g>
<!-- LEDCollection -->
<g id="node4" class="node"><title>LEDCollection</title>
<polygon fill="#9ec6e0" stroke="#9ec6e0" points="469,-387 391,-387 391,-351 469,-351 469,-387"/>
<text text-anchor="middle" x="430" y="-366.5" font-family="Arial" font-size="10.00" fill="#000000">LEDCollection</text>
</g>
<!-- LEDCollection&#45;&gt;CompositeOutputDevice -->
<g id="edge10" class="edge"><title>LEDCollection&#45;&gt;CompositeOutputDevice</title>
<path fill="none" stroke="black" d="M390.877,-351.387C385.428,-348.456 379.986,-345.292 375,-342 349.918,-325.44 324.074,-303.143 305.607,-286.135"/>
<polygon fill="black" stroke="black" points="307.87,-283.459 298.168,-279.202 303.097,-288.58 307.87,-283.459"/>
</g>
<!-- ButtonBoard -->
<g id="node5" class="node"><title>ButtonBoard</title>
<polygon fill="#2980b9" stroke="#2980b9" points="314,-198 243,-198 243,-162 314,-162 314,-198"/>
<text text-anchor="middle" x="278.5" y="-177.5" font-family="Arial" font-size="10.00" fill="#ffffff">ButtonBoard</text>
</g>
<!-- ButtonBoard&#45;&gt;CompositeDevice -->
<g id="edge1" class="edge"><title>ButtonBoard&#45;&gt;CompositeDevice</title>
<path fill="none" stroke="black" d="M242.77,-166.652C227.343,-160.722 208.814,-153.601 191.605,-146.987"/>
<polygon fill="black" stroke="black" points="192.799,-143.696 182.209,-143.376 190.287,-150.23 192.799,-143.696"/>
</g>
<!-- CamJamKitRobot -->
<g id="node6" class="node"><title>CamJamKitRobot</title>
<polygon fill="#2980b9" stroke="#2980b9" points="476,-171 384,-171 384,-135 476,-135 476,-171"/>
<text text-anchor="middle" x="430" y="-150.5" font-family="Arial" font-size="10.00" fill="#ffffff">CamJamKitRobot</text>
</g>
<!-- Robot -->
<g id="node7" class="node"><title>Robot</title>
<polygon fill="#2980b9" stroke="#2980b9" points="305.5,-144 251.5,-144 251.5,-108 305.5,-108 305.5,-144"/>
<text text-anchor="middle" x="278.5" y="-123.5" font-family="Arial" font-size="10.00" fill="#ffffff">Robot</text>
</g>
<!-- CamJamKitRobot&#45;&gt;Robot -->
<g id="edge2" class="edge"><title>CamJamKitRobot&#45;&gt;Robot</title>
<path fill="none" stroke="black" d="M383.739,-144.826C361.978,-140.896 336.244,-136.248 315.791,-132.554"/>
<polygon fill="black" stroke="black" points="316.384,-129.105 305.921,-130.772 315.14,-135.993 316.384,-129.105"/>
</g>
<!-- Robot&#45;&gt;CompositeDevice -->
<g id="edge19" class="edge"><title>Robot&#45;&gt;CompositeDevice</title>
<path fill="none" stroke="black" d="M251.402,-126C234.77,-126 212.584,-126 192.178,-126"/>
<polygon fill="black" stroke="black" points="192.024,-122.5 182.023,-126 192.023,-129.5 192.024,-122.5"/>
</g>
<!-- Energenie -->
<g id="node8" class="node"><title>Energenie</title>
<polygon fill="#2980b9" stroke="#2980b9" points="166,-198 106,-198 106,-162 166,-162 166,-198"/>
<text text-anchor="middle" x="136" y="-177.5" font-family="Arial" font-size="10.00" fill="#ffffff">Energenie</text>
</g>
<!-- Energenie&#45;&gt;Device -->
<g id="edge5" class="edge"><title>Energenie&#45;&gt;Device</title>
<path fill="none" stroke="black" d="M105.762,-172.622C92.9418,-169.387 77.7637,-165.557 64.2352,-162.143"/>
<polygon fill="black" stroke="black" points="64.8303,-158.684 54.2779,-159.631 63.1176,-165.471 64.8303,-158.684"/>
</g>
<!-- FishDish -->
<g id="node9" class="node"><title>FishDish</title>
<polygon fill="#2980b9" stroke="#2980b9" points="587,-333 532,-333 532,-297 587,-297 587,-333"/>
<text text-anchor="middle" x="559.5" y="-312.5" font-family="Arial" font-size="10.00" fill="#ffffff">FishDish</text>
</g>
<!-- TrafficLightsBuzzer -->
<g id="node10" class="node"><title>TrafficLightsBuzzer</title>
<polygon fill="#2980b9" stroke="#2980b9" points="479.5,-333 380.5,-333 380.5,-297 479.5,-297 479.5,-333"/>
<text text-anchor="middle" x="430" y="-312.5" font-family="Arial" font-size="10.00" fill="#ffffff">TrafficLightsBuzzer</text>
</g>
<!-- FishDish&#45;&gt;TrafficLightsBuzzer -->
<g id="edge6" class="edge"><title>FishDish&#45;&gt;TrafficLightsBuzzer</title>
<path fill="none" stroke="black" d="M531.772,-315C519.49,-315 504.404,-315 489.68,-315"/>
<polygon fill="black" stroke="black" points="489.584,-311.5 479.584,-315 489.584,-318.5 489.584,-311.5"/>
</g>
<!-- TrafficLightsBuzzer&#45;&gt;CompositeOutputDevice -->
<g id="edge27" class="edge"><title>TrafficLightsBuzzer&#45;&gt;CompositeOutputDevice</title>
<path fill="none" stroke="black" d="M380.462,-297.468C367.358,-292.735 353.023,-287.557 339.378,-282.628"/>
<polygon fill="black" stroke="black" points="340.185,-279.198 329.591,-279.093 337.807,-285.782 340.185,-279.198"/>
</g>
<!-- JamHat -->
<g id="node11" class="node"><title>JamHat</title>
<polygon fill="#2980b9" stroke="#2980b9" points="457,-279 403,-279 403,-243 457,-243 457,-279"/>
<text text-anchor="middle" x="430" y="-258.5" font-family="Arial" font-size="10.00" fill="#ffffff">JamHat</text>
</g>
<!-- JamHat&#45;&gt;CompositeOutputDevice -->
<g id="edge7" class="edge"><title>JamHat&#45;&gt;CompositeOutputDevice</title>
<path fill="none" stroke="black" d="M402.959,-261C387.996,-261 368.422,-261 349.283,-261"/>
<polygon fill="black" stroke="black" points="349.036,-257.5 339.036,-261 349.036,-264.5 349.036,-257.5"/>
</g>
<!-- LEDBarGraph -->
<g id="node12" class="node"><title>LEDBarGraph</title>
<polygon fill="#2980b9" stroke="#2980b9" points="598,-495 521,-495 521,-459 598,-459 598,-495"/>
<text text-anchor="middle" x="559.5" y="-474.5" font-family="Arial" font-size="10.00" fill="#ffffff">LEDBarGraph</text>
</g>
<!-- LEDBarGraph&#45;&gt;LEDCollection -->
<g id="edge8" class="edge"><title>LEDBarGraph&#45;&gt;LEDCollection</title>
<path fill="none" stroke="black" d="M537.159,-458.923C516.106,-441.09 483.759,-413.69 460.303,-393.821"/>
<polygon fill="black" stroke="black" points="462.303,-390.929 452.41,-387.136 457.779,-396.27 462.303,-390.929"/>
</g>
<!-- LEDBoard -->
<g id="node13" class="node"><title>LEDBoard</title>
<polygon fill="#2980b9" stroke="#2980b9" points="590,-387 529,-387 529,-351 590,-351 590,-387"/>
<text text-anchor="middle" x="559.5" y="-366.5" font-family="Arial" font-size="10.00" fill="#ffffff">LEDBoard</text>
</g>
<!-- LEDBoard&#45;&gt;LEDCollection -->
<g id="edge9" class="edge"><title>LEDBoard&#45;&gt;LEDCollection</title>
<path fill="none" stroke="black" d="M528.928,-369C514.186,-369 495.981,-369 479.283,-369"/>
<polygon fill="black" stroke="black" points="479.125,-365.5 469.125,-369 479.125,-372.5 479.125,-365.5"/>
</g>
<!-- PhaseEnableRobot -->
<g id="node14" class="node"><title>PhaseEnableRobot</title>
<polygon fill="#2980b9" stroke="#2980b9" points="328.5,-90 228.5,-90 228.5,-54 328.5,-54 328.5,-90"/>
<text text-anchor="middle" x="278.5" y="-69.5" font-family="Arial" font-size="10.00" fill="#ffffff">PhaseEnableRobot</text>
</g>
<!-- PhaseEnableRobot&#45;&gt;CompositeDevice -->
<g id="edge11" class="edge"><title>PhaseEnableRobot&#45;&gt;CompositeDevice</title>
<path fill="none" stroke="black" d="M230.325,-90.1314C218,-94.8682 204.61,-100.015 191.922,-104.891"/>
<polygon fill="black" stroke="black" points="190.463,-101.702 182.384,-108.557 192.974,-108.236 190.463,-101.702"/>
</g>
<!-- PiHutXmasTree -->
<g id="node15" class="node"><title>PiHutXmasTree</title>
<polygon fill="#2980b9" stroke="#2980b9" points="718.5,-495 635.5,-495 635.5,-459 718.5,-459 718.5,-495"/>
<text text-anchor="middle" x="677" y="-474.5" font-family="Arial" font-size="10.00" fill="#ffffff">PiHutXmasTree</text>
</g>
<!-- PiHutXmasTree&#45;&gt;LEDBoard -->
<g id="edge12" class="edge"><title>PiHutXmasTree&#45;&gt;LEDBoard</title>
<path fill="none" stroke="black" d="M645.49,-458.747C641.506,-455.975 637.572,-453.025 634,-450 614.448,-433.444 595.089,-411.84 581.151,-395.107"/>
<polygon fill="black" stroke="black" points="583.816,-392.838 574.767,-387.328 578.405,-397.279 583.816,-392.838"/>
</g>
<!-- PiLiter -->
<g id="node16" class="node"><title>PiLiter</title>
<polygon fill="#2980b9" stroke="#2980b9" points="704,-441 650,-441 650,-405 704,-405 704,-441"/>
<text text-anchor="middle" x="677" y="-420.5" font-family="Arial" font-size="10.00" fill="#ffffff">PiLiter</text>
</g>
<!-- PiLiter&#45;&gt;LEDBoard -->
<g id="edge13" class="edge"><title>PiLiter&#45;&gt;LEDBoard</title>
<path fill="none" stroke="black" d="M649.791,-410.747C634.992,-403.827 616.205,-395.044 599.687,-387.321"/>
<polygon fill="black" stroke="black" points="600.811,-383.983 590.27,-382.918 597.846,-390.324 600.811,-383.983"/>
</g>
<!-- PiLiterBarGraph -->
<g id="node17" class="node"><title>PiLiterBarGraph</title>
<polygon fill="#2980b9" stroke="#2980b9" points="720,-549 634,-549 634,-513 720,-513 720,-549"/>
<text text-anchor="middle" x="677" y="-528.5" font-family="Arial" font-size="10.00" fill="#ffffff">PiLiterBarGraph</text>
</g>
<!-- PiLiterBarGraph&#45;&gt;LEDBarGraph -->
<g id="edge14" class="edge"><title>PiLiterBarGraph&#45;&gt;LEDBarGraph</title>
<path fill="none" stroke="black" d="M637.219,-512.869C627.684,-508.41 617.372,-503.59 607.496,-498.972"/>
<polygon fill="black" stroke="black" points="608.74,-495.69 598.199,-494.626 605.776,-502.032 608.74,-495.69"/>
</g>
<!-- PiStop -->
<g id="node18" class="node"><title>PiStop</title>
<polygon fill="#2980b9" stroke="#2980b9" points="810,-414 756,-414 756,-378 810,-378 810,-414"/>
<text text-anchor="middle" x="783" y="-393.5" font-family="Arial" font-size="10.00" fill="#ffffff">PiStop</text>
</g>
<!-- TrafficLights -->
<g id="node19" class="node"><title>TrafficLights</title>
<polygon fill="#2980b9" stroke="#2980b9" points="711,-387 643,-387 643,-351 711,-351 711,-387"/>
<text text-anchor="middle" x="677" y="-366.5" font-family="Arial" font-size="10.00" fill="#ffffff">TrafficLights</text>
</g>
<!-- PiStop&#45;&gt;TrafficLights -->
<g id="edge15" class="edge"><title>PiStop&#45;&gt;TrafficLights</title>
<path fill="none" stroke="black" d="M755.756,-389.187C745.226,-386.453 732.81,-383.23 721.028,-380.171"/>
<polygon fill="black" stroke="black" points="721.894,-376.78 711.335,-377.654 720.135,-383.555 721.894,-376.78"/>
</g>
<!-- TrafficLights&#45;&gt;LEDBoard -->
<g id="edge26" class="edge"><title>TrafficLights&#45;&gt;LEDBoard</title>
<path fill="none" stroke="black" d="M642.902,-369C629.622,-369 614.201,-369 600.316,-369"/>
<polygon fill="black" stroke="black" points="600.058,-365.5 590.058,-369 600.058,-372.5 600.058,-365.5"/>
</g>
<!-- PiTraffic -->
<g id="node20" class="node"><title>PiTraffic</title>
<polygon fill="#2980b9" stroke="#2980b9" points="810,-360 756,-360 756,-324 810,-324 810,-360"/>
<text text-anchor="middle" x="783" y="-339.5" font-family="Arial" font-size="10.00" fill="#ffffff">PiTraffic</text>
</g>
<!-- PiTraffic&#45;&gt;TrafficLights -->
<g id="edge16" class="edge"><title>PiTraffic&#45;&gt;TrafficLights</title>
<path fill="none" stroke="black" d="M755.756,-348.813C745.226,-351.547 732.81,-354.77 721.028,-357.829"/>
<polygon fill="black" stroke="black" points="720.135,-354.445 711.335,-360.346 721.894,-361.22 720.135,-354.445"/>
</g>
<!-- PololuDRV8835Robot -->
<g id="node21" class="node"><title>PololuDRV8835Robot</title>
<polygon fill="#2980b9" stroke="#2980b9" points="485,-63 375,-63 375,-27 485,-27 485,-63"/>
<text text-anchor="middle" x="430" y="-42.5" font-family="Arial" font-size="10.00" fill="#ffffff">PololuDRV8835Robot</text>
</g>
<!-- PololuDRV8835Robot&#45;&gt;PhaseEnableRobot -->
<g id="edge17" class="edge"><title>PololuDRV8835Robot&#45;&gt;PhaseEnableRobot</title>
<path fill="none" stroke="black" d="M374.604,-54.824C362.864,-56.9443 350.398,-59.1957 338.491,-61.3461"/>
<polygon fill="black" stroke="black" points="337.868,-57.9019 328.649,-63.1235 339.112,-64.7905 337.868,-57.9019"/>
</g>
<!-- PumpkinPi -->
<g id="node22" class="node"><title>PumpkinPi</title>
<polygon fill="#2980b9" stroke="#2980b9" points="709,-333 645,-333 645,-297 709,-297 709,-333"/>
<text text-anchor="middle" x="677" y="-312.5" font-family="Arial" font-size="10.00" fill="#ffffff">PumpkinPi</text>
</g>
<!-- PumpkinPi&#45;&gt;LEDBoard -->
<g id="edge18" class="edge"><title>PumpkinPi&#45;&gt;LEDBoard</title>
<path fill="none" stroke="black" d="M644.744,-329.613C630.824,-336.121 614.282,-343.855 599.557,-350.74"/>
<polygon fill="black" stroke="black" points="597.765,-347.713 590.189,-355.119 600.73,-354.055 597.765,-347.713"/>
</g>
<!-- RyanteckRobot -->
<g id="node23" class="node"><title>RyanteckRobot</title>
<polygon fill="#2980b9" stroke="#2980b9" points="471.5,-117 388.5,-117 388.5,-81 471.5,-81 471.5,-117"/>
<text text-anchor="middle" x="430" y="-96.5" font-family="Arial" font-size="10.00" fill="#ffffff">RyanteckRobot</text>
</g>
<!-- RyanteckRobot&#45;&gt;Robot -->
<g id="edge20" class="edge"><title>RyanteckRobot&#45;&gt;Robot</title>
<path fill="none" stroke="black" d="M388.148,-106.378C365.46,-110.475 337.485,-115.528 315.604,-119.48"/>
<polygon fill="black" stroke="black" points="314.931,-116.044 305.712,-121.266 316.175,-122.933 314.931,-116.044"/>
</g>
<!-- SnowPi -->
<g id="node24" class="node"><title>SnowPi</title>
<polygon fill="#2980b9" stroke="#2980b9" points="704,-279 650,-279 650,-243 704,-243 704,-279"/>
<text text-anchor="middle" x="677" y="-258.5" font-family="Arial" font-size="10.00" fill="#ffffff">SnowPi</text>
</g>
<!-- SnowPi&#45;&gt;LEDBoard -->
<g id="edge21" class="edge"><title>SnowPi&#45;&gt;LEDBoard</title>
<path fill="none" stroke="black" d="M649.874,-275.423C644.307,-279.124 638.697,-283.381 634,-288 613.435,-308.225 618.025,-321.24 598,-342 597.248,-342.779 596.471,-343.552 595.674,-344.316"/>
<polygon fill="black" stroke="black" points="593.328,-341.717 588.081,-350.921 597.923,-346.999 593.328,-341.717"/>
</g>
<!-- StatusBoard -->
<g id="node25" class="node"><title>StatusBoard</title>
<polygon fill="#2980b9" stroke="#2980b9" points="465.5,-225 394.5,-225 394.5,-189 465.5,-189 465.5,-225"/>
<text text-anchor="middle" x="430" y="-204.5" font-family="Arial" font-size="10.00" fill="#ffffff">StatusBoard</text>
</g>
<!-- StatusBoard&#45;&gt;CompositeOutputDevice -->
<g id="edge22" class="edge"><title>StatusBoard&#45;&gt;CompositeOutputDevice</title>
<path fill="none" stroke="black" d="M394.326,-219.524C377.946,-225.441 357.92,-232.674 339.207,-239.434"/>
<polygon fill="black" stroke="black" points="337.783,-236.226 329.567,-242.916 340.161,-242.81 337.783,-236.226"/>
</g>
<!-- StatusZero -->
<g id="node26" class="node"><title>StatusZero</title>
<polygon fill="#2980b9" stroke="#2980b9" points="709,-225 645,-225 645,-189 709,-189 709,-225"/>
<text text-anchor="middle" x="677" y="-204.5" font-family="Arial" font-size="10.00" fill="#ffffff">StatusZero</text>
</g>
<!-- StatusZero&#45;&gt;LEDBoard -->
<g id="edge23" class="edge"><title>StatusZero&#45;&gt;LEDBoard</title>
<path fill="none" stroke="black" d="M644.604,-223.671C640.664,-226.719 636.979,-230.167 634,-234 602.954,-273.952 627.983,-301.244 598,-342 597.629,-342.505 597.245,-343.004 596.85,-343.497"/>
<polygon fill="black" stroke="black" points="594.072,-341.336 589.65,-350.964 599.111,-346.195 594.072,-341.336"/>
</g>
<!-- TonalBuzzer -->
<g id="node27" class="node"><title>TonalBuzzer</title>
<polygon fill="#2980b9" stroke="#2980b9" points="314,-36 243,-36 243,-0 314,-0 314,-36"/>
<text text-anchor="middle" x="278.5" y="-15.5" font-family="Arial" font-size="10.00" fill="#ffffff">TonalBuzzer</text>
</g>
<!-- TonalBuzzer&#45;&gt;CompositeDevice -->
<g id="edge24" class="edge"><title>TonalBuzzer&#45;&gt;CompositeDevice</title>
<path fill="none" stroke="black" d="M242.69,-31.2677C234.284,-35.1448 225.554,-39.7687 218,-45 195.66,-60.4712 174.092,-82.5031 158.836,-99.6844"/>
<polygon fill="black" stroke="black" points="155.803,-97.8382 151.878,-107.679 161.083,-102.434 155.803,-97.8382"/>
</g>
<!-- TrafficHat -->
<g id="node28" class="node"><title>TrafficHat</title>
<polygon fill="#2980b9" stroke="#2980b9" points="588,-279 531,-279 531,-243 588,-243 588,-279"/>
<text text-anchor="middle" x="559.5" y="-258.5" font-family="Arial" font-size="10.00" fill="#ffffff">TrafficHat</text>
</g>
<!-- TrafficHat&#45;&gt;TrafficLightsBuzzer -->
<g id="edge25" class="edge"><title>TrafficHat&#45;&gt;TrafficLightsBuzzer</title>
<path fill="none" stroke="black" d="M530.834,-272.717C516.875,-278.629 499.475,-285.999 483.129,-292.922"/>
<polygon fill="black" stroke="black" points="481.504,-289.809 473.661,-296.932 484.234,-296.255 481.504,-289.809"/>
</g>
</g>
</svg>
