<?xml version="1.0" encoding="UTF-8" standalone="no"?>
<!DOCTYPE svg PUBLIC "-//W3C//DTD SVG 1.1//EN"
 "http://www.w3.org/Graphics/SVG/1.1/DTD/svg11.dtd">
<!-- Generated by graphviz version 2.38.0 (20140413.2041)
 -->
<!-- Title: classes Pages: 1 -->
<svg width="836pt" height="188pt"
 viewBox="0.00 0.00 835.50 188.00" xmlns="http://www.w3.org/2000/svg" xmlns:xlink="http://www.w3.org/1999/xlink">
<g id="graph0" class="graph" transform="scale(1 1) rotate(0) translate(4 184)">
<title>classes</title>
<polygon fill="white" stroke="none" points="-4,4 -4,-184 831.5,-184 831.5,4 -4,4"/>
<!-- RGBLED -->
<g id="node1" class="node"><title>RGBLED</title>
<polygon fill="#298029" stroke="#298029" points="145.5,-108 89.5,-108 89.5,-72 145.5,-72 145.5,-108"/>
<text text-anchor="middle" x="117.5" y="-87.5" font-family="Arial" font-size="10.00" fill="#ffffff">RGBLED</text>
</g>
<!-- LED -->
<g id="node2" class="node"><title>LED</title>
<polygon fill="#298029" stroke="#298029" points="258.5,-36 204.5,-36 204.5,-0 258.5,-0 258.5,-36"/>
<text text-anchor="middle" x="231.5" y="-15.5" font-family="Arial" font-size="10.00" fill="#ffffff">LED</text>
</g>
<!-- RGBLED&#45;&gt;LED -->
<g id="edge1" class="edge"><title>RGBLED&#45;&gt;LED</title>
<path fill="none" stroke="black" stroke-dasharray="5,2" d="M145.388,-71.8761C160.516,-62.587 179.383,-51.0015 195.599,-41.0447"/>
<polygon fill="none" stroke="black" points="197.603,-43.9209 204.294,-35.7056 193.941,-37.9557 197.603,-43.9209"/>
</g>
<!-- PWMLED -->
<g id="node3" class="node"><title>PWMLED</title>
<polygon fill="#298029" stroke="#298029" points="186.5,-36 126.5,-36 126.5,-0 186.5,-0 186.5,-36"/>
<text text-anchor="middle" x="156.5" y="-15.5" font-family="Arial" font-size="10.00" fill="#ffffff">PWMLED</text>
</g>
<!-- RGBLED&#45;&gt;PWMLED -->
<g id="edge2" class="edge"><title>RGBLED&#45;&gt;PWMLED</title>
<path fill="none" stroke="black" stroke-dasharray="5,2" d="M127.14,-71.6966C131.627,-63.6436 137.059,-53.8945 142.024,-44.9824"/>
<polygon fill="none" stroke="black" points="145.161,-46.5435 146.97,-36.1043 139.046,-43.1366 145.161,-46.5435"/>
</g>
<!-- LEDBoard -->
<g id="node4" class="node"><title>LEDBoard</title>
<polygon fill="#298029" stroke="#298029" points="225,-108 164,-108 164,-72 225,-72 225,-108"/>
<text text-anchor="middle" x="194.5" y="-87.5" font-family="Arial" font-size="10.00" fill="#ffffff">LEDBoard</text>
</g>
<!-- LEDBoard&#45;&gt;LED -->
<g id="edge3" class="edge"><title>LEDBoard&#45;&gt;LED</title>
<path fill="none" stroke="black" stroke-dasharray="5,2" d="M203.646,-71.6966C207.903,-63.6436 213.056,-53.8945 217.766,-44.9824"/>
<polygon fill="none" stroke="black" points="220.88,-46.5809 222.459,-36.1043 214.692,-43.3097 220.88,-46.5809"/>
</g>
<!-- LEDBoard&#45;&gt;PWMLED -->
<g id="edge4" class="edge"><title>LEDBoard&#45;&gt;PWMLED</title>
<path fill="none" stroke="black" stroke-dasharray="5,2" d="M185.107,-71.6966C180.735,-63.6436 175.443,-53.8945 170.605,-44.9824"/>
<polygon fill="none" stroke="black" points="173.632,-43.223 165.785,-36.1043 167.48,-46.5627 173.632,-43.223"/>
</g>
<!-- LEDBarGraph -->
<g id="node5" class="node"><title>LEDBarGraph</title>
<polygon fill="#298029" stroke="#298029" points="320,-108 243,-108 243,-72 320,-72 320,-108"/>
<text text-anchor="middle" x="281.5" y="-87.5" font-family="Arial" font-size="10.00" fill="#ffffff">LEDBarGraph</text>
</g>
<!-- LEDBarGraph&#45;&gt;LED -->
<g id="edge5" class="edge"><title>LEDBarGraph&#45;&gt;LED</title>
<path fill="none" stroke="black" stroke-dasharray="5,2" d="M269.14,-71.6966C263.267,-63.4741 256.131,-53.4832 249.658,-44.4207"/>
<polygon fill="none" stroke="black" points="252.378,-42.2073 243.717,-36.1043 246.682,-46.276 252.378,-42.2073"/>
</g>
<!-- LEDBarGraph&#45;&gt;PWMLED -->
<g id="edge6" class="edge"><title>LEDBarGraph&#45;&gt;PWMLED</title>
<path fill="none" stroke="black" stroke-dasharray="5,2" d="M250.922,-71.8761C234.303,-62.5699 213.569,-50.9589 195.767,-40.9898"/>
<polygon fill="none" stroke="black" points="197.198,-37.7794 186.763,-35.9471 193.778,-43.887 197.198,-37.7794"/>
</g>
<!-- ButtonBoard -->
<g id="node6" class="node"><title>ButtonBoard</title>
<polygon fill="#298029" stroke="#298029" points="400,-180 329,-180 329,-144 400,-144 400,-180"/>
<text text-anchor="middle" x="364.5" y="-159.5" font-family="Arial" font-size="10.00" fill="#ffffff">ButtonBoard</text>
</g>
<!-- Button -->
<g id="node7" class="node"><title>Button</title>
<polygon fill="#298029" stroke="#298029" points="392.5,-108 338.5,-108 338.5,-72 392.5,-72 392.5,-108"/>
<text text-anchor="middle" x="365.5" y="-87.5" font-family="Arial" font-size="10.00" fill="#ffffff">Button</text>
</g>
<!-- ButtonBoard&#45;&gt;Button -->
<g id="edge7" class="edge"><title>ButtonBoard&#45;&gt;Button</title>
<path fill="none" stroke="black" stroke-dasharray="5,2" d="M364.747,-143.697C364.857,-135.983 364.99,-126.712 365.113,-118.112"/>
<polygon fill="none" stroke="black" points="368.612,-118.153 365.256,-108.104 361.613,-118.053 368.612,-118.153"/>
</g>
<!-- TrafficLightsBuzzer -->
<g id="node8" class="node"><title>TrafficLightsBuzzer</title>
<polygon fill="#298029" stroke="#298029" points="517,-180 418,-180 418,-144 517,-144 517,-180"/>
<text text-anchor="middle" x="467.5" y="-159.5" font-family="Arial" font-size="10.00" fill="#ffffff">TrafficLightsBuzzer</text>
</g>
<!-- TrafficLightsBuzzer&#45;&gt;Button -->
<g id="edge10" class="edge"><title>TrafficLightsBuzzer&#45;&gt;Button</title>
<path fill="none" stroke="black" stroke-dasharray="5,2" d="M442.548,-143.876C429.458,-134.893 413.24,-123.763 399.064,-114.034"/>
<polygon fill="none" stroke="black" points="400.774,-110.962 390.548,-108.19 396.813,-116.734 400.774,-110.962"/>
</g>
<!-- TrafficLights -->
<g id="node9" class="node"><title>TrafficLights</title>
<polygon fill="#298029" stroke="#298029" points="565.5,-108 497.5,-108 497.5,-72 565.5,-72 565.5,-108"/>
<text text-anchor="middle" x="531.5" y="-87.5" font-family="Arial" font-size="10.00" fill="#ffffff">TrafficLights</text>
</g>
<!-- TrafficLightsBuzzer&#45;&gt;TrafficLights -->
<g id="edge8" class="edge"><title>TrafficLightsBuzzer&#45;&gt;TrafficLights</title>
<path fill="none" stroke="black" stroke-dasharray="5,2" d="M483.32,-143.697C491.07,-135.22 500.539,-124.864 509.024,-115.583"/>
<polygon fill="none" stroke="black" points="511.697,-117.846 515.862,-108.104 506.531,-113.123 511.697,-117.846"/>
</g>
<!-- Buzzer -->
<g id="node10" class="node"><title>Buzzer</title>
<polygon fill="#298029" stroke="#298029" points="479.5,-108 425.5,-108 425.5,-72 479.5,-72 479.5,-108"/>
<text text-anchor="middle" x="452.5" y="-87.5" font-family="Arial" font-size="10.00" fill="#ffffff">Buzzer</text>
</g>
<!-- TrafficLightsBuzzer&#45;&gt;Buzzer -->
<g id="edge9" class="edge"><title>TrafficLightsBuzzer&#45;&gt;Buzzer</title>
<path fill="none" stroke="black" stroke-dasharray="5,2" d="M463.792,-143.697C462.139,-135.983 460.153,-126.712 458.31,-118.112"/>
<polygon fill="none" stroke="black" points="461.683,-117.149 456.165,-108.104 454.838,-118.616 461.683,-117.149"/>
</g>
<!-- StatusBoard -->
<g id="node11" class="node"><title>StatusBoard</title>
<polygon fill="#298029" stroke="#298029" points="311,-180 240,-180 240,-144 311,-144 311,-180"/>
<text text-anchor="middle" x="275.5" y="-159.5" font-family="Arial" font-size="10.00" fill="#ffffff">StatusBoard</text>
</g>
<!-- StatusBoard&#45;&gt;LEDBoard -->
<g id="edge11" class="edge"><title>StatusBoard&#45;&gt;LEDBoard</title>
<path fill="none" stroke="black" stroke-dasharray="5,2" d="M255.478,-143.697C245.374,-134.965 232.964,-124.24 221.982,-114.75"/>
<polygon fill="none" stroke="black" points="224.147,-111.995 214.292,-108.104 219.57,-117.291 224.147,-111.995"/>
</g>
<!-- StatusBoard&#45;&gt;Button -->
<g id="edge12" class="edge"><title>StatusBoard&#45;&gt;Button</title>
<path fill="none" stroke="black" stroke-dasharray="5,2" d="M297.747,-143.697C309.082,-134.881 323.03,-124.032 335.319,-114.474"/>
<polygon fill="none" stroke="black" points="337.764,-117.007 343.509,-108.104 333.466,-111.481 337.764,-117.007"/>
</g>
<!-- JamHat -->
<g id="node12" class="node"><title>JamHat</title>
<polygon fill="#298029" stroke="#298029" points="221.5,-180 167.5,-180 167.5,-144 221.5,-144 221.5,-180"/>
<text text-anchor="middle" x="194.5" y="-159.5" font-family="Arial" font-size="10.00" fill="#ffffff">JamHat</text>
</g>
<!-- JamHat&#45;&gt;LEDBoard -->
<g id="edge13" class="edge"><title>JamHat&#45;&gt;LEDBoard</title>
<path fill="none" stroke="black" stroke-dasharray="5,2" d="M194.5,-143.697C194.5,-135.983 194.5,-126.712 194.5,-118.112"/>
<polygon fill="none" stroke="black" points="198,-118.104 194.5,-108.104 191,-118.104 198,-118.104"/>
</g>
<!-- JamHat&#45;&gt;Button -->
<g id="edge14" class="edge"><title>JamHat&#45;&gt;Button</title>
<path fill="none" stroke="black" stroke-dasharray="5,2" d="M221.51,-147.929C224.526,-146.564 227.567,-145.228 230.5,-144 273.299,-126.075 285.607,-125.7 328.5,-108 328.598,-107.96 328.696,-107.919 328.794,-107.878"/>
<polygon fill="none" stroke="black" points="330.321,-111.032 338.127,-103.868 327.557,-104.601 330.321,-111.032"/>
</g>
<!-- TonalBuzzer -->
<g id="node13" class="node"><title>TonalBuzzer</title>
<polygon fill="#298029" stroke="#298029" points="71,-108 0,-108 0,-72 71,-72 71,-108"/>
<text text-anchor="middle" x="35.5" y="-87.5" font-family="Arial" font-size="10.00" fill="#ffffff">TonalBuzzer</text>
</g>
<!-- JamHat&#45;&gt;TonalBuzzer -->
<g id="edge15" class="edge"><title>JamHat&#45;&gt;TonalBuzzer</title>
<path fill="none" stroke="black" stroke-dasharray="5,2" d="M167.167,-148.967C143.315,-138.466 108.246,-123.027 80.2974,-110.722"/>
<polygon fill="none" stroke="black" points="81.6811,-107.507 71.1185,-106.681 78.8605,-113.914 81.6811,-107.507"/>
</g>
<!-- Robot -->
<g id="node14" class="node"><title>Robot</title>
<polygon fill="#298029" stroke="#298029" points="755.5,-180 701.5,-180 701.5,-144 755.5,-144 755.5,-180"/>
<text text-anchor="middle" x="728.5" y="-159.5" font-family="Arial" font-size="10.00" fill="#ffffff">Robot</text>
</g>
<!-- Motor -->
<g id="node15" class="node"><title>Motor</title>
<polygon fill="#298029" stroke="#298029" points="755.5,-108 701.5,-108 701.5,-72 755.5,-72 755.5,-108"/>
<text text-anchor="middle" x="728.5" y="-87.5" font-family="Arial" font-size="10.00" fill="#ffffff">Motor</text>
</g>
<!-- Robot&#45;&gt;Motor -->
<g id="edge16" class="edge"><title>Robot&#45;&gt;Motor</title>
<path fill="none" stroke="black" stroke-dasharray="5,2" d="M728.5,-143.697C728.5,-135.983 728.5,-126.712 728.5,-118.112"/>
<polygon fill="none" stroke="black" points="732,-118.104 728.5,-108.104 725,-118.104 732,-118.104"/>
</g>
<!-- DigitalOutputDevice -->
<g id="node16" class="node"><title>DigitalOutputDevice</title>
<polygon fill="#298029" stroke="#298029" points="684,-36 583,-36 583,-0 684,-0 684,-36"/>
<text text-anchor="middle" x="633.5" y="-15.5" font-family="Arial" font-size="10.00" fill="#ffffff">DigitalOutputDevice</text>
</g>
<!-- Motor&#45;&gt;DigitalOutputDevice -->
<g id="edge17" class="edge"><title>Motor&#45;&gt;DigitalOutputDevice</title>
<path fill="none" stroke="black" stroke-dasharray="5,2" d="M705.017,-71.6966C692.937,-62.796 678.046,-51.8232 664.984,-42.1989"/>
<polygon fill="none" stroke="black" points="666.84,-39.2187 656.713,-36.1043 662.687,-44.8541 666.84,-39.2187"/>
</g>
<!-- PWMOutputDevice -->
<g id="node17" class="node"><title>PWMOutputDevice</title>
<polygon fill="#298029" stroke="#298029" points="801,-36 702,-36 702,-0 801,-0 801,-36"/>
<text text-anchor="middle" x="751.5" y="-15.5" font-family="Arial" font-size="10.00" fill="#ffffff">PWMOutputDevice</text>
</g>
<!-- Motor&#45;&gt;PWMOutputDevice -->
<g id="edge18" class="edge"><title>Motor&#45;&gt;PWMOutputDevice</title>
<path fill="none" stroke="black" stroke-dasharray="5,2" d="M734.185,-71.6966C736.748,-63.8979 739.833,-54.5085 742.685,-45.8292"/>
<polygon fill="none" stroke="black" points="746.084,-46.6972 745.88,-36.1043 739.433,-44.5121 746.084,-46.6972"/>
</g>
<!-- PhaseEnableRobot -->
<g id="node18" class="node"><title>PhaseEnableRobot</title>
<polygon fill="#298029" stroke="#298029" points="683.5,-180 583.5,-180 583.5,-144 683.5,-144 683.5,-180"/>
<text text-anchor="middle" x="633.5" y="-159.5" font-family="Arial" font-size="10.00" fill="#ffffff">PhaseEnableRobot</text>
</g>
<!-- PhaseEnableMotor -->
<g id="node19" class="node"><title>PhaseEnableMotor</title>
<polygon fill="#298029" stroke="#298029" points="683,-108 584,-108 584,-72 683,-72 683,-108"/>
<text text-anchor="middle" x="633.5" y="-87.5" font-family="Arial" font-size="10.00" fill="#ffffff">PhaseEnableMotor</text>
</g>
<!-- PhaseEnableRobot&#45;&gt;PhaseEnableMotor -->
<g id="edge19" class="edge"><title>PhaseEnableRobot&#45;&gt;PhaseEnableMotor</title>
<path fill="none" stroke="black" stroke-dasharray="5,2" d="M633.5,-143.697C633.5,-135.983 633.5,-126.712 633.5,-118.112"/>
<polygon fill="none" stroke="black" points="637,-118.104 633.5,-108.104 630,-118.104 637,-118.104"/>
</g>
<!-- PhaseEnableMotor&#45;&gt;DigitalOutputDevice -->
<g id="edge20" class="edge"><title>PhaseEnableMotor&#45;&gt;DigitalOutputDevice</title>
<path fill="none" stroke="black" stroke-dasharray="5,2" d="M633.5,-71.6966C633.5,-63.9827 633.5,-54.7125 633.5,-46.1124"/>
<polygon fill="none" stroke="black" points="637,-46.1043 633.5,-36.1043 630,-46.1044 637,-46.1043"/>
</g>
<!-- PhaseEnableMotor&#45;&gt;PWMOutputDevice -->
<g id="edge21" class="edge"><title>PhaseEnableMotor&#45;&gt;PWMOutputDevice</title>
<path fill="none" stroke="black" stroke-dasharray="5,2" d="M662.366,-71.8761C677.795,-62.7236 696.981,-51.3417 713.597,-41.485"/>
<polygon fill="none" stroke="black" points="715.708,-44.302 722.523,-36.1898 712.137,-38.2816 715.708,-44.302"/>
</g>
<!-- Servo -->
<g id="node20" class="node"><title>Servo</title>
<polygon fill="#298029" stroke="#298029" points="827.5,-108 773.5,-108 773.5,-72 827.5,-72 827.5,-108"/>
<text text-anchor="middle" x="800.5" y="-87.5" font-family="Arial" font-size="10.00" fill="#ffffff">Servo</text>
</g>
<!-- Servo&#45;&gt;PWMOutputDevice -->
<g id="edge22" class="edge"><title>Servo&#45;&gt;PWMOutputDevice</title>
<path fill="none" stroke="black" stroke-dasharray="5,2" d="M788.388,-71.6966C782.632,-63.4741 775.638,-53.4832 769.294,-44.4207"/>
<polygon fill="none" stroke="black" points="772.075,-42.2895 763.473,-36.1043 766.34,-46.3038 772.075,-42.2895"/>
</g>
</g>
</svg>
