<?xml version="1.0" encoding="UTF-8" standalone="no"?>
<!DOCTYPE svg PUBLIC "-//W3C//DTD SVG 1.1//EN"
 "http://www.w3.org/Graphics/SVG/1.1/DTD/svg11.dtd">
<!-- Generated by graphviz version 2.38.0 (20140413.2041)
 -->
<!-- Title: classes Pages: 1 -->
<svg width="856pt" height="557pt"
 viewBox="0.00 0.00 856.00 557.00" xmlns="http://www.w3.org/2000/svg" xmlns:xlink="http://www.w3.org/1999/xlink">
<g id="graph0" class="graph" transform="scale(1 1) rotate(0) translate(4 553)">
<title>classes</title>
<polygon fill="white" stroke="none" points="-4,4 -4,-553 852,-553 852,4 -4,4"/>
<!-- CompositeDevice -->
<g id="node1" class="node"><title>CompositeDevice</title>
<polygon fill="#9ec6e0" stroke="#9ec6e0" points="191,-144 90,-144 90,-108 191,-108 191,-144"/>
<text text-anchor="middle" x="140.5" y="-123.5" font-family="Sans" font-size="10.00" fill="#000000">CompositeDevice</text>
</g>
<!-- Device -->
<g id="node3" class="node"><title>Device</title>
<polygon fill="#9ec6e0" stroke="#9ec6e0" points="54,-171 0,-171 0,-135 54,-135 54,-171"/>
<text text-anchor="middle" x="27" y="-150.5" font-family="Sans" font-size="10.00" fill="#000000">Device</text>
</g>
<!-- CompositeDevice&#45;&gt;Device -->
<g id="edge3" class="edge"><title>CompositeDevice&#45;&gt;Device</title>
<path fill="none" stroke="black" d="M89.9451,-138C81.1791,-140.123 72.2061,-142.295 63.9077,-144.305"/>
<polygon fill="black" stroke="black" points="63.0746,-140.905 54.1792,-146.661 64.7221,-147.709 63.0746,-140.905"/>
</g>
<!-- CompositeOutputDevice -->
<g id="node2" class="node"><title>CompositeOutputDevice</title>
<polygon fill="#9ec6e0" stroke="#9ec6e0" points="361,-279 227,-279 227,-243 361,-243 361,-279"/>
<text text-anchor="middle" x="294" y="-258.5" font-family="Sans" font-size="10.00" fill="#000000">CompositeOutputDevice</text>
</g>
<!-- CompositeOutputDevice&#45;&gt;CompositeDevice -->
<g id="edge4" class="edge"><title>CompositeOutputDevice&#45;&gt;CompositeDevice</title>
<path fill="none" stroke="black" d="M267.335,-242.859C254.436,-233.06 239.033,-220.271 227,-207 207.624,-185.632 212.28,-172.472 191,-153 189.894,-151.988 188.744,-151.001 187.557,-150.038"/>
<polygon fill="black" stroke="black" points="189.463,-147.097 179.313,-144.06 185.354,-152.764 189.463,-147.097"/>
</g>
<!-- LEDCollection -->
<g id="node4" class="node"><title>LEDCollection</title>
<polygon fill="#9ec6e0" stroke="#9ec6e0" points="496,-387 414,-387 414,-351 496,-351 496,-387"/>
<text text-anchor="middle" x="455" y="-366.5" font-family="Sans" font-size="10.00" fill="#000000">LEDCollection</text>
</g>
<!-- LEDCollection&#45;&gt;CompositeOutputDevice -->
<g id="edge10" class="edge"><title>LEDCollection&#45;&gt;CompositeOutputDevice</title>
<path fill="none" stroke="black" d="M413.825,-351.399C408.064,-348.466 402.299,-345.298 397,-342 370.341,-325.406 342.59,-302.981 322.777,-285.933"/>
<polygon fill="black" stroke="black" points="324.905,-283.145 315.063,-279.222 320.311,-288.426 324.905,-283.145"/>
</g>
<!-- ButtonBoard -->
<g id="node5" class="node"><title>ButtonBoard</title>
<polygon fill="#2980b9" stroke="#2980b9" points="332.5,-198 255.5,-198 255.5,-162 332.5,-162 332.5,-198"/>
<text text-anchor="middle" x="294" y="-177.5" font-family="Sans" font-size="10.00" fill="#ffffff">ButtonBoard</text>
</g>
<!-- ButtonBoard&#45;&gt;CompositeDevice -->
<g id="edge1" class="edge"><title>ButtonBoard&#45;&gt;CompositeDevice</title>
<path fill="none" stroke="black" d="M255.161,-166.513C238.667,-160.634 218.942,-153.603 200.59,-147.062"/>
<polygon fill="black" stroke="black" points="201.737,-143.755 191.142,-143.694 199.386,-150.349 201.737,-143.755"/>
</g>
<!-- CamJamKitRobot -->
<g id="node6" class="node"><title>CamJamKitRobot</title>
<polygon fill="#2980b9" stroke="#2980b9" points="503,-171 407,-171 407,-135 503,-135 503,-171"/>
<text text-anchor="middle" x="455" y="-150.5" font-family="Sans" font-size="10.00" fill="#ffffff">CamJamKitRobot</text>
</g>
<!-- Robot -->
<g id="node7" class="node"><title>Robot</title>
<polygon fill="#2980b9" stroke="#2980b9" points="321,-144 267,-144 267,-108 321,-108 321,-144"/>
<text text-anchor="middle" x="294" y="-123.5" font-family="Sans" font-size="10.00" fill="#ffffff">Robot</text>
</g>
<!-- CamJamKitRobot&#45;&gt;Robot -->
<g id="edge2" class="edge"><title>CamJamKitRobot&#45;&gt;Robot</title>
<path fill="none" stroke="black" d="M406.725,-144.972C382.543,-140.866 353.573,-135.946 331.193,-132.146"/>
<polygon fill="black" stroke="black" points="331.546,-128.656 321.101,-130.432 330.374,-135.557 331.546,-128.656"/>
</g>
<!-- Robot&#45;&gt;CompositeDevice -->
<g id="edge19" class="edge"><title>Robot&#45;&gt;CompositeDevice</title>
<path fill="none" stroke="black" d="M266.956,-126C248.908,-126 224.12,-126 201.342,-126"/>
<polygon fill="black" stroke="black" points="201.049,-122.5 191.049,-126 201.049,-129.5 201.049,-122.5"/>
</g>
<!-- Energenie -->
<g id="node8" class="node"><title>Energenie</title>
<polygon fill="#2980b9" stroke="#2980b9" points="173,-198 108,-198 108,-162 173,-162 173,-198"/>
<text text-anchor="middle" x="140.5" y="-177.5" font-family="Sans" font-size="10.00" fill="#ffffff">Energenie</text>
</g>
<!-- Energenie&#45;&gt;Device -->
<g id="edge5" class="edge"><title>Energenie&#45;&gt;Device</title>
<path fill="none" stroke="black" d="M107.847,-172.335C94.1694,-169.023 78.0958,-165.131 63.9692,-161.71"/>
<polygon fill="black" stroke="black" points="64.6319,-158.269 54.089,-159.318 62.9844,-165.073 64.6319,-158.269"/>
</g>
<!-- FishDish -->
<g id="node9" class="node"><title>FishDish</title>
<polygon fill="#2980b9" stroke="#2980b9" points="617.5,-333 561.5,-333 561.5,-297 617.5,-297 617.5,-333"/>
<text text-anchor="middle" x="589.5" y="-312.5" font-family="Sans" font-size="10.00" fill="#ffffff">FishDish</text>
</g>
<!-- TrafficLightsBuzzer -->
<g id="node10" class="node"><title>TrafficLightsBuzzer</title>
<polygon fill="#2980b9" stroke="#2980b9" points="507.5,-333 402.5,-333 402.5,-297 507.5,-297 507.5,-333"/>
<text text-anchor="middle" x="455" y="-312.5" font-family="Sans" font-size="10.00" fill="#ffffff">TrafficLightsBuzzer</text>
</g>
<!-- FishDish&#45;&gt;TrafficLightsBuzzer -->
<g id="edge6" class="edge"><title>FishDish&#45;&gt;TrafficLightsBuzzer</title>
<path fill="none" stroke="black" d="M561.367,-315C548.818,-315 533.351,-315 518.171,-315"/>
<polygon fill="black" stroke="black" points="517.747,-311.5 507.747,-315 517.747,-318.5 517.747,-311.5"/>
</g>
<!-- TrafficLightsBuzzer&#45;&gt;CompositeOutputDevice -->
<g id="edge27" class="edge"><title>TrafficLightsBuzzer&#45;&gt;CompositeOutputDevice</title>
<path fill="none" stroke="black" d="M402.377,-297.468C388.17,-292.643 372.603,-287.356 357.838,-282.341"/>
<polygon fill="black" stroke="black" points="358.868,-278.995 348.274,-279.093 356.617,-285.623 358.868,-278.995"/>
</g>
<!-- JamHat -->
<g id="node11" class="node"><title>JamHat</title>
<polygon fill="#2980b9" stroke="#2980b9" points="482,-279 428,-279 428,-243 482,-243 482,-279"/>
<text text-anchor="middle" x="455" y="-258.5" font-family="Sans" font-size="10.00" fill="#ffffff">JamHat</text>
</g>
<!-- JamHat&#45;&gt;CompositeOutputDevice -->
<g id="edge7" class="edge"><title>JamHat&#45;&gt;CompositeOutputDevice</title>
<path fill="none" stroke="black" d="M427.744,-261C412.2,-261 391.631,-261 371.336,-261"/>
<polygon fill="black" stroke="black" points="371.099,-257.5 361.099,-261 371.099,-264.5 371.099,-257.5"/>
</g>
<!-- LEDBarGraph -->
<g id="node12" class="node"><title>LEDBarGraph</title>
<polygon fill="#2980b9" stroke="#2980b9" points="630,-495 549,-495 549,-459 630,-459 630,-495"/>
<text text-anchor="middle" x="589.5" y="-474.5" font-family="Sans" font-size="10.00" fill="#ffffff">LEDBarGraph</text>
</g>
<!-- LEDBarGraph&#45;&gt;LEDCollection -->
<g id="edge8" class="edge"><title>LEDBarGraph&#45;&gt;LEDCollection</title>
<path fill="none" stroke="black" d="M566.322,-458.923C544.348,-441.012 510.534,-413.45 486.133,-393.561"/>
<polygon fill="black" stroke="black" points="488.213,-390.741 478.25,-387.136 483.79,-396.167 488.213,-390.741"/>
</g>
<!-- LEDBoard -->
<g id="node13" class="node"><title>LEDBoard</title>
<polygon fill="#2980b9" stroke="#2980b9" points="621.5,-387 557.5,-387 557.5,-351 621.5,-351 621.5,-387"/>
<text text-anchor="middle" x="589.5" y="-366.5" font-family="Sans" font-size="10.00" fill="#ffffff">LEDBoard</text>
</g>
<!-- LEDBoard&#45;&gt;LEDCollection -->
<g id="edge9" class="edge"><title>LEDBoard&#45;&gt;LEDCollection</title>
<path fill="none" stroke="black" d="M557.435,-369C542.359,-369 523.859,-369 506.805,-369"/>
<polygon fill="black" stroke="black" points="506.417,-365.5 496.417,-369 506.417,-372.5 506.417,-365.5"/>
</g>
<!-- PhaseEnableRobot -->
<g id="node14" class="node"><title>PhaseEnableRobot</title>
<polygon fill="#2980b9" stroke="#2980b9" points="346.5,-90 241.5,-90 241.5,-54 346.5,-54 346.5,-90"/>
<text text-anchor="middle" x="294" y="-69.5" font-family="Sans" font-size="10.00" fill="#ffffff">PhaseEnableRobot</text>
</g>
<!-- PhaseEnableRobot&#45;&gt;CompositeDevice -->
<g id="edge11" class="edge"><title>PhaseEnableRobot&#45;&gt;CompositeDevice</title>
<path fill="none" stroke="black" d="M242.131,-90.1314C228.919,-94.8406 214.571,-99.9547 200.96,-104.806"/>
<polygon fill="black" stroke="black" points="199.45,-101.629 191.206,-108.283 201.801,-108.222 199.45,-101.629"/>
</g>
<!-- PiHutXmasTree -->
<g id="node15" class="node"><title>PiHutXmasTree</title>
<polygon fill="#2980b9" stroke="#2980b9" points="756.5,-495 667.5,-495 667.5,-459 756.5,-459 756.5,-495"/>
<text text-anchor="middle" x="712" y="-474.5" font-family="Sans" font-size="10.00" fill="#ffffff">PiHutXmasTree</text>
</g>
<!-- PiHutXmasTree&#45;&gt;LEDBoard -->
<g id="edge12" class="edge"><title>PiHutXmasTree&#45;&gt;LEDBoard</title>
<path fill="none" stroke="black" d="M678.305,-458.879C674.037,-456.086 669.824,-453.095 666,-450 645.711,-433.577 625.705,-411.789 611.389,-394.946"/>
<polygon fill="black" stroke="black" points="613.943,-392.545 604.842,-387.121 608.574,-397.037 613.943,-392.545"/>
</g>
<!-- PiLiter -->
<g id="node16" class="node"><title>PiLiter</title>
<polygon fill="#2980b9" stroke="#2980b9" points="739,-441 685,-441 685,-405 739,-405 739,-441"/>
<text text-anchor="middle" x="712" y="-420.5" font-family="Sans" font-size="10.00" fill="#ffffff">PiLiter</text>
</g>
<!-- PiLiter&#45;&gt;LEDBoard -->
<g id="edge13" class="edge"><title>PiLiter&#45;&gt;LEDBoard</title>
<path fill="none" stroke="black" d="M684.853,-411.283C669.201,-404.269 648.971,-395.203 631.259,-387.265"/>
<polygon fill="black" stroke="black" points="632.28,-383.888 621.723,-382.992 629.417,-390.275 632.28,-383.888"/>
</g>
<!-- PiLiterBarGraph -->
<g id="node17" class="node"><title>PiLiterBarGraph</title>
<polygon fill="#2980b9" stroke="#2980b9" points="758,-549 666,-549 666,-513 758,-513 758,-549"/>
<text text-anchor="middle" x="712" y="-528.5" font-family="Sans" font-size="10.00" fill="#ffffff">PiLiterBarGraph</text>
</g>
<!-- PiLiterBarGraph&#45;&gt;LEDBarGraph -->
<g id="edge14" class="edge"><title>PiLiterBarGraph&#45;&gt;LEDBarGraph</title>
<path fill="none" stroke="black" d="M670.54,-512.869C660.594,-508.411 649.839,-503.592 639.537,-498.975"/>
<polygon fill="black" stroke="black" points="640.796,-495.704 630.239,-494.808 637.933,-502.092 640.796,-495.704"/>
</g>
<!-- PiStop -->
<g id="node18" class="node"><title>PiStop</title>
<polygon fill="#2980b9" stroke="#2980b9" points="848,-414 794,-414 794,-378 848,-378 848,-414"/>
<text text-anchor="middle" x="821" y="-393.5" font-family="Sans" font-size="10.00" fill="#ffffff">PiStop</text>
</g>
<!-- TrafficLights -->
<g id="node19" class="node"><title>TrafficLights</title>
<polygon fill="#2980b9" stroke="#2980b9" points="748,-387 676,-387 676,-351 748,-351 748,-387"/>
<text text-anchor="middle" x="712" y="-366.5" font-family="Sans" font-size="10.00" fill="#ffffff">TrafficLights</text>
</g>
<!-- PiStop&#45;&gt;TrafficLights -->
<g id="edge15" class="edge"><title>PiStop&#45;&gt;TrafficLights</title>
<path fill="none" stroke="black" d="M793.825,-389.395C783.094,-386.687 770.359,-383.474 758.209,-380.408"/>
<polygon fill="black" stroke="black" points="758.749,-376.935 748.197,-377.881 757.036,-383.722 758.749,-376.935"/>
</g>
<!-- TrafficLights&#45;&gt;LEDBoard -->
<g id="edge26" class="edge"><title>TrafficLights&#45;&gt;LEDBoard</title>
<path fill="none" stroke="black" d="M675.822,-369C662.071,-369 646.199,-369 631.902,-369"/>
<polygon fill="black" stroke="black" points="631.822,-365.5 621.822,-369 631.822,-372.5 631.822,-365.5"/>
</g>
<!-- PiTraffic -->
<g id="node20" class="node"><title>PiTraffic</title>
<polygon fill="#2980b9" stroke="#2980b9" points="848,-360 794,-360 794,-324 848,-324 848,-360"/>
<text text-anchor="middle" x="821" y="-339.5" font-family="Sans" font-size="10.00" fill="#ffffff">PiTraffic</text>
</g>
<!-- PiTraffic&#45;&gt;TrafficLights -->
<g id="edge16" class="edge"><title>PiTraffic&#45;&gt;TrafficLights</title>
<path fill="none" stroke="black" d="M793.825,-348.605C783.094,-351.313 770.359,-354.526 758.209,-357.592"/>
<polygon fill="black" stroke="black" points="757.036,-354.278 748.197,-360.119 758.749,-361.065 757.036,-354.278"/>
</g>
<!-- PololuDRV8835Robot -->
<g id="node21" class="node"><title>PololuDRV8835Robot</title>
<polygon fill="#2980b9" stroke="#2980b9" points="513,-63 397,-63 397,-27 513,-27 513,-63"/>
<text text-anchor="middle" x="455" y="-42.5" font-family="Sans" font-size="10.00" fill="#ffffff">PololuDRV8835Robot</text>
</g>
<!-- PololuDRV8835Robot&#45;&gt;PhaseEnableRobot -->
<g id="edge17" class="edge"><title>PololuDRV8835Robot&#45;&gt;PhaseEnableRobot</title>
<path fill="none" stroke="black" d="M396.597,-54.7476C383.555,-56.9624 369.65,-59.3236 356.447,-61.5656"/>
<polygon fill="black" stroke="black" points="355.786,-58.1277 346.513,-63.2525 356.958,-65.0289 355.786,-58.1277"/>
</g>
<!-- PumpkinPi -->
<g id="node22" class="node"><title>PumpkinPi</title>
<polygon fill="#2980b9" stroke="#2980b9" points="745,-333 679,-333 679,-297 745,-297 745,-333"/>
<text text-anchor="middle" x="712" y="-312.5" font-family="Sans" font-size="10.00" fill="#ffffff">PumpkinPi</text>
</g>
<!-- PumpkinPi&#45;&gt;LEDBoard -->
<g id="edge18" class="edge"><title>PumpkinPi&#45;&gt;LEDBoard</title>
<path fill="none" stroke="black" d="M678.708,-329.471C664.044,-336.042 646.541,-343.886 631.007,-350.847"/>
<polygon fill="black" stroke="black" points="629.326,-347.765 621.632,-355.049 632.189,-354.153 629.326,-347.765"/>
</g>
<!-- RyanteckRobot -->
<g id="node23" class="node"><title>RyanteckRobot</title>
<polygon fill="#2980b9" stroke="#2980b9" points="498,-117 412,-117 412,-81 498,-81 498,-117"/>
<text text-anchor="middle" x="455" y="-96.5" font-family="Sans" font-size="10.00" fill="#ffffff">RyanteckRobot</text>
</g>
<!-- RyanteckRobot&#45;&gt;Robot -->
<g id="edge20" class="edge"><title>RyanteckRobot&#45;&gt;Robot</title>
<path fill="none" stroke="black" d="M411.808,-106.165C386.804,-110.411 355.432,-115.738 331.498,-119.802"/>
<polygon fill="black" stroke="black" points="330.679,-116.391 321.406,-121.516 331.851,-123.292 330.679,-116.391"/>
</g>
<!-- SnowPi -->
<g id="node24" class="node"><title>SnowPi</title>
<polygon fill="#2980b9" stroke="#2980b9" points="739,-279 685,-279 685,-243 739,-243 739,-279"/>
<text text-anchor="middle" x="712" y="-258.5" font-family="Sans" font-size="10.00" fill="#ffffff">SnowPi</text>
</g>
<!-- SnowPi&#45;&gt;LEDBoard -->
<g id="edge21" class="edge"><title>SnowPi&#45;&gt;LEDBoard</title>
<path fill="none" stroke="black" d="M684.856,-274.035C678.288,-277.996 671.539,-282.719 666,-288 645.124,-307.905 650.278,-321.486 630,-342 629.241,-342.768 628.457,-343.528 627.653,-344.278"/>
<polygon fill="black" stroke="black" points="625.376,-341.619 619.988,-350.742 629.889,-346.97 625.376,-341.619"/>
</g>
<!-- StatusBoard -->
<g id="node25" class="node"><title>StatusBoard</title>
<polygon fill="#2980b9" stroke="#2980b9" points="493.5,-225 416.5,-225 416.5,-189 493.5,-189 493.5,-225"/>
<text text-anchor="middle" x="455" y="-204.5" font-family="Sans" font-size="10.00" fill="#ffffff">StatusBoard</text>
</g>
<!-- StatusBoard&#45;&gt;CompositeOutputDevice -->
<g id="edge22" class="edge"><title>StatusBoard&#45;&gt;CompositeOutputDevice</title>
<path fill="none" stroke="black" d="M416.319,-219.797C398.799,-225.747 377.491,-232.984 357.651,-239.722"/>
<polygon fill="black" stroke="black" points="356.395,-236.452 348.052,-242.982 358.646,-243.081 356.395,-236.452"/>
</g>
<!-- StatusZero -->
<g id="node26" class="node"><title>StatusZero</title>
<polygon fill="#2980b9" stroke="#2980b9" points="747.5,-225 676.5,-225 676.5,-189 747.5,-189 747.5,-225"/>
<text text-anchor="middle" x="712" y="-204.5" font-family="Sans" font-size="10.00" fill="#ffffff">StatusZero</text>
</g>
<!-- StatusZero&#45;&gt;LEDBoard -->
<g id="edge23" class="edge"><title>StatusZero&#45;&gt;LEDBoard</title>
<path fill="none" stroke="black" d="M676.463,-224.07C672.581,-226.996 668.964,-230.304 666,-234 634.34,-273.467 660.478,-301.613 630,-342 629.625,-342.497 629.238,-342.989 628.839,-343.474"/>
<polygon fill="black" stroke="black" points="626.142,-341.224 621.598,-350.795 631.119,-346.146 626.142,-341.224"/>
</g>
<!-- TonalBuzzer -->
<g id="node27" class="node"><title>TonalBuzzer</title>
<polygon fill="#2980b9" stroke="#2980b9" points="331,-36 257,-36 257,-0 331,-0 331,-36"/>
<text text-anchor="middle" x="294" y="-15.5" font-family="Sans" font-size="10.00" fill="#ffffff">TonalBuzzer</text>
</g>
<!-- TonalBuzzer&#45;&gt;CompositeDevice -->
<g id="edge24" class="edge"><title>TonalBuzzer&#45;&gt;CompositeDevice</title>
<path fill="none" stroke="black" d="M256.86,-29.9869C246.811,-34.0531 236.152,-39.0903 227,-45 203.166,-60.3896 180.052,-82.8913 163.878,-100.275"/>
<polygon fill="black" stroke="black" points="161.114,-98.1121 156.958,-107.858 166.284,-102.831 161.114,-98.1121"/>
</g>
<!-- TrafficHat -->
<g id="node28" class="node"><title>TrafficHat</title>
<polygon fill="#2980b9" stroke="#2980b9" points="620,-279 559,-279 559,-243 620,-243 620,-279"/>
<text text-anchor="middle" x="589.5" y="-258.5" font-family="Sans" font-size="10.00" fill="#ffffff">TrafficHat</text>
</g>
<!-- TrafficHat&#45;&gt;TrafficLightsBuzzer -->
<g id="edge25" class="edge"><title>TrafficHat&#45;&gt;TrafficLightsBuzzer</title>
<path fill="none" stroke="black" d="M558.764,-273.119C544.35,-278.993 526.581,-286.235 509.896,-293.035"/>
<polygon fill="black" stroke="black" points="508.171,-289.958 500.231,-296.974 510.813,-296.441 508.171,-289.958"/>
</g>
</g>
</svg>
