<?xml version="1.0" encoding="UTF-8" standalone="no"?>
<!DOCTYPE svg PUBLIC "-//W3C//DTD SVG 1.1//EN"
 "http://www.w3.org/Graphics/SVG/1.1/DTD/svg11.dtd">
<!-- Generated by graphviz version 2.43.0 (0)
 -->
<!-- Title: classes Pages: 1 -->
<svg width="870pt" height="746pt"
 viewBox="0.00 0.00 870.00 746.00" xmlns="http://www.w3.org/2000/svg" xmlns:xlink="http://www.w3.org/1999/xlink">
<g id="graph0" class="graph" transform="scale(1 1) rotate(0) translate(4 742)">
<title>classes</title>
<polygon fill="white" stroke="transparent" points="-4,4 -4,-742 866,-742 866,4 -4,4"/>
<!-- EventsMixin -->
<g id="node1" class="node">
<title>EventsMixin</title>
<polygon fill="#c69ee0" stroke="#c69ee0" points="174.5,-578 102.5,-578 102.5,-542 174.5,-542 174.5,-578"/>
<text text-anchor="middle" x="138.5" y="-557.5" font-family="Sans" font-size="10.00" fill="#000000">EventsMixin</text>
</g>
<!-- HoldMixin -->
<g id="node2" class="node">
<title>HoldMixin</title>
<polygon fill="#c69ee0" stroke="#c69ee0" points="319.5,-617 256.5,-617 256.5,-581 319.5,-581 319.5,-617"/>
<text text-anchor="middle" x="288" y="-596.5" font-family="Sans" font-size="10.00" fill="#000000">HoldMixin</text>
</g>
<!-- HoldMixin&#45;&gt;EventsMixin -->
<g id="edge8" class="edge">
<title>HoldMixin&#45;&gt;EventsMixin</title>
<path fill="none" stroke="black" d="M256.44,-590.92C235.62,-585.41 207.7,-578.03 184.37,-571.86"/>
<polygon fill="black" stroke="black" points="185.25,-568.48 174.69,-569.3 183.46,-575.24 185.25,-568.48"/>
</g>
<!-- CompositeDevice -->
<g id="node3" class="node">
<title>CompositeDevice</title>
<polygon fill="#9ec6e0" stroke="#9ec6e0" points="187,-387 90,-387 90,-351 187,-351 187,-387"/>
<text text-anchor="middle" x="138.5" y="-366.5" font-family="Sans" font-size="10.00" fill="#000000">CompositeDevice</text>
</g>
<!-- Device -->
<g id="node5" class="node">
<title>Device</title>
<polygon fill="#9ec6e0" stroke="#9ec6e0" points="54,-360 0,-360 0,-324 54,-324 54,-360"/>
<text text-anchor="middle" x="27" y="-339.5" font-family="Sans" font-size="10.00" fill="#000000">Device</text>
</g>
<!-- CompositeDevice&#45;&gt;Device -->
<g id="edge4" class="edge">
<title>CompositeDevice&#45;&gt;Device</title>
<path fill="none" stroke="black" d="M89.79,-357.24C81.2,-355.12 72.37,-352.94 64.18,-350.92"/>
<polygon fill="black" stroke="black" points="64.74,-347.46 54.2,-348.46 63.07,-354.25 64.74,-347.46"/>
</g>
<!-- CompositeOutputDevice -->
<g id="node4" class="node">
<title>CompositeOutputDevice</title>
<polygon fill="#9ec6e0" stroke="#9ec6e0" points="353,-387 223,-387 223,-351 353,-351 353,-387"/>
<text text-anchor="middle" x="288" y="-366.5" font-family="Sans" font-size="10.00" fill="#000000">CompositeOutputDevice</text>
</g>
<!-- CompositeOutputDevice&#45;&gt;CompositeDevice -->
<g id="edge5" class="edge">
<title>CompositeOutputDevice&#45;&gt;CompositeDevice</title>
<path fill="none" stroke="black" d="M222.73,-369C214.23,-369 205.56,-369 197.18,-369"/>
<polygon fill="black" stroke="black" points="197.14,-365.5 187.14,-369 197.14,-372.5 197.14,-365.5"/>
</g>
<!-- LEDCollection -->
<g id="node6" class="node">
<title>LEDCollection</title>
<polygon fill="#9ec6e0" stroke="#9ec6e0" points="487,-576 407,-576 407,-540 487,-540 487,-576"/>
<text text-anchor="middle" x="447" y="-555.5" font-family="Sans" font-size="10.00" fill="#000000">LEDCollection</text>
</g>
<!-- LEDCollection&#45;&gt;CompositeOutputDevice -->
<g id="edge13" class="edge">
<title>LEDCollection&#45;&gt;CompositeOutputDevice</title>
<path fill="none" stroke="black" d="M406.74,-544.02C400.26,-540.49 394.04,-536.18 389,-531 361.26,-502.46 373.61,-483.05 353,-449 341.35,-429.74 325.57,-409.97 312.6,-394.9"/>
<polygon fill="black" stroke="black" points="314.95,-392.27 305.73,-387.05 309.68,-396.88 314.95,-392.27"/>
</g>
<!-- ButtonBoard -->
<g id="node7" class="node">
<title>ButtonBoard</title>
<polygon fill="#2980b9" stroke="#2980b9" points="485.5,-630 408.5,-630 408.5,-594 485.5,-594 485.5,-630"/>
<text text-anchor="middle" x="447" y="-609.5" font-family="Sans" font-size="10.00" fill="#ffffff">ButtonBoard</text>
</g>
<!-- ButtonBoard&#45;&gt;HoldMixin -->
<g id="edge2" class="edge">
<title>ButtonBoard&#45;&gt;HoldMixin</title>
<path fill="none" stroke="black" d="M408.39,-608.89C384.66,-606.92 354.01,-604.38 329.7,-602.37"/>
<polygon fill="black" stroke="black" points="329.97,-598.88 319.71,-601.54 329.39,-605.86 329.97,-598.88"/>
</g>
<!-- ButtonBoard&#45;&gt;CompositeDevice -->
<g id="edge1" class="edge">
<title>ButtonBoard&#45;&gt;CompositeDevice</title>
<path fill="none" stroke="black" d="M408.27,-598.75C401.27,-595.08 394.46,-590.54 389,-585 361.92,-557.52 378.27,-535.16 353,-506 307.85,-453.89 238.07,-414.27 190.68,-391.36"/>
<polygon fill="black" stroke="black" points="192.04,-388.14 181.51,-387.01 189.04,-394.46 192.04,-388.14"/>
</g>
<!-- CamJamKitRobot -->
<g id="node8" class="node">
<title>CamJamKitRobot</title>
<polygon fill="#2980b9" stroke="#2980b9" points="494,-144 400,-144 400,-108 494,-108 494,-144"/>
<text text-anchor="middle" x="447" y="-123.5" font-family="Sans" font-size="10.00" fill="#ffffff">CamJamKitRobot</text>
</g>
<!-- Robot -->
<g id="node24" class="node">
<title>Robot</title>
<polygon fill="#2980b9" stroke="#2980b9" points="315,-144 261,-144 261,-108 315,-108 315,-144"/>
<text text-anchor="middle" x="288" y="-123.5" font-family="Sans" font-size="10.00" fill="#ffffff">Robot</text>
</g>
<!-- CamJamKitRobot&#45;&gt;Robot -->
<g id="edge3" class="edge">
<title>CamJamKitRobot&#45;&gt;Robot</title>
<path fill="none" stroke="black" d="M399.74,-126C376.11,-126 347.76,-126 325.67,-126"/>
<polygon fill="black" stroke="black" points="325.37,-122.5 315.37,-126 325.37,-129.5 325.37,-122.5"/>
</g>
<!-- Energenie -->
<g id="node9" class="node">
<title>Energenie</title>
<polygon fill="#2980b9" stroke="#2980b9" points="170.5,-333 106.5,-333 106.5,-297 170.5,-297 170.5,-333"/>
<text text-anchor="middle" x="138.5" y="-312.5" font-family="Sans" font-size="10.00" fill="#ffffff">Energenie</text>
</g>
<!-- Energenie&#45;&gt;Device -->
<g id="edge6" class="edge">
<title>Energenie&#45;&gt;Device</title>
<path fill="none" stroke="black" d="M106.41,-322.66C93.31,-325.9 77.98,-329.68 64.36,-333.04"/>
<polygon fill="black" stroke="black" points="63.21,-329.71 54.34,-335.5 64.89,-336.51 63.21,-329.71"/>
</g>
<!-- FishDish -->
<g id="node10" class="node">
<title>FishDish</title>
<polygon fill="#2980b9" stroke="#2980b9" points="474.5,-522 419.5,-522 419.5,-486 474.5,-486 474.5,-522"/>
<text text-anchor="middle" x="447" y="-501.5" font-family="Sans" font-size="10.00" fill="#ffffff">FishDish</text>
</g>
<!-- FishDish&#45;&gt;CompositeOutputDevice -->
<g id="edge7" class="edge">
<title>FishDish&#45;&gt;CompositeOutputDevice</title>
<path fill="none" stroke="black" d="M419.29,-493.87C409.31,-489.46 398.18,-483.74 389,-477 357.08,-453.57 327.16,-418.93 308.51,-395.24"/>
<polygon fill="black" stroke="black" points="311.06,-392.81 302.17,-387.05 305.53,-397.1 311.06,-392.81"/>
</g>
<!-- JamHat -->
<g id="node11" class="node">
<title>JamHat</title>
<polygon fill="#2980b9" stroke="#2980b9" points="474,-468 420,-468 420,-432 474,-432 474,-468"/>
<text text-anchor="middle" x="447" y="-447.5" font-family="Sans" font-size="10.00" fill="#ffffff">JamHat</text>
</g>
<!-- JamHat&#45;&gt;CompositeOutputDevice -->
<g id="edge9" class="edge">
<title>JamHat&#45;&gt;CompositeOutputDevice</title>
<path fill="none" stroke="black" d="M419.75,-437.92C410.04,-433.36 398.96,-428.05 389,-423 369.66,-413.21 348.51,-401.88 330.66,-392.13"/>
<polygon fill="black" stroke="black" points="332.1,-388.93 321.65,-387.19 328.74,-395.07 332.1,-388.93"/>
</g>
<!-- LEDBarGraph -->
<g id="node12" class="node">
<title>LEDBarGraph</title>
<polygon fill="#2980b9" stroke="#2980b9" points="625.5,-684 545.5,-684 545.5,-648 625.5,-648 625.5,-684"/>
<text text-anchor="middle" x="585.5" y="-663.5" font-family="Sans" font-size="10.00" fill="#ffffff">LEDBarGraph</text>
</g>
<!-- LEDBarGraph&#45;&gt;LEDCollection -->
<g id="edge10" class="edge">
<title>LEDBarGraph&#45;&gt;LEDCollection</title>
<path fill="none" stroke="black" d="M569.9,-647.75C555.01,-630.01 530.52,-603.17 505,-585 502.15,-582.97 499.12,-581.03 496,-579.18"/>
<polygon fill="black" stroke="black" points="497.51,-576.01 487.06,-574.23 494.12,-582.14 497.51,-576.01"/>
</g>
<!-- LEDBoard -->
<g id="node13" class="node">
<title>LEDBoard</title>
<polygon fill="#2980b9" stroke="#2980b9" points="616.5,-576 554.5,-576 554.5,-540 616.5,-540 616.5,-576"/>
<text text-anchor="middle" x="585.5" y="-555.5" font-family="Sans" font-size="10.00" fill="#ffffff">LEDBoard</text>
</g>
<!-- LEDBoard&#45;&gt;LEDCollection -->
<g id="edge11" class="edge">
<title>LEDBoard&#45;&gt;LEDCollection</title>
<path fill="none" stroke="black" d="M554.21,-558C537.43,-558 516.16,-558 497.08,-558"/>
<polygon fill="black" stroke="black" points="497.04,-554.5 487.04,-558 497.04,-561.5 497.04,-554.5"/>
</g>
<!-- LEDCharDisplay -->
<g id="node14" class="node">
<title>LEDCharDisplay</title>
<polygon fill="#2980b9" stroke="#2980b9" points="630,-522 541,-522 541,-486 630,-486 630,-522"/>
<text text-anchor="middle" x="585.5" y="-501.5" font-family="Sans" font-size="10.00" fill="#ffffff">LEDCharDisplay</text>
</g>
<!-- LEDCharDisplay&#45;&gt;LEDCollection -->
<g id="edge12" class="edge">
<title>LEDCharDisplay&#45;&gt;LEDCollection</title>
<path fill="none" stroke="black" d="M540.94,-521.23C526.99,-526.75 511.45,-532.9 497.14,-538.56"/>
<polygon fill="black" stroke="black" points="495.47,-535.46 487.46,-542.39 498.04,-541.97 495.47,-535.46"/>
</g>
<!-- LEDMultiCharDisplay -->
<g id="node15" class="node">
<title>LEDMultiCharDisplay</title>
<polygon fill="#2980b9" stroke="#2980b9" points="503.5,-414 390.5,-414 390.5,-378 503.5,-378 503.5,-414"/>
<text text-anchor="middle" x="447" y="-393.5" font-family="Sans" font-size="10.00" fill="#ffffff">LEDMultiCharDisplay</text>
</g>
<!-- LEDMultiCharDisplay&#45;&gt;CompositeOutputDevice -->
<g id="edge14" class="edge">
<title>LEDMultiCharDisplay&#45;&gt;CompositeOutputDevice</title>
<path fill="none" stroke="black" d="M390.21,-386.4C381.4,-384.89 372.18,-383.31 363.04,-381.73"/>
<polygon fill="black" stroke="black" points="363.63,-378.28 353.18,-380.04 362.45,-385.18 363.63,-378.28"/>
</g>
<!-- PiHutXmasTree -->
<g id="node16" class="node">
<title>PiHutXmasTree</title>
<polygon fill="#2980b9" stroke="#2980b9" points="756,-684 668,-684 668,-648 756,-648 756,-684"/>
<text text-anchor="middle" x="712" y="-663.5" font-family="Sans" font-size="10.00" fill="#ffffff">PiHutXmasTree</text>
</g>
<!-- PiHutXmasTree&#45;&gt;LEDBoard -->
<g id="edge15" class="edge">
<title>PiHutXmasTree&#45;&gt;LEDBoard</title>
<path fill="none" stroke="black" d="M678.38,-647.79C674.1,-645.01 669.86,-642.05 666,-639 644.99,-622.44 623.9,-600.66 608.73,-583.85"/>
<polygon fill="black" stroke="black" points="611.05,-581.19 601.78,-576.05 605.82,-585.85 611.05,-581.19"/>
</g>
<!-- PiLiter -->
<g id="node17" class="node">
<title>PiLiter</title>
<polygon fill="#2980b9" stroke="#2980b9" points="739,-630 685,-630 685,-594 739,-594 739,-630"/>
<text text-anchor="middle" x="712" y="-609.5" font-family="Sans" font-size="10.00" fill="#ffffff">PiLiter</text>
</g>
<!-- PiLiter&#45;&gt;LEDBoard -->
<g id="edge16" class="edge">
<title>PiLiter&#45;&gt;LEDBoard</title>
<path fill="none" stroke="black" d="M684.9,-600.68C667.82,-593.27 645.19,-583.45 625.93,-575.1"/>
<polygon fill="black" stroke="black" points="627.07,-571.78 616.5,-571.01 624.29,-578.2 627.07,-571.78"/>
</g>
<!-- PiLiterBarGraph -->
<g id="node18" class="node">
<title>PiLiterBarGraph</title>
<polygon fill="#2980b9" stroke="#2980b9" points="758,-738 666,-738 666,-702 758,-702 758,-738"/>
<text text-anchor="middle" x="712" y="-717.5" font-family="Sans" font-size="10.00" fill="#ffffff">PiLiterBarGraph</text>
</g>
<!-- PiLiterBarGraph&#45;&gt;LEDBarGraph -->
<g id="edge17" class="edge">
<title>PiLiterBarGraph&#45;&gt;LEDBarGraph</title>
<path fill="none" stroke="black" d="M669.2,-701.87C658.27,-697.13 646.4,-691.98 635.15,-687.1"/>
<polygon fill="black" stroke="black" points="636.44,-683.85 625.88,-683.08 633.66,-690.27 636.44,-683.85"/>
</g>
<!-- PiStop -->
<g id="node19" class="node">
<title>PiStop</title>
<polygon fill="#2980b9" stroke="#2980b9" points="855,-468 801,-468 801,-432 855,-432 855,-468"/>
<text text-anchor="middle" x="828" y="-447.5" font-family="Sans" font-size="10.00" fill="#ffffff">PiStop</text>
</g>
<!-- TrafficLights -->
<g id="node32" class="node">
<title>TrafficLights</title>
<polygon fill="#2980b9" stroke="#2980b9" points="748.5,-414 675.5,-414 675.5,-378 748.5,-378 748.5,-414"/>
<text text-anchor="middle" x="712" y="-393.5" font-family="Sans" font-size="10.00" fill="#ffffff">TrafficLights</text>
</g>
<!-- PiStop&#45;&gt;TrafficLights -->
<g id="edge18" class="edge">
<title>PiStop&#45;&gt;TrafficLights</title>
<path fill="none" stroke="black" d="M800.85,-437.61C788.12,-431.58 772.46,-424.16 757.9,-417.27"/>
<polygon fill="black" stroke="black" points="759.07,-413.95 748.54,-412.83 756.07,-420.28 759.07,-413.95"/>
</g>
<!-- PiTraffic -->
<g id="node20" class="node">
<title>PiTraffic</title>
<polygon fill="#2980b9" stroke="#2980b9" points="855,-414 801,-414 801,-378 855,-378 855,-414"/>
<text text-anchor="middle" x="828" y="-393.5" font-family="Sans" font-size="10.00" fill="#ffffff">PiTraffic</text>
</g>
<!-- PiTraffic&#45;&gt;TrafficLights -->
<g id="edge19" class="edge">
<title>PiTraffic&#45;&gt;TrafficLights</title>
<path fill="none" stroke="black" d="M800.85,-396C788.36,-396 773.05,-396 758.73,-396"/>
<polygon fill="black" stroke="black" points="758.54,-392.5 748.54,-396 758.54,-399.5 758.54,-392.5"/>
</g>
<!-- Pibrella -->
<g id="node21" class="node">
<title>Pibrella</title>
<polygon fill="#2980b9" stroke="#2980b9" points="474,-360 420,-360 420,-324 474,-324 474,-360"/>
<text text-anchor="middle" x="447" y="-339.5" font-family="Sans" font-size="10.00" fill="#ffffff">Pibrella</text>
</g>
<!-- Pibrella&#45;&gt;CompositeOutputDevice -->
<g id="edge20" class="edge">
<title>Pibrella&#45;&gt;CompositeOutputDevice</title>
<path fill="none" stroke="black" d="M419.72,-346.52C404.12,-349.2 383.48,-352.75 363.22,-356.24"/>
<polygon fill="black" stroke="black" points="362.59,-352.79 353.33,-357.94 363.77,-359.69 362.59,-352.79"/>
</g>
<!-- PololuDRV8835Robot -->
<g id="node22" class="node">
<title>PololuDRV8835Robot</title>
<polygon fill="#2980b9" stroke="#2980b9" points="505,-90 389,-90 389,-54 505,-54 505,-90"/>
<text text-anchor="middle" x="447" y="-69.5" font-family="Sans" font-size="10.00" fill="#ffffff">PololuDRV8835Robot</text>
</g>
<!-- PololuDRV8835Robot&#45;&gt;Robot -->
<g id="edge21" class="edge">
<title>PololuDRV8835Robot&#45;&gt;Robot</title>
<path fill="none" stroke="black" d="M393.28,-90.13C370.78,-97.87 345.09,-106.71 324.84,-113.67"/>
<polygon fill="black" stroke="black" points="323.69,-110.37 315.37,-116.93 325.97,-116.99 323.69,-110.37"/>
</g>
<!-- PumpkinPi -->
<g id="node23" class="node">
<title>PumpkinPi</title>
<polygon fill="#2980b9" stroke="#2980b9" points="744.5,-576 679.5,-576 679.5,-540 744.5,-540 744.5,-576"/>
<text text-anchor="middle" x="712" y="-555.5" font-family="Sans" font-size="10.00" fill="#ffffff">PumpkinPi</text>
</g>
<!-- PumpkinPi&#45;&gt;LEDBoard -->
<g id="edge22" class="edge">
<title>PumpkinPi&#45;&gt;LEDBoard</title>
<path fill="none" stroke="black" d="M679.26,-558C663.39,-558 644.01,-558 627.07,-558"/>
<polygon fill="black" stroke="black" points="626.89,-554.5 616.89,-558 626.89,-561.5 626.89,-554.5"/>
</g>
<!-- Robot&#45;&gt;CompositeDevice -->
<g id="edge23" class="edge">
<title>Robot&#45;&gt;CompositeDevice</title>
<path fill="none" stroke="black" d="M282.69,-144.05C272.37,-184.04 242.82,-281.33 187,-342 186.26,-342.8 185.49,-343.59 184.7,-344.36"/>
<polygon fill="black" stroke="black" points="182.43,-341.69 176.99,-350.78 186.91,-347.07 182.43,-341.69"/>
</g>
<!-- RotaryEncoder -->
<g id="node25" class="node">
<title>RotaryEncoder</title>
<polygon fill="#2980b9" stroke="#2980b9" points="331,-551 245,-551 245,-515 331,-515 331,-551"/>
<text text-anchor="middle" x="288" y="-530.5" font-family="Sans" font-size="10.00" fill="#ffffff">RotaryEncoder</text>
</g>
<!-- RotaryEncoder&#45;&gt;EventsMixin -->
<g id="edge25" class="edge">
<title>RotaryEncoder&#45;&gt;EventsMixin</title>
<path fill="none" stroke="black" d="M244.73,-540.74C225.97,-544.17 203.86,-548.22 184.77,-551.71"/>
<polygon fill="black" stroke="black" points="184,-548.3 174.8,-553.54 185.26,-555.18 184,-548.3"/>
</g>
<!-- RotaryEncoder&#45;&gt;CompositeDevice -->
<g id="edge24" class="edge">
<title>RotaryEncoder&#45;&gt;CompositeDevice</title>
<path fill="none" stroke="black" d="M264.11,-514.82C251.45,-504.32 235.75,-490.55 223,-477 198.48,-450.95 173.84,-418.06 157.75,-395.47"/>
<polygon fill="black" stroke="black" points="160.44,-393.21 151.82,-387.05 154.72,-397.24 160.44,-393.21"/>
</g>
<!-- RyanteckRobot -->
<g id="node26" class="node">
<title>RyanteckRobot</title>
<polygon fill="#2980b9" stroke="#2980b9" points="490,-36 404,-36 404,0 490,0 490,-36"/>
<text text-anchor="middle" x="447" y="-15.5" font-family="Sans" font-size="10.00" fill="#ffffff">RyanteckRobot</text>
</g>
<!-- RyanteckRobot&#45;&gt;Robot -->
<g id="edge26" class="edge">
<title>RyanteckRobot&#45;&gt;Robot</title>
<path fill="none" stroke="black" d="M403.9,-34.68C398.6,-37.7 393.47,-41.13 389,-45 367.17,-63.86 375.23,-80.62 353,-99 344.78,-105.8 334.59,-111.13 324.78,-115.18"/>
<polygon fill="black" stroke="black" points="323.29,-112.01 315.18,-118.83 325.77,-118.55 323.29,-112.01"/>
</g>
<!-- SnowPi -->
<g id="node27" class="node">
<title>SnowPi</title>
<polygon fill="#2980b9" stroke="#2980b9" points="739,-522 685,-522 685,-486 739,-486 739,-522"/>
<text text-anchor="middle" x="712" y="-501.5" font-family="Sans" font-size="10.00" fill="#ffffff">SnowPi</text>
</g>
<!-- SnowPi&#45;&gt;LEDBoard -->
<g id="edge27" class="edge">
<title>SnowPi&#45;&gt;LEDBoard</title>
<path fill="none" stroke="black" d="M684.9,-515.32C667.82,-522.73 645.19,-532.55 625.93,-540.9"/>
<polygon fill="black" stroke="black" points="624.29,-537.8 616.5,-544.99 627.07,-544.22 624.29,-537.8"/>
</g>
<!-- StatusBoard -->
<g id="node28" class="node">
<title>StatusBoard</title>
<polygon fill="#2980b9" stroke="#2980b9" points="483.5,-306 410.5,-306 410.5,-270 483.5,-270 483.5,-306"/>
<text text-anchor="middle" x="447" y="-285.5" font-family="Sans" font-size="10.00" fill="#ffffff">StatusBoard</text>
</g>
<!-- StatusBoard&#45;&gt;CompositeOutputDevice -->
<g id="edge28" class="edge">
<title>StatusBoard&#45;&gt;CompositeOutputDevice</title>
<path fill="none" stroke="black" d="M410.28,-304.56C403.2,-307.95 395.84,-311.54 389,-315 369.66,-324.79 348.51,-336.12 330.66,-345.87"/>
<polygon fill="black" stroke="black" points="328.74,-342.93 321.65,-350.81 332.1,-349.07 328.74,-342.93"/>
</g>
<!-- StatusZero -->
<g id="node29" class="node">
<title>StatusZero</title>
<polygon fill="#2980b9" stroke="#2980b9" points="745.5,-468 678.5,-468 678.5,-432 745.5,-432 745.5,-468"/>
<text text-anchor="middle" x="712" y="-447.5" font-family="Sans" font-size="10.00" fill="#ffffff">StatusZero</text>
</g>
<!-- StatusZero&#45;&gt;LEDBoard -->
<g id="edge29" class="edge">
<title>StatusZero&#45;&gt;LEDBoard</title>
<path fill="none" stroke="black" d="M678.28,-467.24C673.92,-470.21 669.69,-473.48 666,-477 645.12,-496.91 650.72,-510.94 630,-531 628.39,-532.56 626.68,-534.07 624.9,-535.53"/>
<polygon fill="black" stroke="black" points="622.69,-532.81 616.76,-541.59 626.87,-538.42 622.69,-532.81"/>
</g>
<!-- TonalBuzzer -->
<g id="node30" class="node">
<title>TonalBuzzer</title>
<polygon fill="#2980b9" stroke="#2980b9" points="324.5,-90 251.5,-90 251.5,-54 324.5,-54 324.5,-90"/>
<text text-anchor="middle" x="288" y="-69.5" font-family="Sans" font-size="10.00" fill="#ffffff">TonalBuzzer</text>
</g>
<!-- TonalBuzzer&#45;&gt;CompositeDevice -->
<g id="edge30" class="edge">
<title>TonalBuzzer&#45;&gt;CompositeDevice</title>
<path fill="none" stroke="black" d="M251.23,-79.86C240.64,-83.89 230.02,-89.94 223,-99 156.12,-185.3 248.69,-251.92 187,-342 186.65,-342.51 186.28,-343.02 185.91,-343.52"/>
<polygon fill="black" stroke="black" points="183.28,-341.2 178.86,-350.83 188.32,-346.05 183.28,-341.2"/>
</g>
<!-- TrafficHat -->
<g id="node31" class="node">
<title>TrafficHat</title>
<polygon fill="#2980b9" stroke="#2980b9" points="478,-252 416,-252 416,-216 478,-216 478,-252"/>
<text text-anchor="middle" x="447" y="-231.5" font-family="Sans" font-size="10.00" fill="#ffffff">TrafficHat</text>
</g>
<!-- TrafficHat&#45;&gt;CompositeOutputDevice -->
<g id="edge31" class="edge">
<title>TrafficHat&#45;&gt;CompositeOutputDevice</title>
<path fill="none" stroke="black" d="M415.79,-245.71C406.77,-249.88 397.12,-255.04 389,-261 357.08,-284.43 327.16,-319.07 308.51,-342.76"/>
<polygon fill="black" stroke="black" points="305.53,-340.9 302.17,-350.95 311.06,-345.19 305.53,-340.9"/>
</g>
<!-- TrafficLights&#45;&gt;LEDBoard -->
<g id="edge32" class="edge">
<title>TrafficLights&#45;&gt;LEDBoard</title>
<path fill="none" stroke="black" d="M675.13,-414.1C671.76,-416.76 668.62,-419.73 666,-423 634.34,-462.47 661.36,-491.3 630,-531 628.41,-533.01 626.62,-534.92 624.71,-536.71"/>
<polygon fill="black" stroke="black" points="622.4,-534.07 616.81,-543.07 626.79,-539.52 622.4,-534.07"/>
</g>
<!-- TrafficLightsBuzzer -->
<g id="node33" class="node">
<title>TrafficLightsBuzzer</title>
<polygon fill="#2980b9" stroke="#2980b9" points="499.5,-198 394.5,-198 394.5,-162 499.5,-162 499.5,-198"/>
<text text-anchor="middle" x="447" y="-177.5" font-family="Sans" font-size="10.00" fill="#ffffff">TrafficLightsBuzzer</text>
</g>
<!-- TrafficLightsBuzzer&#45;&gt;CompositeOutputDevice -->
<g id="edge33" class="edge">
<title>TrafficLightsBuzzer&#45;&gt;CompositeOutputDevice</title>
<path fill="none" stroke="black" d="M401.15,-198.09C396.81,-200.75 392.67,-203.71 389,-207 346.3,-245.22 315.57,-305.98 300.18,-341.22"/>
<polygon fill="black" stroke="black" points="296.77,-340.29 296.08,-350.86 303.21,-343.03 296.77,-340.29"/>
</g>
<!-- TrafficpHat -->
<g id="node34" class="node">
<title>TrafficpHat</title>
<polygon fill="#2980b9" stroke="#2980b9" points="862,-360 794,-360 794,-324 862,-324 862,-360"/>
<text text-anchor="middle" x="828" y="-339.5" font-family="Sans" font-size="10.00" fill="#ffffff">TrafficpHat</text>
</g>
<!-- TrafficpHat&#45;&gt;TrafficLights -->
<g id="edge34" class="edge">
<title>TrafficpHat&#45;&gt;TrafficLights</title>
<path fill="none" stroke="black" d="M793.72,-357.76C782.52,-363.07 769.83,-369.08 757.89,-374.74"/>
<polygon fill="black" stroke="black" points="756.05,-371.74 748.51,-379.18 759.04,-378.06 756.05,-371.74"/>
</g>
</g>
</svg>
