<?xml version="1.0" encoding="UTF-8" standalone="no"?>
<!DOCTYPE svg PUBLIC "-//W3C//DTD SVG 1.1//EN"
 "http://www.w3.org/Graphics/SVG/1.1/DTD/svg11.dtd">
<!-- Generated by graphviz version 2.40.1 (20161225.0304)
 -->
<!-- Title: device_pins Pages: 1 -->
<svg width="342pt" height="429pt"
 viewBox="0.00 0.00 341.50 429.00" xmlns="http://www.w3.org/2000/svg" xmlns:xlink="http://www.w3.org/1999/xlink">
<g id="graph0" class="graph" transform="scale(1 1) rotate(0) translate(4 425)">
<title>device_pins</title>
<polygon fill="#ffffff" stroke="transparent" points="-4,4 -4,-425 337.5,-425 337.5,4 -4,4"/>
<!-- constructor -->
<g id="node1" class="node">
<title>constructor</title>
<polygon fill="#660033" stroke="#660033" points="272.5,-421 176.5,-421 176.5,-385 272.5,-385 272.5,-421"/>
<text text-anchor="middle" x="224.5" y="-406" font-family="Arial" font-size="10.00" fill="#ffffff">LED(pin_spec, ...,</text>
<text text-anchor="middle" x="224.5" y="-395" font-family="Arial" font-size="10.00" fill="#ffffff">pin_factory=None)</text>
</g>
<!-- pin_factory_kwarg -->
<g id="node2" class="node">
<title>pin_factory_kwarg</title>
<polygon fill="#660033" stroke="#660033" points="224.5,-348 159.5,-318 224.5,-288 289.5,-318 224.5,-348"/>
<text text-anchor="middle" x="224.5" y="-321" font-family="Arial" font-size="10.00" fill="#ffffff">pin_factory</text>
<text text-anchor="middle" x="224.5" y="-310" font-family="Arial" font-size="10.00" fill="#ffffff">is None?</text>
</g>
<!-- constructor&#45;&gt;pin_factory_kwarg -->
<g id="edge1" class="edge">
<title>constructor&#45;&gt;pin_factory_kwarg</title>
<path fill="none" stroke="#000000" d="M224.5,-384.9737C224.5,-377.1004 224.5,-367.5272 224.5,-358.1108"/>
<polygon fill="#000000" stroke="#000000" points="228.0001,-358.0425 224.5,-348.0426 221.0001,-358.0426 228.0001,-358.0425"/>
</g>
<!-- device_pin_factory -->
<g id="node3" class="node">
<title>device_pin_factory</title>
<polygon fill="#660033" stroke="#660033" points="161.5,-241 63.5,-211 161.5,-181 259.5,-211 161.5,-241"/>
<text text-anchor="middle" x="161.5" y="-214" font-family="Arial" font-size="10.00" fill="#ffffff">Device.pin_factory</text>
<text text-anchor="middle" x="161.5" y="-203" font-family="Arial" font-size="10.00" fill="#ffffff">is None?</text>
</g>
<!-- pin_factory_kwarg&#45;&gt;device_pin_factory -->
<g id="edge2" class="edge">
<title>pin_factory_kwarg&#45;&gt;device_pin_factory</title>
<path fill="none" stroke="#000000" d="M210.5183,-294.2532C202.094,-279.9453 191.2186,-261.4744 181.8527,-245.5672"/>
<polygon fill="#000000" stroke="#000000" points="184.6323,-243.3899 176.5425,-236.5484 178.6002,-246.9415 184.6323,-243.3899"/>
<text text-anchor="middle" x="203.5" y="-262" font-family="Arial" font-size="10.00" fill="#000000">yes</text>
</g>
<!-- override_factory -->
<g id="node6" class="node">
<title>override_factory</title>
<polygon fill="#660033" stroke="#660033" points="333.5,-163 241.5,-163 241.5,-127 333.5,-127 333.5,-163"/>
<text text-anchor="middle" x="287.5" y="-148" font-family="Arial" font-size="10.00" fill="#ffffff">self.pin_factory =</text>
<text text-anchor="middle" x="287.5" y="-137" font-family="Arial" font-size="10.00" fill="#ffffff">pin_factory</text>
</g>
<!-- pin_factory_kwarg&#45;&gt;override_factory -->
<g id="edge3" class="edge">
<title>pin_factory_kwarg&#45;&gt;override_factory</title>
<path fill="none" stroke="#000000" d="M240.252,-295.041C249.7422,-280.2184 261.3386,-260.1845 268.5,-241 276.7218,-218.9747 281.6066,-192.7116 284.3597,-173.2272"/>
<polygon fill="#000000" stroke="#000000" points="287.8486,-173.5399 285.6776,-163.1699 280.9079,-172.6303 287.8486,-173.5399"/>
<text text-anchor="middle" x="266" y="-262" font-family="Arial" font-size="10.00" fill="#000000">no</text>
</g>
<!-- set_default_factory -->
<g id="node4" class="node">
<title>set_default_factory</title>
<polygon fill="#660033" stroke="#660033" points="143,-109 0,-109 0,-73 143,-73 143,-109"/>
<text text-anchor="middle" x="71.5" y="-94" font-family="Arial" font-size="10.00" fill="#ffffff">self.pin_factory =</text>
<text text-anchor="middle" x="71.5" y="-83" font-family="Arial" font-size="10.00" fill="#ffffff">Device._default_pin_factory()</text>
</g>
<!-- device_pin_factory&#45;&gt;set_default_factory -->
<g id="edge4" class="edge">
<title>device_pin_factory&#45;&gt;set_default_factory</title>
<path fill="none" stroke="#000000" d="M143.07,-186.4266C127.9733,-166.2977 106.6608,-137.8811 91.2229,-117.2972"/>
<polygon fill="#000000" stroke="#000000" points="94.0081,-115.1774 85.2081,-109.2774 88.4081,-119.3775 94.0081,-115.1774"/>
<text text-anchor="middle" x="133.5" y="-142.5" font-family="Arial" font-size="10.00" fill="#000000">yes</text>
</g>
<!-- get_default_factory -->
<g id="node5" class="node">
<title>get_default_factory</title>
<polygon fill="#660033" stroke="#660033" points="259.5,-109 161.5,-109 161.5,-73 259.5,-73 259.5,-109"/>
<text text-anchor="middle" x="210.5" y="-94" font-family="Arial" font-size="10.00" fill="#ffffff">self.pin_factory =</text>
<text text-anchor="middle" x="210.5" y="-83" font-family="Arial" font-size="10.00" fill="#ffffff">Device.pin_factory</text>
</g>
<!-- device_pin_factory&#45;&gt;get_default_factory -->
<g id="edge5" class="edge">
<title>device_pin_factory&#45;&gt;get_default_factory</title>
<path fill="none" stroke="#000000" d="M172.4966,-184.0697C180.4622,-164.562 191.1974,-138.2718 199.2263,-118.6092"/>
<polygon fill="#000000" stroke="#000000" points="202.4974,-119.8564 203.0376,-109.2754 196.0169,-117.2102 202.4974,-119.8564"/>
<text text-anchor="middle" x="201" y="-142.5" font-family="Arial" font-size="10.00" fill="#000000">no</text>
</g>
<!-- factory_pin -->
<g id="node7" class="node">
<title>factory_pin</title>
<polygon fill="#660033" stroke="#660033" points="282.5,-36 138.5,-36 138.5,0 282.5,0 282.5,-36"/>
<text text-anchor="middle" x="210.5" y="-21" font-family="Arial" font-size="10.00" fill="#ffffff">self.pin =</text>
<text text-anchor="middle" x="210.5" y="-10" font-family="Arial" font-size="10.00" fill="#ffffff">self.pin_factory.pin(pin_spec)</text>
</g>
<!-- set_default_factory&#45;&gt;factory_pin -->
<g id="edge6" class="edge">
<title>set_default_factory&#45;&gt;factory_pin</title>
<path fill="none" stroke="#000000" d="M105.8596,-72.9551C124.3207,-63.2596 147.271,-51.2066 166.9701,-40.861"/>
<polygon fill="#000000" stroke="#000000" points="168.828,-43.8387 176.054,-36.0904 165.5733,-37.6413 168.828,-43.8387"/>
</g>
<!-- get_default_factory&#45;&gt;factory_pin -->
<g id="edge7" class="edge">
<title>get_default_factory&#45;&gt;factory_pin</title>
<path fill="none" stroke="#000000" d="M210.5,-72.9551C210.5,-64.8828 210.5,-55.1764 210.5,-46.1817"/>
<polygon fill="#000000" stroke="#000000" points="214.0001,-46.0903 210.5,-36.0904 207.0001,-46.0904 214.0001,-46.0903"/>
</g>
<!-- override_factory&#45;&gt;factory_pin -->
<g id="edge8" class="edge">
<title>override_factory&#45;&gt;factory_pin</title>
<path fill="none" stroke="#000000" d="M285.5101,-126.7704C283.2103,-111.5344 278.3863,-89.6825 268.5,-73 261.9227,-61.9013 252.4733,-51.6101 243.1053,-43.0037"/>
<polygon fill="#000000" stroke="#000000" points="245.1502,-40.1423 235.3202,-36.1899 240.54,-45.4097 245.1502,-40.1423"/>
</g>
</g>
</svg>
