<?xml version="1.0" encoding="UTF-8" standalone="no"?>
<!DOCTYPE svg PUBLIC "-//W3C//DTD SVG 1.1//EN"
 "http://www.w3.org/Graphics/SVG/1.1/DTD/svg11.dtd">
<!-- Generated by graphviz version 2.38.0 (20140413.2041)
 -->
<!-- Title: device_pins Pages: 1 -->
<svg width="212pt" height="297pt"
 viewBox="0.00 0.00 212.00 297.00" xmlns="http://www.w3.org/2000/svg" xmlns:xlink="http://www.w3.org/1999/xlink">
<g id="graph0" class="graph" transform="scale(1 1) rotate(0) translate(4 293)">
<title>device_pins</title>
<polygon fill="white" stroke="none" points="-4,4 -4,-293 208,-293 208,4 -4,4"/>
<!-- constructor -->
<g id="node1" class="node"><title>constructor</title>
<polygon fill="#660033" stroke="#660033" points="150,-289 55,-289 55,-253 150,-253 150,-289"/>
<text text-anchor="middle" x="102.5" y="-274" font-family="Arial" font-size="10.00" fill="#ffffff">LED(pin_spec, ...,</text>
<text text-anchor="middle" x="102.5" y="-263" font-family="Arial" font-size="10.00" fill="#ffffff">pin_factory=None)</text>
</g>
<!-- pin_factory_kwarg -->
<g id="node2" class="node"><title>pin_factory_kwarg</title>
<polygon fill="#660033" stroke="#660033" points="102.5,-216 38.5,-186 102.5,-156 166.5,-186 102.5,-216"/>
<text text-anchor="middle" x="102.5" y="-189" font-family="Arial" font-size="10.00" fill="#ffffff">pin_factory</text>
<text text-anchor="middle" x="102.5" y="-178" font-family="Arial" font-size="10.00" fill="#ffffff">is None?</text>
</g>
<!-- constructor&#45;&gt;pin_factory_kwarg -->
<g id="edge1" class="edge"><title>constructor&#45;&gt;pin_factory_kwarg</title>
<path fill="none" stroke="black" d="M102.5,-252.802C102.5,-245.144 102.5,-235.78 102.5,-226.545"/>
<polygon fill="black" stroke="black" points="106,-226.272 102.5,-216.272 99.0001,-226.272 106,-226.272"/>
</g>
<!-- default_factory -->
<g id="node3" class="node"><title>default_factory</title>
<polygon fill="#660033" stroke="#660033" points="95,-109 0,-109 0,-73 95,-73 95,-109"/>
<text text-anchor="middle" x="47.5" y="-94" font-family="Arial" font-size="10.00" fill="#ffffff">self.pin_factory =</text>
<text text-anchor="middle" x="47.5" y="-83" font-family="Arial" font-size="10.00" fill="#ffffff">Device.pin_factory</text>
</g>
<!-- pin_factory_kwarg&#45;&gt;default_factory -->
<g id="edge2" class="edge"><title>pin_factory_kwarg&#45;&gt;default_factory</title>
<path fill="none" stroke="black" d="M88.9045,-162.011C81.0472,-148.725 71.1349,-131.964 62.979,-118.174"/>
<polygon fill="black" stroke="black" points="65.763,-116.005 57.66,-109.18 59.7378,-119.569 65.763,-116.005"/>
<text text-anchor="middle" x="81.5" y="-130" font-family="Arial" font-size="10.00">yes</text>
</g>
<!-- override_factory -->
<g id="node4" class="node"><title>override_factory</title>
<polygon fill="#660033" stroke="#660033" points="204,-109 113,-109 113,-73 204,-73 204,-109"/>
<text text-anchor="middle" x="158.5" y="-94" font-family="Arial" font-size="10.00" fill="#ffffff">self.pin_factory =</text>
<text text-anchor="middle" x="158.5" y="-83" font-family="Arial" font-size="10.00" fill="#ffffff">pin_factory</text>
</g>
<!-- pin_factory_kwarg&#45;&gt;override_factory -->
<g id="edge3" class="edge"><title>pin_factory_kwarg&#45;&gt;override_factory</title>
<path fill="none" stroke="black" d="M116.343,-162.011C124.42,-148.598 134.63,-131.642 142.979,-117.777"/>
<polygon fill="black" stroke="black" points="145.995,-119.552 148.155,-109.18 139.998,-115.941 145.995,-119.552"/>
<text text-anchor="middle" x="142" y="-130" font-family="Arial" font-size="10.00">no</text>
</g>
<!-- factory_pin -->
<g id="node5" class="node"><title>factory_pin</title>
<polygon fill="#660033" stroke="#660033" points="185,-36 42,-36 42,-0 185,-0 185,-36"/>
<text text-anchor="middle" x="113.5" y="-21" font-family="Arial" font-size="10.00" fill="#ffffff">self.pin =</text>
<text text-anchor="middle" x="113.5" y="-10" font-family="Arial" font-size="10.00" fill="#ffffff">self.pin_factory.pin(pin_spec)</text>
</g>
<!-- default_factory&#45;&gt;factory_pin -->
<g id="edge4" class="edge"><title>default_factory&#45;&gt;factory_pin</title>
<path fill="none" stroke="black" d="M63.4768,-72.8129C71.6647,-64.0046 81.7782,-53.125 90.764,-43.4584"/>
<polygon fill="black" stroke="black" points="93.4254,-45.7361 97.6704,-36.0288 88.2984,-40.9702 93.4254,-45.7361"/>
</g>
<!-- override_factory&#45;&gt;factory_pin -->
<g id="edge5" class="edge"><title>override_factory&#45;&gt;factory_pin</title>
<path fill="none" stroke="black" d="M147.607,-72.8129C142.245,-64.3534 135.673,-53.9835 129.733,-44.6124"/>
<polygon fill="black" stroke="black" points="132.603,-42.6016 124.293,-36.0288 126.69,-46.3489 132.603,-42.6016"/>
</g>
</g>
</svg>
