<?xml version="1.0" encoding="UTF-8" standalone="no"?>
<!DOCTYPE svg PUBLIC "-//W3C//DTD SVG 1.1//EN"
 "http://www.w3.org/Graphics/SVG/1.1/DTD/svg11.dtd">
<!-- Generated by graphviz version 2.38.0 (20140413.2041)
 -->
<!-- Title: device_pins Pages: 1 -->
<svg width="230pt" height="297pt"
 viewBox="0.00 0.00 229.50 297.00" xmlns="http://www.w3.org/2000/svg" xmlns:xlink="http://www.w3.org/1999/xlink">
<g id="graph0" class="graph" transform="scale(1 1) rotate(0) translate(4 293)">
<title>device_pins</title>
<polygon fill="white" stroke="none" points="-4,4 -4,-293 225.5,-293 225.5,4 -4,4"/>
<!-- constructor -->
<g id="node1" class="node"><title>constructor</title>
<polygon fill="#660033" stroke="#660033" points="165.5,-289 58.5,-289 58.5,-253 165.5,-253 165.5,-289"/>
<text text-anchor="middle" x="112" y="-274" font-family="Sans" font-size="10.00" fill="#ffffff">LED(pin_spec, ...,</text>
<text text-anchor="middle" x="112" y="-263" font-family="Sans" font-size="10.00" fill="#ffffff">pin_factory=None)</text>
</g>
<!-- pin_factory_kwarg -->
<g id="node2" class="node"><title>pin_factory_kwarg</title>
<polygon fill="#660033" stroke="#660033" points="112,-216 43,-186 112,-156 181,-186 112,-216"/>
<text text-anchor="middle" x="112" y="-189" font-family="Sans" font-size="10.00" fill="#ffffff">pin_factory</text>
<text text-anchor="middle" x="112" y="-178" font-family="Sans" font-size="10.00" fill="#ffffff">is None?</text>
</g>
<!-- constructor&#45;&gt;pin_factory_kwarg -->
<g id="edge1" class="edge"><title>constructor&#45;&gt;pin_factory_kwarg</title>
<path fill="none" stroke="black" d="M112,-252.802C112,-245.144 112,-235.78 112,-226.545"/>
<polygon fill="black" stroke="black" points="115.5,-226.272 112,-216.272 108.5,-226.272 115.5,-226.272"/>
</g>
<!-- default_factory -->
<g id="node3" class="node"><title>default_factory</title>
<polygon fill="#660033" stroke="#660033" points="104,-109 0,-109 0,-73 104,-73 104,-109"/>
<text text-anchor="middle" x="52" y="-94" font-family="Sans" font-size="10.00" fill="#ffffff">self.pin_factory =</text>
<text text-anchor="middle" x="52" y="-83" font-family="Sans" font-size="10.00" fill="#ffffff">Device.pin_factory</text>
</g>
<!-- pin_factory_kwarg&#45;&gt;default_factory -->
<g id="edge2" class="edge"><title>pin_factory_kwarg&#45;&gt;default_factory</title>
<path fill="none" stroke="black" d="M97.1685,-162.011C88.5146,-148.598 77.5754,-131.642 68.63,-117.777"/>
<polygon fill="black" stroke="black" points="71.446,-115.685 63.0836,-109.18 65.5639,-119.48 71.446,-115.685"/>
<text text-anchor="middle" x="89.5" y="-130" font-family="Sans" font-size="10.00">yes</text>
</g>
<!-- override_factory -->
<g id="node4" class="node"><title>override_factory</title>
<polygon fill="#660033" stroke="#660033" points="221.5,-109 122.5,-109 122.5,-73 221.5,-73 221.5,-109"/>
<text text-anchor="middle" x="172" y="-94" font-family="Sans" font-size="10.00" fill="#ffffff">self.pin_factory =</text>
<text text-anchor="middle" x="172" y="-83" font-family="Sans" font-size="10.00" fill="#ffffff">pin_factory</text>
</g>
<!-- pin_factory_kwarg&#45;&gt;override_factory -->
<g id="edge3" class="edge"><title>pin_factory_kwarg&#45;&gt;override_factory</title>
<path fill="none" stroke="black" d="M126.831,-162.011C135.485,-148.598 146.425,-131.642 155.37,-117.777"/>
<polygon fill="black" stroke="black" points="158.436,-119.48 160.916,-109.18 152.554,-115.685 158.436,-119.48"/>
<text text-anchor="middle" x="156.5" y="-130" font-family="Sans" font-size="10.00">no</text>
</g>
<!-- factory_pin -->
<g id="node5" class="node"><title>factory_pin</title>
<polygon fill="#660033" stroke="#660033" points="199.5,-36 46.5,-36 46.5,-0 199.5,-0 199.5,-36"/>
<text text-anchor="middle" x="123" y="-21" font-family="Sans" font-size="10.00" fill="#ffffff">self.pin =</text>
<text text-anchor="middle" x="123" y="-10" font-family="Sans" font-size="10.00" fill="#ffffff">self.pin_factory.pin(pin_spec)</text>
</g>
<!-- default_factory&#45;&gt;factory_pin -->
<g id="edge4" class="edge"><title>default_factory&#45;&gt;factory_pin</title>
<path fill="none" stroke="black" d="M69.1871,-72.8129C78.0826,-63.9174 89.0906,-52.9094 98.8283,-43.1717"/>
<polygon fill="black" stroke="black" points="101.375,-45.5748 105.971,-36.0288 96.4252,-40.6251 101.375,-45.5748"/>
</g>
<!-- override_factory&#45;&gt;factory_pin -->
<g id="edge5" class="edge"><title>override_factory&#45;&gt;factory_pin</title>
<path fill="none" stroke="black" d="M160.138,-72.8129C154.24,-64.2662 146.996,-53.7695 140.476,-44.3229"/>
<polygon fill="black" stroke="black" points="143.313,-42.2711 134.752,-36.0288 137.552,-46.2471 143.313,-42.2711"/>
</g>
</g>
</svg>
