<?xml version="1.0" encoding="UTF-8" standalone="no"?>
<!DOCTYPE svg PUBLIC "-//W3C//DTD SVG 1.1//EN"
 "http://www.w3.org/Graphics/SVG/1.1/DTD/svg11.dtd">
<!-- Generated by graphviz version 2.38.0 (20140413.2041)
 -->
<!-- Title: device_pins Pages: 1 -->
<svg width="372pt" height="273pt"
 viewBox="0.00 0.00 371.50 273.00" xmlns="http://www.w3.org/2000/svg" xmlns:xlink="http://www.w3.org/1999/xlink">
<g id="graph0" class="graph" transform="scale(1 1) rotate(0) translate(4 269)">
<title>device_pins</title>
<polygon fill="white" stroke="none" points="-4,4 -4,-269 367.5,-269 367.5,4 -4,4"/>
<!-- constructor -->
<g id="node1" class="node"><title>constructor</title>
<polygon fill="none" stroke="black" points="243.5,-265 136.5,-265 136.5,-229 243.5,-229 243.5,-265"/>
<text text-anchor="middle" x="190" y="-250" font-family="Sans" font-size="10.00">LED(pin_spec, ...,</text>
<text text-anchor="middle" x="190" y="-239" font-family="Sans" font-size="10.00">pin_factory=None)</text>
</g>
<!-- pin_factory_kwarg -->
<g id="node2" class="node"><title>pin_factory_kwarg</title>
<polygon fill="none" stroke="black" points="190,-192 88.3711,-174 190,-156 291.629,-174 190,-192"/>
<text text-anchor="middle" x="190" y="-171.5" font-family="Sans" font-size="10.00">pin_factory == None?</text>
</g>
<!-- constructor&#45;&gt;pin_factory_kwarg -->
<g id="edge1" class="edge"><title>constructor&#45;&gt;pin_factory_kwarg</title>
<path fill="none" stroke="black" d="M190,-228.813C190,-220.789 190,-211.047 190,-202.069"/>
<polygon fill="black" stroke="black" points="193.5,-202.029 190,-192.029 186.5,-202.029 193.5,-202.029"/>
</g>
<!-- default_factory -->
<g id="node3" class="node"><title>default_factory</title>
<polygon fill="none" stroke="black" points="190,-109 0,-109 0,-73 190,-73 190,-109"/>
<text text-anchor="middle" x="95" y="-88.5" font-family="Sans" font-size="10.00">self.pin_factory = Device.pin_factory</text>
</g>
<!-- pin_factory_kwarg&#45;&gt;default_factory -->
<g id="edge2" class="edge"><title>pin_factory_kwarg&#45;&gt;default_factory</title>
<path fill="none" stroke="black" d="M173.452,-158.891C159.473,-146.971 139.158,-129.65 122.703,-115.621"/>
<polygon fill="black" stroke="black" points="124.861,-112.861 114.98,-109.036 120.319,-118.187 124.861,-112.861"/>
<text text-anchor="middle" x="157.5" y="-130" font-family="Sans" font-size="10.00">yes</text>
</g>
<!-- override_factory -->
<g id="node4" class="node"><title>override_factory</title>
<polygon fill="none" stroke="black" points="363.5,-109 208.5,-109 208.5,-73 363.5,-73 363.5,-109"/>
<text text-anchor="middle" x="286" y="-88.5" font-family="Sans" font-size="10.00">self.pin_factory = pin_factory</text>
</g>
<!-- pin_factory_kwarg&#45;&gt;override_factory -->
<g id="edge3" class="edge"><title>pin_factory_kwarg&#45;&gt;override_factory</title>
<path fill="none" stroke="black" d="M206.722,-158.891C220.849,-146.971 241.377,-129.65 258.005,-115.621"/>
<polygon fill="black" stroke="black" points="260.424,-118.16 265.809,-109.036 255.909,-112.81 260.424,-118.16"/>
<text text-anchor="middle" x="250.5" y="-130" font-family="Sans" font-size="10.00">no</text>
</g>
<!-- factory_pin -->
<g id="node5" class="node"><title>factory_pin</title>
<polygon fill="none" stroke="black" points="311,-36 111,-36 111,-0 311,-0 311,-36"/>
<text text-anchor="middle" x="211" y="-15.5" font-family="Sans" font-size="10.00">self.pin = self.pin_factory.pin(pin_spec)</text>
</g>
<!-- default_factory&#45;&gt;factory_pin -->
<g id="edge4" class="edge"><title>default_factory&#45;&gt;factory_pin</title>
<path fill="none" stroke="black" d="M122.785,-72.9937C138.167,-63.5785 157.484,-51.7554 174.117,-41.5748"/>
<polygon fill="black" stroke="black" points="176.338,-44.3193 183.04,-36.1136 172.683,-38.3489 176.338,-44.3193"/>
</g>
<!-- override_factory&#45;&gt;factory_pin -->
<g id="edge5" class="edge"><title>override_factory&#45;&gt;factory_pin</title>
<path fill="none" stroke="black" d="M267.845,-72.8129C258.448,-63.9174 246.82,-52.9094 236.533,-43.1717"/>
<polygon fill="black" stroke="black" points="238.656,-40.3619 228.988,-36.0288 233.844,-45.4454 238.656,-40.3619"/>
</g>
</g>
</svg>
