<?xml version="1.0" encoding="UTF-8" standalone="no"?>
<!DOCTYPE svg PUBLIC "-//W3C//DTD SVG 1.1//EN"
 "http://www.w3.org/Graphics/SVG/1.1/DTD/svg11.dtd">
<!-- Generated by graphviz version 2.40.1 (20161225.0304)
 -->
<!-- Title: device_pins Pages: 1 -->
<svg width="303pt" height="502pt"
 viewBox="0.00 0.00 302.50 502.00" xmlns="http://www.w3.org/2000/svg" xmlns:xlink="http://www.w3.org/1999/xlink">
<g id="graph0" class="graph" transform="scale(1 1) rotate(0) translate(4 498)">
<title>device_pins</title>
<polygon fill="#ffffff" stroke="transparent" points="-4,4 -4,-498 298.5,-498 298.5,4 -4,4"/>
<!-- constructor -->
<g id="node1" class="node">
<title>constructor</title>
<polygon fill="#660033" stroke="#660033" points="233.5,-494 137.5,-494 137.5,-458 233.5,-458 233.5,-494"/>
<text text-anchor="middle" x="185.5" y="-479" font-family="Arial" font-size="10.00" fill="#ffffff">LED(pin_spec, ...,</text>
<text text-anchor="middle" x="185.5" y="-468" font-family="Arial" font-size="10.00" fill="#ffffff">pin_factory=None)</text>
</g>
<!-- pin_factory_kwarg -->
<g id="node2" class="node">
<title>pin_factory_kwarg</title>
<polygon fill="#660033" stroke="#660033" points="185.5,-421 120.5,-391 185.5,-361 250.5,-391 185.5,-421"/>
<text text-anchor="middle" x="185.5" y="-394" font-family="Arial" font-size="10.00" fill="#ffffff">pin_factory</text>
<text text-anchor="middle" x="185.5" y="-383" font-family="Arial" font-size="10.00" fill="#ffffff">is None?</text>
</g>
<!-- constructor&#45;&gt;pin_factory_kwarg -->
<g id="edge1" class="edge">
<title>constructor&#45;&gt;pin_factory_kwarg</title>
<path fill="none" stroke="#000000" d="M185.5,-457.9737C185.5,-450.1004 185.5,-440.5272 185.5,-431.1108"/>
<polygon fill="#000000" stroke="#000000" points="189.0001,-431.0425 185.5,-421.0426 182.0001,-431.0426 189.0001,-431.0425"/>
</g>
<!-- device_pin_factory -->
<g id="node3" class="node">
<title>device_pin_factory</title>
<polygon fill="#660033" stroke="#660033" points="122.5,-314 24.5,-284 122.5,-254 220.5,-284 122.5,-314"/>
<text text-anchor="middle" x="122.5" y="-287" font-family="Arial" font-size="10.00" fill="#ffffff">Device.pin_factory</text>
<text text-anchor="middle" x="122.5" y="-276" font-family="Arial" font-size="10.00" fill="#ffffff">is None?</text>
</g>
<!-- pin_factory_kwarg&#45;&gt;device_pin_factory -->
<g id="edge2" class="edge">
<title>pin_factory_kwarg&#45;&gt;device_pin_factory</title>
<path fill="none" stroke="#000000" d="M171.5183,-367.2532C163.094,-352.9453 152.2186,-334.4744 142.8527,-318.5672"/>
<polygon fill="#000000" stroke="#000000" points="145.6323,-316.3899 137.5425,-309.5484 139.6002,-319.9415 145.6323,-316.3899"/>
<text text-anchor="middle" x="164.5" y="-335" font-family="Arial" font-size="10.00" fill="#000000">yes</text>
</g>
<!-- override_factory -->
<g id="node6" class="node">
<title>override_factory</title>
<polygon fill="#660033" stroke="#660033" points="294.5,-236 202.5,-236 202.5,-200 294.5,-200 294.5,-236"/>
<text text-anchor="middle" x="248.5" y="-221" font-family="Arial" font-size="10.00" fill="#ffffff">self.pin_factory =</text>
<text text-anchor="middle" x="248.5" y="-210" font-family="Arial" font-size="10.00" fill="#ffffff">pin_factory</text>
</g>
<!-- pin_factory_kwarg&#45;&gt;override_factory -->
<g id="edge3" class="edge">
<title>pin_factory_kwarg&#45;&gt;override_factory</title>
<path fill="none" stroke="#000000" d="M201.252,-368.041C210.7422,-353.2184 222.3386,-333.1845 229.5,-314 237.7218,-291.9747 242.6066,-265.7116 245.3597,-246.2272"/>
<polygon fill="#000000" stroke="#000000" points="248.8486,-246.5399 246.6776,-236.1699 241.9079,-245.6303 248.8486,-246.5399"/>
<text text-anchor="middle" x="226" y="-335" font-family="Arial" font-size="10.00" fill="#000000">no</text>
</g>
<!-- set_default_factory -->
<g id="node4" class="node">
<title>set_default_factory</title>
<polygon fill="#660033" stroke="#660033" points="143,-182 0,-182 0,-146 143,-146 143,-182"/>
<text text-anchor="middle" x="71.5" y="-167" font-family="Arial" font-size="10.00" fill="#ffffff">Device.pin_factory =</text>
<text text-anchor="middle" x="71.5" y="-156" font-family="Arial" font-size="10.00" fill="#ffffff">Device._default_pin_factory()</text>
</g>
<!-- device_pin_factory&#45;&gt;set_default_factory -->
<g id="edge4" class="edge">
<title>device_pin_factory&#45;&gt;set_default_factory</title>
<path fill="none" stroke="#000000" d="M111.1814,-257.3681C102.8468,-237.7572 91.5485,-211.1728 83.1391,-191.3861"/>
<polygon fill="#000000" stroke="#000000" points="86.2851,-189.8401 79.1525,-182.0058 79.8428,-192.5781 86.2851,-189.8401"/>
<text text-anchor="middle" x="110.5" y="-215.5" font-family="Arial" font-size="10.00" fill="#000000">yes</text>
</g>
<!-- get_default_factory -->
<g id="node5" class="node">
<title>get_default_factory</title>
<polygon fill="#660033" stroke="#660033" points="220.5,-109 122.5,-109 122.5,-73 220.5,-73 220.5,-109"/>
<text text-anchor="middle" x="171.5" y="-94" font-family="Arial" font-size="10.00" fill="#ffffff">self.pin_factory =</text>
<text text-anchor="middle" x="171.5" y="-83" font-family="Arial" font-size="10.00" fill="#ffffff">Device.pin_factory</text>
</g>
<!-- device_pin_factory&#45;&gt;get_default_factory -->
<g id="edge5" class="edge">
<title>device_pin_factory&#45;&gt;get_default_factory</title>
<path fill="none" stroke="#000000" d="M130.833,-256.4154C136.8921,-235.9615 145.1166,-207.3511 151.5,-182 156.7828,-161.0199 162.0048,-137.1225 165.7875,-119.083"/>
<polygon fill="#000000" stroke="#000000" points="169.2324,-119.7076 167.838,-109.2049 162.3785,-118.2848 169.2324,-119.7076"/>
<text text-anchor="middle" x="166" y="-161.5" font-family="Arial" font-size="10.00" fill="#000000">no</text>
</g>
<!-- set_default_factory&#45;&gt;get_default_factory -->
<g id="edge6" class="edge">
<title>set_default_factory&#45;&gt;get_default_factory</title>
<path fill="none" stroke="#000000" d="M96.2191,-145.9551C108.9597,-136.6545 124.6721,-125.1844 138.4408,-115.1332"/>
<polygon fill="#000000" stroke="#000000" points="140.7055,-117.8134 146.7187,-109.0904 136.5781,-112.1596 140.7055,-117.8134"/>
</g>
<!-- factory_pin -->
<g id="node7" class="node">
<title>factory_pin</title>
<polygon fill="#660033" stroke="#660033" points="281.5,-36 137.5,-36 137.5,0 281.5,0 281.5,-36"/>
<text text-anchor="middle" x="209.5" y="-21" font-family="Arial" font-size="10.00" fill="#ffffff">self.pin =</text>
<text text-anchor="middle" x="209.5" y="-10" font-family="Arial" font-size="10.00" fill="#ffffff">self.pin_factory.pin(pin_spec)</text>
</g>
<!-- get_default_factory&#45;&gt;factory_pin -->
<g id="edge7" class="edge">
<title>get_default_factory&#45;&gt;factory_pin</title>
<path fill="none" stroke="#000000" d="M180.8933,-72.9551C185.2779,-64.5319 190.5889,-54.3292 195.4386,-45.0128"/>
<polygon fill="#000000" stroke="#000000" points="198.5703,-46.5766 200.0831,-36.0904 192.3611,-43.3445 198.5703,-46.5766"/>
</g>
<!-- override_factory&#45;&gt;factory_pin -->
<g id="edge8" class="edge">
<title>override_factory&#45;&gt;factory_pin</title>
<path fill="none" stroke="#000000" d="M247.4031,-199.9093C245.441,-172.2387 240.4626,-117.8884 229.5,-73 227.2823,-63.9194 224.0756,-54.2622 220.8771,-45.6156"/>
<polygon fill="#000000" stroke="#000000" points="224.0442,-44.1001 217.1859,-36.0246 217.5113,-46.6144 224.0442,-44.1001"/>
</g>
</g>
</svg>
