<?xml version="1.0" encoding="UTF-8" standalone="no"?>
<!DOCTYPE svg PUBLIC "-//W3C//DTD SVG 1.1//EN"
 "http://www.w3.org/Graphics/SVG/1.1/DTD/svg11.dtd">
<!-- Generated by graphviz version 2.36.0 (20140111.2315)
 -->
<!-- Title: classes Pages: 1 -->
<svg width="563pt" height="332pt"
 viewBox="0.00 0.00 563.00 332.00" xmlns="http://www.w3.org/2000/svg" xmlns:xlink="http://www.w3.org/1999/xlink">
<g id="graph0" class="graph" transform="scale(1 1) rotate(0) translate(4 328)">
<title>classes</title>
<polygon fill="white" stroke="none" points="-4,4 -4,-328 559,-328 559,4 -4,4"/>
<!-- InputDevice -->
<g id="node1" class="node"><title>InputDevice</title>
<polygon fill="#2980b9" stroke="#2980b9" points="346.5,-252 273.5,-252 273.5,-216 346.5,-216 346.5,-252"/>
<text text-anchor="middle" x="310" y="-231.5" font-family="Sans" font-size="10.00" fill="#ffffff">InputDevice</text>
</g>
<!-- GPIODevice -->
<g id="node2" class="node"><title>GPIODevice</title>
<polygon fill="#2980b9" stroke="#2980b9" points="290,-324 218,-324 218,-288 290,-288 290,-324"/>
<text text-anchor="middle" x="254" y="-303.5" font-family="Sans" font-size="10.00" fill="#ffffff">GPIODevice</text>
</g>
<!-- InputDevice&#45;&gt;GPIODevice -->
<g id="edge1" class="edge"><title>InputDevice&#45;&gt;GPIODevice</title>
<path fill="none" stroke="black" d="M296.157,-252.303C289.511,-260.611 281.422,-270.723 274.113,-279.859"/>
<polygon fill="black" stroke="black" points="271.197,-277.901 267.683,-287.896 276.664,-282.273 271.197,-277.901"/>
</g>
<!-- WaitableInputDevice -->
<g id="node3" class="node"><title>WaitableInputDevice</title>
<polygon fill="#2980b9" stroke="#2980b9" points="382.5,-180 269.5,-180 269.5,-144 382.5,-144 382.5,-180"/>
<text text-anchor="middle" x="326" y="-159.5" font-family="Sans" font-size="10.00" fill="#ffffff">WaitableInputDevice</text>
</g>
<!-- WaitableInputDevice&#45;&gt;InputDevice -->
<g id="edge2" class="edge"><title>WaitableInputDevice&#45;&gt;InputDevice</title>
<path fill="none" stroke="black" d="M322.045,-180.303C320.282,-188.017 318.163,-197.288 316.197,-205.888"/>
<polygon fill="black" stroke="black" points="312.726,-205.367 313.91,-215.896 319.55,-206.927 312.726,-205.367"/>
</g>
<!-- DigitalInputDevice -->
<g id="node4" class="node"><title>DigitalInputDevice</title>
<polygon fill="#2980b9" stroke="#2980b9" points="363.5,-108 260.5,-108 260.5,-72 363.5,-72 363.5,-108"/>
<text text-anchor="middle" x="312" y="-87.5" font-family="Sans" font-size="10.00" fill="#ffffff">DigitalInputDevice</text>
</g>
<!-- DigitalInputDevice&#45;&gt;WaitableInputDevice -->
<g id="edge3" class="edge"><title>DigitalInputDevice&#45;&gt;WaitableInputDevice</title>
<path fill="none" stroke="black" d="M315.461,-108.303C317.003,-116.017 318.858,-125.288 320.578,-133.888"/>
<polygon fill="black" stroke="black" points="317.186,-134.776 322.579,-143.896 324.05,-133.403 317.186,-134.776"/>
</g>
<!-- SmoothedInputDevice -->
<g id="node5" class="node"><title>SmoothedInputDevice</title>
<polygon fill="#2980b9" stroke="#2980b9" points="504.5,-108 381.5,-108 381.5,-72 504.5,-72 504.5,-108"/>
<text text-anchor="middle" x="443" y="-87.5" font-family="Sans" font-size="10.00" fill="#ffffff">SmoothedInputDevice</text>
</g>
<!-- SmoothedInputDevice&#45;&gt;WaitableInputDevice -->
<g id="edge4" class="edge"><title>SmoothedInputDevice&#45;&gt;WaitableInputDevice</title>
<path fill="none" stroke="black" d="M414.379,-108.124C399.081,-117.276 380.057,-128.658 363.582,-138.515"/>
<polygon fill="black" stroke="black" points="361.516,-135.673 354.731,-143.81 365.11,-141.68 361.516,-135.673"/>
</g>
<!-- Button -->
<g id="node6" class="node"><title>Button</title>
<polygon fill="#2980b9" stroke="#2980b9" points="339,-36 285,-36 285,-0 339,-0 339,-36"/>
<text text-anchor="middle" x="312" y="-15.5" font-family="Sans" font-size="10.00" fill="#ffffff">Button</text>
</g>
<!-- Button&#45;&gt;DigitalInputDevice -->
<g id="edge5" class="edge"><title>Button&#45;&gt;DigitalInputDevice</title>
<path fill="none" stroke="black" d="M312,-36.3034C312,-44.0173 312,-53.2875 312,-61.8876"/>
<polygon fill="black" stroke="black" points="308.5,-61.8956 312,-71.8957 315.5,-61.8957 308.5,-61.8956"/>
</g>
<!-- MotionSensor -->
<g id="node7" class="node"><title>MotionSensor</title>
<polygon fill="#2980b9" stroke="#2980b9" points="462.5,-36 379.5,-36 379.5,-0 462.5,-0 462.5,-36"/>
<text text-anchor="middle" x="421" y="-15.5" font-family="Sans" font-size="10.00" fill="#ffffff">MotionSensor</text>
</g>
<!-- MotionSensor&#45;&gt;SmoothedInputDevice -->
<g id="edge6" class="edge"><title>MotionSensor&#45;&gt;SmoothedInputDevice</title>
<path fill="none" stroke="black" d="M426.438,-36.3034C428.889,-44.1021 431.84,-53.4915 434.568,-62.1708"/>
<polygon fill="black" stroke="black" points="431.287,-63.4051 437.624,-71.8957 437.965,-61.3063 431.287,-63.4051"/>
</g>
<!-- LightSensor -->
<g id="node8" class="node"><title>LightSensor</title>
<polygon fill="#2980b9" stroke="#2980b9" points="555,-36 481,-36 481,-0 555,-0 555,-36"/>
<text text-anchor="middle" x="518" y="-15.5" font-family="Sans" font-size="10.00" fill="#ffffff">LightSensor</text>
</g>
<!-- LightSensor&#45;&gt;SmoothedInputDevice -->
<g id="edge7" class="edge"><title>LightSensor&#45;&gt;SmoothedInputDevice</title>
<path fill="none" stroke="black" d="M499.461,-36.3034C490.197,-44.9497 478.838,-55.5514 468.743,-64.973"/>
<polygon fill="black" stroke="black" points="466.249,-62.5137 461.326,-71.8957 471.025,-67.6312 466.249,-62.5137"/>
</g>
<!-- OutputDevice -->
<g id="node9" class="node"><title>OutputDevice</title>
<polygon fill="#2980b9" stroke="#2980b9" points="240,-252 158,-252 158,-216 240,-216 240,-252"/>
<text text-anchor="middle" x="199" y="-231.5" font-family="Sans" font-size="10.00" fill="#ffffff">OutputDevice</text>
</g>
<!-- OutputDevice&#45;&gt;GPIODevice -->
<g id="edge8" class="edge"><title>OutputDevice&#45;&gt;GPIODevice</title>
<path fill="none" stroke="black" d="M212.596,-252.303C219.123,-260.611 227.068,-270.723 234.247,-279.859"/>
<polygon fill="black" stroke="black" points="231.631,-282.195 240.561,-287.896 237.135,-277.87 231.631,-282.195"/>
</g>
<!-- DigitalOutputDevice -->
<g id="node10" class="node"><title>DigitalOutputDevice</title>
<polygon fill="#2980b9" stroke="#2980b9" points="129,-180 17,-180 17,-144 129,-144 129,-180"/>
<text text-anchor="middle" x="73" y="-159.5" font-family="Sans" font-size="10.00" fill="#ffffff">DigitalOutputDevice</text>
</g>
<!-- DigitalOutputDevice&#45;&gt;OutputDevice -->
<g id="edge9" class="edge"><title>DigitalOutputDevice&#45;&gt;OutputDevice</title>
<path fill="none" stroke="black" d="M103.823,-180.124C120.45,-189.361 141.165,-200.869 159.019,-210.788"/>
<polygon fill="black" stroke="black" points="157.617,-214.013 168.058,-215.81 161.017,-207.894 157.617,-214.013"/>
</g>
<!-- LED -->
<g id="node11" class="node"><title>LED</title>
<polygon fill="#2980b9" stroke="#2980b9" points="54,-108 0,-108 0,-72 54,-72 54,-108"/>
<text text-anchor="middle" x="27" y="-87.5" font-family="Sans" font-size="10.00" fill="#ffffff">LED</text>
</g>
<!-- LED&#45;&gt;DigitalOutputDevice -->
<g id="edge10" class="edge"><title>LED&#45;&gt;DigitalOutputDevice</title>
<path fill="none" stroke="black" d="M38.3708,-108.303C43.7185,-116.441 50.2043,-126.311 56.1106,-135.299"/>
<polygon fill="black" stroke="black" points="53.3432,-137.461 61.76,-143.896 59.1932,-133.616 53.3432,-137.461"/>
</g>
<!-- Buzzer -->
<g id="node12" class="node"><title>Buzzer</title>
<polygon fill="#2980b9" stroke="#2980b9" points="126,-108 72,-108 72,-72 126,-72 126,-108"/>
<text text-anchor="middle" x="99" y="-87.5" font-family="Sans" font-size="10.00" fill="#ffffff">Buzzer</text>
</g>
<!-- Buzzer&#45;&gt;DigitalOutputDevice -->
<g id="edge11" class="edge"><title>Buzzer&#45;&gt;DigitalOutputDevice</title>
<path fill="none" stroke="black" d="M92.573,-108.303C89.6449,-116.187 86.113,-125.696 82.8601,-134.454"/>
<polygon fill="black" stroke="black" points="79.554,-133.303 79.353,-143.896 86.116,-135.74 79.554,-133.303"/>
</g>
<!-- PWMOutputDevice -->
<g id="node13" class="node"><title>PWMOutputDevice</title>
<polygon fill="#2980b9" stroke="#2980b9" points="251,-180 147,-180 147,-144 251,-144 251,-180"/>
<text text-anchor="middle" x="199" y="-159.5" font-family="Sans" font-size="10.00" fill="#ffffff">PWMOutputDevice</text>
</g>
<!-- PWMOutputDevice&#45;&gt;OutputDevice -->
<g id="edge12" class="edge"><title>PWMOutputDevice&#45;&gt;OutputDevice</title>
<path fill="none" stroke="black" d="M199,-180.303C199,-188.017 199,-197.288 199,-205.888"/>
<polygon fill="black" stroke="black" points="195.5,-205.896 199,-215.896 202.5,-205.896 195.5,-205.896"/>
</g>
<!-- PWMLED -->
<g id="node14" class="node"><title>PWMLED</title>
<polygon fill="#2980b9" stroke="#2980b9" points="228,-108 170,-108 170,-72 228,-72 228,-108"/>
<text text-anchor="middle" x="199" y="-87.5" font-family="Sans" font-size="10.00" fill="#ffffff">PWMLED</text>
</g>
<!-- PWMLED&#45;&gt;PWMOutputDevice -->
<g id="edge13" class="edge"><title>PWMLED&#45;&gt;PWMOutputDevice</title>
<path fill="none" stroke="black" d="M199,-108.303C199,-116.017 199,-125.288 199,-133.888"/>
<polygon fill="black" stroke="black" points="195.5,-133.896 199,-143.896 202.5,-133.896 195.5,-133.896"/>
</g>
</g>
</svg>
