<?xml version="1.0" encoding="UTF-8" standalone="no"?>
<!DOCTYPE svg PUBLIC "-//W3C//DTD SVG 1.1//EN"
 "http://www.w3.org/Graphics/SVG/1.1/DTD/svg11.dtd">
<!-- Generated by graphviz version 2.40.1 (20161225.0304)
 -->
<!-- Title: classes Pages: 1 -->
<svg width="482pt" height="260pt"
 viewBox="0.00 0.00 482.00 260.00" xmlns="http://www.w3.org/2000/svg" xmlns:xlink="http://www.w3.org/1999/xlink">
<g id="graph0" class="graph" transform="scale(1 1) rotate(0) translate(4 256)">
<title>classes</title>
<polygon fill="#ffffff" stroke="transparent" points="-4,4 -4,-256 478,-256 478,4 -4,4"/>
<!-- GPIODevice -->
<g id="node1" class="node">
<title>GPIODevice</title>
<polygon fill="#9ec6e0" stroke="#9ec6e0" points="74,-103 0,-103 0,-67 74,-67 74,-103"/>
<text text-anchor="middle" x="37" y="-82.5" font-family="Sans" font-size="10.00" fill="#000000">GPIODevice</text>
</g>
<!-- SmoothedInputDevice -->
<g id="node2" class="node">
<title>SmoothedInputDevice</title>
<polygon fill="#9ec6e0" stroke="#9ec6e0" points="346,-144 221,-144 221,-108 346,-108 346,-144"/>
<text text-anchor="middle" x="283.5" y="-123.5" font-family="Sans" font-size="10.00" fill="#000000">SmoothedInputDevice</text>
</g>
<!-- InputDevice -->
<g id="node5" class="node">
<title>InputDevice</title>
<polygon fill="#2980b9" stroke="#2980b9" points="185,-103 110,-103 110,-67 185,-67 185,-103"/>
<text text-anchor="middle" x="147.5" y="-82.5" font-family="Sans" font-size="10.00" fill="#ffffff">InputDevice</text>
</g>
<!-- SmoothedInputDevice&#45;&gt;InputDevice -->
<g id="edge8" class="edge">
<title>SmoothedInputDevice&#45;&gt;InputDevice</title>
<path fill="none" stroke="#000000" d="M223.4525,-107.8975C213.9419,-105.0303 204.2209,-102.0997 195.0475,-99.3342"/>
<polygon fill="#000000" stroke="#000000" points="195.9287,-95.9443 185.3441,-96.4089 193.9082,-102.6464 195.9287,-95.9443"/>
</g>
<!-- Button -->
<g id="node3" class="node">
<title>Button</title>
<polygon fill="#2980b9" stroke="#2980b9" points="455,-36 401,-36 401,0 455,0 455,-36"/>
<text text-anchor="middle" x="428" y="-15.5" font-family="Sans" font-size="10.00" fill="#ffffff">Button</text>
</g>
<!-- DigitalInputDevice -->
<g id="node4" class="node">
<title>DigitalInputDevice</title>
<polygon fill="#2980b9" stroke="#2980b9" points="337,-63 230,-63 230,-27 337,-27 337,-63"/>
<text text-anchor="middle" x="283.5" y="-42.5" font-family="Sans" font-size="10.00" fill="#ffffff">DigitalInputDevice</text>
</g>
<!-- Button&#45;&gt;DigitalInputDevice -->
<g id="edge1" class="edge">
<title>Button&#45;&gt;DigitalInputDevice</title>
<path fill="none" stroke="#000000" d="M400.8207,-23.0785C385.6441,-25.9143 366.0499,-29.5754 347.2367,-33.0907"/>
<polygon fill="#000000" stroke="#000000" points="346.386,-29.689 337.199,-34.9663 347.6717,-36.5699 346.386,-29.689"/>
</g>
<!-- DigitalInputDevice&#45;&gt;InputDevice -->
<g id="edge2" class="edge">
<title>DigitalInputDevice&#45;&gt;InputDevice</title>
<path fill="none" stroke="#000000" d="M229.7492,-60.8091C218.2642,-64.187 206.2113,-67.732 194.9821,-71.0347"/>
<polygon fill="#000000" stroke="#000000" points="193.967,-67.6849 185.361,-73.8644 195.9423,-74.4005 193.967,-67.6849"/>
</g>
<!-- InputDevice&#45;&gt;GPIODevice -->
<g id="edge4" class="edge">
<title>InputDevice&#45;&gt;GPIODevice</title>
<path fill="none" stroke="#000000" d="M109.7812,-85C101.6026,-85 92.8523,-85 84.3562,-85"/>
<polygon fill="#000000" stroke="#000000" points="84.1745,-81.5001 74.1744,-85 84.1744,-88.5001 84.1745,-81.5001"/>
</g>
<!-- DistanceSensor -->
<g id="node6" class="node">
<title>DistanceSensor</title>
<polygon fill="#2980b9" stroke="#2980b9" points="474,-252 382,-252 382,-216 474,-216 474,-252"/>
<text text-anchor="middle" x="428" y="-231.5" font-family="Sans" font-size="10.00" fill="#ffffff">DistanceSensor</text>
</g>
<!-- DistanceSensor&#45;&gt;SmoothedInputDevice -->
<g id="edge3" class="edge">
<title>DistanceSensor&#45;&gt;SmoothedInputDevice</title>
<path fill="none" stroke="#000000" d="M395.4261,-215.7463C390.8448,-212.9304 386.2519,-209.9686 382,-207 357.0615,-189.5888 330.5238,-167.5391 311.2845,-150.8429"/>
<polygon fill="#000000" stroke="#000000" points="313.3432,-147.9936 303.5119,-144.0443 308.7346,-153.2625 313.3432,-147.9936"/>
</g>
<!-- LightSensor -->
<g id="node7" class="node">
<title>LightSensor</title>
<polygon fill="#2980b9" stroke="#2980b9" points="465,-198 391,-198 391,-162 465,-162 465,-198"/>
<text text-anchor="middle" x="428" y="-177.5" font-family="Sans" font-size="10.00" fill="#ffffff">LightSensor</text>
</g>
<!-- LightSensor&#45;&gt;SmoothedInputDevice -->
<g id="edge5" class="edge">
<title>LightSensor&#45;&gt;SmoothedInputDevice</title>
<path fill="none" stroke="#000000" d="M390.7877,-166.0937C375.7586,-160.4773 358.0607,-153.8635 341.4196,-147.6447"/>
<polygon fill="#000000" stroke="#000000" points="342.3643,-144.2614 331.7718,-144.0393 339.9138,-150.8185 342.3643,-144.2614"/>
</g>
<!-- LineSensor -->
<g id="node8" class="node">
<title>LineSensor</title>
<polygon fill="#2980b9" stroke="#2980b9" points="463,-144 393,-144 393,-108 463,-108 463,-144"/>
<text text-anchor="middle" x="428" y="-123.5" font-family="Sans" font-size="10.00" fill="#ffffff">LineSensor</text>
</g>
<!-- LineSensor&#45;&gt;SmoothedInputDevice -->
<g id="edge6" class="edge">
<title>LineSensor&#45;&gt;SmoothedInputDevice</title>
<path fill="none" stroke="#000000" d="M392.6513,-126C381.5754,-126 368.9178,-126 356.2402,-126"/>
<polygon fill="#000000" stroke="#000000" points="356.0985,-122.5001 346.0984,-126 356.0984,-129.5001 356.0985,-122.5001"/>
</g>
<!-- MotionSensor -->
<g id="node9" class="node">
<title>MotionSensor</title>
<polygon fill="#2980b9" stroke="#2980b9" points="469.5,-90 386.5,-90 386.5,-54 469.5,-54 469.5,-90"/>
<text text-anchor="middle" x="428" y="-69.5" font-family="Sans" font-size="10.00" fill="#ffffff">MotionSensor</text>
</g>
<!-- MotionSensor&#45;&gt;SmoothedInputDevice -->
<g id="edge7" class="edge">
<title>MotionSensor&#45;&gt;SmoothedInputDevice</title>
<path fill="none" stroke="#000000" d="M386.2046,-87.619C372.2561,-92.8316 356.454,-98.7369 341.5,-104.3253"/>
<polygon fill="#000000" stroke="#000000" points="339.9657,-101.1622 331.8236,-107.9414 342.4161,-107.7193 339.9657,-101.1622"/>
</g>
</g>
</svg>
