<?xml version="1.0" encoding="UTF-8" standalone="no"?>
<!DOCTYPE svg PUBLIC "-//W3C//DTD SVG 1.1//EN"
 "http://www.w3.org/Graphics/SVG/1.1/DTD/svg11.dtd">
<!-- Generated by graphviz version 2.38.0 (20140413.2041)
 -->
<!-- Title: classes Pages: 1 -->
<svg width="476pt" height="260pt"
 viewBox="0.00 0.00 476.00 260.00" xmlns="http://www.w3.org/2000/svg" xmlns:xlink="http://www.w3.org/1999/xlink">
<g id="graph0" class="graph" transform="scale(1 1) rotate(0) translate(4 256)">
<title>classes</title>
<polygon fill="white" stroke="none" points="-4,4 -4,-256 472,-256 472,4 -4,4"/>
<!-- SmoothedInputDevice -->
<g id="node1" class="node"><title>SmoothedInputDevice</title>
<polygon fill="#9ec6e0" stroke="#9ec6e0" points="340,-144 217,-144 217,-108 340,-108 340,-144"/>
<text text-anchor="middle" x="278.5" y="-123.5" font-family="Sans" font-size="10.00" fill="#000000">SmoothedInputDevice</text>
</g>
<!-- InputDevice -->
<g id="node3" class="node"><title>InputDevice</title>
<polygon fill="#2980b9" stroke="#2980b9" points="181,-184 108,-184 108,-148 181,-148 181,-184"/>
<text text-anchor="middle" x="144.5" y="-163.5" font-family="Sans" font-size="10.00" fill="#ffffff">InputDevice</text>
</g>
<!-- SmoothedInputDevice&#45;&gt;InputDevice -->
<g id="edge1" class="edge"><title>SmoothedInputDevice&#45;&gt;InputDevice</title>
<path fill="none" stroke="black" d="M218.065,-144.011C208.916,-146.783 199.598,-149.607 190.823,-152.266"/>
<polygon fill="black" stroke="black" points="189.738,-148.937 181.183,-155.187 191.768,-155.636 189.738,-148.937"/>
</g>
<!-- GPIODevice -->
<g id="node2" class="node"><title>GPIODevice</title>
<polygon fill="#9ec6e0" stroke="#9ec6e0" points="72,-184 0,-184 0,-148 72,-148 72,-184"/>
<text text-anchor="middle" x="36" y="-163.5" font-family="Sans" font-size="10.00" fill="#000000">GPIODevice</text>
</g>
<!-- InputDevice&#45;&gt;GPIODevice -->
<g id="edge7" class="edge"><title>InputDevice&#45;&gt;GPIODevice</title>
<path fill="none" stroke="black" d="M107.741,-166C99.5782,-166 90.7988,-166 82.2962,-166"/>
<polygon fill="black" stroke="black" points="82.1223,-162.5 72.1222,-166 82.1222,-169.5 82.1223,-162.5"/>
</g>
<!-- LightSensor -->
<g id="node4" class="node"><title>LightSensor</title>
<polygon fill="#2980b9" stroke="#2980b9" points="459,-198 385,-198 385,-162 459,-162 459,-198"/>
<text text-anchor="middle" x="422" y="-177.5" font-family="Sans" font-size="10.00" fill="#ffffff">LightSensor</text>
</g>
<!-- LightSensor&#45;&gt;SmoothedInputDevice -->
<g id="edge2" class="edge"><title>LightSensor&#45;&gt;SmoothedInputDevice</title>
<path fill="none" stroke="black" d="M384.927,-166.234C370.143,-160.592 352.674,-153.925 336.253,-147.659"/>
<polygon fill="black" stroke="black" points="337.325,-144.321 326.734,-144.026 334.829,-150.861 337.325,-144.321"/>
</g>
<!-- MotionSensor -->
<g id="node5" class="node"><title>MotionSensor</title>
<polygon fill="#2980b9" stroke="#2980b9" points="463.5,-144 380.5,-144 380.5,-108 463.5,-108 463.5,-144"/>
<text text-anchor="middle" x="422" y="-123.5" font-family="Sans" font-size="10.00" fill="#ffffff">MotionSensor</text>
</g>
<!-- MotionSensor&#45;&gt;SmoothedInputDevice -->
<g id="edge3" class="edge"><title>MotionSensor&#45;&gt;SmoothedInputDevice</title>
<path fill="none" stroke="black" d="M380.452,-126C371.019,-126 360.705,-126 350.387,-126"/>
<polygon fill="black" stroke="black" points="350.1,-122.5 340.1,-126 350.1,-129.5 350.1,-122.5"/>
</g>
<!-- DistanceSensor -->
<g id="node6" class="node"><title>DistanceSensor</title>
<polygon fill="#2980b9" stroke="#2980b9" points="468,-90 376,-90 376,-54 468,-54 468,-90"/>
<text text-anchor="middle" x="422" y="-69.5" font-family="Sans" font-size="10.00" fill="#ffffff">DistanceSensor</text>
</g>
<!-- DistanceSensor&#45;&gt;SmoothedInputDevice -->
<g id="edge4" class="edge"><title>DistanceSensor&#45;&gt;SmoothedInputDevice</title>
<path fill="none" stroke="black" d="M375.839,-89.2344C363.213,-94.0529 349.33,-99.351 336.131,-104.388"/>
<polygon fill="black" stroke="black" points="334.763,-101.164 326.668,-107.999 337.259,-107.704 334.763,-101.164"/>
</g>
<!-- LineSensor -->
<g id="node7" class="node"><title>LineSensor</title>
<polygon fill="#2980b9" stroke="#2980b9" points="457,-36 387,-36 387,-0 457,-0 457,-36"/>
<text text-anchor="middle" x="422" y="-15.5" font-family="Sans" font-size="10.00" fill="#ffffff">LineSensor</text>
</g>
<!-- LineSensor&#45;&gt;SmoothedInputDevice -->
<g id="edge5" class="edge"><title>LineSensor&#45;&gt;SmoothedInputDevice</title>
<path fill="none" stroke="black" d="M389.125,-36.266C384.645,-39.0802 380.154,-42.0382 376,-45 351.533,-62.4433 325.537,-84.4907 306.698,-101.178"/>
<polygon fill="black" stroke="black" points="304.216,-98.7014 299.088,-107.972 308.878,-103.923 304.216,-98.7014"/>
</g>
<!-- Button -->
<g id="node8" class="node"><title>Button</title>
<polygon fill="#2980b9" stroke="#2980b9" points="449,-252 395,-252 395,-216 449,-216 449,-252"/>
<text text-anchor="middle" x="422" y="-231.5" font-family="Sans" font-size="10.00" fill="#ffffff">Button</text>
</g>
<!-- DigitalInputDevice -->
<g id="node9" class="node"><title>DigitalInputDevice</title>
<polygon fill="#2980b9" stroke="#2980b9" points="330,-225 227,-225 227,-189 330,-189 330,-225"/>
<text text-anchor="middle" x="278.5" y="-204.5" font-family="Sans" font-size="10.00" fill="#ffffff">DigitalInputDevice</text>
</g>
<!-- Button&#45;&gt;DigitalInputDevice -->
<g id="edge6" class="edge"><title>Button&#45;&gt;DigitalInputDevice</title>
<path fill="none" stroke="black" d="M394.717,-228.985C379.335,-226.05 359.238,-222.215 340.144,-218.572"/>
<polygon fill="black" stroke="black" points="340.759,-215.126 330.28,-216.69 339.447,-222.002 340.759,-215.126"/>
</g>
<!-- DigitalInputDevice&#45;&gt;InputDevice -->
<g id="edge8" class="edge"><title>DigitalInputDevice&#45;&gt;InputDevice</title>
<path fill="none" stroke="black" d="M226.843,-191.266C215.034,-187.598 202.532,-183.714 190.964,-180.121"/>
<polygon fill="black" stroke="black" points="191.668,-176.675 181.08,-177.051 189.592,-183.36 191.668,-176.675"/>
</g>
</g>
</svg>
