<?xml version="1.0" encoding="UTF-8" standalone="no"?>
<!DOCTYPE svg PUBLIC "-//W3C//DTD SVG 1.1//EN"
 "http://www.w3.org/Graphics/SVG/1.1/DTD/svg11.dtd">
<!-- Generated by graphviz version 2.38.0 (20140413.2041)
 -->
<!-- Title: classes Pages: 1 -->
<svg width="447pt" height="260pt"
 viewBox="0.00 0.00 447.00 260.00" xmlns="http://www.w3.org/2000/svg" xmlns:xlink="http://www.w3.org/1999/xlink">
<g id="graph0" class="graph" transform="scale(1 1) rotate(0) translate(4 256)">
<title>classes</title>
<polygon fill="white" stroke="none" points="-4,4 -4,-256 443,-256 443,4 -4,4"/>
<!-- GPIODevice -->
<g id="node1" class="node"><title>GPIODevice</title>
<polygon fill="#9ec6e0" stroke="#9ec6e0" points="69,-103 0,-103 0,-67 69,-67 69,-103"/>
<text text-anchor="middle" x="34.5" y="-82.5" font-family="Arial" font-size="10.00" fill="#000000">GPIODevice</text>
</g>
<!-- SmoothedInputDevice -->
<g id="node2" class="node"><title>SmoothedInputDevice</title>
<polygon fill="#9ec6e0" stroke="#9ec6e0" points="317,-144 207,-144 207,-108 317,-108 317,-144"/>
<text text-anchor="middle" x="262" y="-123.5" font-family="Arial" font-size="10.00" fill="#000000">SmoothedInputDevice</text>
</g>
<!-- InputDevice -->
<g id="node5" class="node"><title>InputDevice</title>
<polygon fill="#2980b9" stroke="#2980b9" points="171,-103 105,-103 105,-67 171,-67 171,-103"/>
<text text-anchor="middle" x="138" y="-82.5" font-family="Arial" font-size="10.00" fill="#ffffff">InputDevice</text>
</g>
<!-- SmoothedInputDevice&#45;&gt;InputDevice -->
<g id="edge8" class="edge"><title>SmoothedInputDevice&#45;&gt;InputDevice</title>
<path fill="none" stroke="black" d="M207.134,-107.897C198.325,-104.937 189.315,-101.909 180.852,-99.0651"/>
<polygon fill="black" stroke="black" points="181.808,-95.6939 171.214,-95.8259 179.578,-102.329 181.808,-95.6939"/>
</g>
<!-- Button -->
<g id="node3" class="node"><title>Button</title>
<polygon fill="#2980b9" stroke="#2980b9" points="423,-36 369,-36 369,-0 423,-0 423,-36"/>
<text text-anchor="middle" x="396" y="-15.5" font-family="Arial" font-size="10.00" fill="#ffffff">Button</text>
</g>
<!-- DigitalInputDevice -->
<g id="node4" class="node"><title>DigitalInputDevice</title>
<polygon fill="#2980b9" stroke="#2980b9" points="308.5,-63 215.5,-63 215.5,-27 308.5,-27 308.5,-63"/>
<text text-anchor="middle" x="262" y="-42.5" font-family="Arial" font-size="10.00" fill="#ffffff">DigitalInputDevice</text>
</g>
<!-- Button&#45;&gt;DigitalInputDevice -->
<g id="edge1" class="edge"><title>Button&#45;&gt;DigitalInputDevice</title>
<path fill="none" stroke="black" d="M368.921,-23.3343C354.538,-26.2763 336.104,-30.047 318.658,-33.6155"/>
<polygon fill="black" stroke="black" points="317.634,-30.2523 308.538,-35.6854 319.037,-37.1104 317.634,-30.2523"/>
</g>
<!-- DigitalInputDevice&#45;&gt;InputDevice -->
<g id="edge2" class="edge"><title>DigitalInputDevice&#45;&gt;InputDevice</title>
<path fill="none" stroke="black" d="M215.225,-60.0083C204.043,-63.6744 192.132,-67.5795 181.13,-71.1868"/>
<polygon fill="black" stroke="black" points="179.74,-67.9591 171.328,-74.4005 181.921,-74.6107 179.74,-67.9591"/>
</g>
<!-- InputDevice&#45;&gt;GPIODevice -->
<g id="edge4" class="edge"><title>InputDevice&#45;&gt;GPIODevice</title>
<path fill="none" stroke="black" d="M104.885,-85C96.7919,-85 87.9648,-85 79.4025,-85"/>
<polygon fill="black" stroke="black" points="79.1571,-81.5001 69.157,-85 79.157,-88.5001 79.1571,-81.5001"/>
</g>
<!-- DistanceSensor -->
<g id="node6" class="node"><title>DistanceSensor</title>
<polygon fill="#2980b9" stroke="#2980b9" points="439,-252 353,-252 353,-216 439,-216 439,-252"/>
<text text-anchor="middle" x="396" y="-231.5" font-family="Arial" font-size="10.00" fill="#ffffff">DistanceSensor</text>
</g>
<!-- DistanceSensor&#45;&gt;SmoothedInputDevice -->
<g id="edge3" class="edge"><title>DistanceSensor&#45;&gt;SmoothedInputDevice</title>
<path fill="none" stroke="black" d="M365.215,-215.705C361.038,-212.895 356.858,-209.946 353,-207 330.397,-189.743 306.55,-168.105 289.086,-151.536"/>
<polygon fill="black" stroke="black" points="291.183,-148.698 281.538,-144.313 286.344,-153.756 291.183,-148.698"/>
</g>
<!-- LightSensor -->
<g id="node7" class="node"><title>LightSensor</title>
<polygon fill="#2980b9" stroke="#2980b9" points="430,-198 362,-198 362,-162 430,-162 430,-198"/>
<text text-anchor="middle" x="396" y="-177.5" font-family="Arial" font-size="10.00" fill="#ffffff">LightSensor</text>
</g>
<!-- LightSensor&#45;&gt;SmoothedInputDevice -->
<g id="edge5" class="edge"><title>LightSensor&#45;&gt;SmoothedInputDevice</title>
<path fill="none" stroke="black" d="M361.691,-166.374C348.029,-160.785 331.868,-154.173 316.62,-147.936"/>
<polygon fill="black" stroke="black" points="317.856,-144.66 307.275,-144.113 315.206,-151.138 317.856,-144.66"/>
</g>
<!-- LineSensor -->
<g id="node8" class="node"><title>LineSensor</title>
<polygon fill="#2980b9" stroke="#2980b9" points="428.5,-144 363.5,-144 363.5,-108 428.5,-108 428.5,-144"/>
<text text-anchor="middle" x="396" y="-123.5" font-family="Arial" font-size="10.00" fill="#ffffff">LineSensor</text>
</g>
<!-- LineSensor&#45;&gt;SmoothedInputDevice -->
<g id="edge6" class="edge"><title>LineSensor&#45;&gt;SmoothedInputDevice</title>
<path fill="none" stroke="black" d="M363.383,-126C352.429,-126 339.723,-126 327.109,-126"/>
<polygon fill="black" stroke="black" points="327.048,-122.5 317.048,-126 327.048,-129.5 327.048,-122.5"/>
</g>
<!-- MotionSensor -->
<g id="node9" class="node"><title>MotionSensor</title>
<polygon fill="#2980b9" stroke="#2980b9" points="434.5,-90 357.5,-90 357.5,-54 434.5,-54 434.5,-90"/>
<text text-anchor="middle" x="396" y="-69.5" font-family="Arial" font-size="10.00" fill="#ffffff">MotionSensor</text>
</g>
<!-- MotionSensor&#45;&gt;SmoothedInputDevice -->
<g id="edge7" class="edge"><title>MotionSensor&#45;&gt;SmoothedInputDevice</title>
<path fill="none" stroke="black" d="M357.174,-87.4742C344.547,-92.64 330.226,-98.4986 316.631,-104.06"/>
<polygon fill="black" stroke="black" points="315.295,-100.825 307.364,-107.851 317.945,-107.304 315.295,-100.825"/>
</g>
</g>
</svg>
