<?xml version="1.0" encoding="UTF-8" standalone="no"?>
<!DOCTYPE svg PUBLIC "-//W3C//DTD SVG 1.1//EN"
 "http://www.w3.org/Graphics/SVG/1.1/DTD/svg11.dtd">
<!-- Generated by graphviz version 2.36.0 (20140111.2315)
 -->
<!-- Title: classes Pages: 1 -->
<svg width="453pt" height="332pt"
 viewBox="0.00 0.00 453.00 332.00" xmlns="http://www.w3.org/2000/svg" xmlns:xlink="http://www.w3.org/1999/xlink">
<g id="graph0" class="graph" transform="scale(1 1) rotate(0) translate(4 328)">
<title>classes</title>
<polygon fill="white" stroke="none" points="-4,4 -4,-328 449,-328 449,4 -4,4"/>
<!-- Device -->
<g id="node1" class="node"><title>Device</title>
<polygon fill="#9ec6e0" stroke="#9ec6e0" points="335,-324 281,-324 281,-288 335,-288 335,-324"/>
<text text-anchor="middle" x="308" y="-303.5" font-family="Sans" font-size="10.00" fill="#000000">Device</text>
</g>
<!-- GPIODevice -->
<g id="node2" class="node"><title>GPIODevice</title>
<polygon fill="#9ec6e0" stroke="#9ec6e0" points="344,-252 272,-252 272,-216 344,-216 344,-252"/>
<text text-anchor="middle" x="308" y="-231.5" font-family="Sans" font-size="10.00" fill="#000000">GPIODevice</text>
</g>
<!-- GPIODevice&#45;&gt;Device -->
<g id="edge1" class="edge"><title>GPIODevice&#45;&gt;Device</title>
<path fill="none" stroke="black" d="M308,-252.303C308,-260.017 308,-269.288 308,-277.888"/>
<polygon fill="black" stroke="black" points="304.5,-277.896 308,-287.896 311.5,-277.896 304.5,-277.896"/>
</g>
<!-- SmoothedInputDevice -->
<g id="node3" class="node"><title>SmoothedInputDevice</title>
<polygon fill="#9ec6e0" stroke="#9ec6e0" points="289.5,-108 166.5,-108 166.5,-72 289.5,-72 289.5,-108"/>
<text text-anchor="middle" x="228" y="-87.5" font-family="Sans" font-size="10.00" fill="#000000">SmoothedInputDevice</text>
</g>
<!-- InputDevice -->
<g id="node4" class="node"><title>InputDevice</title>
<polygon fill="#2980b9" stroke="#2980b9" points="344.5,-180 271.5,-180 271.5,-144 344.5,-144 344.5,-180"/>
<text text-anchor="middle" x="308" y="-159.5" font-family="Sans" font-size="10.00" fill="#ffffff">InputDevice</text>
</g>
<!-- SmoothedInputDevice&#45;&gt;InputDevice -->
<g id="edge4" class="edge"><title>SmoothedInputDevice&#45;&gt;InputDevice</title>
<path fill="none" stroke="black" d="M247.775,-108.303C257.754,-117.035 270.011,-127.76 280.857,-137.25"/>
<polygon fill="black" stroke="black" points="278.622,-139.945 288.452,-143.896 283.231,-134.677 278.622,-139.945"/>
</g>
<!-- InputDevice&#45;&gt;GPIODevice -->
<g id="edge2" class="edge"><title>InputDevice&#45;&gt;GPIODevice</title>
<path fill="none" stroke="black" d="M308,-180.303C308,-188.017 308,-197.288 308,-205.888"/>
<polygon fill="black" stroke="black" points="304.5,-205.896 308,-215.896 311.5,-205.896 304.5,-205.896"/>
</g>
<!-- DigitalInputDevice -->
<g id="node5" class="node"><title>DigitalInputDevice</title>
<polygon fill="#2980b9" stroke="#2980b9" points="439.5,-108 336.5,-108 336.5,-72 439.5,-72 439.5,-108"/>
<text text-anchor="middle" x="388" y="-87.5" font-family="Sans" font-size="10.00" fill="#ffffff">DigitalInputDevice</text>
</g>
<!-- DigitalInputDevice&#45;&gt;InputDevice -->
<g id="edge3" class="edge"><title>DigitalInputDevice&#45;&gt;InputDevice</title>
<path fill="none" stroke="black" d="M368.225,-108.303C358.246,-117.035 345.989,-127.76 335.143,-137.25"/>
<polygon fill="black" stroke="black" points="332.769,-134.677 327.548,-143.896 337.378,-139.945 332.769,-134.677"/>
</g>
<!-- Button -->
<g id="node6" class="node"><title>Button</title>
<polygon fill="#2980b9" stroke="#2980b9" points="445,-36 391,-36 391,-0 445,-0 445,-36"/>
<text text-anchor="middle" x="418" y="-15.5" font-family="Sans" font-size="10.00" fill="#ffffff">Button</text>
</g>
<!-- Button&#45;&gt;DigitalInputDevice -->
<g id="edge5" class="edge"><title>Button&#45;&gt;DigitalInputDevice</title>
<path fill="none" stroke="black" d="M410.584,-36.3034C407.206,-44.1868 403.13,-53.6958 399.377,-62.4536"/>
<polygon fill="black" stroke="black" points="396.053,-61.3255 395.33,-71.8957 402.487,-64.0829 396.053,-61.3255"/>
</g>
<!-- MotionSensor -->
<g id="node7" class="node"><title>MotionSensor</title>
<polygon fill="#2980b9" stroke="#2980b9" points="82.5,-36 -0.5,-36 -0.5,-0 82.5,-0 82.5,-36"/>
<text text-anchor="middle" x="41" y="-15.5" font-family="Sans" font-size="10.00" fill="#ffffff">MotionSensor</text>
</g>
<!-- MotionSensor&#45;&gt;SmoothedInputDevice -->
<g id="edge6" class="edge"><title>MotionSensor&#45;&gt;SmoothedInputDevice</title>
<path fill="none" stroke="black" d="M82.5014,-34.5353C109.086,-44.4869 143.895,-57.5168 172.8,-68.3368"/>
<polygon fill="black" stroke="black" points="171.763,-71.6859 182.356,-71.9139 174.217,-65.1302 171.763,-71.6859"/>
</g>
<!-- LightSensor -->
<g id="node8" class="node"><title>LightSensor</title>
<polygon fill="#2980b9" stroke="#2980b9" points="175,-36 101,-36 101,-0 175,-0 175,-36"/>
<text text-anchor="middle" x="138" y="-15.5" font-family="Sans" font-size="10.00" fill="#ffffff">LightSensor</text>
</g>
<!-- LightSensor&#45;&gt;SmoothedInputDevice -->
<g id="edge7" class="edge"><title>LightSensor&#45;&gt;SmoothedInputDevice</title>
<path fill="none" stroke="black" d="M160.247,-36.3034C171.582,-45.1193 185.53,-55.9679 197.819,-65.5258"/>
<polygon fill="black" stroke="black" points="195.966,-68.519 206.009,-71.8957 200.264,-62.9935 195.966,-68.519"/>
</g>
<!-- LineSensor -->
<g id="node9" class="node"><title>LineSensor</title>
<polygon fill="#2980b9" stroke="#2980b9" points="263,-36 193,-36 193,-0 263,-0 263,-36"/>
<text text-anchor="middle" x="228" y="-15.5" font-family="Sans" font-size="10.00" fill="#ffffff">LineSensor</text>
</g>
<!-- LineSensor&#45;&gt;SmoothedInputDevice -->
<g id="edge8" class="edge"><title>LineSensor&#45;&gt;SmoothedInputDevice</title>
<path fill="none" stroke="black" d="M228,-36.3034C228,-44.0173 228,-53.2875 228,-61.8876"/>
<polygon fill="black" stroke="black" points="224.5,-61.8956 228,-71.8957 231.5,-61.8957 224.5,-61.8956"/>
</g>
<!-- DistanceSensor -->
<g id="node10" class="node"><title>DistanceSensor</title>
<polygon fill="#2980b9" stroke="#2980b9" points="373,-36 281,-36 281,-0 373,-0 373,-36"/>
<text text-anchor="middle" x="327" y="-15.5" font-family="Sans" font-size="10.00" fill="#ffffff">DistanceSensor</text>
</g>
<!-- DistanceSensor&#45;&gt;SmoothedInputDevice -->
<g id="edge9" class="edge"><title>DistanceSensor&#45;&gt;SmoothedInputDevice</title>
<path fill="none" stroke="black" d="M302.782,-36.1239C290.077,-45.1069 274.336,-56.2375 260.577,-65.9659"/>
<polygon fill="black" stroke="black" points="258.456,-63.1791 252.311,-71.8102 262.497,-68.8947 258.456,-63.1791"/>
</g>
</g>
</svg>
