<?xml version="1.0" encoding="UTF-8" standalone="no"?>
<!DOCTYPE svg PUBLIC "-//W3C//DTD SVG 1.1//EN"
 "http://www.w3.org/Graphics/SVG/1.1/DTD/svg11.dtd">
<!-- Generated by graphviz version 2.43.0 (0)
 -->
<!-- Title: classes Pages: 1 -->
<svg width="482pt" height="260pt"
 viewBox="0.00 0.00 482.00 260.00" xmlns="http://www.w3.org/2000/svg" xmlns:xlink="http://www.w3.org/1999/xlink">
<g id="graph0" class="graph" transform="scale(1 1) rotate(0) translate(4 256)">
<title>classes</title>
<polygon fill="white" stroke="transparent" points="-4,4 -4,-256 478,-256 478,4 -4,4"/>
<!-- GPIODevice -->
<g id="node1" class="node">
<title>GPIODevice</title>
<polygon fill="#9ec6e0" stroke="#9ec6e0" points="74,-103 0,-103 0,-67 74,-67 74,-103"/>
<text text-anchor="middle" x="37" y="-82.5" font-family="Sans" font-size="10.00" fill="#000000">GPIODevice</text>
</g>
<!-- SmoothedInputDevice -->
<g id="node2" class="node">
<title>SmoothedInputDevice</title>
<polygon fill="#9ec6e0" stroke="#9ec6e0" points="346,-144 221,-144 221,-108 346,-108 346,-144"/>
<text text-anchor="middle" x="283.5" y="-123.5" font-family="Sans" font-size="10.00" fill="#000000">SmoothedInputDevice</text>
</g>
<!-- InputDevice -->
<g id="node5" class="node">
<title>InputDevice</title>
<polygon fill="#2980b9" stroke="#2980b9" points="185,-103 110,-103 110,-67 185,-67 185,-103"/>
<text text-anchor="middle" x="147.5" y="-82.5" font-family="Sans" font-size="10.00" fill="#ffffff">InputDevice</text>
</g>
<!-- SmoothedInputDevice&#45;&gt;InputDevice -->
<g id="edge8" class="edge">
<title>SmoothedInputDevice&#45;&gt;InputDevice</title>
<path fill="none" stroke="black" d="M223.34,-107.9C213.76,-104.97 203.97,-101.97 194.75,-99.15"/>
<polygon fill="black" stroke="black" points="195.61,-95.75 185.02,-96.17 193.56,-102.45 195.61,-95.75"/>
</g>
<!-- Button -->
<g id="node3" class="node">
<title>Button</title>
<polygon fill="#2980b9" stroke="#2980b9" points="455,-36 401,-36 401,0 455,0 455,-36"/>
<text text-anchor="middle" x="428" y="-15.5" font-family="Sans" font-size="10.00" fill="#ffffff">Button</text>
</g>
<!-- DigitalInputDevice -->
<g id="node4" class="node">
<title>DigitalInputDevice</title>
<polygon fill="#2980b9" stroke="#2980b9" points="337,-63 230,-63 230,-27 337,-27 337,-63"/>
<text text-anchor="middle" x="283.5" y="-42.5" font-family="Sans" font-size="10.00" fill="#ffffff">DigitalInputDevice</text>
</g>
<!-- Button&#45;&gt;DigitalInputDevice -->
<g id="edge1" class="edge">
<title>Button&#45;&gt;DigitalInputDevice</title>
<path fill="none" stroke="black" d="M400.86,-22.95C385.74,-25.82 366.02,-29.55 347.12,-33.14"/>
<polygon fill="black" stroke="black" points="346.21,-29.75 337.04,-35.05 347.51,-36.62 346.21,-29.75"/>
</g>
<!-- DigitalInputDevice&#45;&gt;InputDevice -->
<g id="edge2" class="edge">
<title>DigitalInputDevice&#45;&gt;InputDevice</title>
<path fill="none" stroke="black" d="M229.92,-60.69C218.36,-64.15 206.18,-67.78 194.88,-71.16"/>
<polygon fill="black" stroke="black" points="193.79,-67.83 185.21,-74.04 195.79,-74.54 193.79,-67.83"/>
</g>
<!-- InputDevice&#45;&gt;GPIODevice -->
<g id="edge4" class="edge">
<title>InputDevice&#45;&gt;GPIODevice</title>
<path fill="none" stroke="black" d="M109.77,-85C101.64,-85 92.92,-85 84.46,-85"/>
<polygon fill="black" stroke="black" points="84.33,-81.5 74.33,-85 84.33,-88.5 84.33,-81.5"/>
</g>
<!-- DistanceSensor -->
<g id="node6" class="node">
<title>DistanceSensor</title>
<polygon fill="#2980b9" stroke="#2980b9" points="474,-252 382,-252 382,-216 474,-216 474,-252"/>
<text text-anchor="middle" x="428" y="-231.5" font-family="Sans" font-size="10.00" fill="#ffffff">DistanceSensor</text>
</g>
<!-- DistanceSensor&#45;&gt;SmoothedInputDevice -->
<g id="edge3" class="edge">
<title>DistanceSensor&#45;&gt;SmoothedInputDevice</title>
<path fill="none" stroke="black" d="M395.14,-215.71C390.66,-212.9 386.16,-209.95 382,-207 357.34,-189.51 331.07,-167.47 312.02,-150.79"/>
<polygon fill="black" stroke="black" points="314.14,-148 304.32,-144.01 309.51,-153.24 314.14,-148"/>
</g>
<!-- LightSensor -->
<g id="node7" class="node">
<title>LightSensor</title>
<polygon fill="#2980b9" stroke="#2980b9" points="465,-198 391,-198 391,-162 465,-162 465,-198"/>
<text text-anchor="middle" x="428" y="-177.5" font-family="Sans" font-size="10.00" fill="#ffffff">LightSensor</text>
</g>
<!-- LightSensor&#45;&gt;SmoothedInputDevice -->
<g id="edge5" class="edge">
<title>LightSensor&#45;&gt;SmoothedInputDevice</title>
<path fill="none" stroke="black" d="M390.67,-166.23C375.78,-160.59 358.19,-153.93 341.65,-147.66"/>
<polygon fill="black" stroke="black" points="342.66,-144.3 332.07,-144.03 340.18,-150.84 342.66,-144.3"/>
</g>
<!-- LineSensor -->
<g id="node8" class="node">
<title>LineSensor</title>
<polygon fill="#2980b9" stroke="#2980b9" points="463,-144 393,-144 393,-108 463,-108 463,-144"/>
<text text-anchor="middle" x="428" y="-123.5" font-family="Sans" font-size="10.00" fill="#ffffff">LineSensor</text>
</g>
<!-- LineSensor&#45;&gt;SmoothedInputDevice -->
<g id="edge6" class="edge">
<title>LineSensor&#45;&gt;SmoothedInputDevice</title>
<path fill="none" stroke="black" d="M392.87,-126C381.82,-126 369.13,-126 356.4,-126"/>
<polygon fill="black" stroke="black" points="356.22,-122.5 346.22,-126 356.22,-129.5 356.22,-122.5"/>
</g>
<!-- MotionSensor -->
<g id="node9" class="node">
<title>MotionSensor</title>
<polygon fill="#2980b9" stroke="#2980b9" points="469.5,-90 386.5,-90 386.5,-54 469.5,-54 469.5,-90"/>
<text text-anchor="middle" x="428" y="-69.5" font-family="Sans" font-size="10.00" fill="#ffffff">MotionSensor</text>
</g>
<!-- MotionSensor&#45;&gt;SmoothedInputDevice -->
<g id="edge7" class="edge">
<title>MotionSensor&#45;&gt;SmoothedInputDevice</title>
<path fill="none" stroke="black" d="M386.17,-87.47C372.33,-92.72 356.62,-98.67 341.76,-104.3"/>
<polygon fill="black" stroke="black" points="340.25,-101.13 332.14,-107.95 342.73,-107.68 340.25,-101.13"/>
</g>
</g>
</svg>
