<?xml version="1.0" encoding="UTF-8" standalone="no"?>
<!DOCTYPE svg PUBLIC "-//W3C//DTD SVG 1.1//EN"
 "http://www.w3.org/Graphics/SVG/1.1/DTD/svg11.dtd">
<!-- Generated by graphviz version 2.43.0 (0)
 -->
<!-- Title: classes Pages: 1 -->
<svg width="464pt" height="260pt"
 viewBox="0.00 0.00 464.00 260.00" xmlns="http://www.w3.org/2000/svg" xmlns:xlink="http://www.w3.org/1999/xlink">
<g id="graph0" class="graph" transform="scale(1 1) rotate(0) translate(4 256)">
<title>classes</title>
<polygon fill="white" stroke="transparent" points="-4,4 -4,-256 460,-256 460,4 -4,4"/>
<!-- Device -->
<g id="node1" class="node">
<title>Device</title>
<polygon fill="#9ec6e0" stroke="#9ec6e0" points="54,-144 0,-144 0,-108 54,-108 54,-144"/>
<text text-anchor="middle" x="27" y="-123.5" font-family="Sans" font-size="10.00" fill="#000000">Device</text>
</g>
<!-- InternalDevice -->
<g id="node2" class="node">
<title>InternalDevice</title>
<polygon fill="#9ec6e0" stroke="#9ec6e0" points="175,-144 90,-144 90,-108 175,-108 175,-144"/>
<text text-anchor="middle" x="132.5" y="-123.5" font-family="Sans" font-size="10.00" fill="#000000">InternalDevice</text>
</g>
<!-- InternalDevice&#45;&gt;Device -->
<g id="edge3" class="edge">
<title>InternalDevice&#45;&gt;Device</title>
<path fill="none" stroke="black" d="M90,-126C81.46,-126 72.53,-126 64.19,-126"/>
<polygon fill="black" stroke="black" points="64.03,-122.5 54.03,-126 64.03,-129.5 64.03,-122.5"/>
</g>
<!-- CPUTemperature -->
<g id="node3" class="node">
<title>CPUTemperature</title>
<polygon fill="#2980b9" stroke="#2980b9" points="456,-252 360,-252 360,-216 456,-216 456,-252"/>
<text text-anchor="middle" x="408" y="-231.5" font-family="Sans" font-size="10.00" fill="#ffffff">CPUTemperature</text>
</g>
<!-- PolledInternalDevice -->
<g id="node7" class="node">
<title>PolledInternalDevice</title>
<polygon fill="#2980b9" stroke="#2980b9" points="324,-144 211,-144 211,-108 324,-108 324,-144"/>
<text text-anchor="middle" x="267.5" y="-123.5" font-family="Sans" font-size="10.00" fill="#ffffff">PolledInternalDevice</text>
</g>
<!-- CPUTemperature&#45;&gt;PolledInternalDevice -->
<g id="edge1" class="edge">
<title>CPUTemperature&#45;&gt;PolledInternalDevice</title>
<path fill="none" stroke="black" d="M373.6,-215.94C368.94,-213.1 364.28,-210.07 360,-207 336.54,-190.15 312.16,-168.31 294.46,-151.56"/>
<polygon fill="black" stroke="black" points="296.48,-148.64 286.83,-144.25 291.64,-153.7 296.48,-148.64"/>
</g>
<!-- DiskUsage -->
<g id="node4" class="node">
<title>DiskUsage</title>
<polygon fill="#2980b9" stroke="#2980b9" points="440.5,-198 375.5,-198 375.5,-162 440.5,-162 440.5,-198"/>
<text text-anchor="middle" x="408" y="-177.5" font-family="Sans" font-size="10.00" fill="#ffffff">DiskUsage</text>
</g>
<!-- DiskUsage&#45;&gt;PolledInternalDevice -->
<g id="edge2" class="edge">
<title>DiskUsage&#45;&gt;PolledInternalDevice</title>
<path fill="none" stroke="black" d="M375.23,-167.61C360.13,-161.73 341.64,-154.52 324.31,-147.76"/>
<polygon fill="black" stroke="black" points="325.42,-144.44 314.84,-144.07 322.88,-150.96 325.42,-144.44"/>
</g>
<!-- LoadAverage -->
<g id="node5" class="node">
<title>LoadAverage</title>
<polygon fill="#2980b9" stroke="#2980b9" points="447,-144 369,-144 369,-108 447,-108 447,-144"/>
<text text-anchor="middle" x="408" y="-123.5" font-family="Sans" font-size="10.00" fill="#ffffff">LoadAverage</text>
</g>
<!-- LoadAverage&#45;&gt;PolledInternalDevice -->
<g id="edge4" class="edge">
<title>LoadAverage&#45;&gt;PolledInternalDevice</title>
<path fill="none" stroke="black" d="M368.79,-126C358.14,-126 346.25,-126 334.49,-126"/>
<polygon fill="black" stroke="black" points="334.22,-122.5 324.22,-126 334.22,-129.5 334.22,-122.5"/>
</g>
<!-- PingServer -->
<g id="node6" class="node">
<title>PingServer</title>
<polygon fill="#2980b9" stroke="#2980b9" points="442,-90 374,-90 374,-54 442,-54 442,-90"/>
<text text-anchor="middle" x="408" y="-69.5" font-family="Sans" font-size="10.00" fill="#ffffff">PingServer</text>
</g>
<!-- PingServer&#45;&gt;PolledInternalDevice -->
<g id="edge5" class="edge">
<title>PingServer&#45;&gt;PolledInternalDevice</title>
<path fill="none" stroke="black" d="M373.83,-84.93C359.04,-90.7 341.21,-97.65 324.46,-104.18"/>
<polygon fill="black" stroke="black" points="322.8,-101.07 314.76,-107.97 325.34,-107.59 322.8,-101.07"/>
</g>
<!-- PolledInternalDevice&#45;&gt;InternalDevice -->
<g id="edge6" class="edge">
<title>PolledInternalDevice&#45;&gt;InternalDevice</title>
<path fill="none" stroke="black" d="M210.87,-126C202.36,-126 193.62,-126 185.21,-126"/>
<polygon fill="black" stroke="black" points="185.15,-122.5 175.15,-126 185.15,-129.5 185.15,-122.5"/>
</g>
<!-- TimeOfDay -->
<g id="node8" class="node">
<title>TimeOfDay</title>
<polygon fill="#2980b9" stroke="#2980b9" points="442,-36 374,-36 374,0 442,0 442,-36"/>
<text text-anchor="middle" x="408" y="-15.5" font-family="Sans" font-size="10.00" fill="#ffffff">TimeOfDay</text>
</g>
<!-- TimeOfDay&#45;&gt;PolledInternalDevice -->
<g id="edge7" class="edge">
<title>TimeOfDay&#45;&gt;PolledInternalDevice</title>
<path fill="none" stroke="black" d="M373.6,-36.06C368.94,-38.9 364.28,-41.93 360,-45 336.54,-61.85 312.16,-83.69 294.46,-100.44"/>
<polygon fill="black" stroke="black" points="291.64,-98.3 286.83,-107.75 296.48,-103.36 291.64,-98.3"/>
</g>
</g>
</svg>
