<?xml version="1.0" encoding="UTF-8" standalone="no"?>
<!DOCTYPE svg PUBLIC "-//W3C//DTD SVG 1.1//EN"
 "http://www.w3.org/Graphics/SVG/1.1/DTD/svg11.dtd">
<!-- Generated by graphviz version 2.38.0 (20140413.2041)
 -->
<!-- Title: classes Pages: 1 -->
<svg width="302pt" height="260pt"
 viewBox="0.00 0.00 302.00 260.00" xmlns="http://www.w3.org/2000/svg" xmlns:xlink="http://www.w3.org/1999/xlink">
<g id="graph0" class="graph" transform="scale(1 1) rotate(0) translate(4 256)">
<title>classes</title>
<polygon fill="white" stroke="none" points="-4,4 -4,-256 298,-256 298,4 -4,4"/>
<!-- Device -->
<g id="node1" class="node"><title>Device</title>
<polygon fill="#9ec6e0" stroke="#9ec6e0" points="54,-144 0,-144 0,-108 54,-108 54,-144"/>
<text text-anchor="middle" x="27" y="-123.5" font-family="Arial" font-size="10.00" fill="#000000">Device</text>
</g>
<!-- InternalDevice -->
<g id="node2" class="node"><title>InternalDevice</title>
<polygon fill="#9ec6e0" stroke="#9ec6e0" points="167,-144 90,-144 90,-108 167,-108 167,-144"/>
<text text-anchor="middle" x="128.5" y="-123.5" font-family="Arial" font-size="10.00" fill="#000000">InternalDevice</text>
</g>
<!-- InternalDevice&#45;&gt;Device -->
<g id="edge1" class="edge"><title>InternalDevice&#45;&gt;Device</title>
<path fill="none" stroke="black" d="M89.8833,-126C81.5252,-126 72.6806,-126 64.3735,-126"/>
<polygon fill="black" stroke="black" points="64.2157,-122.5 54.2156,-126 64.2156,-129.5 64.2157,-122.5"/>
</g>
<!-- TimeOfDay -->
<g id="node3" class="node"><title>TimeOfDay</title>
<polygon fill="#2980b9" stroke="#2980b9" points="281,-252 216,-252 216,-216 281,-216 281,-252"/>
<text text-anchor="middle" x="248.5" y="-231.5" font-family="Arial" font-size="10.00" fill="#ffffff">TimeOfDay</text>
</g>
<!-- TimeOfDay&#45;&gt;InternalDevice -->
<g id="edge2" class="edge"><title>TimeOfDay&#45;&gt;InternalDevice</title>
<path fill="none" stroke="black" d="M215.605,-216.206C211.229,-213.323 206.904,-210.22 203,-207 183.109,-190.595 163.641,-168.806 149.743,-151.958"/>
<polygon fill="black" stroke="black" points="152.41,-149.69 143.391,-144.13 146.974,-154.101 152.41,-149.69"/>
</g>
<!-- PingServer -->
<g id="node4" class="node"><title>PingServer</title>
<polygon fill="#2980b9" stroke="#2980b9" points="280,-198 217,-198 217,-162 280,-162 280,-198"/>
<text text-anchor="middle" x="248.5" y="-177.5" font-family="Arial" font-size="10.00" fill="#ffffff">PingServer</text>
</g>
<!-- PingServer&#45;&gt;InternalDevice -->
<g id="edge3" class="edge"><title>PingServer&#45;&gt;InternalDevice</title>
<path fill="none" stroke="black" d="M216.805,-165.953C204.488,-160.316 190.013,-153.693 176.431,-147.477"/>
<polygon fill="black" stroke="black" points="177.757,-144.235 167.207,-143.256 174.844,-150.6 177.757,-144.235"/>
</g>
<!-- CPUTemperature -->
<g id="node5" class="node"><title>CPUTemperature</title>
<polygon fill="#2980b9" stroke="#2980b9" points="294,-144 203,-144 203,-108 294,-108 294,-144"/>
<text text-anchor="middle" x="248.5" y="-123.5" font-family="Arial" font-size="10.00" fill="#ffffff">CPUTemperature</text>
</g>
<!-- CPUTemperature&#45;&gt;InternalDevice -->
<g id="edge4" class="edge"><title>CPUTemperature&#45;&gt;InternalDevice</title>
<path fill="none" stroke="black" d="M202.889,-126C194.537,-126 185.776,-126 177.331,-126"/>
<polygon fill="black" stroke="black" points="177.237,-122.5 167.237,-126 177.236,-129.5 177.237,-122.5"/>
</g>
<!-- LoadAverage -->
<g id="node6" class="node"><title>LoadAverage</title>
<polygon fill="#2980b9" stroke="#2980b9" points="284.5,-90 212.5,-90 212.5,-54 284.5,-54 284.5,-90"/>
<text text-anchor="middle" x="248.5" y="-69.5" font-family="Arial" font-size="10.00" fill="#ffffff">LoadAverage</text>
</g>
<!-- LoadAverage&#45;&gt;InternalDevice -->
<g id="edge5" class="edge"><title>LoadAverage&#45;&gt;InternalDevice</title>
<path fill="none" stroke="black" d="M212.416,-88.0556C201.158,-93.2072 188.503,-98.9986 176.533,-104.476"/>
<polygon fill="black" stroke="black" points="174.758,-101.44 167.121,-108.784 177.671,-107.805 174.758,-101.44"/>
</g>
<!-- DiskUsage -->
<g id="node7" class="node"><title>DiskUsage</title>
<polygon fill="#2980b9" stroke="#2980b9" points="280.5,-36 216.5,-36 216.5,-0 280.5,-0 280.5,-36"/>
<text text-anchor="middle" x="248.5" y="-15.5" font-family="Arial" font-size="10.00" fill="#ffffff">DiskUsage</text>
</g>
<!-- DiskUsage&#45;&gt;InternalDevice -->
<g id="edge6" class="edge"><title>DiskUsage&#45;&gt;InternalDevice</title>
<path fill="none" stroke="black" d="M216.074,-35.4857C211.539,-38.4557 207.043,-41.6653 203,-45 183.109,-61.4049 163.641,-83.1945 149.743,-100.042"/>
<polygon fill="black" stroke="black" points="146.974,-97.8995 143.391,-107.87 152.41,-102.31 146.974,-97.8995"/>
</g>
</g>
</svg>
