<?xml version="1.0" encoding="UTF-8" standalone="no"?>
<!DOCTYPE svg PUBLIC "-//W3C//DTD SVG 1.1//EN"
 "http://www.w3.org/Graphics/SVG/1.1/DTD/svg11.dtd">
<!-- Generated by graphviz version 2.40.1 (20161225.0304)
 -->
<!-- Title: classes Pages: 1 -->
<svg width="320pt" height="260pt"
 viewBox="0.00 0.00 320.00 260.00" xmlns="http://www.w3.org/2000/svg" xmlns:xlink="http://www.w3.org/1999/xlink">
<g id="graph0" class="graph" transform="scale(1 1) rotate(0) translate(4 256)">
<title>classes</title>
<polygon fill="#ffffff" stroke="transparent" points="-4,4 -4,-256 316,-256 316,4 -4,4"/>
<!-- Device -->
<g id="node1" class="node">
<title>Device</title>
<polygon fill="#9ec6e0" stroke="#9ec6e0" points="54,-144 0,-144 0,-108 54,-108 54,-144"/>
<text text-anchor="middle" x="27" y="-123.5" font-family="Sans" font-size="10.00" fill="#000000">Device</text>
</g>
<!-- InternalDevice -->
<g id="node2" class="node">
<title>InternalDevice</title>
<polygon fill="#9ec6e0" stroke="#9ec6e0" points="178,-144 90,-144 90,-108 178,-108 178,-144"/>
<text text-anchor="middle" x="134" y="-123.5" font-family="Sans" font-size="10.00" fill="#000000">InternalDevice</text>
</g>
<!-- InternalDevice&#45;&gt;Device -->
<g id="edge1" class="edge">
<title>InternalDevice&#45;&gt;Device</title>
<path fill="none" stroke="#000000" d="M89.8612,-126C81.3611,-126 72.5356,-126 64.2792,-126"/>
<polygon fill="#000000" stroke="#000000" points="64.1931,-122.5001 54.193,-126 64.193,-129.5001 64.1931,-122.5001"/>
</g>
<!-- TimeOfDay -->
<g id="node3" class="node">
<title>TimeOfDay</title>
<polygon fill="#2980b9" stroke="#2980b9" points="299,-252 227,-252 227,-216 299,-216 299,-252"/>
<text text-anchor="middle" x="263" y="-231.5" font-family="Sans" font-size="10.00" fill="#ffffff">TimeOfDay</text>
</g>
<!-- TimeOfDay&#45;&gt;InternalDevice -->
<g id="edge2" class="edge">
<title>TimeOfDay&#45;&gt;InternalDevice</title>
<path fill="none" stroke="#000000" d="M227.1757,-215.8511C222.6113,-213.0826 218.1055,-210.1056 214,-207 192.5967,-190.8095 171.3923,-169.0068 156.197,-152.1001"/>
<polygon fill="#000000" stroke="#000000" points="158.4921,-149.412 149.2456,-144.2397 153.2484,-154.0493 158.4921,-149.412"/>
</g>
<!-- PingServer -->
<g id="node4" class="node">
<title>PingServer</title>
<polygon fill="#2980b9" stroke="#2980b9" points="297.5,-198 228.5,-198 228.5,-162 297.5,-162 297.5,-198"/>
<text text-anchor="middle" x="263" y="-177.5" font-family="Sans" font-size="10.00" fill="#ffffff">PingServer</text>
</g>
<!-- PingServer&#45;&gt;InternalDevice -->
<g id="edge3" class="edge">
<title>PingServer&#45;&gt;InternalDevice</title>
<path fill="none" stroke="#000000" d="M228.4304,-165.529C215.6964,-160.1985 200.9625,-154.0308 186.9758,-148.1759"/>
<polygon fill="#000000" stroke="#000000" points="188.0219,-144.8196 177.4459,-144.1867 185.3188,-151.2767 188.0219,-144.8196"/>
</g>
<!-- CPUTemperature -->
<g id="node5" class="node">
<title>CPUTemperature</title>
<polygon fill="#2980b9" stroke="#2980b9" points="312,-144 214,-144 214,-108 312,-108 312,-144"/>
<text text-anchor="middle" x="263" y="-123.5" font-family="Sans" font-size="10.00" fill="#ffffff">CPUTemperature</text>
</g>
<!-- CPUTemperature&#45;&gt;InternalDevice -->
<g id="edge4" class="edge">
<title>CPUTemperature&#45;&gt;InternalDevice</title>
<path fill="none" stroke="#000000" d="M213.8626,-126C205.5609,-126 196.8987,-126 188.4707,-126"/>
<polygon fill="#000000" stroke="#000000" points="188.3466,-122.5001 178.3465,-126 188.3465,-129.5001 188.3466,-122.5001"/>
</g>
<!-- LoadAverage -->
<g id="node6" class="node">
<title>LoadAverage</title>
<polygon fill="#2980b9" stroke="#2980b9" points="303,-90 223,-90 223,-54 303,-54 303,-90"/>
<text text-anchor="middle" x="263" y="-69.5" font-family="Sans" font-size="10.00" fill="#ffffff">LoadAverage</text>
</g>
<!-- LoadAverage&#45;&gt;InternalDevice -->
<g id="edge5" class="edge">
<title>LoadAverage&#45;&gt;InternalDevice</title>
<path fill="none" stroke="#000000" d="M222.8907,-88.7899C211.4521,-93.5782 198.8133,-98.8688 186.743,-103.9215"/>
<polygon fill="#000000" stroke="#000000" points="185.0915,-100.8185 177.2186,-107.9085 187.7945,-107.2756 185.0915,-100.8185"/>
</g>
<!-- DiskUsage -->
<g id="node7" class="node">
<title>DiskUsage</title>
<polygon fill="#2980b9" stroke="#2980b9" points="297.5,-36 228.5,-36 228.5,0 297.5,0 297.5,-36"/>
<text text-anchor="middle" x="263" y="-15.5" font-family="Sans" font-size="10.00" fill="#ffffff">DiskUsage</text>
</g>
<!-- DiskUsage&#45;&gt;InternalDevice -->
<g id="edge6" class="edge">
<title>DiskUsage&#45;&gt;InternalDevice</title>
<path fill="none" stroke="#000000" d="M228.4688,-35.371C223.4651,-38.3568 218.4928,-41.6014 214,-45 192.5967,-61.1905 171.3923,-82.9932 156.197,-99.8999"/>
<polygon fill="#000000" stroke="#000000" points="153.2484,-97.9507 149.2456,-107.7603 158.4921,-102.588 153.2484,-97.9507"/>
</g>
</g>
</svg>
