<?xml version="1.0" encoding="UTF-8" standalone="no"?>
<!DOCTYPE svg PUBLIC "-//W3C//DTD SVG 1.1//EN"
 "http://www.w3.org/Graphics/SVG/1.1/DTD/svg11.dtd">
<!-- Generated by graphviz version 2.36.0 (20140111.2315)
 -->
<!-- Title: classes Pages: 1 -->
<svg width="163pt" height="188pt"
 viewBox="0.00 0.00 163.00 188.00" xmlns="http://www.w3.org/2000/svg" xmlns:xlink="http://www.w3.org/1999/xlink">
<g id="graph0" class="graph" transform="scale(1 1) rotate(0) translate(4 184)">
<title>classes</title>
<polygon fill="white" stroke="none" points="-4,4 -4,-184 159,-184 159,4 -4,4"/>
<!-- Device -->
<g id="node1" class="node"><title>Device</title>
<polygon fill="#9ec6e0" stroke="#9ec6e0" points="104,-180 50,-180 50,-144 104,-144 104,-180"/>
<text text-anchor="middle" x="77" y="-159.5" font-family="Sans" font-size="10.00" fill="#000000">Device</text>
</g>
<!-- InternalDevice -->
<g id="node2" class="node"><title>InternalDevice</title>
<polygon fill="#9ec6e0" stroke="#9ec6e0" points="119.5,-108 34.5,-108 34.5,-72 119.5,-72 119.5,-108"/>
<text text-anchor="middle" x="77" y="-87.5" font-family="Sans" font-size="10.00" fill="#000000">InternalDevice</text>
</g>
<!-- InternalDevice&#45;&gt;Device -->
<g id="edge1" class="edge"><title>InternalDevice&#45;&gt;Device</title>
<path fill="none" stroke="black" d="M77,-108.303C77,-116.017 77,-125.288 77,-133.888"/>
<polygon fill="black" stroke="black" points="73.5001,-133.896 77,-143.896 80.5001,-133.896 73.5001,-133.896"/>
</g>
<!-- TimeOfDay -->
<g id="node3" class="node"><title>TimeOfDay</title>
<polygon fill="#2980b9" stroke="#2980b9" points="68.5,-36 -0.5,-36 -0.5,-0 68.5,-0 68.5,-36"/>
<text text-anchor="middle" x="34" y="-15.5" font-family="Sans" font-size="10.00" fill="#ffffff">TimeOfDay</text>
</g>
<!-- TimeOfDay&#45;&gt;InternalDevice -->
<g id="edge2" class="edge"><title>TimeOfDay&#45;&gt;InternalDevice</title>
<path fill="none" stroke="black" d="M44.6292,-36.3034C49.6281,-44.4411 55.691,-54.311 61.2121,-63.2987"/>
<polygon fill="black" stroke="black" points="58.2766,-65.2069 66.4931,-71.8957 64.2411,-61.5429 58.2766,-65.2069"/>
</g>
<!-- PingServer -->
<g id="node4" class="node"><title>PingServer</title>
<polygon fill="#2980b9" stroke="#2980b9" points="155,-36 87,-36 87,-0 155,-0 155,-36"/>
<text text-anchor="middle" x="121" y="-15.5" font-family="Sans" font-size="10.00" fill="#ffffff">PingServer</text>
</g>
<!-- PingServer&#45;&gt;InternalDevice -->
<g id="edge3" class="edge"><title>PingServer&#45;&gt;InternalDevice</title>
<path fill="none" stroke="black" d="M110.124,-36.3034C105.008,-44.4411 98.8045,-54.311 93.1551,-63.2987"/>
<polygon fill="black" stroke="black" points="90.1098,-61.5667 87.7513,-71.8957 96.0363,-65.2919 90.1098,-61.5667"/>
</g>
</g>
</svg>
