<?xml version="1.0" encoding="UTF-8" standalone="no"?>
<!DOCTYPE svg PUBLIC "-//W3C//DTD SVG 1.1//EN"
 "http://www.w3.org/Graphics/SVG/1.1/DTD/svg11.dtd">
<!-- Generated by graphviz version 2.40.1 (20161225.0304)
 -->
<!-- Title: classes Pages: 1 -->
<svg width="320pt" height="206pt"
 viewBox="0.00 0.00 320.00 206.00" xmlns="http://www.w3.org/2000/svg" xmlns:xlink="http://www.w3.org/1999/xlink">
<g id="graph0" class="graph" transform="scale(1 1) rotate(0) translate(4 202)">
<title>classes</title>
<polygon fill="#ffffff" stroke="transparent" points="-4,4 -4,-202 316,-202 316,4 -4,4"/>
<!-- Device -->
<g id="node1" class="node">
<title>Device</title>
<polygon fill="#9ec6e0" stroke="#9ec6e0" points="54,-117 0,-117 0,-81 54,-81 54,-117"/>
<text text-anchor="middle" x="27" y="-96.5" font-family="Sans" font-size="10.00" fill="#000000">Device</text>
</g>
<!-- InternalDevice -->
<g id="node2" class="node">
<title>InternalDevice</title>
<polygon fill="#9ec6e0" stroke="#9ec6e0" points="178,-117 90,-117 90,-81 178,-81 178,-117"/>
<text text-anchor="middle" x="134" y="-96.5" font-family="Sans" font-size="10.00" fill="#000000">InternalDevice</text>
</g>
<!-- InternalDevice&#45;&gt;Device -->
<g id="edge1" class="edge">
<title>InternalDevice&#45;&gt;Device</title>
<path fill="none" stroke="#000000" d="M89.8612,-99C81.3611,-99 72.5356,-99 64.2792,-99"/>
<polygon fill="#000000" stroke="#000000" points="64.1931,-95.5001 54.193,-99 64.193,-102.5001 64.1931,-95.5001"/>
</g>
<!-- TimeOfDay -->
<g id="node3" class="node">
<title>TimeOfDay</title>
<polygon fill="#2980b9" stroke="#2980b9" points="299,-198 227,-198 227,-162 299,-162 299,-198"/>
<text text-anchor="middle" x="263" y="-177.5" font-family="Sans" font-size="10.00" fill="#ffffff">TimeOfDay</text>
</g>
<!-- TimeOfDay&#45;&gt;InternalDevice -->
<g id="edge2" class="edge">
<title>TimeOfDay&#45;&gt;InternalDevice</title>
<path fill="none" stroke="#000000" d="M229.2946,-161.9512C224.1278,-159.0342 218.8894,-155.9889 214,-153 198.6083,-143.591 182.0142,-132.5458 167.951,-122.9046"/>
<polygon fill="#000000" stroke="#000000" points="169.7734,-119.9097 159.5551,-117.1101 165.7973,-125.6708 169.7734,-119.9097"/>
</g>
<!-- PingServer -->
<g id="node4" class="node">
<title>PingServer</title>
<polygon fill="#2980b9" stroke="#2980b9" points="297.5,-144 228.5,-144 228.5,-108 297.5,-108 297.5,-144"/>
<text text-anchor="middle" x="263" y="-123.5" font-family="Sans" font-size="10.00" fill="#ffffff">PingServer</text>
</g>
<!-- PingServer&#45;&gt;InternalDevice -->
<g id="edge3" class="edge">
<title>PingServer&#45;&gt;InternalDevice</title>
<path fill="none" stroke="#000000" d="M228.4304,-118.7645C216.1791,-116.2003 202.0768,-113.2486 188.5697,-110.4216"/>
<polygon fill="#000000" stroke="#000000" points="188.9023,-106.9154 178.3973,-108.2925 187.4682,-113.7669 188.9023,-106.9154"/>
</g>
<!-- CPUTemperature -->
<g id="node5" class="node">
<title>CPUTemperature</title>
<polygon fill="#2980b9" stroke="#2980b9" points="312,-90 214,-90 214,-54 312,-54 312,-90"/>
<text text-anchor="middle" x="263" y="-69.5" font-family="Sans" font-size="10.00" fill="#ffffff">CPUTemperature</text>
</g>
<!-- CPUTemperature&#45;&gt;InternalDevice -->
<g id="edge4" class="edge">
<title>CPUTemperature&#45;&gt;InternalDevice</title>
<path fill="none" stroke="#000000" d="M213.8626,-82.2846C205.4697,-84.0412 196.7083,-85.875 188.193,-87.6573"/>
<polygon fill="#000000" stroke="#000000" points="187.4174,-84.2437 178.3465,-89.7182 188.8515,-91.0952 187.4174,-84.2437"/>
</g>
<!-- LoadAverage -->
<g id="node6" class="node">
<title>LoadAverage</title>
<polygon fill="#2980b9" stroke="#2980b9" points="303,-36 223,-36 223,0 303,0 303,-36"/>
<text text-anchor="middle" x="263" y="-15.5" font-family="Sans" font-size="10.00" fill="#ffffff">LoadAverage</text>
</g>
<!-- LoadAverage&#45;&gt;InternalDevice -->
<g id="edge5" class="edge">
<title>LoadAverage&#45;&gt;InternalDevice</title>
<path fill="none" stroke="#000000" d="M229.2946,-36.0488C224.1278,-38.9658 218.8894,-42.0111 214,-45 198.6083,-54.409 182.0142,-65.4542 167.951,-75.0954"/>
<polygon fill="#000000" stroke="#000000" points="165.7973,-72.3292 159.5551,-80.8899 169.7734,-78.0903 165.7973,-72.3292"/>
</g>
</g>
</svg>
