<?xml version="1.0" encoding="UTF-8" standalone="no"?>
<!DOCTYPE svg PUBLIC "-//W3C//DTD SVG 1.1//EN"
 "http://www.w3.org/Graphics/SVG/1.1/DTD/svg11.dtd">
<!-- Generated by graphviz version 2.38.0 (20140413.2041)
 -->
<!-- Title: classes Pages: 1 -->
<svg width="530pt" height="152pt"
 viewBox="0.00 0.00 530.00 152.00" xmlns="http://www.w3.org/2000/svg" xmlns:xlink="http://www.w3.org/1999/xlink">
<g id="graph0" class="graph" transform="scale(1 1) rotate(0) translate(4 148)">
<title>classes</title>
<polygon fill="white" stroke="none" points="-4,4 -4,-148 526,-148 526,4 -4,4"/>
<!-- GPIODevice -->
<g id="node1" class="node"><title>GPIODevice</title>
<polygon fill="#9ec6e0" stroke="#9ec6e0" points="162,-63 90,-63 90,-27 162,-27 162,-63"/>
<text text-anchor="middle" x="126" y="-42.5" font-family="Sans" font-size="10.00" fill="#000000">GPIODevice</text>
</g>
<!-- Device -->
<g id="node2" class="node"><title>Device</title>
<polygon fill="#9ec6e0" stroke="#9ec6e0" points="54,-90 0,-90 0,-54 54,-54 54,-90"/>
<text text-anchor="middle" x="27" y="-69.5" font-family="Sans" font-size="10.00" fill="#000000">Device</text>
</g>
<!-- GPIODevice&#45;&gt;Device -->
<g id="edge9" class="edge"><title>GPIODevice&#45;&gt;Device</title>
<path fill="none" stroke="black" d="M89.9808,-54.7476C81.4779,-57.1144 72.3745,-59.6483 63.8345,-62.0255"/>
<polygon fill="black" stroke="black" points="62.833,-58.6711 54.1378,-64.7245 64.7101,-65.4147 62.833,-58.6711"/>
</g>
<!-- LED -->
<g id="node3" class="node"><title>LED</title>
<polygon fill="#2980b9" stroke="#2980b9" points="520,-144 466,-144 466,-108 520,-108 520,-144"/>
<text text-anchor="middle" x="493" y="-123.5" font-family="Sans" font-size="10.00" fill="#ffffff">LED</text>
</g>
<!-- DigitalOutputDevice -->
<g id="node4" class="node"><title>DigitalOutputDevice</title>
<polygon fill="#2980b9" stroke="#2980b9" points="428,-90 316,-90 316,-54 428,-54 428,-90"/>
<text text-anchor="middle" x="372" y="-69.5" font-family="Sans" font-size="10.00" fill="#ffffff">DigitalOutputDevice</text>
</g>
<!-- LED&#45;&gt;DigitalOutputDevice -->
<g id="edge1" class="edge"><title>LED&#45;&gt;DigitalOutputDevice</title>
<path fill="none" stroke="black" d="M465.885,-114.149C453.08,-108.339 437.226,-101.144 422.262,-94.354"/>
<polygon fill="black" stroke="black" points="423.647,-91.1394 413.095,-90.1943 420.755,-97.5138 423.647,-91.1394"/>
</g>
<!-- OutputDevice -->
<g id="node6" class="node"><title>OutputDevice</title>
<polygon fill="#2980b9" stroke="#2980b9" points="280,-63 198,-63 198,-27 280,-27 280,-63"/>
<text text-anchor="middle" x="239" y="-42.5" font-family="Sans" font-size="10.00" fill="#ffffff">OutputDevice</text>
</g>
<!-- DigitalOutputDevice&#45;&gt;OutputDevice -->
<g id="edge4" class="edge"><title>DigitalOutputDevice&#45;&gt;OutputDevice</title>
<path fill="none" stroke="black" d="M315.824,-60.6278C307.373,-58.886 298.687,-57.0957 290.347,-55.3769"/>
<polygon fill="black" stroke="black" points="290.886,-51.9146 280.386,-53.3238 289.473,-58.7705 290.886,-51.9146"/>
</g>
<!-- PWMOutputDevice -->
<g id="node5" class="node"><title>PWMOutputDevice</title>
<polygon fill="#2980b9" stroke="#2980b9" points="424,-36 320,-36 320,-0 424,-0 424,-36"/>
<text text-anchor="middle" x="372" y="-15.5" font-family="Sans" font-size="10.00" fill="#ffffff">PWMOutputDevice</text>
</g>
<!-- PWMOutputDevice&#45;&gt;OutputDevice -->
<g id="edge2" class="edge"><title>PWMOutputDevice&#45;&gt;OutputDevice</title>
<path fill="none" stroke="black" d="M319.977,-28.5162C310.166,-30.5383 299.899,-32.6544 290.117,-34.6705"/>
<polygon fill="black" stroke="black" points="289.226,-31.2805 280.139,-36.7271 290.639,-38.1363 289.226,-31.2805"/>
</g>
<!-- OutputDevice&#45;&gt;GPIODevice -->
<g id="edge6" class="edge"><title>OutputDevice&#45;&gt;GPIODevice</title>
<path fill="none" stroke="black" d="M197.926,-45C189.627,-45 180.827,-45 172.353,-45"/>
<polygon fill="black" stroke="black" points="172.235,-41.5001 162.235,-45 172.235,-48.5001 172.235,-41.5001"/>
</g>
<!-- LedBorg -->
<g id="node7" class="node"><title>LedBorg</title>
<polygon fill="#2980b9" stroke="#2980b9" points="267,-117 211,-117 211,-81 267,-81 267,-117"/>
<text text-anchor="middle" x="239" y="-96.5" font-family="Sans" font-size="10.00" fill="#ffffff">LedBorg</text>
</g>
<!-- RGBLED -->
<g id="node8" class="node"><title>RGBLED</title>
<polygon fill="#2980b9" stroke="#2980b9" points="154,-117 98,-117 98,-81 154,-81 154,-117"/>
<text text-anchor="middle" x="126" y="-96.5" font-family="Sans" font-size="10.00" fill="#ffffff">RGBLED</text>
</g>
<!-- LedBorg&#45;&gt;RGBLED -->
<g id="edge3" class="edge"><title>LedBorg&#45;&gt;RGBLED</title>
<path fill="none" stroke="black" d="M210.846,-99C196.871,-99 179.617,-99 164.401,-99"/>
<polygon fill="black" stroke="black" points="164.258,-95.5001 154.258,-99 164.258,-102.5 164.258,-95.5001"/>
</g>
<!-- RGBLED&#45;&gt;Device -->
<g id="edge7" class="edge"><title>RGBLED&#45;&gt;Device</title>
<path fill="none" stroke="black" d="M97.9801,-91.479C87.5078,-88.564 75.3612,-85.183 64.1562,-82.0641"/>
<polygon fill="black" stroke="black" points="64.778,-78.6042 54.2057,-79.2944 62.9008,-85.3478 64.778,-78.6042"/>
</g>
<!-- PWMLED -->
<g id="node9" class="node"><title>PWMLED</title>
<polygon fill="#2980b9" stroke="#2980b9" points="522,-36 464,-36 464,-0 522,-0 522,-36"/>
<text text-anchor="middle" x="493" y="-15.5" font-family="Sans" font-size="10.00" fill="#ffffff">PWMLED</text>
</g>
<!-- PWMLED&#45;&gt;PWMOutputDevice -->
<g id="edge5" class="edge"><title>PWMLED&#45;&gt;PWMOutputDevice</title>
<path fill="none" stroke="black" d="M463.799,-18C454.932,-18 444.77,-18 434.527,-18"/>
<polygon fill="black" stroke="black" points="434.303,-14.5001 424.303,-18 434.303,-21.5001 434.303,-14.5001"/>
</g>
<!-- Buzzer -->
<g id="node10" class="node"><title>Buzzer</title>
<polygon fill="#2980b9" stroke="#2980b9" points="520,-90 466,-90 466,-54 520,-54 520,-90"/>
<text text-anchor="middle" x="493" y="-69.5" font-family="Sans" font-size="10.00" fill="#ffffff">Buzzer</text>
</g>
<!-- Buzzer&#45;&gt;DigitalOutputDevice -->
<g id="edge8" class="edge"><title>Buzzer&#45;&gt;DigitalOutputDevice</title>
<path fill="none" stroke="black" d="M465.885,-72C457.659,-72 448.174,-72 438.475,-72"/>
<polygon fill="black" stroke="black" points="438.334,-68.5001 428.334,-72 438.334,-75.5001 438.334,-68.5001"/>
</g>
</g>
</svg>
