<?xml version="1.0" encoding="UTF-8" standalone="no"?>
<!DOCTYPE svg PUBLIC "-//W3C//DTD SVG 1.1//EN"
 "http://www.w3.org/Graphics/SVG/1.1/DTD/svg11.dtd">
<!-- Generated by graphviz version 2.43.0 (0)
 -->
<!-- Title: classes Pages: 1 -->
<svg width="576pt" height="341pt"
 viewBox="0.00 0.00 576.00 341.00" xmlns="http://www.w3.org/2000/svg" xmlns:xlink="http://www.w3.org/1999/xlink">
<g id="graph0" class="graph" transform="scale(1 1) rotate(0) translate(4 337)">
<title>classes</title>
<polygon fill="white" stroke="transparent" points="-4,4 -4,-337 572,-337 572,4 -4,4"/>
<!-- CompositeDevice -->
<g id="node1" class="node">
<title>CompositeDevice</title>
<polygon fill="#9ec6e0" stroke="#9ec6e0" points="187,-144 90,-144 90,-108 187,-108 187,-144"/>
<text text-anchor="middle" x="138.5" y="-123.5" font-family="Sans" font-size="10.00" fill="#000000">CompositeDevice</text>
</g>
<!-- Device -->
<g id="node2" class="node">
<title>Device</title>
<polygon fill="#9ec6e0" stroke="#9ec6e0" points="54,-198 0,-198 0,-162 54,-162 54,-198"/>
<text text-anchor="middle" x="27" y="-177.5" font-family="Sans" font-size="10.00" fill="#000000">Device</text>
</g>
<!-- CompositeDevice&#45;&gt;Device -->
<g id="edge3" class="edge">
<title>CompositeDevice&#45;&gt;Device</title>
<path fill="none" stroke="black" d="M100.73,-144.13C88.67,-150.08 75.3,-156.67 63.35,-162.57"/>
<polygon fill="black" stroke="black" points="61.54,-159.56 54.12,-167.12 64.64,-165.83 61.54,-159.56"/>
</g>
<!-- GPIODevice -->
<g id="node3" class="node">
<title>GPIODevice</title>
<polygon fill="#9ec6e0" stroke="#9ec6e0" points="174.5,-252 102.5,-252 102.5,-216 174.5,-216 174.5,-252"/>
<text text-anchor="middle" x="138.5" y="-231.5" font-family="Sans" font-size="10.00" fill="#000000">GPIODevice</text>
</g>
<!-- GPIODevice&#45;&gt;Device -->
<g id="edge5" class="edge">
<title>GPIODevice&#45;&gt;Device</title>
<path fill="none" stroke="black" d="M102.25,-216.62C89.8,-210.47 75.79,-203.57 63.33,-197.42"/>
<polygon fill="black" stroke="black" points="64.67,-194.18 54.15,-192.9 61.57,-200.46 64.67,-194.18"/>
</g>
<!-- AngularServo -->
<g id="node4" class="node">
<title>AngularServo</title>
<polygon fill="#2980b9" stroke="#2980b9" points="458,-90 378,-90 378,-54 458,-54 458,-90"/>
<text text-anchor="middle" x="418" y="-69.5" font-family="Sans" font-size="10.00" fill="#ffffff">AngularServo</text>
</g>
<!-- Servo -->
<g id="node14" class="node">
<title>Servo</title>
<polygon fill="#2980b9" stroke="#2980b9" points="302,-90 248,-90 248,-54 302,-54 302,-90"/>
<text text-anchor="middle" x="275" y="-69.5" font-family="Sans" font-size="10.00" fill="#ffffff">Servo</text>
</g>
<!-- AngularServo&#45;&gt;Servo -->
<g id="edge1" class="edge">
<title>AngularServo&#45;&gt;Servo</title>
<path fill="none" stroke="black" d="M377.72,-72C357.28,-72 332.44,-72 312.43,-72"/>
<polygon fill="black" stroke="black" points="312.16,-68.5 302.16,-72 312.16,-75.5 312.16,-68.5"/>
</g>
<!-- Buzzer -->
<g id="node5" class="node">
<title>Buzzer</title>
<polygon fill="#2980b9" stroke="#2980b9" points="565.5,-333 511.5,-333 511.5,-297 565.5,-297 565.5,-333"/>
<text text-anchor="middle" x="538.5" y="-312.5" font-family="Sans" font-size="10.00" fill="#ffffff">Buzzer</text>
</g>
<!-- DigitalOutputDevice -->
<g id="node6" class="node">
<title>DigitalOutputDevice</title>
<polygon fill="#2980b9" stroke="#2980b9" points="473,-279 363,-279 363,-243 473,-243 473,-279"/>
<text text-anchor="middle" x="418" y="-258.5" font-family="Sans" font-size="10.00" fill="#ffffff">DigitalOutputDevice</text>
</g>
<!-- Buzzer&#45;&gt;DigitalOutputDevice -->
<g id="edge2" class="edge">
<title>Buzzer&#45;&gt;DigitalOutputDevice</title>
<path fill="none" stroke="black" d="M511.49,-303.15C498.74,-297.34 482.96,-290.14 468.05,-283.35"/>
<polygon fill="black" stroke="black" points="469.48,-280.16 458.93,-279.19 466.57,-286.53 469.48,-280.16"/>
</g>
<!-- OutputDevice -->
<g id="node9" class="node">
<title>OutputDevice</title>
<polygon fill="#2980b9" stroke="#2980b9" points="315,-252 235,-252 235,-216 315,-216 315,-252"/>
<text text-anchor="middle" x="275" y="-231.5" font-family="Sans" font-size="10.00" fill="#ffffff">OutputDevice</text>
</g>
<!-- DigitalOutputDevice&#45;&gt;OutputDevice -->
<g id="edge4" class="edge">
<title>DigitalOutputDevice&#45;&gt;OutputDevice</title>
<path fill="none" stroke="black" d="M362.89,-250.64C350.51,-248.27 337.42,-245.76 325.26,-243.43"/>
<polygon fill="black" stroke="black" points="325.78,-239.97 315.3,-241.53 324.46,-246.84 325.78,-239.97"/>
</g>
<!-- LED -->
<g id="node7" class="node">
<title>LED</title>
<polygon fill="#2980b9" stroke="#2980b9" points="565.5,-279 511.5,-279 511.5,-243 565.5,-243 565.5,-279"/>
<text text-anchor="middle" x="538.5" y="-258.5" font-family="Sans" font-size="10.00" fill="#ffffff">LED</text>
</g>
<!-- LED&#45;&gt;DigitalOutputDevice -->
<g id="edge6" class="edge">
<title>LED&#45;&gt;DigitalOutputDevice</title>
<path fill="none" stroke="black" d="M511.49,-261C503.01,-261 493.19,-261 483.17,-261"/>
<polygon fill="black" stroke="black" points="483.14,-257.5 473.14,-261 483.14,-264.5 483.14,-257.5"/>
</g>
<!-- Motor -->
<g id="node8" class="node">
<title>Motor</title>
<polygon fill="#2980b9" stroke="#2980b9" points="302,-198 248,-198 248,-162 302,-162 302,-198"/>
<text text-anchor="middle" x="275" y="-177.5" font-family="Sans" font-size="10.00" fill="#ffffff">Motor</text>
</g>
<!-- Motor&#45;&gt;CompositeDevice -->
<g id="edge7" class="edge">
<title>Motor&#45;&gt;CompositeDevice</title>
<path fill="none" stroke="black" d="M247.75,-169.46C232.38,-163.29 212.39,-155.26 193.78,-147.79"/>
<polygon fill="black" stroke="black" points="195.08,-144.54 184.49,-144.06 192.47,-151.04 195.08,-144.54"/>
</g>
<!-- OutputDevice&#45;&gt;GPIODevice -->
<g id="edge8" class="edge">
<title>OutputDevice&#45;&gt;GPIODevice</title>
<path fill="none" stroke="black" d="M234.74,-234C219.22,-234 201.28,-234 185.18,-234"/>
<polygon fill="black" stroke="black" points="184.91,-230.5 174.91,-234 184.91,-237.5 184.91,-230.5"/>
</g>
<!-- PWMLED -->
<g id="node10" class="node">
<title>PWMLED</title>
<polygon fill="#2980b9" stroke="#2980b9" points="568,-225 509,-225 509,-189 568,-189 568,-225"/>
<text text-anchor="middle" x="538.5" y="-204.5" font-family="Sans" font-size="10.00" fill="#ffffff">PWMLED</text>
</g>
<!-- PWMOutputDevice -->
<g id="node11" class="node">
<title>PWMOutputDevice</title>
<polygon fill="#2980b9" stroke="#2980b9" points="470,-225 366,-225 366,-189 470,-189 470,-225"/>
<text text-anchor="middle" x="418" y="-204.5" font-family="Sans" font-size="10.00" fill="#ffffff">PWMOutputDevice</text>
</g>
<!-- PWMLED&#45;&gt;PWMOutputDevice -->
<g id="edge9" class="edge">
<title>PWMLED&#45;&gt;PWMOutputDevice</title>
<path fill="none" stroke="black" d="M508.81,-207C500.08,-207 490.13,-207 480.1,-207"/>
<polygon fill="black" stroke="black" points="480.1,-203.5 470.1,-207 480.1,-210.5 480.1,-203.5"/>
</g>
<!-- PWMOutputDevice&#45;&gt;OutputDevice -->
<g id="edge10" class="edge">
<title>PWMOutputDevice&#45;&gt;OutputDevice</title>
<path fill="none" stroke="black" d="M365.7,-216.82C352.39,-219.37 338.11,-222.11 324.93,-224.63"/>
<polygon fill="black" stroke="black" points="324.27,-221.19 315.1,-226.51 325.58,-228.07 324.27,-221.19"/>
</g>
<!-- PhaseEnableMotor -->
<g id="node12" class="node">
<title>PhaseEnableMotor</title>
<polygon fill="#2980b9" stroke="#2980b9" points="327,-144 223,-144 223,-108 327,-108 327,-144"/>
<text text-anchor="middle" x="275" y="-123.5" font-family="Sans" font-size="10.00" fill="#ffffff">PhaseEnableMotor</text>
</g>
<!-- PhaseEnableMotor&#45;&gt;CompositeDevice -->
<g id="edge11" class="edge">
<title>PhaseEnableMotor&#45;&gt;CompositeDevice</title>
<path fill="none" stroke="black" d="M222.77,-126C214.43,-126 205.74,-126 197.26,-126"/>
<polygon fill="black" stroke="black" points="197.05,-122.5 187.05,-126 197.05,-129.5 197.05,-122.5"/>
</g>
<!-- RGBLED -->
<g id="node13" class="node">
<title>RGBLED</title>
<polygon fill="#2980b9" stroke="#2980b9" points="166,-198 111,-198 111,-162 166,-162 166,-198"/>
<text text-anchor="middle" x="138.5" y="-177.5" font-family="Sans" font-size="10.00" fill="#ffffff">RGBLED</text>
</g>
<!-- RGBLED&#45;&gt;Device -->
<g id="edge12" class="edge">
<title>RGBLED&#45;&gt;Device</title>
<path fill="none" stroke="black" d="M110.99,-180C97,-180 79.63,-180 64.4,-180"/>
<polygon fill="black" stroke="black" points="64.26,-176.5 54.26,-180 64.26,-183.5 64.26,-176.5"/>
</g>
<!-- Servo&#45;&gt;CompositeDevice -->
<g id="edge13" class="edge">
<title>Servo&#45;&gt;CompositeDevice</title>
<path fill="none" stroke="black" d="M247.75,-82.54C232.38,-88.71 212.39,-96.74 193.78,-104.21"/>
<polygon fill="black" stroke="black" points="192.47,-100.96 184.49,-107.94 195.08,-107.46 192.47,-100.96"/>
</g>
<!-- TonalBuzzer -->
<g id="node15" class="node">
<title>TonalBuzzer</title>
<polygon fill="#2980b9" stroke="#2980b9" points="311.5,-36 238.5,-36 238.5,0 311.5,0 311.5,-36"/>
<text text-anchor="middle" x="275" y="-15.5" font-family="Sans" font-size="10.00" fill="#ffffff">TonalBuzzer</text>
</g>
<!-- TonalBuzzer&#45;&gt;CompositeDevice -->
<g id="edge14" class="edge">
<title>TonalBuzzer&#45;&gt;CompositeDevice</title>
<path fill="none" stroke="black" d="M238.37,-35.18C233.07,-38.22 227.78,-41.52 223,-45 200.62,-61.27 178.27,-83.33 162.34,-100.32"/>
<polygon fill="black" stroke="black" points="159.71,-98.01 155.49,-107.73 164.85,-102.76 159.71,-98.01"/>
</g>
</g>
</svg>
