<?xml version="1.0" encoding="UTF-8" standalone="no"?>
<!DOCTYPE svg PUBLIC "-//W3C//DTD SVG 1.1//EN"
 "http://www.w3.org/Graphics/SVG/1.1/DTD/svg11.dtd">
<!-- Generated by graphviz version 2.38.0 (20140413.2041)
 -->
<!-- Title: classes Pages: 1 -->
<svg width="583pt" height="341pt"
 viewBox="0.00 0.00 583.00 341.00" xmlns="http://www.w3.org/2000/svg" xmlns:xlink="http://www.w3.org/1999/xlink">
<g id="graph0" class="graph" transform="scale(1 1) rotate(0) translate(4 337)">
<title>classes</title>
<polygon fill="white" stroke="none" points="-4,4 -4,-337 579,-337 579,4 -4,4"/>
<!-- CompositeDevice -->
<g id="node1" class="node"><title>CompositeDevice</title>
<polygon fill="#9ec6e0" stroke="#9ec6e0" points="191,-144 90,-144 90,-108 191,-108 191,-144"/>
<text text-anchor="middle" x="140.5" y="-123.5" font-family="Sans" font-size="10.00" fill="#000000">CompositeDevice</text>
</g>
<!-- Device -->
<g id="node3" class="node"><title>Device</title>
<polygon fill="#9ec6e0" stroke="#9ec6e0" points="54,-252 0,-252 0,-216 54,-216 54,-252"/>
<text text-anchor="middle" x="27" y="-231.5" font-family="Sans" font-size="10.00" fill="#000000">Device</text>
</g>
<!-- CompositeDevice&#45;&gt;Device -->
<g id="edge5" class="edge"><title>CompositeDevice&#45;&gt;Device</title>
<path fill="none" stroke="black" d="M120.837,-144.077C102.587,-161.755 74.6312,-188.833 54.1649,-208.656"/>
<polygon fill="black" stroke="black" points="51.4713,-206.393 46.7235,-215.864 56.3415,-211.421 51.4713,-206.393"/>
</g>
<!-- GPIODevice -->
<g id="node2" class="node"><title>GPIODevice</title>
<polygon fill="#9ec6e0" stroke="#9ec6e0" points="176.5,-306 104.5,-306 104.5,-270 176.5,-270 176.5,-306"/>
<text text-anchor="middle" x="140.5" y="-285.5" font-family="Sans" font-size="10.00" fill="#000000">GPIODevice</text>
</g>
<!-- GPIODevice&#45;&gt;Device -->
<g id="edge4" class="edge"><title>GPIODevice&#45;&gt;Device</title>
<path fill="none" stroke="black" d="M104.221,-270.914C91.1804,-264.599 76.4049,-257.443 63.3577,-251.124"/>
<polygon fill="black" stroke="black" points="64.7379,-247.904 54.2122,-246.695 61.6867,-254.204 64.7379,-247.904"/>
</g>
<!-- PhaseEnableMotor -->
<g id="node4" class="node"><title>PhaseEnableMotor</title>
<polygon fill="#2980b9" stroke="#2980b9" points="333,-198 227,-198 227,-162 333,-162 333,-198"/>
<text text-anchor="middle" x="280" y="-177.5" font-family="Sans" font-size="10.00" fill="#ffffff">PhaseEnableMotor</text>
</g>
<!-- PhaseEnableMotor&#45;&gt;CompositeDevice -->
<g id="edge1" class="edge"><title>PhaseEnableMotor&#45;&gt;CompositeDevice</title>
<path fill="none" stroke="black" d="M232.832,-161.869C221.382,-157.372 208.991,-152.506 197.14,-147.851"/>
<polygon fill="black" stroke="black" points="198.368,-144.573 187.78,-144.176 195.809,-151.089 198.368,-144.573"/>
</g>
<!-- PWMOutputDevice -->
<g id="node5" class="node"><title>PWMOutputDevice</title>
<polygon fill="#2980b9" stroke="#2980b9" points="477,-333 373,-333 373,-297 477,-297 477,-333"/>
<text text-anchor="middle" x="425" y="-312.5" font-family="Sans" font-size="10.00" fill="#ffffff">PWMOutputDevice</text>
</g>
<!-- OutputDevice -->
<g id="node6" class="node"><title>OutputDevice</title>
<polygon fill="#2980b9" stroke="#2980b9" points="321,-306 239,-306 239,-270 321,-270 321,-306"/>
<text text-anchor="middle" x="280" y="-285.5" font-family="Sans" font-size="10.00" fill="#ffffff">OutputDevice</text>
</g>
<!-- PWMOutputDevice&#45;&gt;OutputDevice -->
<g id="edge2" class="edge"><title>PWMOutputDevice&#45;&gt;OutputDevice</title>
<path fill="none" stroke="black" d="M372.778,-305.329C359.239,-302.772 344.642,-300.016 331.16,-297.471"/>
<polygon fill="black" stroke="black" points="331.58,-293.988 321.104,-295.572 330.281,-300.867 331.58,-293.988"/>
</g>
<!-- OutputDevice&#45;&gt;GPIODevice -->
<g id="edge13" class="edge"><title>OutputDevice&#45;&gt;GPIODevice</title>
<path fill="none" stroke="black" d="M238.86,-288C222.58,-288 203.696,-288 186.915,-288"/>
<polygon fill="black" stroke="black" points="186.781,-284.5 176.781,-288 186.781,-291.5 186.781,-284.5"/>
</g>
<!-- TonalBuzzer -->
<g id="node7" class="node"><title>TonalBuzzer</title>
<polygon fill="#2980b9" stroke="#2980b9" points="317,-144 243,-144 243,-108 317,-108 317,-144"/>
<text text-anchor="middle" x="280" y="-123.5" font-family="Sans" font-size="10.00" fill="#ffffff">TonalBuzzer</text>
</g>
<!-- TonalBuzzer&#45;&gt;CompositeDevice -->
<g id="edge3" class="edge"><title>TonalBuzzer&#45;&gt;CompositeDevice</title>
<path fill="none" stroke="black" d="M242.873,-126C230.132,-126 215.444,-126 201.274,-126"/>
<polygon fill="black" stroke="black" points="201.083,-122.5 191.083,-126 201.083,-129.5 201.083,-122.5"/>
</g>
<!-- PWMLED -->
<g id="node8" class="node"><title>PWMLED</title>
<polygon fill="#2980b9" stroke="#2980b9" points="575,-333 517,-333 517,-297 575,-297 575,-333"/>
<text text-anchor="middle" x="546" y="-312.5" font-family="Sans" font-size="10.00" fill="#ffffff">PWMLED</text>
</g>
<!-- PWMLED&#45;&gt;PWMOutputDevice -->
<g id="edge6" class="edge"><title>PWMLED&#45;&gt;PWMOutputDevice</title>
<path fill="none" stroke="black" d="M516.799,-315C507.932,-315 497.77,-315 487.527,-315"/>
<polygon fill="black" stroke="black" points="487.303,-311.5 477.303,-315 487.303,-318.5 487.303,-311.5"/>
</g>
<!-- Motor -->
<g id="node9" class="node"><title>Motor</title>
<polygon fill="#2980b9" stroke="#2980b9" points="307,-90 253,-90 253,-54 307,-54 307,-90"/>
<text text-anchor="middle" x="280" y="-69.5" font-family="Sans" font-size="10.00" fill="#ffffff">Motor</text>
</g>
<!-- Motor&#45;&gt;CompositeDevice -->
<g id="edge7" class="edge"><title>Motor&#45;&gt;CompositeDevice</title>
<path fill="none" stroke="black" d="M252.814,-82.2841C236.944,-88.5166 216.085,-96.7083 196.719,-104.314"/>
<polygon fill="black" stroke="black" points="195.388,-101.076 187.359,-107.99 197.947,-107.592 195.388,-101.076"/>
</g>
<!-- Buzzer -->
<g id="node10" class="node"><title>Buzzer</title>
<polygon fill="#2980b9" stroke="#2980b9" points="573,-279 519,-279 519,-243 573,-243 573,-279"/>
<text text-anchor="middle" x="546" y="-258.5" font-family="Sans" font-size="10.00" fill="#ffffff">Buzzer</text>
</g>
<!-- DigitalOutputDevice -->
<g id="node11" class="node"><title>DigitalOutputDevice</title>
<polygon fill="#2980b9" stroke="#2980b9" points="481,-279 369,-279 369,-243 481,-243 481,-279"/>
<text text-anchor="middle" x="425" y="-258.5" font-family="Sans" font-size="10.00" fill="#ffffff">DigitalOutputDevice</text>
</g>
<!-- Buzzer&#45;&gt;DigitalOutputDevice -->
<g id="edge8" class="edge"><title>Buzzer&#45;&gt;DigitalOutputDevice</title>
<path fill="none" stroke="black" d="M518.885,-261C510.659,-261 501.174,-261 491.475,-261"/>
<polygon fill="black" stroke="black" points="491.334,-257.5 481.334,-261 491.334,-264.5 491.334,-257.5"/>
</g>
<!-- DigitalOutputDevice&#45;&gt;OutputDevice -->
<g id="edge10" class="edge"><title>DigitalOutputDevice&#45;&gt;OutputDevice</title>
<path fill="none" stroke="black" d="M368.712,-271.439C356.309,-273.781 343.219,-276.252 331.044,-278.551"/>
<polygon fill="black" stroke="black" points="330.244,-275.14 321.067,-280.435 331.543,-282.019 330.244,-275.14"/>
</g>
<!-- Servo -->
<g id="node12" class="node"><title>Servo</title>
<polygon fill="#2980b9" stroke="#2980b9" points="307,-36 253,-36 253,-0 307,-0 307,-36"/>
<text text-anchor="middle" x="280" y="-15.5" font-family="Sans" font-size="10.00" fill="#ffffff">Servo</text>
</g>
<!-- Servo&#45;&gt;CompositeDevice -->
<g id="edge9" class="edge"><title>Servo&#45;&gt;CompositeDevice</title>
<path fill="none" stroke="black" d="M252.776,-29.8205C244.257,-34.1241 234.955,-39.3368 227,-45 204.176,-61.2474 181.292,-83.306 164.95,-100.301"/>
<polygon fill="black" stroke="black" points="162.263,-98.0482 157.925,-107.714 167.344,-102.863 162.263,-98.0482"/>
</g>
<!-- RGBLED -->
<g id="node13" class="node"><title>RGBLED</title>
<polygon fill="#2980b9" stroke="#2980b9" points="168.5,-252 112.5,-252 112.5,-216 168.5,-216 168.5,-252"/>
<text text-anchor="middle" x="140.5" y="-231.5" font-family="Sans" font-size="10.00" fill="#ffffff">RGBLED</text>
</g>
<!-- RGBLED&#45;&gt;Device -->
<g id="edge11" class="edge"><title>RGBLED&#45;&gt;Device</title>
<path fill="none" stroke="black" d="M112.224,-234C97.8711,-234 80.0761,-234 64.5461,-234"/>
<polygon fill="black" stroke="black" points="64.2266,-230.5 54.2266,-234 64.2265,-237.5 64.2266,-230.5"/>
</g>
<!-- AngularServo -->
<g id="node14" class="node"><title>AngularServo</title>
<polygon fill="#2980b9" stroke="#2980b9" points="465.5,-36 384.5,-36 384.5,-0 465.5,-0 465.5,-36"/>
<text text-anchor="middle" x="425" y="-15.5" font-family="Sans" font-size="10.00" fill="#ffffff">AngularServo</text>
</g>
<!-- AngularServo&#45;&gt;Servo -->
<g id="edge12" class="edge"><title>AngularServo&#45;&gt;Servo</title>
<path fill="none" stroke="black" d="M384.167,-18C363.195,-18 337.668,-18 317.254,-18"/>
<polygon fill="black" stroke="black" points="317.096,-14.5001 307.096,-18 317.096,-21.5001 317.096,-14.5001"/>
</g>
<!-- LED -->
<g id="node15" class="node"><title>LED</title>
<polygon fill="#2980b9" stroke="#2980b9" points="573,-225 519,-225 519,-189 573,-189 573,-225"/>
<text text-anchor="middle" x="546" y="-204.5" font-family="Sans" font-size="10.00" fill="#ffffff">LED</text>
</g>
<!-- LED&#45;&gt;DigitalOutputDevice -->
<g id="edge14" class="edge"><title>LED&#45;&gt;DigitalOutputDevice</title>
<path fill="none" stroke="black" d="M518.885,-218.851C506.08,-224.661 490.226,-231.856 475.262,-238.646"/>
<polygon fill="black" stroke="black" points="473.755,-235.486 466.095,-242.806 476.647,-241.861 473.755,-235.486"/>
</g>
<!-- LedBorg -->
<g id="node16" class="node"><title>LedBorg</title>
<polygon fill="#2980b9" stroke="#2980b9" points="308,-252 252,-252 252,-216 308,-216 308,-252"/>
<text text-anchor="middle" x="280" y="-231.5" font-family="Sans" font-size="10.00" fill="#ffffff">LedBorg</text>
</g>
<!-- LedBorg&#45;&gt;RGBLED -->
<g id="edge15" class="edge"><title>LedBorg&#45;&gt;RGBLED</title>
<path fill="none" stroke="black" d="M251.834,-234C230.93,-234 201.81,-234 178.735,-234"/>
<polygon fill="black" stroke="black" points="178.609,-230.5 168.609,-234 178.609,-237.5 178.609,-230.5"/>
</g>
</g>
</svg>
