<?xml version="1.0" encoding="UTF-8" standalone="no"?>
<!DOCTYPE svg PUBLIC "-//W3C//DTD SVG 1.1//EN"
 "http://www.w3.org/Graphics/SVG/1.1/DTD/svg11.dtd">
<!-- Generated by graphviz version 2.38.0 (20140413.2041)
 -->
<!-- Title: classes Pages: 1 -->
<svg width="583pt" height="287pt"
 viewBox="0.00 0.00 583.00 287.00" xmlns="http://www.w3.org/2000/svg" xmlns:xlink="http://www.w3.org/1999/xlink">
<g id="graph0" class="graph" transform="scale(1 1) rotate(0) translate(4 283)">
<title>classes</title>
<polygon fill="white" stroke="none" points="-4,4 -4,-283 579,-283 579,4 -4,4"/>
<!-- GPIODevice -->
<g id="node1" class="node"><title>GPIODevice</title>
<polygon fill="#9ec6e0" stroke="#9ec6e0" points="176.5,-63 104.5,-63 104.5,-27 176.5,-27 176.5,-63"/>
<text text-anchor="middle" x="140.5" y="-42.5" font-family="Sans" font-size="10.00" fill="#000000">GPIODevice</text>
</g>
<!-- Device -->
<g id="node3" class="node"><title>Device</title>
<polygon fill="#9ec6e0" stroke="#9ec6e0" points="54,-117 0,-117 0,-81 54,-81 54,-117"/>
<text text-anchor="middle" x="27" y="-96.5" font-family="Sans" font-size="10.00" fill="#000000">Device</text>
</g>
<!-- GPIODevice&#45;&gt;Device -->
<g id="edge12" class="edge"><title>GPIODevice&#45;&gt;Device</title>
<path fill="none" stroke="black" d="M104.221,-62.0859C91.1804,-68.4014 76.4049,-75.5573 63.3577,-81.8761"/>
<polygon fill="black" stroke="black" points="61.6867,-78.7964 54.2122,-86.3053 64.7379,-85.0965 61.6867,-78.7964"/>
</g>
<!-- CompositeDevice -->
<g id="node2" class="node"><title>CompositeDevice</title>
<polygon fill="#9ec6e0" stroke="#9ec6e0" points="191,-171 90,-171 90,-135 191,-135 191,-171"/>
<text text-anchor="middle" x="140.5" y="-150.5" font-family="Sans" font-size="10.00" fill="#000000">CompositeDevice</text>
</g>
<!-- CompositeDevice&#45;&gt;Device -->
<g id="edge9" class="edge"><title>CompositeDevice&#45;&gt;Device</title>
<path fill="none" stroke="black" d="M102.062,-134.869C89.5591,-128.813 75.674,-122.089 63.3364,-116.114"/>
<polygon fill="black" stroke="black" points="64.7776,-112.923 54.2519,-111.714 61.7264,-119.223 64.7776,-112.923"/>
</g>
<!-- PhaseEnableMotor -->
<g id="node4" class="node"><title>PhaseEnableMotor</title>
<polygon fill="#2980b9" stroke="#2980b9" points="333,-279 227,-279 227,-243 333,-243 333,-279"/>
<text text-anchor="middle" x="280" y="-258.5" font-family="Sans" font-size="10.00" fill="#ffffff">PhaseEnableMotor</text>
</g>
<!-- PhaseEnableMotor&#45;&gt;CompositeDevice -->
<g id="edge1" class="edge"><title>PhaseEnableMotor&#45;&gt;CompositeDevice</title>
<path fill="none" stroke="black" d="M241.049,-242.891C236.194,-240.116 231.392,-237.127 227,-234 204.176,-217.753 181.292,-195.694 164.95,-178.699"/>
<polygon fill="black" stroke="black" points="167.344,-176.137 157.925,-171.286 162.263,-180.952 167.344,-176.137"/>
</g>
<!-- Servo -->
<g id="node5" class="node"><title>Servo</title>
<polygon fill="#2980b9" stroke="#2980b9" points="307,-225 253,-225 253,-189 307,-189 307,-225"/>
<text text-anchor="middle" x="280" y="-204.5" font-family="Sans" font-size="10.00" fill="#ffffff">Servo</text>
</g>
<!-- Servo&#45;&gt;CompositeDevice -->
<g id="edge2" class="edge"><title>Servo&#45;&gt;CompositeDevice</title>
<path fill="none" stroke="black" d="M252.814,-196.716C236.944,-190.483 216.085,-182.292 196.719,-174.686"/>
<polygon fill="black" stroke="black" points="197.947,-171.408 187.359,-171.01 195.388,-177.924 197.947,-171.408"/>
</g>
<!-- DigitalOutputDevice -->
<g id="node6" class="node"><title>DigitalOutputDevice</title>
<polygon fill="#2980b9" stroke="#2980b9" points="481,-90 369,-90 369,-54 481,-54 481,-90"/>
<text text-anchor="middle" x="425" y="-69.5" font-family="Sans" font-size="10.00" fill="#ffffff">DigitalOutputDevice</text>
</g>
<!-- OutputDevice -->
<g id="node7" class="node"><title>OutputDevice</title>
<polygon fill="#2980b9" stroke="#2980b9" points="321,-63 239,-63 239,-27 321,-27 321,-63"/>
<text text-anchor="middle" x="280" y="-42.5" font-family="Sans" font-size="10.00" fill="#ffffff">OutputDevice</text>
</g>
<!-- DigitalOutputDevice&#45;&gt;OutputDevice -->
<g id="edge3" class="edge"><title>DigitalOutputDevice&#45;&gt;OutputDevice</title>
<path fill="none" stroke="black" d="M368.712,-61.5611C356.309,-59.2192 343.219,-56.7477 331.044,-54.4488"/>
<polygon fill="black" stroke="black" points="331.543,-50.9812 321.067,-52.565 330.244,-57.8597 331.543,-50.9812"/>
</g>
<!-- OutputDevice&#45;&gt;GPIODevice -->
<g id="edge6" class="edge"><title>OutputDevice&#45;&gt;GPIODevice</title>
<path fill="none" stroke="black" d="M238.86,-45C222.58,-45 203.696,-45 186.915,-45"/>
<polygon fill="black" stroke="black" points="186.781,-41.5001 176.781,-45 186.781,-48.5001 186.781,-41.5001"/>
</g>
<!-- Motor -->
<g id="node8" class="node"><title>Motor</title>
<polygon fill="#2980b9" stroke="#2980b9" points="307,-171 253,-171 253,-135 307,-135 307,-171"/>
<text text-anchor="middle" x="280" y="-150.5" font-family="Sans" font-size="10.00" fill="#ffffff">Motor</text>
</g>
<!-- Motor&#45;&gt;CompositeDevice -->
<g id="edge4" class="edge"><title>Motor&#45;&gt;CompositeDevice</title>
<path fill="none" stroke="black" d="M252.814,-153C238.221,-153 219.409,-153 201.419,-153"/>
<polygon fill="black" stroke="black" points="201.251,-149.5 191.251,-153 201.251,-156.5 201.251,-149.5"/>
</g>
<!-- TonalBuzzer -->
<g id="node9" class="node"><title>TonalBuzzer</title>
<polygon fill="#2980b9" stroke="#2980b9" points="317,-117 243,-117 243,-81 317,-81 317,-117"/>
<text text-anchor="middle" x="280" y="-96.5" font-family="Sans" font-size="10.00" fill="#ffffff">TonalBuzzer</text>
</g>
<!-- TonalBuzzer&#45;&gt;CompositeDevice -->
<g id="edge5" class="edge"><title>TonalBuzzer&#45;&gt;CompositeDevice</title>
<path fill="none" stroke="black" d="M242.873,-113.188C228.838,-118.7 212.442,-125.139 196.977,-131.213"/>
<polygon fill="black" stroke="black" points="195.526,-128.022 187.498,-134.935 198.085,-134.538 195.526,-128.022"/>
</g>
<!-- AngularServo -->
<g id="node10" class="node"><title>AngularServo</title>
<polygon fill="#2980b9" stroke="#2980b9" points="465.5,-225 384.5,-225 384.5,-189 465.5,-189 465.5,-225"/>
<text text-anchor="middle" x="425" y="-204.5" font-family="Sans" font-size="10.00" fill="#ffffff">AngularServo</text>
</g>
<!-- AngularServo&#45;&gt;Servo -->
<g id="edge7" class="edge"><title>AngularServo&#45;&gt;Servo</title>
<path fill="none" stroke="black" d="M384.167,-207C363.195,-207 337.668,-207 317.254,-207"/>
<polygon fill="black" stroke="black" points="317.096,-203.5 307.096,-207 317.096,-210.5 317.096,-203.5"/>
</g>
<!-- Buzzer -->
<g id="node11" class="node"><title>Buzzer</title>
<polygon fill="#2980b9" stroke="#2980b9" points="573,-144 519,-144 519,-108 573,-108 573,-144"/>
<text text-anchor="middle" x="546" y="-123.5" font-family="Sans" font-size="10.00" fill="#ffffff">Buzzer</text>
</g>
<!-- Buzzer&#45;&gt;DigitalOutputDevice -->
<g id="edge8" class="edge"><title>Buzzer&#45;&gt;DigitalOutputDevice</title>
<path fill="none" stroke="black" d="M518.885,-114.149C506.08,-108.339 490.226,-101.144 475.262,-94.354"/>
<polygon fill="black" stroke="black" points="476.647,-91.1394 466.095,-90.1943 473.755,-97.5138 476.647,-91.1394"/>
</g>
<!-- PWMOutputDevice -->
<g id="node12" class="node"><title>PWMOutputDevice</title>
<polygon fill="#2980b9" stroke="#2980b9" points="477,-36 373,-36 373,-0 477,-0 477,-36"/>
<text text-anchor="middle" x="425" y="-15.5" font-family="Sans" font-size="10.00" fill="#ffffff">PWMOutputDevice</text>
</g>
<!-- PWMOutputDevice&#45;&gt;OutputDevice -->
<g id="edge10" class="edge"><title>PWMOutputDevice&#45;&gt;OutputDevice</title>
<path fill="none" stroke="black" d="M372.778,-27.6714C359.239,-30.2276 344.642,-32.9836 331.16,-35.5291"/>
<polygon fill="black" stroke="black" points="330.281,-32.1333 321.104,-37.4279 331.58,-39.0118 330.281,-32.1333"/>
</g>
<!-- PWMLED -->
<g id="node13" class="node"><title>PWMLED</title>
<polygon fill="#2980b9" stroke="#2980b9" points="575,-36 517,-36 517,-0 575,-0 575,-36"/>
<text text-anchor="middle" x="546" y="-15.5" font-family="Sans" font-size="10.00" fill="#ffffff">PWMLED</text>
</g>
<!-- PWMLED&#45;&gt;PWMOutputDevice -->
<g id="edge11" class="edge"><title>PWMLED&#45;&gt;PWMOutputDevice</title>
<path fill="none" stroke="black" d="M516.799,-18C507.932,-18 497.77,-18 487.527,-18"/>
<polygon fill="black" stroke="black" points="487.303,-14.5001 477.303,-18 487.303,-21.5001 487.303,-14.5001"/>
</g>
<!-- LED -->
<g id="node14" class="node"><title>LED</title>
<polygon fill="#2980b9" stroke="#2980b9" points="573,-90 519,-90 519,-54 573,-54 573,-90"/>
<text text-anchor="middle" x="546" y="-69.5" font-family="Sans" font-size="10.00" fill="#ffffff">LED</text>
</g>
<!-- LED&#45;&gt;DigitalOutputDevice -->
<g id="edge13" class="edge"><title>LED&#45;&gt;DigitalOutputDevice</title>
<path fill="none" stroke="black" d="M518.885,-72C510.659,-72 501.174,-72 491.475,-72"/>
<polygon fill="black" stroke="black" points="491.334,-68.5001 481.334,-72 491.334,-75.5001 491.334,-68.5001"/>
</g>
<!-- RGBLED -->
<g id="node15" class="node"><title>RGBLED</title>
<polygon fill="#2980b9" stroke="#2980b9" points="168.5,-117 112.5,-117 112.5,-81 168.5,-81 168.5,-117"/>
<text text-anchor="middle" x="140.5" y="-96.5" font-family="Sans" font-size="10.00" fill="#ffffff">RGBLED</text>
</g>
<!-- RGBLED&#45;&gt;Device -->
<g id="edge14" class="edge"><title>RGBLED&#45;&gt;Device</title>
<path fill="none" stroke="black" d="M112.224,-99C97.8711,-99 80.0761,-99 64.5461,-99"/>
<polygon fill="black" stroke="black" points="64.2266,-95.5001 54.2266,-99 64.2265,-102.5 64.2266,-95.5001"/>
</g>
</g>
</svg>
