<?xml version="1.0" encoding="UTF-8" standalone="no"?>
<!DOCTYPE svg PUBLIC "-//W3C//DTD SVG 1.1//EN"
 "http://www.w3.org/Graphics/SVG/1.1/DTD/svg11.dtd">
<!-- Generated by graphviz version 2.38.0 (20140413.2041)
 -->
<!-- Title: classes Pages: 1 -->
<svg width="583pt" height="368pt"
 viewBox="0.00 0.00 583.00 368.00" xmlns="http://www.w3.org/2000/svg" xmlns:xlink="http://www.w3.org/1999/xlink">
<g id="graph0" class="graph" transform="scale(1 1) rotate(0) translate(4 364)">
<title>classes</title>
<polygon fill="white" stroke="none" points="-4,4 -4,-364 579,-364 579,4 -4,4"/>
<!-- CompositeDevice -->
<g id="node1" class="node"><title>CompositeDevice</title>
<polygon fill="#9ec6e0" stroke="#9ec6e0" points="191,-144 90,-144 90,-108 191,-108 191,-144"/>
<text text-anchor="middle" x="140.5" y="-123.5" font-family="Sans" font-size="10.00" fill="#000000">CompositeDevice</text>
</g>
<!-- Device -->
<g id="node2" class="node"><title>Device</title>
<polygon fill="#9ec6e0" stroke="#9ec6e0" points="54,-198 0,-198 0,-162 54,-162 54,-198"/>
<text text-anchor="middle" x="27" y="-177.5" font-family="Sans" font-size="10.00" fill="#000000">Device</text>
</g>
<!-- CompositeDevice&#45;&gt;Device -->
<g id="edge3" class="edge"><title>CompositeDevice&#45;&gt;Device</title>
<path fill="none" stroke="black" d="M102.062,-144.131C89.5591,-150.187 75.674,-156.911 63.3364,-162.886"/>
<polygon fill="black" stroke="black" points="61.7264,-159.777 54.2519,-167.286 64.7776,-166.077 61.7264,-159.777"/>
</g>
<!-- GPIODevice -->
<g id="node3" class="node"><title>GPIODevice</title>
<polygon fill="#9ec6e0" stroke="#9ec6e0" points="176.5,-252 104.5,-252 104.5,-216 176.5,-216 176.5,-252"/>
<text text-anchor="middle" x="140.5" y="-231.5" font-family="Sans" font-size="10.00" fill="#000000">GPIODevice</text>
</g>
<!-- GPIODevice&#45;&gt;Device -->
<g id="edge5" class="edge"><title>GPIODevice&#45;&gt;Device</title>
<path fill="none" stroke="black" d="M104.221,-216.914C91.1804,-210.599 76.4049,-203.443 63.3577,-197.124"/>
<polygon fill="black" stroke="black" points="64.7379,-193.904 54.2122,-192.695 61.6867,-200.204 64.7379,-193.904"/>
</g>
<!-- AngularServo -->
<g id="node4" class="node"><title>AngularServo</title>
<polygon fill="#2980b9" stroke="#2980b9" points="465.5,-198 384.5,-198 384.5,-162 465.5,-162 465.5,-198"/>
<text text-anchor="middle" x="425" y="-177.5" font-family="Sans" font-size="10.00" fill="#ffffff">AngularServo</text>
</g>
<!-- Servo -->
<g id="node5" class="node"><title>Servo</title>
<polygon fill="#2980b9" stroke="#2980b9" points="307,-198 253,-198 253,-162 307,-162 307,-198"/>
<text text-anchor="middle" x="280" y="-177.5" font-family="Sans" font-size="10.00" fill="#ffffff">Servo</text>
</g>
<!-- AngularServo&#45;&gt;Servo -->
<g id="edge1" class="edge"><title>AngularServo&#45;&gt;Servo</title>
<path fill="none" stroke="black" d="M384.167,-180C363.195,-180 337.668,-180 317.254,-180"/>
<polygon fill="black" stroke="black" points="317.096,-176.5 307.096,-180 317.096,-183.5 317.096,-176.5"/>
</g>
<!-- Servo&#45;&gt;CompositeDevice -->
<g id="edge13" class="edge"><title>Servo&#45;&gt;CompositeDevice</title>
<path fill="none" stroke="black" d="M252.814,-169.716C236.944,-163.483 216.085,-155.292 196.719,-147.686"/>
<polygon fill="black" stroke="black" points="197.947,-144.408 187.359,-144.01 195.388,-150.924 197.947,-144.408"/>
</g>
<!-- Buzzer -->
<g id="node6" class="node"><title>Buzzer</title>
<polygon fill="#2980b9" stroke="#2980b9" points="573,-360 519,-360 519,-324 573,-324 573,-360"/>
<text text-anchor="middle" x="546" y="-339.5" font-family="Sans" font-size="10.00" fill="#ffffff">Buzzer</text>
</g>
<!-- DigitalOutputDevice -->
<g id="node7" class="node"><title>DigitalOutputDevice</title>
<polygon fill="#2980b9" stroke="#2980b9" points="481,-306 369,-306 369,-270 481,-270 481,-306"/>
<text text-anchor="middle" x="425" y="-285.5" font-family="Sans" font-size="10.00" fill="#ffffff">DigitalOutputDevice</text>
</g>
<!-- Buzzer&#45;&gt;DigitalOutputDevice -->
<g id="edge2" class="edge"><title>Buzzer&#45;&gt;DigitalOutputDevice</title>
<path fill="none" stroke="black" d="M518.885,-330.149C506.08,-324.339 490.226,-317.144 475.262,-310.354"/>
<polygon fill="black" stroke="black" points="476.647,-307.139 466.095,-306.194 473.755,-313.514 476.647,-307.139"/>
</g>
<!-- OutputDevice -->
<g id="node8" class="node"><title>OutputDevice</title>
<polygon fill="#2980b9" stroke="#2980b9" points="321,-252 239,-252 239,-216 321,-216 321,-252"/>
<text text-anchor="middle" x="280" y="-231.5" font-family="Sans" font-size="10.00" fill="#ffffff">OutputDevice</text>
</g>
<!-- DigitalOutputDevice&#45;&gt;OutputDevice -->
<g id="edge4" class="edge"><title>DigitalOutputDevice&#45;&gt;OutputDevice</title>
<path fill="none" stroke="black" d="M375.985,-269.869C361.342,-264.339 345.221,-258.251 330.483,-252.686"/>
<polygon fill="black" stroke="black" points="331.618,-249.373 321.027,-249.115 329.145,-255.922 331.618,-249.373"/>
</g>
<!-- OutputDevice&#45;&gt;GPIODevice -->
<g id="edge8" class="edge"><title>OutputDevice&#45;&gt;GPIODevice</title>
<path fill="none" stroke="black" d="M238.86,-234C222.58,-234 203.696,-234 186.915,-234"/>
<polygon fill="black" stroke="black" points="186.781,-230.5 176.781,-234 186.781,-237.5 186.781,-230.5"/>
</g>
<!-- LED -->
<g id="node9" class="node"><title>LED</title>
<polygon fill="#2980b9" stroke="#2980b9" points="573,-306 519,-306 519,-270 573,-270 573,-306"/>
<text text-anchor="middle" x="546" y="-285.5" font-family="Sans" font-size="10.00" fill="#ffffff">LED</text>
</g>
<!-- LED&#45;&gt;DigitalOutputDevice -->
<g id="edge6" class="edge"><title>LED&#45;&gt;DigitalOutputDevice</title>
<path fill="none" stroke="black" d="M518.885,-288C510.659,-288 501.174,-288 491.475,-288"/>
<polygon fill="black" stroke="black" points="491.334,-284.5 481.334,-288 491.334,-291.5 491.334,-284.5"/>
</g>
<!-- Motor -->
<g id="node10" class="node"><title>Motor</title>
<polygon fill="#2980b9" stroke="#2980b9" points="307,-144 253,-144 253,-108 307,-108 307,-144"/>
<text text-anchor="middle" x="280" y="-123.5" font-family="Sans" font-size="10.00" fill="#ffffff">Motor</text>
</g>
<!-- Motor&#45;&gt;CompositeDevice -->
<g id="edge7" class="edge"><title>Motor&#45;&gt;CompositeDevice</title>
<path fill="none" stroke="black" d="M252.814,-126C238.221,-126 219.409,-126 201.419,-126"/>
<polygon fill="black" stroke="black" points="201.251,-122.5 191.251,-126 201.251,-129.5 201.251,-122.5"/>
</g>
<!-- PWMLED -->
<g id="node11" class="node"><title>PWMLED</title>
<polygon fill="#2980b9" stroke="#2980b9" points="575,-252 517,-252 517,-216 575,-216 575,-252"/>
<text text-anchor="middle" x="546" y="-231.5" font-family="Sans" font-size="10.00" fill="#ffffff">PWMLED</text>
</g>
<!-- PWMOutputDevice -->
<g id="node12" class="node"><title>PWMOutputDevice</title>
<polygon fill="#2980b9" stroke="#2980b9" points="477,-252 373,-252 373,-216 477,-216 477,-252"/>
<text text-anchor="middle" x="425" y="-231.5" font-family="Sans" font-size="10.00" fill="#ffffff">PWMOutputDevice</text>
</g>
<!-- PWMLED&#45;&gt;PWMOutputDevice -->
<g id="edge9" class="edge"><title>PWMLED&#45;&gt;PWMOutputDevice</title>
<path fill="none" stroke="black" d="M516.799,-234C507.932,-234 497.77,-234 487.527,-234"/>
<polygon fill="black" stroke="black" points="487.303,-230.5 477.303,-234 487.303,-237.5 487.303,-230.5"/>
</g>
<!-- PWMOutputDevice&#45;&gt;OutputDevice -->
<g id="edge10" class="edge"><title>PWMOutputDevice&#45;&gt;OutputDevice</title>
<path fill="none" stroke="black" d="M372.778,-234C359.239,-234 344.642,-234 331.16,-234"/>
<polygon fill="black" stroke="black" points="331.104,-230.5 321.104,-234 331.104,-237.5 331.104,-230.5"/>
</g>
<!-- PhaseEnableMotor -->
<g id="node13" class="node"><title>PhaseEnableMotor</title>
<polygon fill="#2980b9" stroke="#2980b9" points="333,-90 227,-90 227,-54 333,-54 333,-90"/>
<text text-anchor="middle" x="280" y="-69.5" font-family="Sans" font-size="10.00" fill="#ffffff">PhaseEnableMotor</text>
</g>
<!-- PhaseEnableMotor&#45;&gt;CompositeDevice -->
<g id="edge11" class="edge"><title>PhaseEnableMotor&#45;&gt;CompositeDevice</title>
<path fill="none" stroke="black" d="M232.832,-90.1314C221.382,-94.6283 208.991,-99.4944 197.14,-104.149"/>
<polygon fill="black" stroke="black" points="195.809,-100.911 187.78,-107.824 198.368,-107.427 195.809,-100.911"/>
</g>
<!-- RGBLED -->
<g id="node14" class="node"><title>RGBLED</title>
<polygon fill="#2980b9" stroke="#2980b9" points="168.5,-198 112.5,-198 112.5,-162 168.5,-162 168.5,-198"/>
<text text-anchor="middle" x="140.5" y="-177.5" font-family="Sans" font-size="10.00" fill="#ffffff">RGBLED</text>
</g>
<!-- RGBLED&#45;&gt;Device -->
<g id="edge12" class="edge"><title>RGBLED&#45;&gt;Device</title>
<path fill="none" stroke="black" d="M112.224,-180C97.8711,-180 80.0761,-180 64.5461,-180"/>
<polygon fill="black" stroke="black" points="64.2266,-176.5 54.2266,-180 64.2265,-183.5 64.2266,-176.5"/>
</g>
<!-- TonalBuzzer -->
<g id="node15" class="node"><title>TonalBuzzer</title>
<polygon fill="#2980b9" stroke="#2980b9" points="317,-36 243,-36 243,-0 317,-0 317,-36"/>
<text text-anchor="middle" x="280" y="-15.5" font-family="Sans" font-size="10.00" fill="#ffffff">TonalBuzzer</text>
</g>
<!-- TonalBuzzer&#45;&gt;CompositeDevice -->
<g id="edge14" class="edge"><title>TonalBuzzer&#45;&gt;CompositeDevice</title>
<path fill="none" stroke="black" d="M242.974,-35.0214C237.47,-38.097 231.972,-41.4605 227,-45 204.176,-61.2474 181.292,-83.306 164.95,-100.301"/>
<polygon fill="black" stroke="black" points="162.263,-98.0482 157.925,-107.714 167.344,-102.863 162.263,-98.0482"/>
</g>
</g>
</svg>
