<?xml version="1.0" encoding="UTF-8" standalone="no"?>
<!DOCTYPE svg PUBLIC "-//W3C//DTD SVG 1.1//EN"
 "http://www.w3.org/Graphics/SVG/1.1/DTD/svg11.dtd">
<!-- Generated by graphviz version 2.36.0 (20140111.2315)
 -->
<!-- Title: classes Pages: 1 -->
<svg width="259pt" height="332pt"
 viewBox="0.00 0.00 259.00 332.00" xmlns="http://www.w3.org/2000/svg" xmlns:xlink="http://www.w3.org/1999/xlink">
<g id="graph0" class="graph" transform="scale(1 1) rotate(0) translate(4 328)">
<title>classes</title>
<polygon fill="white" stroke="none" points="-4,4 -4,-328 255,-328 255,4 -4,4"/>
<!-- Device -->
<g id="node1" class="node"><title>Device</title>
<polygon fill="#9ec6e0" stroke="#9ec6e0" points="204,-324 150,-324 150,-288 204,-288 204,-324"/>
<text text-anchor="middle" x="177" y="-303.5" font-family="Sans" font-size="10.00" fill="#000000">Device</text>
</g>
<!-- GPIODevice -->
<g id="node2" class="node"><title>GPIODevice</title>
<polygon fill="#9ec6e0" stroke="#9ec6e0" points="172,-252 100,-252 100,-216 172,-216 172,-252"/>
<text text-anchor="middle" x="136" y="-231.5" font-family="Sans" font-size="10.00" fill="#000000">GPIODevice</text>
</g>
<!-- GPIODevice&#45;&gt;Device -->
<g id="edge1" class="edge"><title>GPIODevice&#45;&gt;Device</title>
<path fill="none" stroke="black" d="M146.135,-252.303C150.852,-260.356 156.562,-270.106 161.782,-279.018"/>
<polygon fill="black" stroke="black" points="158.908,-281.036 166.982,-287.896 164.948,-277.498 158.908,-281.036"/>
</g>
<!-- OutputDevice -->
<g id="node3" class="node"><title>OutputDevice</title>
<polygon fill="#2980b9" stroke="#2980b9" points="177,-180 95,-180 95,-144 177,-144 177,-180"/>
<text text-anchor="middle" x="136" y="-159.5" font-family="Sans" font-size="10.00" fill="#ffffff">OutputDevice</text>
</g>
<!-- OutputDevice&#45;&gt;GPIODevice -->
<g id="edge2" class="edge"><title>OutputDevice&#45;&gt;GPIODevice</title>
<path fill="none" stroke="black" d="M136,-180.303C136,-188.017 136,-197.288 136,-205.888"/>
<polygon fill="black" stroke="black" points="132.5,-205.896 136,-215.896 139.5,-205.896 132.5,-205.896"/>
</g>
<!-- DigitalOutputDevice -->
<g id="node4" class="node"><title>DigitalOutputDevice</title>
<polygon fill="#2980b9" stroke="#2980b9" points="129,-108 17,-108 17,-72 129,-72 129,-108"/>
<text text-anchor="middle" x="73" y="-87.5" font-family="Sans" font-size="10.00" fill="#ffffff">DigitalOutputDevice</text>
</g>
<!-- DigitalOutputDevice&#45;&gt;OutputDevice -->
<g id="edge3" class="edge"><title>DigitalOutputDevice&#45;&gt;OutputDevice</title>
<path fill="none" stroke="black" d="M88.573,-108.303C96.2022,-116.78 105.523,-127.136 113.876,-136.417"/>
<polygon fill="black" stroke="black" points="111.315,-138.804 120.606,-143.896 116.518,-134.121 111.315,-138.804"/>
</g>
<!-- LED -->
<g id="node5" class="node"><title>LED</title>
<polygon fill="#2980b9" stroke="#2980b9" points="54,-36 0,-36 0,-0 54,-0 54,-36"/>
<text text-anchor="middle" x="27" y="-15.5" font-family="Sans" font-size="10.00" fill="#ffffff">LED</text>
</g>
<!-- LED&#45;&gt;DigitalOutputDevice -->
<g id="edge4" class="edge"><title>LED&#45;&gt;DigitalOutputDevice</title>
<path fill="none" stroke="black" d="M38.3708,-36.3034C43.7185,-44.4411 50.2043,-54.311 56.1106,-63.2987"/>
<polygon fill="black" stroke="black" points="53.3432,-65.4607 61.76,-71.8957 59.1932,-61.6165 53.3432,-65.4607"/>
</g>
<!-- Buzzer -->
<g id="node6" class="node"><title>Buzzer</title>
<polygon fill="#2980b9" stroke="#2980b9" points="126,-36 72,-36 72,-0 126,-0 126,-36"/>
<text text-anchor="middle" x="99" y="-15.5" font-family="Sans" font-size="10.00" fill="#ffffff">Buzzer</text>
</g>
<!-- Buzzer&#45;&gt;DigitalOutputDevice -->
<g id="edge5" class="edge"><title>Buzzer&#45;&gt;DigitalOutputDevice</title>
<path fill="none" stroke="black" d="M92.573,-36.3034C89.6449,-44.1868 86.113,-53.6958 82.8601,-62.4536"/>
<polygon fill="black" stroke="black" points="79.554,-61.3027 79.353,-71.8957 86.116,-63.7401 79.554,-61.3027"/>
</g>
<!-- PWMOutputDevice -->
<g id="node7" class="node"><title>PWMOutputDevice</title>
<polygon fill="#2980b9" stroke="#2980b9" points="251,-108 147,-108 147,-72 251,-72 251,-108"/>
<text text-anchor="middle" x="199" y="-87.5" font-family="Sans" font-size="10.00" fill="#ffffff">PWMOutputDevice</text>
</g>
<!-- PWMOutputDevice&#45;&gt;OutputDevice -->
<g id="edge6" class="edge"><title>PWMOutputDevice&#45;&gt;OutputDevice</title>
<path fill="none" stroke="black" d="M183.427,-108.303C175.798,-116.78 166.477,-127.136 158.124,-136.417"/>
<polygon fill="black" stroke="black" points="155.482,-134.121 151.394,-143.896 160.685,-138.804 155.482,-134.121"/>
</g>
<!-- PWMLED -->
<g id="node8" class="node"><title>PWMLED</title>
<polygon fill="#2980b9" stroke="#2980b9" points="228,-36 170,-36 170,-0 228,-0 228,-36"/>
<text text-anchor="middle" x="199" y="-15.5" font-family="Sans" font-size="10.00" fill="#ffffff">PWMLED</text>
</g>
<!-- PWMLED&#45;&gt;PWMOutputDevice -->
<g id="edge7" class="edge"><title>PWMLED&#45;&gt;PWMOutputDevice</title>
<path fill="none" stroke="black" d="M199,-36.3034C199,-44.0173 199,-53.2875 199,-61.8876"/>
<polygon fill="black" stroke="black" points="195.5,-61.8956 199,-71.8957 202.5,-61.8957 195.5,-61.8956"/>
</g>
<!-- RGBLED -->
<g id="node9" class="node"><title>RGBLED</title>
<polygon fill="#2980b9" stroke="#2980b9" points="246,-252 190,-252 190,-216 246,-216 246,-252"/>
<text text-anchor="middle" x="218" y="-231.5" font-family="Sans" font-size="10.00" fill="#ffffff">RGBLED</text>
</g>
<!-- RGBLED&#45;&gt;Device -->
<g id="edge8" class="edge"><title>RGBLED&#45;&gt;Device</title>
<path fill="none" stroke="black" d="M207.865,-252.303C203.148,-260.356 197.438,-270.106 192.218,-279.018"/>
<polygon fill="black" stroke="black" points="189.052,-277.498 187.018,-287.896 195.092,-281.036 189.052,-277.498"/>
</g>
</g>
</svg>
