<?xml version="1.0" encoding="UTF-8" standalone="no"?>
<!DOCTYPE svg PUBLIC "-//W3C//DTD SVG 1.1//EN"
 "http://www.w3.org/Graphics/SVG/1.1/DTD/svg11.dtd">
<!-- Generated by graphviz version 2.38.0 (20140413.2041)
 -->
<!-- Title: classes Pages: 1 -->
<svg width="558pt" height="368pt"
 viewBox="0.00 0.00 558.00 368.00" xmlns="http://www.w3.org/2000/svg" xmlns:xlink="http://www.w3.org/1999/xlink">
<g id="graph0" class="graph" transform="scale(1 1) rotate(0) translate(4 364)">
<title>classes</title>
<polygon fill="white" stroke="none" points="-4,4 -4,-364 554,-364 554,4 -4,4"/>
<!-- CompositeDevice -->
<g id="node1" class="node"><title>CompositeDevice</title>
<polygon fill="#9ec6e0" stroke="#9ec6e0" points="182,-144 90,-144 90,-108 182,-108 182,-144"/>
<text text-anchor="middle" x="136" y="-123.5" font-family="Arial" font-size="10.00" fill="#000000">CompositeDevice</text>
</g>
<!-- Device -->
<g id="node2" class="node"><title>Device</title>
<polygon fill="#9ec6e0" stroke="#9ec6e0" points="54,-198 0,-198 0,-162 54,-162 54,-198"/>
<text text-anchor="middle" x="27" y="-177.5" font-family="Arial" font-size="10.00" fill="#000000">Device</text>
</g>
<!-- CompositeDevice&#45;&gt;Device -->
<g id="edge3" class="edge"><title>CompositeDevice&#45;&gt;Device</title>
<path fill="none" stroke="black" d="M99.0729,-144.131C87.5945,-149.924 74.902,-156.33 63.4573,-162.106"/>
<polygon fill="black" stroke="black" points="61.5418,-159.152 54.1912,-166.782 64.6957,-165.401 61.5418,-159.152"/>
</g>
<!-- GPIODevice -->
<g id="node3" class="node"><title>GPIODevice</title>
<polygon fill="#9ec6e0" stroke="#9ec6e0" points="170.5,-252 101.5,-252 101.5,-216 170.5,-216 170.5,-252"/>
<text text-anchor="middle" x="136" y="-231.5" font-family="Arial" font-size="10.00" fill="#000000">GPIODevice</text>
</g>
<!-- GPIODevice&#45;&gt;Device -->
<g id="edge5" class="edge"><title>GPIODevice&#45;&gt;Device</title>
<path fill="none" stroke="black" d="M101.438,-217.062C89.326,-210.95 75.6229,-204.034 63.3616,-197.846"/>
<polygon fill="black" stroke="black" points="64.8209,-194.662 54.3165,-193.281 61.6671,-200.911 64.8209,-194.662"/>
</g>
<!-- AngularServo -->
<g id="node4" class="node"><title>AngularServo</title>
<polygon fill="#2980b9" stroke="#2980b9" points="440.5,-198 366.5,-198 366.5,-162 440.5,-162 440.5,-198"/>
<text text-anchor="middle" x="403.5" y="-177.5" font-family="Arial" font-size="10.00" fill="#ffffff">AngularServo</text>
</g>
<!-- Servo -->
<g id="node5" class="node"><title>Servo</title>
<polygon fill="#2980b9" stroke="#2980b9" points="294.5,-198 240.5,-198 240.5,-162 294.5,-162 294.5,-198"/>
<text text-anchor="middle" x="267.5" y="-177.5" font-family="Arial" font-size="10.00" fill="#ffffff">Servo</text>
</g>
<!-- AngularServo&#45;&gt;Servo -->
<g id="edge1" class="edge"><title>AngularServo&#45;&gt;Servo</title>
<path fill="none" stroke="black" d="M366.238,-180C347.141,-180 323.792,-180 304.704,-180"/>
<polygon fill="black" stroke="black" points="304.592,-176.5 294.592,-180 304.592,-183.5 304.592,-176.5"/>
</g>
<!-- Servo&#45;&gt;CompositeDevice -->
<g id="edge13" class="edge"><title>Servo&#45;&gt;CompositeDevice</title>
<path fill="none" stroke="black" d="M240.294,-169.072C225.764,-163.014 207.163,-155.257 189.76,-148"/>
<polygon fill="black" stroke="black" points="190.825,-144.652 180.248,-144.034 188.131,-151.113 190.825,-144.652"/>
</g>
<!-- Buzzer -->
<g id="node6" class="node"><title>Buzzer</title>
<polygon fill="#2980b9" stroke="#2980b9" points="547,-360 493,-360 493,-324 547,-324 547,-360"/>
<text text-anchor="middle" x="520" y="-339.5" font-family="Arial" font-size="10.00" fill="#ffffff">Buzzer</text>
</g>
<!-- DigitalOutputDevice -->
<g id="node7" class="node"><title>DigitalOutputDevice</title>
<polygon fill="#2980b9" stroke="#2980b9" points="454,-306 353,-306 353,-270 454,-270 454,-306"/>
<text text-anchor="middle" x="403.5" y="-285.5" font-family="Arial" font-size="10.00" fill="#ffffff">DigitalOutputDevice</text>
</g>
<!-- Buzzer&#45;&gt;DigitalOutputDevice -->
<g id="edge2" class="edge"><title>Buzzer&#45;&gt;DigitalOutputDevice</title>
<path fill="none" stroke="black" d="M492.731,-329.611C480.715,-323.944 466.093,-317.048 452.236,-310.513"/>
<polygon fill="black" stroke="black" points="453.344,-307.166 442.806,-306.066 450.358,-313.497 453.344,-307.166"/>
</g>
<!-- OutputDevice -->
<g id="node8" class="node"><title>OutputDevice</title>
<polygon fill="#2980b9" stroke="#2980b9" points="304.5,-252 230.5,-252 230.5,-216 304.5,-216 304.5,-252"/>
<text text-anchor="middle" x="267.5" y="-231.5" font-family="Arial" font-size="10.00" fill="#ffffff">OutputDevice</text>
</g>
<!-- DigitalOutputDevice&#45;&gt;OutputDevice -->
<g id="edge4" class="edge"><title>DigitalOutputDevice&#45;&gt;OutputDevice</title>
<path fill="none" stroke="black" d="M357.507,-269.869C343.546,-264.242 328.15,-258.038 314.145,-252.394"/>
<polygon fill="black" stroke="black" points="315.289,-249.082 304.706,-248.59 312.673,-255.575 315.289,-249.082"/>
</g>
<!-- OutputDevice&#45;&gt;GPIODevice -->
<g id="edge8" class="edge"><title>OutputDevice&#45;&gt;GPIODevice</title>
<path fill="none" stroke="black" d="M230.427,-234C215.079,-234 197.037,-234 180.922,-234"/>
<polygon fill="black" stroke="black" points="180.658,-230.5 170.658,-234 180.658,-237.5 180.658,-230.5"/>
</g>
<!-- LED -->
<g id="node9" class="node"><title>LED</title>
<polygon fill="#2980b9" stroke="#2980b9" points="547,-306 493,-306 493,-270 547,-270 547,-306"/>
<text text-anchor="middle" x="520" y="-285.5" font-family="Arial" font-size="10.00" fill="#ffffff">LED</text>
</g>
<!-- LED&#45;&gt;DigitalOutputDevice -->
<g id="edge6" class="edge"><title>LED&#45;&gt;DigitalOutputDevice</title>
<path fill="none" stroke="black" d="M492.731,-288C484.115,-288 474.159,-288 464.106,-288"/>
<polygon fill="black" stroke="black" points="464.067,-284.5 454.067,-288 464.067,-291.5 464.067,-284.5"/>
</g>
<!-- Motor -->
<g id="node10" class="node"><title>Motor</title>
<polygon fill="#2980b9" stroke="#2980b9" points="294.5,-144 240.5,-144 240.5,-108 294.5,-108 294.5,-144"/>
<text text-anchor="middle" x="267.5" y="-123.5" font-family="Arial" font-size="10.00" fill="#ffffff">Motor</text>
</g>
<!-- Motor&#45;&gt;CompositeDevice -->
<g id="edge7" class="edge"><title>Motor&#45;&gt;CompositeDevice</title>
<path fill="none" stroke="black" d="M240.294,-126C226.462,-126 208.94,-126 192.274,-126"/>
<polygon fill="black" stroke="black" points="192.049,-122.5 182.049,-126 192.049,-129.5 192.049,-122.5"/>
</g>
<!-- PWMLED -->
<g id="node11" class="node"><title>PWMLED</title>
<polygon fill="#2980b9" stroke="#2980b9" points="550,-252 490,-252 490,-216 550,-216 550,-252"/>
<text text-anchor="middle" x="520" y="-231.5" font-family="Arial" font-size="10.00" fill="#ffffff">PWMLED</text>
</g>
<!-- PWMOutputDevice -->
<g id="node12" class="node"><title>PWMOutputDevice</title>
<polygon fill="#2980b9" stroke="#2980b9" points="453,-252 354,-252 354,-216 453,-216 453,-252"/>
<text text-anchor="middle" x="403.5" y="-231.5" font-family="Arial" font-size="10.00" fill="#ffffff">PWMOutputDevice</text>
</g>
<!-- PWMLED&#45;&gt;PWMOutputDevice -->
<g id="edge9" class="edge"><title>PWMLED&#45;&gt;PWMOutputDevice</title>
<path fill="none" stroke="black" d="M489.811,-234C481.723,-234 472.643,-234 463.503,-234"/>
<polygon fill="black" stroke="black" points="463.209,-230.5 453.209,-234 463.209,-237.5 463.209,-230.5"/>
</g>
<!-- PWMOutputDevice&#45;&gt;OutputDevice -->
<g id="edge10" class="edge"><title>PWMOutputDevice&#45;&gt;OutputDevice</title>
<path fill="none" stroke="black" d="M353.744,-234C341.116,-234 327.552,-234 315.041,-234"/>
<polygon fill="black" stroke="black" points="314.823,-230.5 304.823,-234 314.823,-237.5 314.823,-230.5"/>
</g>
<!-- PhaseEnableMotor -->
<g id="node13" class="node"><title>PhaseEnableMotor</title>
<polygon fill="#2980b9" stroke="#2980b9" points="317,-90 218,-90 218,-54 317,-54 317,-90"/>
<text text-anchor="middle" x="267.5" y="-69.5" font-family="Arial" font-size="10.00" fill="#ffffff">PhaseEnableMotor</text>
</g>
<!-- PhaseEnableMotor&#45;&gt;CompositeDevice -->
<g id="edge11" class="edge"><title>PhaseEnableMotor&#45;&gt;CompositeDevice</title>
<path fill="none" stroke="black" d="M223.018,-90.1314C212.448,-94.5393 201.026,-99.3018 190.067,-103.872"/>
<polygon fill="black" stroke="black" points="188.47,-100.745 180.588,-107.824 191.164,-107.206 188.47,-100.745"/>
</g>
<!-- RGBLED -->
<g id="node14" class="node"><title>RGBLED</title>
<polygon fill="#2980b9" stroke="#2980b9" points="164,-198 108,-198 108,-162 164,-162 164,-198"/>
<text text-anchor="middle" x="136" y="-177.5" font-family="Arial" font-size="10.00" fill="#ffffff">RGBLED</text>
</g>
<!-- RGBLED&#45;&gt;Device -->
<g id="edge12" class="edge"><title>RGBLED&#45;&gt;Device</title>
<path fill="none" stroke="black" d="M107.999,-180C94.7478,-180 78.5942,-180 64.2812,-180"/>
<polygon fill="black" stroke="black" points="64.2522,-176.5 54.2522,-180 64.2522,-183.5 64.2522,-176.5"/>
</g>
<!-- TonalBuzzer -->
<g id="node15" class="node"><title>TonalBuzzer</title>
<polygon fill="#2980b9" stroke="#2980b9" points="303,-36 232,-36 232,-0 303,-0 303,-36"/>
<text text-anchor="middle" x="267.5" y="-15.5" font-family="Arial" font-size="10.00" fill="#ffffff">TonalBuzzer</text>
</g>
<!-- TonalBuzzer&#45;&gt;CompositeDevice -->
<g id="edge14" class="edge"><title>TonalBuzzer&#45;&gt;CompositeDevice</title>
<path fill="none" stroke="black" d="M231.833,-35.7351C227.051,-38.6271 222.307,-41.7482 218,-45 196.449,-61.2707 174.972,-83.0685 159.554,-99.953"/>
<polygon fill="black" stroke="black" points="156.581,-98.0248 152.497,-107.801 161.786,-102.705 156.581,-98.0248"/>
</g>
</g>
</svg>
