<?xml version="1.0" encoding="UTF-8" standalone="no"?>
<!DOCTYPE svg PUBLIC "-//W3C//DTD SVG 1.1//EN"
 "http://www.w3.org/Graphics/SVG/1.1/DTD/svg11.dtd">
<!-- Generated by graphviz version 2.43.0 (0)
 -->
<!-- Title: classes Pages: 1 -->
<svg width="592pt" height="341pt"
 viewBox="0.00 0.00 592.00 341.00" xmlns="http://www.w3.org/2000/svg" xmlns:xlink="http://www.w3.org/1999/xlink">
<g id="graph0" class="graph" transform="scale(1 1) rotate(0) translate(4 337)">
<title>classes</title>
<polygon fill="white" stroke="transparent" points="-4,4 -4,-337 588,-337 588,4 -4,4"/>
<!-- CompositeDevice -->
<g id="node1" class="node">
<title>CompositeDevice</title>
<polygon fill="#9ec6e0" stroke="#9ec6e0" points="193,-144 90,-144 90,-108 193,-108 193,-144"/>
<text text-anchor="middle" x="141.5" y="-123.5" font-family="Sans" font-size="10.00" fill="#000000">CompositeDevice</text>
</g>
<!-- Device -->
<g id="node2" class="node">
<title>Device</title>
<polygon fill="#9ec6e0" stroke="#9ec6e0" points="54,-198 0,-198 0,-162 54,-162 54,-198"/>
<text text-anchor="middle" x="27" y="-177.5" font-family="Sans" font-size="10.00" fill="#000000">Device</text>
</g>
<!-- CompositeDevice&#45;&gt;Device -->
<g id="edge3" class="edge">
<title>CompositeDevice&#45;&gt;Device</title>
<path fill="none" stroke="black" d="M102.73,-144.13C90.01,-150.24 75.88,-157.02 63.35,-163.03"/>
<polygon fill="black" stroke="black" points="61.64,-159.97 54.14,-167.45 64.67,-166.28 61.64,-159.97"/>
</g>
<!-- GPIODevice -->
<g id="node3" class="node">
<title>GPIODevice</title>
<polygon fill="#9ec6e0" stroke="#9ec6e0" points="178.5,-252 104.5,-252 104.5,-216 178.5,-216 178.5,-252"/>
<text text-anchor="middle" x="141.5" y="-231.5" font-family="Sans" font-size="10.00" fill="#000000">GPIODevice</text>
</g>
<!-- GPIODevice&#45;&gt;Device -->
<g id="edge5" class="edge">
<title>GPIODevice&#45;&gt;Device</title>
<path fill="none" stroke="black" d="M104.29,-216.62C91.16,-210.32 76.35,-203.21 63.3,-196.95"/>
<polygon fill="black" stroke="black" points="64.69,-193.73 54.16,-192.56 61.66,-200.04 64.69,-193.73"/>
</g>
<!-- AngularServo -->
<g id="node4" class="node">
<title>AngularServo</title>
<polygon fill="#2980b9" stroke="#2980b9" points="471,-90 389,-90 389,-54 471,-54 471,-90"/>
<text text-anchor="middle" x="430" y="-69.5" font-family="Sans" font-size="10.00" fill="#ffffff">AngularServo</text>
</g>
<!-- Servo -->
<g id="node14" class="node">
<title>Servo</title>
<polygon fill="#2980b9" stroke="#2980b9" points="309.5,-90 255.5,-90 255.5,-54 309.5,-54 309.5,-90"/>
<text text-anchor="middle" x="282.5" y="-69.5" font-family="Sans" font-size="10.00" fill="#ffffff">Servo</text>
</g>
<!-- AngularServo&#45;&gt;Servo -->
<g id="edge1" class="edge">
<title>AngularServo&#45;&gt;Servo</title>
<path fill="none" stroke="black" d="M388.86,-72C367.27,-72 340.85,-72 319.87,-72"/>
<polygon fill="black" stroke="black" points="319.75,-68.5 309.75,-72 319.75,-75.5 319.75,-68.5"/>
</g>
<!-- Buzzer -->
<g id="node5" class="node">
<title>Buzzer</title>
<polygon fill="#2980b9" stroke="#2980b9" points="581,-333 527,-333 527,-297 581,-297 581,-333"/>
<text text-anchor="middle" x="554" y="-312.5" font-family="Sans" font-size="10.00" fill="#ffffff">Buzzer</text>
</g>
<!-- DigitalOutputDevice -->
<g id="node6" class="node">
<title>DigitalOutputDevice</title>
<polygon fill="#2980b9" stroke="#2980b9" points="488,-279 372,-279 372,-243 488,-243 488,-279"/>
<text text-anchor="middle" x="430" y="-258.5" font-family="Sans" font-size="10.00" fill="#ffffff">DigitalOutputDevice</text>
</g>
<!-- Buzzer&#45;&gt;DigitalOutputDevice -->
<g id="edge2" class="edge">
<title>Buzzer&#45;&gt;DigitalOutputDevice</title>
<path fill="none" stroke="black" d="M526.83,-303.42C513.61,-297.56 497.11,-290.26 481.54,-283.37"/>
<polygon fill="black" stroke="black" points="482.57,-280 472.01,-279.15 479.74,-286.4 482.57,-280"/>
</g>
<!-- OutputDevice -->
<g id="node9" class="node">
<title>OutputDevice</title>
<polygon fill="#2980b9" stroke="#2980b9" points="324,-252 241,-252 241,-216 324,-216 324,-252"/>
<text text-anchor="middle" x="282.5" y="-231.5" font-family="Sans" font-size="10.00" fill="#ffffff">OutputDevice</text>
</g>
<!-- DigitalOutputDevice&#45;&gt;OutputDevice -->
<g id="edge4" class="edge">
<title>DigitalOutputDevice&#45;&gt;OutputDevice</title>
<path fill="none" stroke="black" d="M371.91,-250.41C359.47,-248.1 346.39,-245.67 334.22,-243.41"/>
<polygon fill="black" stroke="black" points="334.71,-239.94 324.24,-241.56 333.44,-246.83 334.71,-239.94"/>
</g>
<!-- LED -->
<g id="node7" class="node">
<title>LED</title>
<polygon fill="#2980b9" stroke="#2980b9" points="581,-279 527,-279 527,-243 581,-243 581,-279"/>
<text text-anchor="middle" x="554" y="-258.5" font-family="Sans" font-size="10.00" fill="#ffffff">LED</text>
</g>
<!-- LED&#45;&gt;DigitalOutputDevice -->
<g id="edge6" class="edge">
<title>LED&#45;&gt;DigitalOutputDevice</title>
<path fill="none" stroke="black" d="M526.83,-261C518.32,-261 508.46,-261 498.35,-261"/>
<polygon fill="black" stroke="black" points="498.22,-257.5 488.22,-261 498.22,-264.5 498.22,-257.5"/>
</g>
<!-- Motor -->
<g id="node8" class="node">
<title>Motor</title>
<polygon fill="#2980b9" stroke="#2980b9" points="309.5,-198 255.5,-198 255.5,-162 309.5,-162 309.5,-198"/>
<text text-anchor="middle" x="282.5" y="-177.5" font-family="Sans" font-size="10.00" fill="#ffffff">Motor</text>
</g>
<!-- Motor&#45;&gt;CompositeDevice -->
<g id="edge7" class="edge">
<title>Motor&#45;&gt;CompositeDevice</title>
<path fill="none" stroke="black" d="M255.36,-169.84C239.34,-163.62 218.21,-155.41 198.56,-147.78"/>
<polygon fill="black" stroke="black" points="199.66,-144.45 189.07,-144.09 197.12,-150.97 199.66,-144.45"/>
</g>
<!-- OutputDevice&#45;&gt;GPIODevice -->
<g id="edge8" class="edge">
<title>OutputDevice&#45;&gt;GPIODevice</title>
<path fill="none" stroke="black" d="M240.92,-234C224.6,-234 205.68,-234 188.82,-234"/>
<polygon fill="black" stroke="black" points="188.63,-230.5 178.63,-234 188.63,-237.5 188.63,-230.5"/>
</g>
<!-- PWMLED -->
<g id="node10" class="node">
<title>PWMLED</title>
<polygon fill="#2980b9" stroke="#2980b9" points="584,-225 524,-225 524,-189 584,-189 584,-225"/>
<text text-anchor="middle" x="554" y="-204.5" font-family="Sans" font-size="10.00" fill="#ffffff">PWMLED</text>
</g>
<!-- PWMOutputDevice -->
<g id="node11" class="node">
<title>PWMOutputDevice</title>
<polygon fill="#2980b9" stroke="#2980b9" points="484,-225 376,-225 376,-189 484,-189 484,-225"/>
<text text-anchor="middle" x="430" y="-204.5" font-family="Sans" font-size="10.00" fill="#ffffff">PWMOutputDevice</text>
</g>
<!-- PWMLED&#45;&gt;PWMOutputDevice -->
<g id="edge9" class="edge">
<title>PWMLED&#45;&gt;PWMOutputDevice</title>
<path fill="none" stroke="black" d="M523.78,-207C514.9,-207 504.77,-207 494.54,-207"/>
<polygon fill="black" stroke="black" points="494.33,-203.5 484.33,-207 494.33,-210.5 494.33,-203.5"/>
</g>
<!-- PWMOutputDevice&#45;&gt;OutputDevice -->
<g id="edge10" class="edge">
<title>PWMOutputDevice&#45;&gt;OutputDevice</title>
<path fill="none" stroke="black" d="M375.65,-216.9C362.07,-219.42 347.53,-222.12 334.1,-224.61"/>
<polygon fill="black" stroke="black" points="333.27,-221.2 324.08,-226.47 334.55,-228.09 333.27,-221.2"/>
</g>
<!-- PhaseEnableMotor -->
<g id="node12" class="node">
<title>PhaseEnableMotor</title>
<polygon fill="#2980b9" stroke="#2980b9" points="336,-144 229,-144 229,-108 336,-108 336,-144"/>
<text text-anchor="middle" x="282.5" y="-123.5" font-family="Sans" font-size="10.00" fill="#ffffff">PhaseEnableMotor</text>
</g>
<!-- PhaseEnableMotor&#45;&gt;CompositeDevice -->
<g id="edge11" class="edge">
<title>PhaseEnableMotor&#45;&gt;CompositeDevice</title>
<path fill="none" stroke="black" d="M228.95,-126C220.64,-126 211.99,-126 203.51,-126"/>
<polygon fill="black" stroke="black" points="203.28,-122.5 193.28,-126 203.28,-129.5 203.28,-122.5"/>
</g>
<!-- RGBLED -->
<g id="node13" class="node">
<title>RGBLED</title>
<polygon fill="#2980b9" stroke="#2980b9" points="169.5,-198 113.5,-198 113.5,-162 169.5,-162 169.5,-198"/>
<text text-anchor="middle" x="141.5" y="-177.5" font-family="Sans" font-size="10.00" fill="#ffffff">RGBLED</text>
</g>
<!-- RGBLED&#45;&gt;Device -->
<g id="edge12" class="edge">
<title>RGBLED&#45;&gt;Device</title>
<path fill="none" stroke="black" d="M113.27,-180C98.54,-180 80.17,-180 64.25,-180"/>
<polygon fill="black" stroke="black" points="64.21,-176.5 54.21,-180 64.21,-183.5 64.21,-176.5"/>
</g>
<!-- Servo&#45;&gt;CompositeDevice -->
<g id="edge13" class="edge">
<title>Servo&#45;&gt;CompositeDevice</title>
<path fill="none" stroke="black" d="M255.36,-82.16C239.34,-88.38 218.21,-96.59 198.56,-104.22"/>
<polygon fill="black" stroke="black" points="197.12,-101.03 189.07,-107.91 199.66,-107.55 197.12,-101.03"/>
</g>
<!-- TonalBuzzer -->
<g id="node15" class="node">
<title>TonalBuzzer</title>
<polygon fill="#2980b9" stroke="#2980b9" points="320,-36 245,-36 245,0 320,0 320,-36"/>
<text text-anchor="middle" x="282.5" y="-15.5" font-family="Sans" font-size="10.00" fill="#ffffff">TonalBuzzer</text>
</g>
<!-- TonalBuzzer&#45;&gt;CompositeDevice -->
<g id="edge14" class="edge">
<title>TonalBuzzer&#45;&gt;CompositeDevice</title>
<path fill="none" stroke="black" d="M244.86,-35.17C239.4,-38.21 233.94,-41.52 229,-45 205.96,-61.24 182.8,-83.3 166.25,-100.29"/>
<polygon fill="black" stroke="black" points="163.54,-98.07 159.14,-107.71 168.59,-102.92 163.54,-98.07"/>
</g>
</g>
</svg>
