<?xml version="1.0" encoding="UTF-8" standalone="no"?>
<!DOCTYPE svg PUBLIC "-//W3C//DTD SVG 1.1//EN"
 "http://www.w3.org/Graphics/SVG/1.1/DTD/svg11.dtd">
<!-- Generated by graphviz version 2.43.0 (0)
 -->
<!-- Title: classes Pages: 1 -->
<svg width="592pt" height="368pt"
 viewBox="0.00 0.00 592.00 368.00" xmlns="http://www.w3.org/2000/svg" xmlns:xlink="http://www.w3.org/1999/xlink">
<g id="graph0" class="graph" transform="scale(1 1) rotate(0) translate(4 364)">
<title>classes</title>
<polygon fill="white" stroke="transparent" points="-4,4 -4,-364 588,-364 588,4 -4,4"/>
<!-- CompositeDevice -->
<g id="node1" class="node">
<title>CompositeDevice</title>
<polygon fill="#9ec6e0" stroke="#9ec6e0" points="193,-144 90,-144 90,-108 193,-108 193,-144"/>
<text text-anchor="middle" x="141.5" y="-123.5" font-family="Sans" font-size="10.00" fill="#000000">CompositeDevice</text>
</g>
<!-- Device -->
<g id="node2" class="node">
<title>Device</title>
<polygon fill="#9ec6e0" stroke="#9ec6e0" points="54,-198 0,-198 0,-162 54,-162 54,-198"/>
<text text-anchor="middle" x="27" y="-177.5" font-family="Sans" font-size="10.00" fill="#000000">Device</text>
</g>
<!-- CompositeDevice&#45;&gt;Device -->
<g id="edge3" class="edge">
<title>CompositeDevice&#45;&gt;Device</title>
<path fill="none" stroke="black" d="M102.73,-144.13C90.01,-150.24 75.88,-157.02 63.35,-163.03"/>
<polygon fill="black" stroke="black" points="61.64,-159.97 54.14,-167.45 64.67,-166.28 61.64,-159.97"/>
</g>
<!-- GPIODevice -->
<g id="node3" class="node">
<title>GPIODevice</title>
<polygon fill="#9ec6e0" stroke="#9ec6e0" points="178.5,-252 104.5,-252 104.5,-216 178.5,-216 178.5,-252"/>
<text text-anchor="middle" x="141.5" y="-231.5" font-family="Sans" font-size="10.00" fill="#000000">GPIODevice</text>
</g>
<!-- GPIODevice&#45;&gt;Device -->
<g id="edge5" class="edge">
<title>GPIODevice&#45;&gt;Device</title>
<path fill="none" stroke="black" d="M104.29,-216.62C91.16,-210.32 76.35,-203.21 63.3,-196.95"/>
<polygon fill="black" stroke="black" points="64.69,-193.73 54.16,-192.56 61.66,-200.04 64.69,-193.73"/>
</g>
<!-- AngularServo -->
<g id="node4" class="node">
<title>AngularServo</title>
<polygon fill="#2980b9" stroke="#2980b9" points="471,-198 389,-198 389,-162 471,-162 471,-198"/>
<text text-anchor="middle" x="430" y="-177.5" font-family="Sans" font-size="10.00" fill="#ffffff">AngularServo</text>
</g>
<!-- Servo -->
<g id="node5" class="node">
<title>Servo</title>
<polygon fill="#2980b9" stroke="#2980b9" points="309.5,-198 255.5,-198 255.5,-162 309.5,-162 309.5,-198"/>
<text text-anchor="middle" x="282.5" y="-177.5" font-family="Sans" font-size="10.00" fill="#ffffff">Servo</text>
</g>
<!-- AngularServo&#45;&gt;Servo -->
<g id="edge1" class="edge">
<title>AngularServo&#45;&gt;Servo</title>
<path fill="none" stroke="black" d="M388.86,-180C367.27,-180 340.85,-180 319.87,-180"/>
<polygon fill="black" stroke="black" points="319.75,-176.5 309.75,-180 319.75,-183.5 319.75,-176.5"/>
</g>
<!-- Servo&#45;&gt;CompositeDevice -->
<g id="edge13" class="edge">
<title>Servo&#45;&gt;CompositeDevice</title>
<path fill="none" stroke="black" d="M255.36,-169.84C239.34,-163.62 218.21,-155.41 198.56,-147.78"/>
<polygon fill="black" stroke="black" points="199.66,-144.45 189.07,-144.09 197.12,-150.97 199.66,-144.45"/>
</g>
<!-- Buzzer -->
<g id="node6" class="node">
<title>Buzzer</title>
<polygon fill="#2980b9" stroke="#2980b9" points="581,-360 527,-360 527,-324 581,-324 581,-360"/>
<text text-anchor="middle" x="554" y="-339.5" font-family="Sans" font-size="10.00" fill="#ffffff">Buzzer</text>
</g>
<!-- DigitalOutputDevice -->
<g id="node7" class="node">
<title>DigitalOutputDevice</title>
<polygon fill="#2980b9" stroke="#2980b9" points="488,-306 372,-306 372,-270 488,-270 488,-306"/>
<text text-anchor="middle" x="430" y="-285.5" font-family="Sans" font-size="10.00" fill="#ffffff">DigitalOutputDevice</text>
</g>
<!-- Buzzer&#45;&gt;DigitalOutputDevice -->
<g id="edge2" class="edge">
<title>Buzzer&#45;&gt;DigitalOutputDevice</title>
<path fill="none" stroke="black" d="M526.83,-330.42C513.61,-324.56 497.11,-317.26 481.54,-310.37"/>
<polygon fill="black" stroke="black" points="482.57,-307 472.01,-306.15 479.74,-313.4 482.57,-307"/>
</g>
<!-- OutputDevice -->
<g id="node8" class="node">
<title>OutputDevice</title>
<polygon fill="#2980b9" stroke="#2980b9" points="324,-252 241,-252 241,-216 324,-216 324,-252"/>
<text text-anchor="middle" x="282.5" y="-231.5" font-family="Sans" font-size="10.00" fill="#ffffff">OutputDevice</text>
</g>
<!-- DigitalOutputDevice&#45;&gt;OutputDevice -->
<g id="edge4" class="edge">
<title>DigitalOutputDevice&#45;&gt;OutputDevice</title>
<path fill="none" stroke="black" d="M380.15,-269.87C365.25,-264.34 348.84,-258.25 333.85,-252.69"/>
<polygon fill="black" stroke="black" points="334.82,-249.31 324.23,-249.11 332.38,-255.88 334.82,-249.31"/>
</g>
<!-- OutputDevice&#45;&gt;GPIODevice -->
<g id="edge8" class="edge">
<title>OutputDevice&#45;&gt;GPIODevice</title>
<path fill="none" stroke="black" d="M240.92,-234C224.6,-234 205.68,-234 188.82,-234"/>
<polygon fill="black" stroke="black" points="188.63,-230.5 178.63,-234 188.63,-237.5 188.63,-230.5"/>
</g>
<!-- LED -->
<g id="node9" class="node">
<title>LED</title>
<polygon fill="#2980b9" stroke="#2980b9" points="581,-306 527,-306 527,-270 581,-270 581,-306"/>
<text text-anchor="middle" x="554" y="-285.5" font-family="Sans" font-size="10.00" fill="#ffffff">LED</text>
</g>
<!-- LED&#45;&gt;DigitalOutputDevice -->
<g id="edge6" class="edge">
<title>LED&#45;&gt;DigitalOutputDevice</title>
<path fill="none" stroke="black" d="M526.83,-288C518.32,-288 508.46,-288 498.35,-288"/>
<polygon fill="black" stroke="black" points="498.22,-284.5 488.22,-288 498.22,-291.5 498.22,-284.5"/>
</g>
<!-- Motor -->
<g id="node10" class="node">
<title>Motor</title>
<polygon fill="#2980b9" stroke="#2980b9" points="309.5,-144 255.5,-144 255.5,-108 309.5,-108 309.5,-144"/>
<text text-anchor="middle" x="282.5" y="-123.5" font-family="Sans" font-size="10.00" fill="#ffffff">Motor</text>
</g>
<!-- Motor&#45;&gt;CompositeDevice -->
<g id="edge7" class="edge">
<title>Motor&#45;&gt;CompositeDevice</title>
<path fill="none" stroke="black" d="M255.36,-126C240.56,-126 221.4,-126 203.07,-126"/>
<polygon fill="black" stroke="black" points="203.02,-122.5 193.02,-126 203.02,-129.5 203.02,-122.5"/>
</g>
<!-- PWMLED -->
<g id="node11" class="node">
<title>PWMLED</title>
<polygon fill="#2980b9" stroke="#2980b9" points="584,-252 524,-252 524,-216 584,-216 584,-252"/>
<text text-anchor="middle" x="554" y="-231.5" font-family="Sans" font-size="10.00" fill="#ffffff">PWMLED</text>
</g>
<!-- PWMOutputDevice -->
<g id="node12" class="node">
<title>PWMOutputDevice</title>
<polygon fill="#2980b9" stroke="#2980b9" points="484,-252 376,-252 376,-216 484,-216 484,-252"/>
<text text-anchor="middle" x="430" y="-231.5" font-family="Sans" font-size="10.00" fill="#ffffff">PWMOutputDevice</text>
</g>
<!-- PWMLED&#45;&gt;PWMOutputDevice -->
<g id="edge9" class="edge">
<title>PWMLED&#45;&gt;PWMOutputDevice</title>
<path fill="none" stroke="black" d="M523.78,-234C514.9,-234 504.77,-234 494.54,-234"/>
<polygon fill="black" stroke="black" points="494.33,-230.5 484.33,-234 494.33,-237.5 494.33,-230.5"/>
</g>
<!-- PWMOutputDevice&#45;&gt;OutputDevice -->
<g id="edge10" class="edge">
<title>PWMOutputDevice&#45;&gt;OutputDevice</title>
<path fill="none" stroke="black" d="M375.65,-234C362.07,-234 347.53,-234 334.1,-234"/>
<polygon fill="black" stroke="black" points="334.08,-230.5 324.08,-234 334.08,-237.5 334.08,-230.5"/>
</g>
<!-- PhaseEnableMotor -->
<g id="node13" class="node">
<title>PhaseEnableMotor</title>
<polygon fill="#2980b9" stroke="#2980b9" points="336,-90 229,-90 229,-54 336,-54 336,-90"/>
<text text-anchor="middle" x="282.5" y="-69.5" font-family="Sans" font-size="10.00" fill="#ffffff">PhaseEnableMotor</text>
</g>
<!-- PhaseEnableMotor&#45;&gt;CompositeDevice -->
<g id="edge11" class="edge">
<title>PhaseEnableMotor&#45;&gt;CompositeDevice</title>
<path fill="none" stroke="black" d="M234.83,-90.13C223.25,-94.63 210.73,-99.49 198.75,-104.15"/>
<polygon fill="black" stroke="black" points="197.34,-100.94 189.29,-107.82 199.87,-107.47 197.34,-100.94"/>
</g>
<!-- RGBLED -->
<g id="node14" class="node">
<title>RGBLED</title>
<polygon fill="#2980b9" stroke="#2980b9" points="169.5,-198 113.5,-198 113.5,-162 169.5,-162 169.5,-198"/>
<text text-anchor="middle" x="141.5" y="-177.5" font-family="Sans" font-size="10.00" fill="#ffffff">RGBLED</text>
</g>
<!-- RGBLED&#45;&gt;Device -->
<g id="edge12" class="edge">
<title>RGBLED&#45;&gt;Device</title>
<path fill="none" stroke="black" d="M113.27,-180C98.54,-180 80.17,-180 64.25,-180"/>
<polygon fill="black" stroke="black" points="64.21,-176.5 54.21,-180 64.21,-183.5 64.21,-176.5"/>
</g>
<!-- TonalBuzzer -->
<g id="node15" class="node">
<title>TonalBuzzer</title>
<polygon fill="#2980b9" stroke="#2980b9" points="320,-36 245,-36 245,0 320,0 320,-36"/>
<text text-anchor="middle" x="282.5" y="-15.5" font-family="Sans" font-size="10.00" fill="#ffffff">TonalBuzzer</text>
</g>
<!-- TonalBuzzer&#45;&gt;CompositeDevice -->
<g id="edge14" class="edge">
<title>TonalBuzzer&#45;&gt;CompositeDevice</title>
<path fill="none" stroke="black" d="M244.86,-35.17C239.4,-38.21 233.94,-41.52 229,-45 205.96,-61.24 182.8,-83.3 166.25,-100.29"/>
<polygon fill="black" stroke="black" points="163.54,-98.07 159.14,-107.71 168.59,-102.92 163.54,-98.07"/>
</g>
</g>
</svg>
