<?xml version="1.0" encoding="UTF-8" standalone="no"?>
<!DOCTYPE svg PUBLIC "-//W3C//DTD SVG 1.1//EN"
 "http://www.w3.org/Graphics/SVG/1.1/DTD/svg11.dtd">
<!-- Generated by graphviz version 2.40.1 (20161225.0304)
 -->
<!-- Title: classes Pages: 1 -->
<svg width="591pt" height="368pt"
 viewBox="0.00 0.00 591.00 368.00" xmlns="http://www.w3.org/2000/svg" xmlns:xlink="http://www.w3.org/1999/xlink">
<g id="graph0" class="graph" transform="scale(1 1) rotate(0) translate(4 364)">
<title>classes</title>
<polygon fill="#ffffff" stroke="transparent" points="-4,4 -4,-364 587,-364 587,4 -4,4"/>
<!-- CompositeDevice -->
<g id="node1" class="node">
<title>CompositeDevice</title>
<polygon fill="#9ec6e0" stroke="#9ec6e0" points="193,-144 90,-144 90,-108 193,-108 193,-144"/>
<text text-anchor="middle" x="141.5" y="-123.5" font-family="Sans" font-size="10.00" fill="#000000">CompositeDevice</text>
</g>
<!-- Device -->
<g id="node2" class="node">
<title>Device</title>
<polygon fill="#9ec6e0" stroke="#9ec6e0" points="54,-198 0,-198 0,-162 54,-162 54,-198"/>
<text text-anchor="middle" x="27" y="-177.5" font-family="Sans" font-size="10.00" fill="#000000">Device</text>
</g>
<!-- CompositeDevice&#45;&gt;Device -->
<g id="edge3" class="edge">
<title>CompositeDevice&#45;&gt;Device</title>
<path fill="none" stroke="#000000" d="M103.0546,-144.1314C90.3189,-150.1378 76.1866,-156.8028 63.5939,-162.7417"/>
<polygon fill="#000000" stroke="#000000" points="61.8647,-159.6875 54.3131,-167.1187 64.8507,-166.0187 61.8647,-159.6875"/>
</g>
<!-- GPIODevice -->
<g id="node3" class="node">
<title>GPIODevice</title>
<polygon fill="#9ec6e0" stroke="#9ec6e0" points="178.5,-252 104.5,-252 104.5,-216 178.5,-216 178.5,-252"/>
<text text-anchor="middle" x="141.5" y="-231.5" font-family="Sans" font-size="10.00" fill="#000000">GPIODevice</text>
</g>
<!-- GPIODevice&#45;&gt;Device -->
<g id="edge5" class="edge">
<title>GPIODevice&#45;&gt;Device</title>
<path fill="none" stroke="#000000" d="M104.3251,-216.4677C91.1887,-210.2724 76.4377,-203.3156 63.3689,-197.1522"/>
<polygon fill="#000000" stroke="#000000" points="64.7349,-193.9267 54.1973,-192.8267 61.7489,-200.2579 64.7349,-193.9267"/>
</g>
<!-- AngularServo -->
<g id="node4" class="node">
<title>AngularServo</title>
<polygon fill="#2980b9" stroke="#2980b9" points="471,-198 389,-198 389,-162 471,-162 471,-198"/>
<text text-anchor="middle" x="430" y="-177.5" font-family="Sans" font-size="10.00" fill="#ffffff">AngularServo</text>
</g>
<!-- Servo -->
<g id="node5" class="node">
<title>Servo</title>
<polygon fill="#2980b9" stroke="#2980b9" points="309.5,-198 255.5,-198 255.5,-162 309.5,-162 309.5,-198"/>
<text text-anchor="middle" x="282.5" y="-177.5" font-family="Sans" font-size="10.00" fill="#ffffff">Servo</text>
</g>
<!-- AngularServo&#45;&gt;Servo -->
<g id="edge1" class="edge">
<title>AngularServo&#45;&gt;Servo</title>
<path fill="none" stroke="#000000" d="M388.913,-180C367.3281,-180 341.0652,-180 320.0312,-180"/>
<polygon fill="#000000" stroke="#000000" points="319.8656,-176.5001 309.8656,-180 319.8656,-183.5001 319.8656,-176.5001"/>
</g>
<!-- Servo&#45;&gt;CompositeDevice -->
<g id="edge13" class="edge">
<title>Servo&#45;&gt;CompositeDevice</title>
<path fill="none" stroke="#000000" d="M255.3138,-169.5883C239.0836,-163.3725 217.8531,-155.2416 198.1304,-147.6882"/>
<polygon fill="#000000" stroke="#000000" points="199.1883,-144.3456 188.598,-144.0375 196.6848,-150.8826 199.1883,-144.3456"/>
</g>
<!-- Buzzer -->
<g id="node6" class="node">
<title>Buzzer</title>
<polygon fill="#2980b9" stroke="#2980b9" points="580.5,-360 526.5,-360 526.5,-324 580.5,-324 580.5,-360"/>
<text text-anchor="middle" x="553.5" y="-339.5" font-family="Sans" font-size="10.00" fill="#ffffff">Buzzer</text>
</g>
<!-- DigitalOutputDevice -->
<g id="node7" class="node">
<title>DigitalOutputDevice</title>
<polygon fill="#2980b9" stroke="#2980b9" points="488,-306 372,-306 372,-270 488,-270 488,-306"/>
<text text-anchor="middle" x="430" y="-285.5" font-family="Sans" font-size="10.00" fill="#ffffff">DigitalOutputDevice</text>
</g>
<!-- Buzzer&#45;&gt;DigitalOutputDevice -->
<g id="edge2" class="edge">
<title>Buzzer&#45;&gt;DigitalOutputDevice</title>
<path fill="none" stroke="#000000" d="M526.3974,-330.1495C513.1085,-324.3389 496.6543,-317.1444 481.1245,-310.354"/>
<polygon fill="#000000" stroke="#000000" points="482.1757,-306.9938 471.6111,-306.1943 479.3713,-313.4075 482.1757,-306.9938"/>
</g>
<!-- OutputDevice -->
<g id="node8" class="node">
<title>OutputDevice</title>
<polygon fill="#2980b9" stroke="#2980b9" points="324,-252 241,-252 241,-216 324,-216 324,-252"/>
<text text-anchor="middle" x="282.5" y="-231.5" font-family="Sans" font-size="10.00" fill="#ffffff">OutputDevice</text>
</g>
<!-- DigitalOutputDevice&#45;&gt;OutputDevice -->
<g id="edge4" class="edge">
<title>DigitalOutputDevice&#45;&gt;OutputDevice</title>
<path fill="none" stroke="#000000" d="M380.4743,-269.8686C365.5078,-264.3893 349.044,-258.3619 333.9547,-252.8377"/>
<polygon fill="#000000" stroke="#000000" points="334.8606,-249.4422 324.2669,-249.2909 332.4541,-256.0155 334.8606,-249.4422"/>
</g>
<!-- OutputDevice&#45;&gt;GPIODevice -->
<g id="edge8" class="edge">
<title>OutputDevice&#45;&gt;GPIODevice</title>
<path fill="none" stroke="#000000" d="M240.958,-234C224.6783,-234 205.9051,-234 189.0847,-234"/>
<polygon fill="#000000" stroke="#000000" points="188.9037,-230.5001 178.9037,-234 188.9036,-237.5001 188.9037,-230.5001"/>
</g>
<!-- LED -->
<g id="node9" class="node">
<title>LED</title>
<polygon fill="#2980b9" stroke="#2980b9" points="580.5,-306 526.5,-306 526.5,-270 580.5,-270 580.5,-306"/>
<text text-anchor="middle" x="553.5" y="-285.5" font-family="Sans" font-size="10.00" fill="#ffffff">LED</text>
</g>
<!-- LED&#45;&gt;DigitalOutputDevice -->
<g id="edge6" class="edge">
<title>LED&#45;&gt;DigitalOutputDevice</title>
<path fill="none" stroke="#000000" d="M526.3974,-288C517.9301,-288 508.1778,-288 498.1983,-288"/>
<polygon fill="#000000" stroke="#000000" points="498.1824,-284.5001 488.1824,-288 498.1823,-291.5001 498.1824,-284.5001"/>
</g>
<!-- Motor -->
<g id="node10" class="node">
<title>Motor</title>
<polygon fill="#2980b9" stroke="#2980b9" points="309.5,-144 255.5,-144 255.5,-108 309.5,-108 309.5,-144"/>
<text text-anchor="middle" x="282.5" y="-123.5" font-family="Sans" font-size="10.00" fill="#ffffff">Motor</text>
</g>
<!-- Motor&#45;&gt;CompositeDevice -->
<g id="edge7" class="edge">
<title>Motor&#45;&gt;CompositeDevice</title>
<path fill="none" stroke="#000000" d="M255.3138,-126C240.4591,-126 221.4156,-126 203.1732,-126"/>
<polygon fill="#000000" stroke="#000000" points="203.1526,-122.5001 193.1526,-126 203.1526,-129.5001 203.1526,-122.5001"/>
</g>
<!-- PWMLED -->
<g id="node11" class="node">
<title>PWMLED</title>
<polygon fill="#2980b9" stroke="#2980b9" points="583,-252 524,-252 524,-216 583,-216 583,-252"/>
<text text-anchor="middle" x="553.5" y="-231.5" font-family="Sans" font-size="10.00" fill="#ffffff">PWMLED</text>
</g>
<!-- PWMOutputDevice -->
<g id="node12" class="node">
<title>PWMOutputDevice</title>
<polygon fill="#2980b9" stroke="#2980b9" points="483.5,-252 376.5,-252 376.5,-216 483.5,-216 483.5,-252"/>
<text text-anchor="middle" x="430" y="-231.5" font-family="Sans" font-size="10.00" fill="#ffffff">PWMOutputDevice</text>
</g>
<!-- PWMLED&#45;&gt;PWMOutputDevice -->
<g id="edge9" class="edge">
<title>PWMLED&#45;&gt;PWMOutputDevice</title>
<path fill="none" stroke="#000000" d="M523.9187,-234C514.8336,-234 504.4597,-234 493.9996,-234"/>
<polygon fill="#000000" stroke="#000000" points="493.9837,-230.5001 483.9836,-234 493.9836,-237.5001 493.9837,-230.5001"/>
</g>
<!-- PWMOutputDevice&#45;&gt;OutputDevice -->
<g id="edge10" class="edge">
<title>PWMOutputDevice&#45;&gt;OutputDevice</title>
<path fill="none" stroke="#000000" d="M376.3319,-234C362.6789,-234 348.032,-234 334.4655,-234"/>
<polygon fill="#000000" stroke="#000000" points="334.3361,-230.5001 324.3361,-234 334.3361,-237.5001 334.3361,-230.5001"/>
</g>
<!-- PhaseEnableMotor -->
<g id="node13" class="node">
<title>PhaseEnableMotor</title>
<polygon fill="#2980b9" stroke="#2980b9" points="336,-90 229,-90 229,-54 336,-54 336,-90"/>
<text text-anchor="middle" x="282.5" y="-69.5" font-family="Sans" font-size="10.00" fill="#ffffff">PhaseEnableMotor</text>
</g>
<!-- PhaseEnableMotor&#45;&gt;CompositeDevice -->
<g id="edge11" class="edge">
<title>PhaseEnableMotor&#45;&gt;CompositeDevice</title>
<path fill="none" stroke="#000000" d="M235.1568,-90.1314C223.415,-94.6283 210.7091,-99.4944 198.5566,-104.1485"/>
<polygon fill="#000000" stroke="#000000" points="197.045,-100.9795 188.9583,-107.8245 199.5486,-107.5165 197.045,-100.9795"/>
</g>
<!-- RGBLED -->
<g id="node14" class="node">
<title>RGBLED</title>
<polygon fill="#2980b9" stroke="#2980b9" points="169.5,-198 113.5,-198 113.5,-162 169.5,-162 169.5,-198"/>
<text text-anchor="middle" x="141.5" y="-177.5" font-family="Sans" font-size="10.00" fill="#ffffff">RGBLED</text>
</g>
<!-- RGBLED&#45;&gt;Device -->
<g id="edge12" class="edge">
<title>RGBLED&#45;&gt;Device</title>
<path fill="none" stroke="#000000" d="M113.4901,-180C98.7179,-180 80.3952,-180 64.422,-180"/>
<polygon fill="#000000" stroke="#000000" points="64.3256,-176.5001 54.3256,-180 64.3255,-183.5001 64.3256,-176.5001"/>
</g>
<!-- TonalBuzzer -->
<g id="node15" class="node">
<title>TonalBuzzer</title>
<polygon fill="#2980b9" stroke="#2980b9" points="320,-36 245,-36 245,0 320,0 320,-36"/>
<text text-anchor="middle" x="282.5" y="-15.5" font-family="Sans" font-size="10.00" fill="#ffffff">TonalBuzzer</text>
</g>
<!-- TonalBuzzer&#45;&gt;CompositeDevice -->
<g id="edge14" class="edge">
<title>TonalBuzzer&#45;&gt;CompositeDevice</title>
<path fill="none" stroke="#000000" d="M244.8883,-35.2921C239.4125,-38.2889 233.956,-41.5574 229,-45 205.7053,-61.1811 182.281,-83.2445 165.5388,-100.2583"/>
<polygon fill="#000000" stroke="#000000" points="162.79,-98.0653 158.3411,-107.6809 167.8153,-102.9384 162.79,-98.0653"/>
</g>
</g>
</svg>
