<?xml version="1.0" encoding="UTF-8" standalone="no"?>
<!DOCTYPE svg PUBLIC "-//W3C//DTD SVG 1.1//EN"
 "http://www.w3.org/Graphics/SVG/1.1/DTD/svg11.dtd">
<!-- Generated by graphviz version 2.38.0 (20140413.2041)
 -->
<!-- Title: classes Pages: 1 -->
<svg width="576pt" height="584pt"
 viewBox="0.00 0.00 576.00 584.00" xmlns="http://www.w3.org/2000/svg" xmlns:xlink="http://www.w3.org/1999/xlink">
<g id="graph0" class="graph" transform="scale(1 1) rotate(0) translate(4 580)">
<title>classes</title>
<polygon fill="white" stroke="none" points="-4,4 -4,-580 572,-580 572,4 -4,4"/>
<!-- AnalogInputDevice -->
<g id="node1" class="node"><title>AnalogInputDevice</title>
<polygon fill="#9ec6e0" stroke="#9ec6e0" points="283,-333 187,-333 187,-297 283,-297 283,-333"/>
<text text-anchor="middle" x="235" y="-312.5" font-family="Arial" font-size="10.00" fill="#000000">AnalogInputDevice</text>
</g>
<!-- SPIDevice -->
<g id="node8" class="node"><title>SPIDevice</title>
<polygon fill="#9ec6e0" stroke="#9ec6e0" points="151,-333 90,-333 90,-297 151,-297 151,-333"/>
<text text-anchor="middle" x="120.5" y="-312.5" font-family="Arial" font-size="10.00" fill="#000000">SPIDevice</text>
</g>
<!-- AnalogInputDevice&#45;&gt;SPIDevice -->
<g id="edge1" class="edge"><title>AnalogInputDevice&#45;&gt;SPIDevice</title>
<path fill="none" stroke="black" d="M186.942,-315C178.39,-315 169.547,-315 161.232,-315"/>
<polygon fill="black" stroke="black" points="161.044,-311.5 151.044,-315 161.044,-318.5 161.044,-311.5"/>
</g>
<!-- Device -->
<g id="node2" class="node"><title>Device</title>
<polygon fill="#9ec6e0" stroke="#9ec6e0" points="54,-333 0,-333 0,-297 54,-297 54,-333"/>
<text text-anchor="middle" x="27" y="-312.5" font-family="Arial" font-size="10.00" fill="#000000">Device</text>
</g>
<!-- MCP30xx -->
<g id="node3" class="node"><title>MCP30xx</title>
<polygon fill="#9ec6e0" stroke="#9ec6e0" points="473,-468 414,-468 414,-432 473,-432 473,-468"/>
<text text-anchor="middle" x="443.5" y="-447.5" font-family="Arial" font-size="10.00" fill="#000000">MCP30xx</text>
</g>
<!-- MCP3xxx -->
<g id="node7" class="node"><title>MCP3xxx</title>
<polygon fill="#9ec6e0" stroke="#9ec6e0" points="378,-333 319,-333 319,-297 378,-297 378,-333"/>
<text text-anchor="middle" x="348.5" y="-312.5" font-family="Arial" font-size="10.00" fill="#000000">MCP3xxx</text>
</g>
<!-- MCP30xx&#45;&gt;MCP3xxx -->
<g id="edge7" class="edge"><title>MCP30xx&#45;&gt;MCP3xxx</title>
<path fill="none" stroke="black" d="M429.958,-431.793C414.011,-408.644 386.348,-368.489 367.982,-341.829"/>
<polygon fill="black" stroke="black" points="370.696,-339.599 362.141,-333.349 364.932,-343.57 370.696,-339.599"/>
</g>
<!-- MCP32xx -->
<g id="node4" class="node"><title>MCP32xx</title>
<polygon fill="#9ec6e0" stroke="#9ec6e0" points="473,-306 414,-306 414,-270 473,-270 473,-306"/>
<text text-anchor="middle" x="443.5" y="-285.5" font-family="Arial" font-size="10.00" fill="#000000">MCP32xx</text>
</g>
<!-- MCP32xx&#45;&gt;MCP3xxx -->
<g id="edge13" class="edge"><title>MCP32xx&#45;&gt;MCP3xxx</title>
<path fill="none" stroke="black" d="M413.838,-296.321C405.706,-298.682 396.716,-301.292 388.098,-303.794"/>
<polygon fill="black" stroke="black" points="386.855,-300.51 378.227,-306.66 388.807,-307.233 386.855,-300.51"/>
</g>
<!-- MCP33xx -->
<g id="node5" class="node"><title>MCP33xx</title>
<polygon fill="#9ec6e0" stroke="#9ec6e0" points="473,-117 414,-117 414,-81 473,-81 473,-117"/>
<text text-anchor="middle" x="443.5" y="-96.5" font-family="Arial" font-size="10.00" fill="#000000">MCP33xx</text>
</g>
<!-- MCP33xx&#45;&gt;MCP3xxx -->
<g id="edge17" class="edge"><title>MCP33xx&#45;&gt;MCP3xxx</title>
<path fill="none" stroke="black" d="M434.731,-117.045C418.456,-154.844 380.694,-242.549 361.365,-287.444"/>
<polygon fill="black" stroke="black" points="358.052,-286.286 357.312,-296.855 364.482,-289.054 358.052,-286.286"/>
</g>
<!-- MCP3xx2 -->
<g id="node6" class="node"><title>MCP3xx2</title>
<polygon fill="#9ec6e0" stroke="#9ec6e0" points="473,-360 414,-360 414,-324 473,-324 473,-360"/>
<text text-anchor="middle" x="443.5" y="-339.5" font-family="Arial" font-size="10.00" fill="#000000">MCP3xx2</text>
</g>
<!-- MCP3xx2&#45;&gt;MCP3xxx -->
<g id="edge18" class="edge"><title>MCP3xx2&#45;&gt;MCP3xxx</title>
<path fill="none" stroke="black" d="M413.838,-333.679C405.706,-331.318 396.716,-328.708 388.098,-326.206"/>
<polygon fill="black" stroke="black" points="388.807,-322.767 378.227,-323.34 386.855,-329.49 388.807,-322.767"/>
</g>
<!-- MCP3xxx&#45;&gt;AnalogInputDevice -->
<g id="edge19" class="edge"><title>MCP3xxx&#45;&gt;AnalogInputDevice</title>
<path fill="none" stroke="black" d="M318.786,-315C310.995,-315 302.274,-315 293.495,-315"/>
<polygon fill="black" stroke="black" points="293.215,-311.5 283.215,-315 293.215,-318.5 293.215,-311.5"/>
</g>
<!-- SPIDevice&#45;&gt;Device -->
<g id="edge20" class="edge"><title>SPIDevice&#45;&gt;Device</title>
<path fill="none" stroke="black" d="M89.7926,-315C81.6309,-315 72.6893,-315 64.2059,-315"/>
<polygon fill="black" stroke="black" points="64.1686,-311.5 54.1685,-315 64.1685,-318.5 64.1686,-311.5"/>
</g>
<!-- MCP3001 -->
<g id="node9" class="node"><title>MCP3001</title>
<polygon fill="#2980b9" stroke="#2980b9" points="568,-576 509,-576 509,-540 568,-540 568,-576"/>
<text text-anchor="middle" x="538.5" y="-555.5" font-family="Arial" font-size="10.00" fill="#ffffff">MCP3001</text>
</g>
<!-- MCP3001&#45;&gt;MCP30xx -->
<g id="edge2" class="edge"><title>MCP3001&#45;&gt;MCP30xx</title>
<path fill="none" stroke="black" d="M517.522,-539.757C514.597,-536.892 511.673,-533.913 509,-531 492.958,-513.517 476.312,-492.53 463.949,-476.299"/>
<polygon fill="black" stroke="black" points="466.72,-474.16 457.9,-468.289 461.133,-478.378 466.72,-474.16"/>
</g>
<!-- MCP3002 -->
<g id="node10" class="node"><title>MCP3002</title>
<polygon fill="#2980b9" stroke="#2980b9" points="568,-414 509,-414 509,-378 568,-378 568,-414"/>
<text text-anchor="middle" x="538.5" y="-393.5" font-family="Arial" font-size="10.00" fill="#ffffff">MCP3002</text>
</g>
<!-- MCP3002&#45;&gt;MCP30xx -->
<g id="edge3" class="edge"><title>MCP3002&#45;&gt;MCP30xx</title>
<path fill="none" stroke="black" d="M508.838,-412.642C500.352,-417.57 490.932,-423.039 481.976,-428.239"/>
<polygon fill="black" stroke="black" points="480.118,-425.271 473.227,-433.32 483.633,-431.325 480.118,-425.271"/>
</g>
<!-- MCP3002&#45;&gt;MCP3xx2 -->
<g id="edge4" class="edge"><title>MCP3002&#45;&gt;MCP3xx2</title>
<path fill="none" stroke="black" d="M508.838,-379.358C500.352,-374.43 490.932,-368.961 481.976,-363.761"/>
<polygon fill="black" stroke="black" points="483.633,-360.675 473.227,-358.68 480.118,-366.729 483.633,-360.675"/>
</g>
<!-- MCP3004 -->
<g id="node11" class="node"><title>MCP3004</title>
<polygon fill="#2980b9" stroke="#2980b9" points="568,-522 509,-522 509,-486 568,-486 568,-522"/>
<text text-anchor="middle" x="538.5" y="-501.5" font-family="Arial" font-size="10.00" fill="#ffffff">MCP3004</text>
</g>
<!-- MCP3004&#45;&gt;MCP30xx -->
<g id="edge5" class="edge"><title>MCP3004&#45;&gt;MCP30xx</title>
<path fill="none" stroke="black" d="M508.838,-487.358C500.352,-482.43 490.932,-476.961 481.976,-471.761"/>
<polygon fill="black" stroke="black" points="483.633,-468.675 473.227,-466.68 480.118,-474.729 483.633,-468.675"/>
</g>
<!-- MCP3008 -->
<g id="node12" class="node"><title>MCP3008</title>
<polygon fill="#2980b9" stroke="#2980b9" points="568,-468 509,-468 509,-432 568,-432 568,-468"/>
<text text-anchor="middle" x="538.5" y="-447.5" font-family="Arial" font-size="10.00" fill="#ffffff">MCP3008</text>
</g>
<!-- MCP3008&#45;&gt;MCP30xx -->
<g id="edge6" class="edge"><title>MCP3008&#45;&gt;MCP30xx</title>
<path fill="none" stroke="black" d="M508.838,-450C500.794,-450 491.911,-450 483.379,-450"/>
<polygon fill="black" stroke="black" points="483.227,-446.5 473.227,-450 483.227,-453.5 483.227,-446.5"/>
</g>
<!-- MCP3201 -->
<g id="node13" class="node"><title>MCP3201</title>
<polygon fill="#2980b9" stroke="#2980b9" points="568,-306 509,-306 509,-270 568,-270 568,-306"/>
<text text-anchor="middle" x="538.5" y="-285.5" font-family="Arial" font-size="10.00" fill="#ffffff">MCP3201</text>
</g>
<!-- MCP3201&#45;&gt;MCP32xx -->
<g id="edge8" class="edge"><title>MCP3201&#45;&gt;MCP32xx</title>
<path fill="none" stroke="black" d="M508.838,-288C500.794,-288 491.911,-288 483.379,-288"/>
<polygon fill="black" stroke="black" points="483.227,-284.5 473.227,-288 483.227,-291.5 483.227,-284.5"/>
</g>
<!-- MCP3202 -->
<g id="node14" class="node"><title>MCP3202</title>
<polygon fill="#2980b9" stroke="#2980b9" points="568,-360 509,-360 509,-324 568,-324 568,-360"/>
<text text-anchor="middle" x="538.5" y="-339.5" font-family="Arial" font-size="10.00" fill="#ffffff">MCP3202</text>
</g>
<!-- MCP3202&#45;&gt;MCP32xx -->
<g id="edge9" class="edge"><title>MCP3202&#45;&gt;MCP32xx</title>
<path fill="none" stroke="black" d="M508.838,-325.358C500.352,-320.43 490.932,-314.961 481.976,-309.761"/>
<polygon fill="black" stroke="black" points="483.633,-306.675 473.227,-304.68 480.118,-312.729 483.633,-306.675"/>
</g>
<!-- MCP3202&#45;&gt;MCP3xx2 -->
<g id="edge10" class="edge"><title>MCP3202&#45;&gt;MCP3xx2</title>
<path fill="none" stroke="black" d="M508.838,-342C500.794,-342 491.911,-342 483.379,-342"/>
<polygon fill="black" stroke="black" points="483.227,-338.5 473.227,-342 483.227,-345.5 483.227,-338.5"/>
</g>
<!-- MCP3204 -->
<g id="node15" class="node"><title>MCP3204</title>
<polygon fill="#2980b9" stroke="#2980b9" points="568,-252 509,-252 509,-216 568,-216 568,-252"/>
<text text-anchor="middle" x="538.5" y="-231.5" font-family="Arial" font-size="10.00" fill="#ffffff">MCP3204</text>
</g>
<!-- MCP3204&#45;&gt;MCP32xx -->
<g id="edge11" class="edge"><title>MCP3204&#45;&gt;MCP32xx</title>
<path fill="none" stroke="black" d="M508.838,-250.642C500.352,-255.57 490.932,-261.039 481.976,-266.239"/>
<polygon fill="black" stroke="black" points="480.118,-263.271 473.227,-271.32 483.633,-269.325 480.118,-263.271"/>
</g>
<!-- MCP3208 -->
<g id="node16" class="node"><title>MCP3208</title>
<polygon fill="#2980b9" stroke="#2980b9" points="568,-198 509,-198 509,-162 568,-162 568,-198"/>
<text text-anchor="middle" x="538.5" y="-177.5" font-family="Arial" font-size="10.00" fill="#ffffff">MCP3208</text>
</g>
<!-- MCP3208&#45;&gt;MCP32xx -->
<g id="edge12" class="edge"><title>MCP3208&#45;&gt;MCP32xx</title>
<path fill="none" stroke="black" d="M517.522,-198.243C514.597,-201.108 511.673,-204.087 509,-207 492.958,-224.483 476.312,-245.47 463.949,-261.701"/>
<polygon fill="black" stroke="black" points="461.133,-259.622 457.9,-269.711 466.72,-263.84 461.133,-259.622"/>
</g>
<!-- MCP3301 -->
<g id="node17" class="node"><title>MCP3301</title>
<polygon fill="#2980b9" stroke="#2980b9" points="568,-144 509,-144 509,-108 568,-108 568,-144"/>
<text text-anchor="middle" x="538.5" y="-123.5" font-family="Arial" font-size="10.00" fill="#ffffff">MCP3301</text>
</g>
<!-- MCP3301&#45;&gt;MCP33xx -->
<g id="edge14" class="edge"><title>MCP3301&#45;&gt;MCP33xx</title>
<path fill="none" stroke="black" d="M508.838,-117.679C500.706,-115.318 491.716,-112.708 483.098,-110.206"/>
<polygon fill="black" stroke="black" points="483.807,-106.767 473.227,-107.34 481.855,-113.49 483.807,-106.767"/>
</g>
<!-- MCP3302 -->
<g id="node18" class="node"><title>MCP3302</title>
<polygon fill="#2980b9" stroke="#2980b9" points="568,-90 509,-90 509,-54 568,-54 568,-90"/>
<text text-anchor="middle" x="538.5" y="-69.5" font-family="Arial" font-size="10.00" fill="#ffffff">MCP3302</text>
</g>
<!-- MCP3302&#45;&gt;MCP33xx -->
<g id="edge15" class="edge"><title>MCP3302&#45;&gt;MCP33xx</title>
<path fill="none" stroke="black" d="M508.838,-80.3212C500.706,-82.6822 491.716,-85.2923 483.098,-87.7941"/>
<polygon fill="black" stroke="black" points="481.855,-84.5104 473.227,-90.6598 483.807,-91.2328 481.855,-84.5104"/>
</g>
<!-- MCP3304 -->
<g id="node19" class="node"><title>MCP3304</title>
<polygon fill="#2980b9" stroke="#2980b9" points="568,-36 509,-36 509,-0 568,-0 568,-36"/>
<text text-anchor="middle" x="538.5" y="-15.5" font-family="Arial" font-size="10.00" fill="#ffffff">MCP3304</text>
</g>
<!-- MCP3304&#45;&gt;MCP33xx -->
<g id="edge16" class="edge"><title>MCP3304&#45;&gt;MCP33xx</title>
<path fill="none" stroke="black" d="M516.397,-36.3802C503.584,-47.5395 487.061,-61.9309 473.086,-74.1027"/>
<polygon fill="black" stroke="black" points="470.441,-71.7645 465.199,-80.9716 475.039,-77.0431 470.441,-71.7645"/>
</g>
</g>
</svg>
