<?xml version="1.0" encoding="UTF-8" standalone="no"?>
<!DOCTYPE svg PUBLIC "-//W3C//DTD SVG 1.1//EN"
 "http://www.w3.org/Graphics/SVG/1.1/DTD/svg11.dtd">
<!-- Generated by graphviz version 2.36.0 (20140111.2315)
 -->
<!-- Title: classes Pages: 1 -->
<svg width="870pt" height="404pt"
 viewBox="0.00 0.00 870.00 404.00" xmlns="http://www.w3.org/2000/svg" xmlns:xlink="http://www.w3.org/1999/xlink">
<g id="graph0" class="graph" transform="scale(1 1) rotate(0) translate(4 400)">
<title>classes</title>
<polygon fill="white" stroke="none" points="-4,4 -4,-400 866,-400 866,4 -4,4"/>
<!-- Device -->
<g id="node1" class="node"><title>Device</title>
<polygon fill="#9ec6e0" stroke="#9ec6e0" points="498,-396 444,-396 444,-360 498,-360 498,-396"/>
<text text-anchor="middle" x="471" y="-375.5" font-family="Sans" font-size="10.00" fill="#000000">Device</text>
</g>
<!-- SPIDevice -->
<g id="node2" class="node"><title>SPIDevice</title>
<polygon fill="#9ec6e0" stroke="#9ec6e0" points="503,-324 439,-324 439,-288 503,-288 503,-324"/>
<text text-anchor="middle" x="471" y="-303.5" font-family="Sans" font-size="10.00" fill="#000000">SPIDevice</text>
</g>
<!-- SPIDevice&#45;&gt;Device -->
<g id="edge1" class="edge"><title>SPIDevice&#45;&gt;Device</title>
<path fill="none" stroke="black" d="M471,-324.303C471,-332.017 471,-341.288 471,-349.888"/>
<polygon fill="black" stroke="black" points="467.5,-349.896 471,-359.896 474.5,-349.896 467.5,-349.896"/>
</g>
<!-- AnalogInputDevice -->
<g id="node3" class="node"><title>AnalogInputDevice</title>
<polygon fill="#9ec6e0" stroke="#9ec6e0" points="524,-252 418,-252 418,-216 524,-216 524,-252"/>
<text text-anchor="middle" x="471" y="-231.5" font-family="Sans" font-size="10.00" fill="#000000">AnalogInputDevice</text>
</g>
<!-- AnalogInputDevice&#45;&gt;SPIDevice -->
<g id="edge2" class="edge"><title>AnalogInputDevice&#45;&gt;SPIDevice</title>
<path fill="none" stroke="black" d="M471,-252.303C471,-260.017 471,-269.288 471,-277.888"/>
<polygon fill="black" stroke="black" points="467.5,-277.896 471,-287.896 474.5,-277.896 467.5,-277.896"/>
</g>
<!-- MCP3xxx -->
<g id="node4" class="node"><title>MCP3xxx</title>
<polygon fill="#9ec6e0" stroke="#9ec6e0" points="500.5,-180 441.5,-180 441.5,-144 500.5,-144 500.5,-180"/>
<text text-anchor="middle" x="471" y="-159.5" font-family="Sans" font-size="10.00" fill="#000000">MCP3xxx</text>
</g>
<!-- MCP3xxx&#45;&gt;AnalogInputDevice -->
<g id="edge3" class="edge"><title>MCP3xxx&#45;&gt;AnalogInputDevice</title>
<path fill="none" stroke="black" d="M471,-180.303C471,-188.017 471,-197.288 471,-205.888"/>
<polygon fill="black" stroke="black" points="467.5,-205.896 471,-215.896 474.5,-205.896 467.5,-205.896"/>
</g>
<!-- MCP30xx -->
<g id="node5" class="node"><title>MCP30xx</title>
<polygon fill="#9ec6e0" stroke="#9ec6e0" points="221,-108 161,-108 161,-72 221,-72 221,-108"/>
<text text-anchor="middle" x="191" y="-87.5" font-family="Sans" font-size="10.00" fill="#000000">MCP30xx</text>
</g>
<!-- MCP30xx&#45;&gt;MCP3xxx -->
<g id="edge4" class="edge"><title>MCP30xx&#45;&gt;MCP3xxx</title>
<path fill="none" stroke="black" d="M220.7,-98.425C271.447,-111.112 374.849,-136.962 431.579,-151.145"/>
<polygon fill="black" stroke="black" points="431.055,-154.621 441.605,-153.651 432.752,-147.83 431.055,-154.621"/>
</g>
<!-- MCP32xx -->
<g id="node6" class="node"><title>MCP32xx</title>
<polygon fill="#9ec6e0" stroke="#9ec6e0" points="501,-108 441,-108 441,-72 501,-72 501,-108"/>
<text text-anchor="middle" x="471" y="-87.5" font-family="Sans" font-size="10.00" fill="#000000">MCP32xx</text>
</g>
<!-- MCP32xx&#45;&gt;MCP3xxx -->
<g id="edge5" class="edge"><title>MCP32xx&#45;&gt;MCP3xxx</title>
<path fill="none" stroke="black" d="M471,-108.303C471,-116.017 471,-125.288 471,-133.888"/>
<polygon fill="black" stroke="black" points="467.5,-133.896 471,-143.896 474.5,-133.896 467.5,-133.896"/>
</g>
<!-- MCP33xx -->
<g id="node7" class="node"><title>MCP33xx</title>
<polygon fill="#9ec6e0" stroke="#9ec6e0" points="741,-108 681,-108 681,-72 741,-72 741,-108"/>
<text text-anchor="middle" x="711" y="-87.5" font-family="Sans" font-size="10.00" fill="#000000">MCP33xx</text>
</g>
<!-- MCP33xx&#45;&gt;MCP3xxx -->
<g id="edge6" class="edge"><title>MCP33xx&#45;&gt;MCP3xxx</title>
<path fill="none" stroke="black" d="M681.089,-99.724C637.918,-112.316 558.088,-135.599 510.235,-149.556"/>
<polygon fill="black" stroke="black" points="509.154,-146.226 500.534,-152.386 511.114,-152.946 509.154,-146.226"/>
</g>
<!-- MCP3001 -->
<g id="node8" class="node"><title>MCP3001</title>
<polygon fill="#2980b9" stroke="#2980b9" points="62,-36 3.55271e-15,-36 3.55271e-15,-0 62,-0 62,-36"/>
<text text-anchor="middle" x="31" y="-15.5" font-family="Sans" font-size="10.00" fill="#ffffff">MCP3001</text>
</g>
<!-- MCP3001&#45;&gt;MCP30xx -->
<g id="edge7" class="edge"><title>MCP3001&#45;&gt;MCP30xx</title>
<path fill="none" stroke="black" d="M61.8496,-32.4967C87.5187,-43.7269 124.21,-59.7795 151.929,-71.9066"/>
<polygon fill="black" stroke="black" points="150.762,-75.2164 161.327,-76.018 153.568,-68.8032 150.762,-75.2164"/>
</g>
<!-- MCP3002 -->
<g id="node9" class="node"><title>MCP3002</title>
<polygon fill="#2980b9" stroke="#2980b9" points="142,-36 80,-36 80,-0 142,-0 142,-36"/>
<text text-anchor="middle" x="111" y="-15.5" font-family="Sans" font-size="10.00" fill="#ffffff">MCP3002</text>
</g>
<!-- MCP3002&#45;&gt;MCP30xx -->
<g id="edge8" class="edge"><title>MCP3002&#45;&gt;MCP30xx</title>
<path fill="none" stroke="black" d="M130.775,-36.3034C140.754,-45.0345 153.011,-55.7595 163.857,-65.2497"/>
<polygon fill="black" stroke="black" points="161.622,-67.9446 171.452,-71.8957 166.231,-62.6766 161.622,-67.9446"/>
</g>
<!-- MCP3004 -->
<g id="node10" class="node"><title>MCP3004</title>
<polygon fill="#2980b9" stroke="#2980b9" points="222,-36 160,-36 160,-0 222,-0 222,-36"/>
<text text-anchor="middle" x="191" y="-15.5" font-family="Sans" font-size="10.00" fill="#ffffff">MCP3004</text>
</g>
<!-- MCP3004&#45;&gt;MCP30xx -->
<g id="edge9" class="edge"><title>MCP3004&#45;&gt;MCP30xx</title>
<path fill="none" stroke="black" d="M191,-36.3034C191,-44.0173 191,-53.2875 191,-61.8876"/>
<polygon fill="black" stroke="black" points="187.5,-61.8956 191,-71.8957 194.5,-61.8957 187.5,-61.8956"/>
</g>
<!-- MCP3008 -->
<g id="node11" class="node"><title>MCP3008</title>
<polygon fill="#2980b9" stroke="#2980b9" points="302,-36 240,-36 240,-0 302,-0 302,-36"/>
<text text-anchor="middle" x="271" y="-15.5" font-family="Sans" font-size="10.00" fill="#ffffff">MCP3008</text>
</g>
<!-- MCP3008&#45;&gt;MCP30xx -->
<g id="edge10" class="edge"><title>MCP3008&#45;&gt;MCP30xx</title>
<path fill="none" stroke="black" d="M251.225,-36.3034C241.246,-45.0345 228.989,-55.7595 218.143,-65.2497"/>
<polygon fill="black" stroke="black" points="215.769,-62.6766 210.548,-71.8957 220.378,-67.9446 215.769,-62.6766"/>
</g>
<!-- MCP3201 -->
<g id="node12" class="node"><title>MCP3201</title>
<polygon fill="#2980b9" stroke="#2980b9" points="382,-36 320,-36 320,-0 382,-0 382,-36"/>
<text text-anchor="middle" x="351" y="-15.5" font-family="Sans" font-size="10.00" fill="#ffffff">MCP3201</text>
</g>
<!-- MCP3201&#45;&gt;MCP32xx -->
<g id="edge11" class="edge"><title>MCP3201&#45;&gt;MCP32xx</title>
<path fill="none" stroke="black" d="M380.355,-36.1239C396.045,-45.2764 415.557,-56.6583 432.454,-66.515"/>
<polygon fill="black" stroke="black" points="431.13,-69.7947 441.532,-71.8102 434.658,-63.7483 431.13,-69.7947"/>
</g>
<!-- MCP3202 -->
<g id="node13" class="node"><title>MCP3202</title>
<polygon fill="#2980b9" stroke="#2980b9" points="462,-36 400,-36 400,-0 462,-0 462,-36"/>
<text text-anchor="middle" x="431" y="-15.5" font-family="Sans" font-size="10.00" fill="#ffffff">MCP3202</text>
</g>
<!-- MCP3202&#45;&gt;MCP32xx -->
<g id="edge12" class="edge"><title>MCP3202&#45;&gt;MCP32xx</title>
<path fill="none" stroke="black" d="M440.888,-36.3034C445.489,-44.3564 451.06,-54.1055 456.153,-63.0176"/>
<polygon fill="black" stroke="black" points="453.226,-64.9497 461.226,-71.8957 459.304,-61.4767 453.226,-64.9497"/>
</g>
<!-- MCP3204 -->
<g id="node14" class="node"><title>MCP3204</title>
<polygon fill="#2980b9" stroke="#2980b9" points="542,-36 480,-36 480,-0 542,-0 542,-36"/>
<text text-anchor="middle" x="511" y="-15.5" font-family="Sans" font-size="10.00" fill="#ffffff">MCP3204</text>
</g>
<!-- MCP3204&#45;&gt;MCP32xx -->
<g id="edge13" class="edge"><title>MCP3204&#45;&gt;MCP32xx</title>
<path fill="none" stroke="black" d="M501.112,-36.3034C496.511,-44.3564 490.94,-54.1055 485.847,-63.0176"/>
<polygon fill="black" stroke="black" points="482.696,-61.4767 480.774,-71.8957 488.774,-64.9497 482.696,-61.4767"/>
</g>
<!-- MCP3208 -->
<g id="node15" class="node"><title>MCP3208</title>
<polygon fill="#2980b9" stroke="#2980b9" points="622,-36 560,-36 560,-0 622,-0 622,-36"/>
<text text-anchor="middle" x="591" y="-15.5" font-family="Sans" font-size="10.00" fill="#ffffff">MCP3208</text>
</g>
<!-- MCP3208&#45;&gt;MCP32xx -->
<g id="edge14" class="edge"><title>MCP3208&#45;&gt;MCP32xx</title>
<path fill="none" stroke="black" d="M561.645,-36.1239C545.955,-45.2764 526.443,-56.6583 509.546,-66.515"/>
<polygon fill="black" stroke="black" points="507.342,-63.7483 500.468,-71.8102 510.87,-69.7947 507.342,-63.7483"/>
</g>
<!-- MCP3301 -->
<g id="node16" class="node"><title>MCP3301</title>
<polygon fill="#2980b9" stroke="#2980b9" points="702,-36 640,-36 640,-0 702,-0 702,-36"/>
<text text-anchor="middle" x="671" y="-15.5" font-family="Sans" font-size="10.00" fill="#ffffff">MCP3301</text>
</g>
<!-- MCP3301&#45;&gt;MCP33xx -->
<g id="edge15" class="edge"><title>MCP3301&#45;&gt;MCP33xx</title>
<path fill="none" stroke="black" d="M680.888,-36.3034C685.489,-44.3564 691.06,-54.1055 696.153,-63.0176"/>
<polygon fill="black" stroke="black" points="693.226,-64.9497 701.226,-71.8957 699.304,-61.4767 693.226,-64.9497"/>
</g>
<!-- MCP3302 -->
<g id="node17" class="node"><title>MCP3302</title>
<polygon fill="#2980b9" stroke="#2980b9" points="782,-36 720,-36 720,-0 782,-0 782,-36"/>
<text text-anchor="middle" x="751" y="-15.5" font-family="Sans" font-size="10.00" fill="#ffffff">MCP3302</text>
</g>
<!-- MCP3302&#45;&gt;MCP33xx -->
<g id="edge16" class="edge"><title>MCP3302&#45;&gt;MCP33xx</title>
<path fill="none" stroke="black" d="M741.112,-36.3034C736.511,-44.3564 730.94,-54.1055 725.847,-63.0176"/>
<polygon fill="black" stroke="black" points="722.696,-61.4767 720.774,-71.8957 728.774,-64.9497 722.696,-61.4767"/>
</g>
<!-- MCP3304 -->
<g id="node18" class="node"><title>MCP3304</title>
<polygon fill="#2980b9" stroke="#2980b9" points="862,-36 800,-36 800,-0 862,-0 862,-36"/>
<text text-anchor="middle" x="831" y="-15.5" font-family="Sans" font-size="10.00" fill="#ffffff">MCP3304</text>
</g>
<!-- MCP3304&#45;&gt;MCP33xx -->
<g id="edge17" class="edge"><title>MCP3304&#45;&gt;MCP33xx</title>
<path fill="none" stroke="black" d="M801.645,-36.1239C785.955,-45.2764 766.443,-56.6583 749.546,-66.515"/>
<polygon fill="black" stroke="black" points="747.342,-63.7483 740.468,-71.8102 750.87,-69.7947 747.342,-63.7483"/>
</g>
</g>
</svg>
