<?xml version="1.0" encoding="UTF-8" standalone="no"?>
<!DOCTYPE svg PUBLIC "-//W3C//DTD SVG 1.1//EN"
 "http://www.w3.org/Graphics/SVG/1.1/DTD/svg11.dtd">
<!-- Generated by graphviz version 2.40.1 (20161225.0304)
 -->
<!-- Title: classes Pages: 1 -->
<svg width="602pt" height="584pt"
 viewBox="0.00 0.00 602.00 584.00" xmlns="http://www.w3.org/2000/svg" xmlns:xlink="http://www.w3.org/1999/xlink">
<g id="graph0" class="graph" transform="scale(1 1) rotate(0) translate(4 580)">
<title>classes</title>
<polygon fill="#ffffff" stroke="transparent" points="-4,4 -4,-580 598,-580 598,4 -4,4"/>
<!-- AnalogInputDevice -->
<g id="node1" class="node">
<title>AnalogInputDevice</title>
<polygon fill="#9ec6e0" stroke="#9ec6e0" points="300,-333 191,-333 191,-297 300,-297 300,-333"/>
<text text-anchor="middle" x="245.5" y="-312.5" font-family="Sans" font-size="10.00" fill="#000000">AnalogInputDevice</text>
</g>
<!-- SPIDevice -->
<g id="node8" class="node">
<title>SPIDevice</title>
<polygon fill="#9ec6e0" stroke="#9ec6e0" points="155,-333 90,-333 90,-297 155,-297 155,-333"/>
<text text-anchor="middle" x="122.5" y="-312.5" font-family="Sans" font-size="10.00" fill="#000000">SPIDevice</text>
</g>
<!-- AnalogInputDevice&#45;&gt;SPIDevice -->
<g id="edge1" class="edge">
<title>AnalogInputDevice&#45;&gt;SPIDevice</title>
<path fill="none" stroke="#000000" d="M190.8341,-315C182.2626,-315 173.5119,-315 165.2589,-315"/>
<polygon fill="#000000" stroke="#000000" points="165.1225,-311.5001 155.1224,-315 165.1224,-318.5001 165.1225,-311.5001"/>
</g>
<!-- Device -->
<g id="node2" class="node">
<title>Device</title>
<polygon fill="#9ec6e0" stroke="#9ec6e0" points="54,-333 0,-333 0,-297 54,-297 54,-333"/>
<text text-anchor="middle" x="27" y="-312.5" font-family="Sans" font-size="10.00" fill="#000000">Device</text>
</g>
<!-- MCP30xx -->
<g id="node3" class="node">
<title>MCP30xx</title>
<polygon fill="#9ec6e0" stroke="#9ec6e0" points="496,-468 434,-468 434,-432 496,-432 496,-468"/>
<text text-anchor="middle" x="465" y="-447.5" font-family="Sans" font-size="10.00" fill="#000000">MCP30xx</text>
</g>
<!-- MCP3xxx -->
<g id="node7" class="node">
<title>MCP3xxx</title>
<polygon fill="#9ec6e0" stroke="#9ec6e0" points="398,-333 336,-333 336,-297 398,-297 398,-333"/>
<text text-anchor="middle" x="367" y="-312.5" font-family="Sans" font-size="10.00" fill="#000000">MCP3xxx</text>
</g>
<!-- MCP30xx&#45;&gt;MCP3xxx -->
<g id="edge7" class="edge">
<title>MCP30xx&#45;&gt;MCP3xxx</title>
<path fill="none" stroke="#000000" d="M451.7833,-431.7933C434.9059,-408.5438 405.5751,-368.1391 386.224,-341.4821"/>
<polygon fill="#000000" stroke="#000000" points="389.0273,-339.3858 380.3203,-333.3494 383.3625,-343.4981 389.0273,-339.3858"/>
</g>
<!-- MCP32xx -->
<g id="node4" class="node">
<title>MCP32xx</title>
<polygon fill="#9ec6e0" stroke="#9ec6e0" points="496,-306 434,-306 434,-270 496,-270 496,-306"/>
<text text-anchor="middle" x="465" y="-285.5" font-family="Sans" font-size="10.00" fill="#000000">MCP32xx</text>
</g>
<!-- MCP32xx&#45;&gt;MCP3xxx -->
<g id="edge13" class="edge">
<title>MCP32xx&#45;&gt;MCP3xxx</title>
<path fill="none" stroke="#000000" d="M433.9922,-296.543C425.6807,-298.8329 416.5671,-301.3438 407.8124,-303.7558"/>
<polygon fill="#000000" stroke="#000000" points="406.8536,-300.3894 398.1425,-306.4199 408.7129,-307.138 406.8536,-300.3894"/>
</g>
<!-- MCP33xx -->
<g id="node5" class="node">
<title>MCP33xx</title>
<polygon fill="#9ec6e0" stroke="#9ec6e0" points="496,-117 434,-117 434,-81 496,-81 496,-117"/>
<text text-anchor="middle" x="465" y="-96.5" font-family="Sans" font-size="10.00" fill="#000000">MCP33xx</text>
</g>
<!-- MCP33xx&#45;&gt;MCP3xxx -->
<g id="edge17" class="edge">
<title>MCP33xx&#45;&gt;MCP3xxx</title>
<path fill="none" stroke="#000000" d="M456.8131,-117.0445C439.6271,-154.9238 399.7038,-242.9182 379.3743,-287.726"/>
<polygon fill="#000000" stroke="#000000" points="376.1769,-286.3023 375.2325,-296.8549 382.5515,-289.1945 376.1769,-286.3023"/>
</g>
<!-- MCP3xx2 -->
<g id="node6" class="node">
<title>MCP3xx2</title>
<polygon fill="#9ec6e0" stroke="#9ec6e0" points="496,-360 434,-360 434,-324 496,-324 496,-360"/>
<text text-anchor="middle" x="465" y="-339.5" font-family="Sans" font-size="10.00" fill="#000000">MCP3xx2</text>
</g>
<!-- MCP3xx2&#45;&gt;MCP3xxx -->
<g id="edge18" class="edge">
<title>MCP3xx2&#45;&gt;MCP3xxx</title>
<path fill="none" stroke="#000000" d="M433.9922,-333.457C425.6807,-331.1671 416.5671,-328.6562 407.8124,-326.2442"/>
<polygon fill="#000000" stroke="#000000" points="408.7129,-322.862 398.1425,-323.5801 406.8536,-329.6106 408.7129,-322.862"/>
</g>
<!-- MCP3xxx&#45;&gt;AnalogInputDevice -->
<g id="edge19" class="edge">
<title>MCP3xxx&#45;&gt;AnalogInputDevice</title>
<path fill="none" stroke="#000000" d="M335.7107,-315C327.8435,-315 319.1065,-315 310.2557,-315"/>
<polygon fill="#000000" stroke="#000000" points="310.2547,-311.5001 300.2547,-315 310.2547,-318.5001 310.2547,-311.5001"/>
</g>
<!-- SPIDevice&#45;&gt;Device -->
<g id="edge20" class="edge">
<title>SPIDevice&#45;&gt;Device</title>
<path fill="none" stroke="#000000" d="M89.9014,-315C81.6038,-315 72.6251,-315 64.1204,-315"/>
<polygon fill="#000000" stroke="#000000" points="64.0592,-311.5001 54.0592,-315 64.0592,-318.5001 64.0592,-311.5001"/>
</g>
<!-- MCP3001 -->
<g id="node9" class="node">
<title>MCP3001</title>
<polygon fill="#2980b9" stroke="#2980b9" points="594,-576 532,-576 532,-540 594,-540 594,-576"/>
<text text-anchor="middle" x="563" y="-555.5" font-family="Sans" font-size="10.00" fill="#ffffff">MCP3001</text>
</g>
<!-- MCP3001&#45;&gt;MCP30xx -->
<g id="edge2" class="edge">
<title>MCP3001&#45;&gt;MCP30xx</title>
<path fill="none" stroke="#000000" d="M541.2384,-539.8492C538.0611,-536.971 534.8896,-533.9641 532,-531 515.0767,-513.6403 497.6754,-492.4856 484.8493,-476.1491"/>
<polygon fill="#000000" stroke="#000000" points="487.4863,-473.8385 478.5859,-468.0911 481.9595,-478.1344 487.4863,-473.8385"/>
</g>
<!-- MCP3002 -->
<g id="node10" class="node">
<title>MCP3002</title>
<polygon fill="#2980b9" stroke="#2980b9" points="594,-414 532,-414 532,-378 594,-378 594,-414"/>
<text text-anchor="middle" x="563" y="-393.5" font-family="Sans" font-size="10.00" fill="#ffffff">MCP3002</text>
</g>
<!-- MCP3002&#45;&gt;MCP30xx -->
<g id="edge3" class="edge">
<title>MCP3002&#45;&gt;MCP30xx</title>
<path fill="none" stroke="#000000" d="M531.9922,-413.0859C523.4126,-417.8135 513.9783,-423.012 504.9664,-427.9777"/>
<polygon fill="#000000" stroke="#000000" points="503.2117,-424.9483 496.1425,-432.8399 506.59,-431.0792 503.2117,-424.9483"/>
</g>
<!-- MCP3002&#45;&gt;MCP3xx2 -->
<g id="edge4" class="edge">
<title>MCP3002&#45;&gt;MCP3xx2</title>
<path fill="none" stroke="#000000" d="M531.9922,-378.9141C523.4126,-374.1865 513.9783,-368.988 504.9664,-364.0223"/>
<polygon fill="#000000" stroke="#000000" points="506.59,-360.9208 496.1425,-359.1601 503.2117,-367.0517 506.59,-360.9208"/>
</g>
<!-- MCP3004 -->
<g id="node11" class="node">
<title>MCP3004</title>
<polygon fill="#2980b9" stroke="#2980b9" points="594,-522 532,-522 532,-486 594,-486 594,-522"/>
<text text-anchor="middle" x="563" y="-501.5" font-family="Sans" font-size="10.00" fill="#ffffff">MCP3004</text>
</g>
<!-- MCP3004&#45;&gt;MCP30xx -->
<g id="edge5" class="edge">
<title>MCP3004&#45;&gt;MCP30xx</title>
<path fill="none" stroke="#000000" d="M531.9922,-486.9141C523.4126,-482.1865 513.9783,-476.988 504.9664,-472.0223"/>
<polygon fill="#000000" stroke="#000000" points="506.59,-468.9208 496.1425,-467.1601 503.2117,-475.0517 506.59,-468.9208"/>
</g>
<!-- MCP3008 -->
<g id="node12" class="node">
<title>MCP3008</title>
<polygon fill="#2980b9" stroke="#2980b9" points="594,-468 532,-468 532,-432 594,-432 594,-468"/>
<text text-anchor="middle" x="563" y="-447.5" font-family="Sans" font-size="10.00" fill="#ffffff">MCP3008</text>
</g>
<!-- MCP3008&#45;&gt;MCP30xx -->
<g id="edge6" class="edge">
<title>MCP3008&#45;&gt;MCP30xx</title>
<path fill="none" stroke="#000000" d="M531.9922,-450C523.8594,-450 514.9587,-450 506.3777,-450"/>
<polygon fill="#000000" stroke="#000000" points="506.1425,-446.5001 496.1425,-450 506.1424,-453.5001 506.1425,-446.5001"/>
</g>
<!-- MCP3201 -->
<g id="node13" class="node">
<title>MCP3201</title>
<polygon fill="#2980b9" stroke="#2980b9" points="594,-306 532,-306 532,-270 594,-270 594,-306"/>
<text text-anchor="middle" x="563" y="-285.5" font-family="Sans" font-size="10.00" fill="#ffffff">MCP3201</text>
</g>
<!-- MCP3201&#45;&gt;MCP32xx -->
<g id="edge8" class="edge">
<title>MCP3201&#45;&gt;MCP32xx</title>
<path fill="none" stroke="#000000" d="M531.9922,-288C523.8594,-288 514.9587,-288 506.3777,-288"/>
<polygon fill="#000000" stroke="#000000" points="506.1425,-284.5001 496.1425,-288 506.1424,-291.5001 506.1425,-284.5001"/>
</g>
<!-- MCP3202 -->
<g id="node14" class="node">
<title>MCP3202</title>
<polygon fill="#2980b9" stroke="#2980b9" points="594,-360 532,-360 532,-324 594,-324 594,-360"/>
<text text-anchor="middle" x="563" y="-339.5" font-family="Sans" font-size="10.00" fill="#ffffff">MCP3202</text>
</g>
<!-- MCP3202&#45;&gt;MCP32xx -->
<g id="edge9" class="edge">
<title>MCP3202&#45;&gt;MCP32xx</title>
<path fill="none" stroke="#000000" d="M531.9922,-324.9141C523.4126,-320.1865 513.9783,-314.988 504.9664,-310.0223"/>
<polygon fill="#000000" stroke="#000000" points="506.59,-306.9208 496.1425,-305.1601 503.2117,-313.0517 506.59,-306.9208"/>
</g>
<!-- MCP3202&#45;&gt;MCP3xx2 -->
<g id="edge10" class="edge">
<title>MCP3202&#45;&gt;MCP3xx2</title>
<path fill="none" stroke="#000000" d="M531.9922,-342C523.8594,-342 514.9587,-342 506.3777,-342"/>
<polygon fill="#000000" stroke="#000000" points="506.1425,-338.5001 496.1425,-342 506.1424,-345.5001 506.1425,-338.5001"/>
</g>
<!-- MCP3204 -->
<g id="node15" class="node">
<title>MCP3204</title>
<polygon fill="#2980b9" stroke="#2980b9" points="594,-252 532,-252 532,-216 594,-216 594,-252"/>
<text text-anchor="middle" x="563" y="-231.5" font-family="Sans" font-size="10.00" fill="#ffffff">MCP3204</text>
</g>
<!-- MCP3204&#45;&gt;MCP32xx -->
<g id="edge11" class="edge">
<title>MCP3204&#45;&gt;MCP32xx</title>
<path fill="none" stroke="#000000" d="M531.9922,-251.0859C523.4126,-255.8135 513.9783,-261.012 504.9664,-265.9777"/>
<polygon fill="#000000" stroke="#000000" points="503.2117,-262.9483 496.1425,-270.8399 506.59,-269.0792 503.2117,-262.9483"/>
</g>
<!-- MCP3208 -->
<g id="node16" class="node">
<title>MCP3208</title>
<polygon fill="#2980b9" stroke="#2980b9" points="594,-198 532,-198 532,-162 594,-162 594,-198"/>
<text text-anchor="middle" x="563" y="-177.5" font-family="Sans" font-size="10.00" fill="#ffffff">MCP3208</text>
</g>
<!-- MCP3208&#45;&gt;MCP32xx -->
<g id="edge12" class="edge">
<title>MCP3208&#45;&gt;MCP32xx</title>
<path fill="none" stroke="#000000" d="M541.2384,-198.1508C538.0611,-201.029 534.8896,-204.0359 532,-207 515.0767,-224.3597 497.6754,-245.5144 484.8493,-261.8509"/>
<polygon fill="#000000" stroke="#000000" points="481.9595,-259.8656 478.5859,-269.9089 487.4863,-264.1615 481.9595,-259.8656"/>
</g>
<!-- MCP3301 -->
<g id="node17" class="node">
<title>MCP3301</title>
<polygon fill="#2980b9" stroke="#2980b9" points="594,-144 532,-144 532,-108 594,-108 594,-144"/>
<text text-anchor="middle" x="563" y="-123.5" font-family="Sans" font-size="10.00" fill="#ffffff">MCP3301</text>
</g>
<!-- MCP3301&#45;&gt;MCP33xx -->
<g id="edge14" class="edge">
<title>MCP3301&#45;&gt;MCP33xx</title>
<path fill="none" stroke="#000000" d="M531.9922,-117.457C523.6807,-115.1671 514.5671,-112.6562 505.8124,-110.2442"/>
<polygon fill="#000000" stroke="#000000" points="506.7129,-106.862 496.1425,-107.5801 504.8536,-113.6106 506.7129,-106.862"/>
</g>
<!-- MCP3302 -->
<g id="node18" class="node">
<title>MCP3302</title>
<polygon fill="#2980b9" stroke="#2980b9" points="594,-90 532,-90 532,-54 594,-54 594,-90"/>
<text text-anchor="middle" x="563" y="-69.5" font-family="Sans" font-size="10.00" fill="#ffffff">MCP3302</text>
</g>
<!-- MCP3302&#45;&gt;MCP33xx -->
<g id="edge15" class="edge">
<title>MCP3302&#45;&gt;MCP33xx</title>
<path fill="none" stroke="#000000" d="M531.9922,-80.543C523.6807,-82.8329 514.5671,-85.3438 505.8124,-87.7558"/>
<polygon fill="#000000" stroke="#000000" points="504.8536,-84.3894 496.1425,-90.4199 506.7129,-91.138 504.8536,-84.3894"/>
</g>
<!-- MCP3304 -->
<g id="node19" class="node">
<title>MCP3304</title>
<polygon fill="#2980b9" stroke="#2980b9" points="594,-36 532,-36 532,0 594,0 594,-36"/>
<text text-anchor="middle" x="563" y="-15.5" font-family="Sans" font-size="10.00" fill="#ffffff">MCP3304</text>
</g>
<!-- MCP3304&#45;&gt;MCP33xx -->
<g id="edge16" class="edge">
<title>MCP3304&#45;&gt;MCP33xx</title>
<path fill="none" stroke="#000000" d="M540.7623,-36.3802C527.1347,-47.6438 509.5233,-62.2002 494.7105,-74.4434"/>
<polygon fill="#000000" stroke="#000000" points="492.2903,-71.9029 486.8121,-80.9716 496.7499,-77.2985 492.2903,-71.9029"/>
</g>
</g>
</svg>
